G04 #@! TF.GenerationSoftware,KiCad,Pcbnew,8.0.7*
G04 #@! TF.CreationDate,2025-01-18T00:35:04-05:00*
G04 #@! TF.ProjectId,Mouse,4d6f7573-652e-46b6-9963-61645f706362,rev?*
G04 #@! TF.SameCoordinates,Original*
G04 #@! TF.FileFunction,Copper,L2,Bot*
G04 #@! TF.FilePolarity,Positive*
%FSLAX46Y46*%
G04 Gerber Fmt 4.6, Leading zero omitted, Abs format (unit mm)*
G04 Created by KiCad (PCBNEW 8.0.7) date 2025-01-18 00:35:04*
%MOMM*%
%LPD*%
G01*
G04 APERTURE LIST*
G04 #@! TA.AperFunction,ComponentPad*
%ADD10C,1.700000*%
G04 #@! TD*
G04 #@! TA.AperFunction,ComponentPad*
%ADD11R,1.100000X1.100000*%
G04 #@! TD*
G04 #@! TA.AperFunction,ComponentPad*
%ADD12C,1.100000*%
G04 #@! TD*
G04 #@! TA.AperFunction,ComponentPad*
%ADD13C,2.000000*%
G04 #@! TD*
G04 #@! TA.AperFunction,ComponentPad*
%ADD14R,2.000000X2.000000*%
G04 #@! TD*
G04 #@! TA.AperFunction,ComponentPad*
%ADD15C,1.400000*%
G04 #@! TD*
G04 #@! TA.AperFunction,ComponentPad*
%ADD16O,1.400000X1.400000*%
G04 #@! TD*
G04 #@! TA.AperFunction,ComponentPad*
%ADD17C,1.600000*%
G04 #@! TD*
G04 #@! TA.AperFunction,ComponentPad*
%ADD18O,1.600000X1.600000*%
G04 #@! TD*
G04 #@! TA.AperFunction,ComponentPad*
%ADD19R,1.800000X1.800000*%
G04 #@! TD*
G04 #@! TA.AperFunction,ComponentPad*
%ADD20C,1.800000*%
G04 #@! TD*
G04 #@! TA.AperFunction,ViaPad*
%ADD21C,0.700000*%
G04 #@! TD*
G04 #@! TA.AperFunction,Conductor*
%ADD22C,0.200000*%
G04 #@! TD*
G04 APERTURE END LIST*
D10*
X175250000Y-112250000D03*
X172750000Y-112250000D03*
X170250000Y-112250000D03*
D11*
X202440000Y-64100000D03*
D12*
X200660000Y-64100000D03*
X198880000Y-64100000D03*
X197100000Y-64100000D03*
X195320000Y-64100000D03*
X193540000Y-64100000D03*
X191760000Y-64100000D03*
X189980000Y-64100000D03*
X189090000Y-74800000D03*
X190870000Y-74800000D03*
X192650000Y-74800000D03*
X194430000Y-74800000D03*
X196210000Y-74800000D03*
X197990000Y-74800000D03*
X199770000Y-74800000D03*
X201550000Y-74800000D03*
D13*
X161500000Y-75600000D03*
X173500000Y-75600000D03*
X161500000Y-80400000D03*
X173500000Y-80400000D03*
X206750000Y-93300000D03*
X206750000Y-89250000D03*
D14*
X143250000Y-86850000D03*
D13*
X148350000Y-86850000D03*
X153450000Y-86850000D03*
D14*
X140150000Y-79000000D03*
D13*
X145250000Y-79000000D03*
X150350000Y-79000000D03*
D14*
X153765000Y-65395000D03*
D13*
X158865000Y-65395000D03*
X163965000Y-65395000D03*
X163965000Y-57500000D03*
X158865000Y-57500000D03*
D14*
X153765000Y-57500000D03*
D13*
X200500000Y-54000000D03*
X156735000Y-88755000D03*
X153635000Y-80755000D03*
X175250000Y-108500000D03*
X167250000Y-67250000D03*
X167250000Y-59205000D03*
X172250000Y-108500000D03*
X191250000Y-78000000D03*
X184000000Y-66900000D03*
X197100000Y-54031000D03*
X194500000Y-78000000D03*
X197750000Y-78000000D03*
X206750000Y-97250000D03*
D15*
X207500000Y-68690000D03*
D16*
X207500000Y-76310000D03*
D15*
X163500000Y-107810000D03*
D16*
X163500000Y-100190000D03*
D15*
X161250000Y-107810000D03*
D16*
X161250000Y-100190000D03*
D17*
X158500000Y-110330000D03*
D18*
X158500000Y-100170000D03*
D17*
X184000000Y-73420000D03*
D18*
X184000000Y-83580000D03*
D17*
X180590000Y-105725000D03*
D18*
X190750000Y-105725000D03*
D17*
X185420000Y-99500000D03*
D18*
X195580000Y-99500000D03*
D15*
X195940000Y-92250000D03*
D16*
X203560000Y-92250000D03*
D15*
X203560000Y-89750000D03*
D16*
X195940000Y-89750000D03*
D19*
X158510000Y-95750000D03*
D20*
X160669000Y-95750000D03*
X162828000Y-95750000D03*
X164987000Y-95750000D03*
D19*
X180750000Y-102000000D03*
D20*
X180750000Y-99460000D03*
D21*
X203600000Y-58000000D03*
X211500000Y-60700000D03*
X178500000Y-92800000D03*
X184242284Y-91500000D03*
X182300000Y-87100000D03*
X179800000Y-88000000D03*
X187374265Y-87574265D03*
X176293324Y-97893324D03*
X178859620Y-100559620D03*
X208600000Y-87700000D03*
X197500000Y-82100000D03*
X174500000Y-96350000D03*
X173300000Y-95100000D03*
X187900000Y-85200000D03*
X187804845Y-82704845D03*
X187227640Y-85827640D03*
X187229110Y-84129110D03*
X168153984Y-108153984D03*
X167000000Y-109360000D03*
X189500000Y-89500000D03*
X189500000Y-87900000D03*
X166200000Y-80400000D03*
X169800000Y-80400000D03*
D22*
X166200000Y-80400000D02*
X169800000Y-80400000D01*
X201069000Y-58000000D02*
X197100000Y-54031000D01*
X203600000Y-58000000D02*
X201069000Y-58000000D01*
X211500000Y-60700000D02*
X198802500Y-60700000D01*
X198802500Y-60700000D02*
X195342500Y-64160000D01*
X179851471Y-87100000D02*
X182300000Y-87100000D01*
X178500000Y-92800000D02*
X178500000Y-88451471D01*
X178500000Y-88451471D02*
X179851471Y-87100000D01*
X183300000Y-91500000D02*
X184242284Y-91500000D01*
X179800000Y-88000000D02*
X183300000Y-91500000D01*
X186900000Y-87100000D02*
X187374265Y-87574265D01*
X182300000Y-87100000D02*
X186900000Y-87100000D01*
X187700000Y-87900000D02*
X189500000Y-87900000D01*
X187374265Y-87574265D02*
X187700000Y-87900000D01*
X178859620Y-100559620D02*
X176293324Y-97993324D01*
X176293324Y-97993324D02*
X176293324Y-97893324D01*
X174500000Y-96300000D02*
X173300000Y-95100000D01*
X174500000Y-96350000D02*
X174500000Y-96300000D01*
X187804845Y-82704845D02*
X187900000Y-82800000D01*
X187900000Y-82800000D02*
X187900000Y-85200000D01*
X187229110Y-85826170D02*
X187227640Y-85827640D01*
X187229110Y-84129110D02*
X187229110Y-85826170D01*
X167000000Y-109360000D02*
X167000000Y-109307968D01*
X167000000Y-109307968D02*
X168153984Y-108153984D01*
X189500000Y-87900000D02*
X189500000Y-89500000D01*
G04 #@! TA.AperFunction,Conductor*
G36*
X215942539Y-51520185D02*
G01*
X215988294Y-51572989D01*
X215999500Y-51624500D01*
X215999500Y-116375500D01*
X215979815Y-116442539D01*
X215927011Y-116488294D01*
X215875500Y-116499500D01*
X138624500Y-116499500D01*
X138557461Y-116479815D01*
X138511706Y-116427011D01*
X138500500Y-116375500D01*
X138500500Y-113134108D01*
X166849500Y-113134108D01*
X166849500Y-115365891D01*
X166883608Y-115493187D01*
X166916554Y-115550250D01*
X166949500Y-115607314D01*
X167042686Y-115700500D01*
X167156814Y-115766392D01*
X167284108Y-115800500D01*
X167284110Y-115800500D01*
X169215890Y-115800500D01*
X169215892Y-115800500D01*
X169343186Y-115766392D01*
X169457314Y-115700500D01*
X169550500Y-115607314D01*
X169616392Y-115493186D01*
X169650500Y-115365892D01*
X169650500Y-113648587D01*
X169670185Y-113581548D01*
X169722989Y-113535793D01*
X169792147Y-113525849D01*
X169806594Y-113528812D01*
X170014677Y-113584568D01*
X170014684Y-113584569D01*
X170249998Y-113605157D01*
X170250002Y-113605157D01*
X170485315Y-113584569D01*
X170485326Y-113584567D01*
X170713483Y-113523433D01*
X170713492Y-113523429D01*
X170927580Y-113423599D01*
X171011371Y-113364925D01*
X170379408Y-112732962D01*
X170442993Y-112715925D01*
X170557007Y-112650099D01*
X170650099Y-112557007D01*
X170715925Y-112442993D01*
X170732962Y-112379408D01*
X171364925Y-113011372D01*
X171398120Y-112963967D01*
X171452697Y-112920342D01*
X171522196Y-112913150D01*
X171584550Y-112944673D01*
X171601268Y-112963967D01*
X171711505Y-113121401D01*
X171878599Y-113288495D01*
X171975384Y-113356265D01*
X172072165Y-113424032D01*
X172072167Y-113424033D01*
X172072170Y-113424035D01*
X172286337Y-113523903D01*
X172286343Y-113523904D01*
X172286344Y-113523905D01*
X172330712Y-113535793D01*
X172514592Y-113585063D01*
X172702918Y-113601539D01*
X172749999Y-113605659D01*
X172750000Y-113605659D01*
X172750001Y-113605659D01*
X172789234Y-113602226D01*
X172985408Y-113585063D01*
X173213663Y-113523903D01*
X173427830Y-113424035D01*
X173621401Y-113288495D01*
X173788495Y-113121401D01*
X173898425Y-112964405D01*
X173953002Y-112920780D01*
X174022500Y-112913586D01*
X174084855Y-112945109D01*
X174101575Y-112964405D01*
X174211505Y-113121401D01*
X174378599Y-113288495D01*
X174475384Y-113356265D01*
X174572165Y-113424032D01*
X174572167Y-113424033D01*
X174572170Y-113424035D01*
X174786337Y-113523903D01*
X174786343Y-113523904D01*
X174786344Y-113523905D01*
X174830712Y-113535793D01*
X175014592Y-113585063D01*
X175202918Y-113601539D01*
X175249999Y-113605659D01*
X175250000Y-113605659D01*
X175250001Y-113605659D01*
X175289234Y-113602226D01*
X175485408Y-113585063D01*
X175693408Y-113529330D01*
X175763256Y-113530993D01*
X175821119Y-113570156D01*
X175848623Y-113634384D01*
X175849500Y-113649105D01*
X175849500Y-115365891D01*
X175883608Y-115493187D01*
X175916554Y-115550250D01*
X175949500Y-115607314D01*
X176042686Y-115700500D01*
X176156814Y-115766392D01*
X176284108Y-115800500D01*
X176284110Y-115800500D01*
X178215890Y-115800500D01*
X178215892Y-115800500D01*
X178343186Y-115766392D01*
X178457314Y-115700500D01*
X178550500Y-115607314D01*
X178616392Y-115493186D01*
X178650500Y-115365892D01*
X178650500Y-113134108D01*
X178616392Y-113006814D01*
X178550500Y-112892686D01*
X178457314Y-112799500D01*
X178371578Y-112750000D01*
X178343187Y-112733608D01*
X178279539Y-112716554D01*
X178215892Y-112699500D01*
X178215891Y-112699500D01*
X176689297Y-112699500D01*
X176622258Y-112679815D01*
X176576503Y-112627011D01*
X176566559Y-112557853D01*
X176569522Y-112543407D01*
X176585063Y-112485408D01*
X176605659Y-112250000D01*
X176585063Y-112014592D01*
X176523903Y-111786337D01*
X176424035Y-111572171D01*
X176413230Y-111556739D01*
X176288494Y-111378597D01*
X176121402Y-111211506D01*
X176121395Y-111211501D01*
X175927834Y-111075967D01*
X175927830Y-111075965D01*
X175927828Y-111075964D01*
X175713663Y-110976097D01*
X175713659Y-110976096D01*
X175713655Y-110976094D01*
X175485413Y-110914938D01*
X175485403Y-110914936D01*
X175250001Y-110894341D01*
X175249999Y-110894341D01*
X175014596Y-110914936D01*
X175014586Y-110914938D01*
X174786344Y-110976094D01*
X174786335Y-110976098D01*
X174572171Y-111075964D01*
X174572169Y-111075965D01*
X174378597Y-111211505D01*
X174211505Y-111378597D01*
X174101575Y-111535595D01*
X174046998Y-111579220D01*
X173977500Y-111586414D01*
X173915145Y-111554891D01*
X173898425Y-111535595D01*
X173788494Y-111378597D01*
X173621402Y-111211506D01*
X173621395Y-111211501D01*
X173427834Y-111075967D01*
X173427830Y-111075965D01*
X173427828Y-111075964D01*
X173213663Y-110976097D01*
X173213659Y-110976096D01*
X173213655Y-110976094D01*
X172985413Y-110914938D01*
X172985403Y-110914936D01*
X172750001Y-110894341D01*
X172749999Y-110894341D01*
X172514596Y-110914936D01*
X172514586Y-110914938D01*
X172286344Y-110976094D01*
X172286335Y-110976098D01*
X172072171Y-111075964D01*
X172072169Y-111075965D01*
X171878597Y-111211505D01*
X171711508Y-111378594D01*
X171601269Y-111536032D01*
X171546692Y-111579656D01*
X171477193Y-111586849D01*
X171414839Y-111555327D01*
X171398119Y-111536032D01*
X171364925Y-111488626D01*
X170732962Y-112120590D01*
X170715925Y-112057007D01*
X170650099Y-111942993D01*
X170557007Y-111849901D01*
X170442993Y-111784075D01*
X170379409Y-111767037D01*
X171011372Y-111135073D01*
X170927576Y-111076398D01*
X170713492Y-110976570D01*
X170713483Y-110976566D01*
X170485326Y-110915432D01*
X170485315Y-110915430D01*
X170250002Y-110894843D01*
X170249998Y-110894843D01*
X170014684Y-110915430D01*
X170014673Y-110915432D01*
X169786516Y-110976566D01*
X169786507Y-110976570D01*
X169572423Y-111076399D01*
X169572421Y-111076400D01*
X169488627Y-111135073D01*
X169488626Y-111135073D01*
X170120591Y-111767037D01*
X170057007Y-111784075D01*
X169942993Y-111849901D01*
X169849901Y-111942993D01*
X169784075Y-112057007D01*
X169767037Y-112120591D01*
X169135073Y-111488626D01*
X169135073Y-111488627D01*
X169076400Y-111572421D01*
X169076399Y-111572423D01*
X168976570Y-111786507D01*
X168976566Y-111786516D01*
X168915432Y-112014673D01*
X168915430Y-112014684D01*
X168894843Y-112249998D01*
X168894843Y-112250001D01*
X168915430Y-112485315D01*
X168915432Y-112485326D01*
X168930995Y-112543407D01*
X168929332Y-112613257D01*
X168890169Y-112671119D01*
X168825941Y-112698623D01*
X168811220Y-112699500D01*
X167284108Y-112699500D01*
X167156812Y-112733608D01*
X167042686Y-112799500D01*
X167042683Y-112799502D01*
X166949502Y-112892683D01*
X166949500Y-112892686D01*
X166883608Y-113006812D01*
X166849500Y-113134108D01*
X138500500Y-113134108D01*
X138500500Y-110329998D01*
X157194532Y-110329998D01*
X157194532Y-110330001D01*
X157214364Y-110556686D01*
X157214366Y-110556697D01*
X157273258Y-110776488D01*
X157273261Y-110776497D01*
X157369431Y-110982732D01*
X157369432Y-110982734D01*
X157499954Y-111169141D01*
X157660858Y-111330045D01*
X157660861Y-111330047D01*
X157847266Y-111460568D01*
X158053504Y-111556739D01*
X158273308Y-111615635D01*
X158435230Y-111629801D01*
X158499998Y-111635468D01*
X158500000Y-111635468D01*
X158500002Y-111635468D01*
X158556673Y-111630509D01*
X158726692Y-111615635D01*
X158946496Y-111556739D01*
X159152734Y-111460568D01*
X159339139Y-111330047D01*
X159500047Y-111169139D01*
X159630568Y-110982734D01*
X159726739Y-110776496D01*
X159785635Y-110556692D01*
X159805468Y-110330000D01*
X159785635Y-110103308D01*
X159726739Y-109883504D01*
X159630568Y-109677266D01*
X159500047Y-109490861D01*
X159500045Y-109490858D01*
X159369187Y-109360000D01*
X166144815Y-109360000D01*
X166163503Y-109537805D01*
X166163504Y-109537807D01*
X166218747Y-109707829D01*
X166218750Y-109707835D01*
X166308141Y-109862665D01*
X166326903Y-109883502D01*
X166427764Y-109995521D01*
X166427767Y-109995523D01*
X166427770Y-109995526D01*
X166572407Y-110100612D01*
X166735733Y-110173329D01*
X166910609Y-110210500D01*
X166910610Y-110210500D01*
X167089389Y-110210500D01*
X167089391Y-110210500D01*
X167264267Y-110173329D01*
X167427593Y-110100612D01*
X167572230Y-109995526D01*
X167691859Y-109862665D01*
X167781250Y-109707835D01*
X167836497Y-109537803D01*
X167855185Y-109360000D01*
X167855185Y-109359996D01*
X167855185Y-109353501D01*
X167858268Y-109353501D01*
X167868256Y-109297951D01*
X167891486Y-109265715D01*
X168116401Y-109040800D01*
X168177723Y-109007318D01*
X168204081Y-109004484D01*
X168243373Y-109004484D01*
X168243375Y-109004484D01*
X168418251Y-108967313D01*
X168581577Y-108894596D01*
X168726214Y-108789510D01*
X168741869Y-108772124D01*
X168763759Y-108747812D01*
X168845843Y-108656649D01*
X168935234Y-108501819D01*
X168935827Y-108499994D01*
X170744357Y-108499994D01*
X170744357Y-108500005D01*
X170764890Y-108747812D01*
X170764892Y-108747824D01*
X170825936Y-108988881D01*
X170925826Y-109216606D01*
X171061833Y-109424782D01*
X171061836Y-109424785D01*
X171230256Y-109607738D01*
X171426491Y-109760474D01*
X171645190Y-109878828D01*
X171880386Y-109959571D01*
X172125665Y-110000500D01*
X172374335Y-110000500D01*
X172619614Y-109959571D01*
X172854810Y-109878828D01*
X173073509Y-109760474D01*
X173269744Y-109607738D01*
X173438164Y-109424785D01*
X173574173Y-109216607D01*
X173636444Y-109074644D01*
X173681400Y-109021158D01*
X173748136Y-109000468D01*
X173815464Y-109019143D01*
X173862007Y-109071253D01*
X173863556Y-109074644D01*
X173925826Y-109216606D01*
X174061833Y-109424782D01*
X174061836Y-109424785D01*
X174230256Y-109607738D01*
X174426491Y-109760474D01*
X174645190Y-109878828D01*
X174880386Y-109959571D01*
X175125665Y-110000500D01*
X175374335Y-110000500D01*
X175619614Y-109959571D01*
X175854810Y-109878828D01*
X176073509Y-109760474D01*
X176269744Y-109607738D01*
X176438164Y-109424785D01*
X176574173Y-109216607D01*
X176674063Y-108988881D01*
X176735108Y-108747821D01*
X176745514Y-108622238D01*
X176755643Y-108500005D01*
X176755643Y-108499994D01*
X176735109Y-108252187D01*
X176735107Y-108252175D01*
X176674063Y-108011118D01*
X176574173Y-107783393D01*
X176438166Y-107575217D01*
X176385916Y-107518459D01*
X176269744Y-107392262D01*
X176073509Y-107239526D01*
X176073507Y-107239525D01*
X176073506Y-107239524D01*
X175854811Y-107121172D01*
X175854802Y-107121169D01*
X175619616Y-107040429D01*
X175374335Y-106999500D01*
X175125665Y-106999500D01*
X174880383Y-107040429D01*
X174645197Y-107121169D01*
X174645188Y-107121172D01*
X174426493Y-107239524D01*
X174230257Y-107392261D01*
X174061833Y-107575217D01*
X173925826Y-107783393D01*
X173863556Y-107925355D01*
X173818600Y-107978841D01*
X173751864Y-107999531D01*
X173684536Y-107980856D01*
X173637993Y-107928746D01*
X173636444Y-107925355D01*
X173574173Y-107783393D01*
X173438166Y-107575217D01*
X173385916Y-107518459D01*
X173269744Y-107392262D01*
X173073509Y-107239526D01*
X173073507Y-107239525D01*
X173073506Y-107239524D01*
X172854811Y-107121172D01*
X172854802Y-107121169D01*
X172619616Y-107040429D01*
X172374335Y-106999500D01*
X172125665Y-106999500D01*
X171880383Y-107040429D01*
X171645197Y-107121169D01*
X171645188Y-107121172D01*
X171426493Y-107239524D01*
X171230257Y-107392261D01*
X171061833Y-107575217D01*
X170925826Y-107783393D01*
X170825936Y-108011118D01*
X170764892Y-108252175D01*
X170764890Y-108252187D01*
X170744357Y-108499994D01*
X168935827Y-108499994D01*
X168990481Y-108331787D01*
X169009169Y-108153984D01*
X168990481Y-107976181D01*
X168962857Y-107891165D01*
X168935236Y-107806154D01*
X168935233Y-107806148D01*
X168845843Y-107651319D01*
X168789246Y-107588462D01*
X168726219Y-107518462D01*
X168726216Y-107518460D01*
X168726215Y-107518459D01*
X168726214Y-107518458D01*
X168581577Y-107413372D01*
X168418251Y-107340655D01*
X168418249Y-107340654D01*
X168290578Y-107313517D01*
X168243375Y-107303484D01*
X168064593Y-107303484D01*
X168033938Y-107309999D01*
X167889717Y-107340654D01*
X167889712Y-107340656D01*
X167726392Y-107413371D01*
X167581752Y-107518459D01*
X167462124Y-107651320D01*
X167372734Y-107806148D01*
X167372731Y-107806154D01*
X167317488Y-107976176D01*
X167317487Y-107976179D01*
X167302690Y-108116962D01*
X167276105Y-108181577D01*
X167267050Y-108191681D01*
X166984818Y-108473914D01*
X166923495Y-108507399D01*
X166911150Y-108509385D01*
X166735733Y-108546670D01*
X166735728Y-108546672D01*
X166572408Y-108619387D01*
X166427768Y-108724475D01*
X166308140Y-108857336D01*
X166218750Y-109012164D01*
X166218747Y-109012170D01*
X166163504Y-109182192D01*
X166163503Y-109182194D01*
X166144815Y-109360000D01*
X159369187Y-109360000D01*
X159339141Y-109329954D01*
X159152734Y-109199432D01*
X159152732Y-109199431D01*
X158946497Y-109103261D01*
X158946488Y-109103258D01*
X158726697Y-109044366D01*
X158726693Y-109044365D01*
X158726692Y-109044365D01*
X158726691Y-109044364D01*
X158726686Y-109044364D01*
X158500002Y-109024532D01*
X158499998Y-109024532D01*
X158273313Y-109044364D01*
X158273302Y-109044366D01*
X158053511Y-109103258D01*
X158053502Y-109103261D01*
X157847267Y-109199431D01*
X157847265Y-109199432D01*
X157660858Y-109329954D01*
X157499954Y-109490858D01*
X157369432Y-109677265D01*
X157369431Y-109677267D01*
X157273261Y-109883502D01*
X157273258Y-109883511D01*
X157214366Y-110103302D01*
X157214364Y-110103313D01*
X157194532Y-110329998D01*
X138500500Y-110329998D01*
X138500500Y-107809999D01*
X160044357Y-107809999D01*
X160044357Y-107810000D01*
X160064884Y-108031535D01*
X160064885Y-108031537D01*
X160125769Y-108245523D01*
X160125775Y-108245538D01*
X160224938Y-108444683D01*
X160224943Y-108444691D01*
X160359020Y-108622238D01*
X160523437Y-108772123D01*
X160523439Y-108772125D01*
X160712595Y-108889245D01*
X160712596Y-108889245D01*
X160712599Y-108889247D01*
X160920060Y-108969618D01*
X161138757Y-109010500D01*
X161138759Y-109010500D01*
X161361241Y-109010500D01*
X161361243Y-109010500D01*
X161579940Y-108969618D01*
X161787401Y-108889247D01*
X161976562Y-108772124D01*
X162140981Y-108622236D01*
X162252988Y-108473914D01*
X162276046Y-108443381D01*
X162332155Y-108401744D01*
X162401866Y-108397052D01*
X162463049Y-108430795D01*
X162473954Y-108443381D01*
X162609017Y-108622234D01*
X162609019Y-108622237D01*
X162773437Y-108772123D01*
X162773439Y-108772125D01*
X162962595Y-108889245D01*
X162962596Y-108889245D01*
X162962599Y-108889247D01*
X163170060Y-108969618D01*
X163388757Y-109010500D01*
X163388759Y-109010500D01*
X163611241Y-109010500D01*
X163611243Y-109010500D01*
X163829940Y-108969618D01*
X164037401Y-108889247D01*
X164226562Y-108772124D01*
X164390981Y-108622236D01*
X164525058Y-108444689D01*
X164624229Y-108245528D01*
X164685115Y-108031536D01*
X164705643Y-107810000D01*
X164685115Y-107588464D01*
X164624229Y-107374472D01*
X164607391Y-107340656D01*
X164525061Y-107175316D01*
X164525056Y-107175308D01*
X164390979Y-106997761D01*
X164226562Y-106847876D01*
X164226560Y-106847874D01*
X164037404Y-106730754D01*
X164037398Y-106730752D01*
X164022672Y-106725047D01*
X163829940Y-106650382D01*
X163611243Y-106609500D01*
X163388757Y-106609500D01*
X163170060Y-106650382D01*
X163038864Y-106701207D01*
X162962601Y-106730752D01*
X162962595Y-106730754D01*
X162773439Y-106847874D01*
X162773437Y-106847876D01*
X162609020Y-106997761D01*
X162473954Y-107176619D01*
X162417845Y-107218255D01*
X162348133Y-107222946D01*
X162286951Y-107189204D01*
X162276046Y-107176619D01*
X162140979Y-106997761D01*
X161976562Y-106847876D01*
X161976560Y-106847874D01*
X161787404Y-106730754D01*
X161787398Y-106730752D01*
X161772672Y-106725047D01*
X161579940Y-106650382D01*
X161361243Y-106609500D01*
X161138757Y-106609500D01*
X160920060Y-106650382D01*
X160788864Y-106701207D01*
X160712601Y-106730752D01*
X160712595Y-106730754D01*
X160523439Y-106847874D01*
X160523437Y-106847876D01*
X160359020Y-106997761D01*
X160224943Y-107175308D01*
X160224938Y-107175316D01*
X160125775Y-107374461D01*
X160125769Y-107374476D01*
X160064885Y-107588462D01*
X160064884Y-107588464D01*
X160044357Y-107809999D01*
X138500500Y-107809999D01*
X138500500Y-105724998D01*
X179284532Y-105724998D01*
X179284532Y-105725001D01*
X179304364Y-105951686D01*
X179304366Y-105951697D01*
X179363258Y-106171488D01*
X179363261Y-106171497D01*
X179459431Y-106377732D01*
X179459432Y-106377734D01*
X179589954Y-106564141D01*
X179750858Y-106725045D01*
X179797693Y-106757839D01*
X179937266Y-106855568D01*
X180143504Y-106951739D01*
X180363308Y-107010635D01*
X180525230Y-107024801D01*
X180589998Y-107030468D01*
X180590000Y-107030468D01*
X180590002Y-107030468D01*
X180646673Y-107025509D01*
X180816692Y-107010635D01*
X181036496Y-106951739D01*
X181242734Y-106855568D01*
X181429139Y-106725047D01*
X181590047Y-106564139D01*
X181720568Y-106377734D01*
X181816739Y-106171496D01*
X181875635Y-105951692D01*
X181895468Y-105725000D01*
X181875635Y-105498308D01*
X181869389Y-105474999D01*
X189471127Y-105474999D01*
X189471128Y-105475000D01*
X190434314Y-105475000D01*
X190429920Y-105479394D01*
X190377259Y-105570606D01*
X190350000Y-105672339D01*
X190350000Y-105777661D01*
X190377259Y-105879394D01*
X190429920Y-105970606D01*
X190434314Y-105975000D01*
X189471128Y-105975000D01*
X189523730Y-106171317D01*
X189523734Y-106171326D01*
X189619865Y-106377482D01*
X189750342Y-106563820D01*
X189911179Y-106724657D01*
X190097517Y-106855134D01*
X190303673Y-106951265D01*
X190303682Y-106951269D01*
X190499999Y-107003872D01*
X190500000Y-107003871D01*
X190500000Y-106040686D01*
X190504394Y-106045080D01*
X190595606Y-106097741D01*
X190697339Y-106125000D01*
X190802661Y-106125000D01*
X190904394Y-106097741D01*
X190995606Y-106045080D01*
X191000000Y-106040686D01*
X191000000Y-107003872D01*
X191196317Y-106951269D01*
X191196326Y-106951265D01*
X191402482Y-106855134D01*
X191588820Y-106724657D01*
X191749657Y-106563820D01*
X191880134Y-106377482D01*
X191976265Y-106171326D01*
X191976269Y-106171317D01*
X192028872Y-105975000D01*
X191065686Y-105975000D01*
X191070080Y-105970606D01*
X191122741Y-105879394D01*
X191150000Y-105777661D01*
X191150000Y-105672339D01*
X191122741Y-105570606D01*
X191070080Y-105479394D01*
X191065686Y-105475000D01*
X192028872Y-105475000D01*
X192028872Y-105474999D01*
X191976269Y-105278682D01*
X191976265Y-105278673D01*
X191880134Y-105072517D01*
X191749657Y-104886179D01*
X191588820Y-104725342D01*
X191402482Y-104594865D01*
X191196328Y-104498734D01*
X191000000Y-104446127D01*
X191000000Y-105409314D01*
X190995606Y-105404920D01*
X190904394Y-105352259D01*
X190802661Y-105325000D01*
X190697339Y-105325000D01*
X190595606Y-105352259D01*
X190504394Y-105404920D01*
X190500000Y-105409314D01*
X190500000Y-104446127D01*
X190303671Y-104498734D01*
X190097517Y-104594865D01*
X189911179Y-104725342D01*
X189750342Y-104886179D01*
X189619865Y-105072517D01*
X189523734Y-105278673D01*
X189523730Y-105278682D01*
X189471127Y-105474999D01*
X181869389Y-105474999D01*
X181816739Y-105278504D01*
X181720568Y-105072266D01*
X181590047Y-104885861D01*
X181590045Y-104885858D01*
X181429141Y-104724954D01*
X181242734Y-104594432D01*
X181242732Y-104594431D01*
X181036497Y-104498261D01*
X181036488Y-104498258D01*
X180816697Y-104439366D01*
X180816693Y-104439365D01*
X180816692Y-104439365D01*
X180816691Y-104439364D01*
X180816686Y-104439364D01*
X180590002Y-104419532D01*
X180589998Y-104419532D01*
X180363313Y-104439364D01*
X180363302Y-104439366D01*
X180143511Y-104498258D01*
X180143502Y-104498261D01*
X179937267Y-104594431D01*
X179937265Y-104594432D01*
X179750858Y-104724954D01*
X179589954Y-104885858D01*
X179459432Y-105072265D01*
X179459431Y-105072267D01*
X179363261Y-105278502D01*
X179363258Y-105278511D01*
X179304366Y-105498302D01*
X179304364Y-105498313D01*
X179284532Y-105724998D01*
X138500500Y-105724998D01*
X138500500Y-100169998D01*
X157194532Y-100169998D01*
X157194532Y-100170001D01*
X157214364Y-100396686D01*
X157214366Y-100396697D01*
X157273258Y-100616488D01*
X157273261Y-100616497D01*
X157369431Y-100822732D01*
X157369432Y-100822734D01*
X157499954Y-101009141D01*
X157660858Y-101170045D01*
X157660861Y-101170047D01*
X157847266Y-101300568D01*
X158053504Y-101396739D01*
X158273308Y-101455635D01*
X158435230Y-101469801D01*
X158499998Y-101475468D01*
X158500000Y-101475468D01*
X158500002Y-101475468D01*
X158556673Y-101470509D01*
X158726692Y-101455635D01*
X158946496Y-101396739D01*
X159152734Y-101300568D01*
X159339139Y-101170047D01*
X159500047Y-101009139D01*
X159630568Y-100822734D01*
X159726739Y-100616496D01*
X159785635Y-100396692D01*
X159800601Y-100225629D01*
X159817226Y-100183126D01*
X160030516Y-100183126D01*
X160045697Y-100212006D01*
X160047599Y-100224997D01*
X160064885Y-100411535D01*
X160064885Y-100411537D01*
X160125769Y-100625523D01*
X160125775Y-100625538D01*
X160224938Y-100824683D01*
X160224943Y-100824691D01*
X160359020Y-101002238D01*
X160523437Y-101152123D01*
X160523439Y-101152125D01*
X160712595Y-101269245D01*
X160712596Y-101269245D01*
X160712599Y-101269247D01*
X160920060Y-101349618D01*
X161138757Y-101390500D01*
X161138759Y-101390500D01*
X161361241Y-101390500D01*
X161361243Y-101390500D01*
X161579940Y-101349618D01*
X161787401Y-101269247D01*
X161976562Y-101152124D01*
X162140981Y-101002236D01*
X162250153Y-100857669D01*
X162276046Y-100823381D01*
X162332155Y-100781744D01*
X162401866Y-100777052D01*
X162463049Y-100810795D01*
X162473954Y-100823381D01*
X162609017Y-101002234D01*
X162609019Y-101002237D01*
X162773437Y-101152123D01*
X162773439Y-101152125D01*
X162962595Y-101269245D01*
X162962596Y-101269245D01*
X162962599Y-101269247D01*
X163170060Y-101349618D01*
X163388757Y-101390500D01*
X163388759Y-101390500D01*
X163611241Y-101390500D01*
X163611243Y-101390500D01*
X163829940Y-101349618D01*
X164037401Y-101269247D01*
X164226562Y-101152124D01*
X164390981Y-101002236D01*
X164525058Y-100824689D01*
X164624229Y-100625528D01*
X164685115Y-100411536D01*
X164705643Y-100190000D01*
X164685115Y-99968464D01*
X164624229Y-99754472D01*
X164624224Y-99754461D01*
X164525061Y-99555316D01*
X164525056Y-99555308D01*
X164390979Y-99377761D01*
X164226562Y-99227876D01*
X164226560Y-99227874D01*
X164037404Y-99110754D01*
X164037398Y-99110752D01*
X164009644Y-99100000D01*
X163829940Y-99030382D01*
X163611243Y-98989500D01*
X163388757Y-98989500D01*
X163170060Y-99030382D01*
X163109916Y-99053682D01*
X162962601Y-99110752D01*
X162962595Y-99110754D01*
X162773439Y-99227874D01*
X162773437Y-99227876D01*
X162609020Y-99377761D01*
X162473954Y-99556619D01*
X162417845Y-99598255D01*
X162348133Y-99602946D01*
X162286951Y-99569204D01*
X162276046Y-99556619D01*
X162140979Y-99377761D01*
X161976562Y-99227876D01*
X161976560Y-99227874D01*
X161787404Y-99110754D01*
X161787398Y-99110752D01*
X161759644Y-99100000D01*
X161579940Y-99030382D01*
X161361243Y-98989500D01*
X161138757Y-98989500D01*
X160920060Y-99030382D01*
X160859916Y-99053682D01*
X160712601Y-99110752D01*
X160712595Y-99110754D01*
X160523439Y-99227874D01*
X160523437Y-99227876D01*
X160359020Y-99377761D01*
X160224943Y-99555308D01*
X160224938Y-99555316D01*
X160125775Y-99754461D01*
X160125769Y-99754476D01*
X160064885Y-99968462D01*
X160064885Y-99968464D01*
X160049399Y-100135577D01*
X160030516Y-100183126D01*
X159817226Y-100183126D01*
X159819491Y-100177334D01*
X159804235Y-100147942D01*
X159802402Y-100134957D01*
X159785635Y-99943308D01*
X159732845Y-99746291D01*
X159726741Y-99723511D01*
X159726738Y-99723502D01*
X159724675Y-99719077D01*
X159630568Y-99517266D01*
X159532839Y-99377693D01*
X159500045Y-99330858D01*
X159339141Y-99169954D01*
X159152734Y-99039432D01*
X159152732Y-99039431D01*
X158946497Y-98943261D01*
X158946488Y-98943258D01*
X158726697Y-98884366D01*
X158726693Y-98884365D01*
X158726692Y-98884365D01*
X158726691Y-98884364D01*
X158726686Y-98884364D01*
X158500002Y-98864532D01*
X158499998Y-98864532D01*
X158273313Y-98884364D01*
X158273302Y-98884366D01*
X158053511Y-98943258D01*
X158053502Y-98943261D01*
X157847267Y-99039431D01*
X157847265Y-99039432D01*
X157660858Y-99169954D01*
X157499954Y-99330858D01*
X157369432Y-99517265D01*
X157369431Y-99517267D01*
X157273261Y-99723502D01*
X157273258Y-99723511D01*
X157214366Y-99943302D01*
X157214364Y-99943313D01*
X157194532Y-100169998D01*
X138500500Y-100169998D01*
X138500500Y-97893324D01*
X175438139Y-97893324D01*
X175456827Y-98071129D01*
X175456828Y-98071131D01*
X175512071Y-98241153D01*
X175512074Y-98241159D01*
X175601465Y-98395989D01*
X175643136Y-98442270D01*
X175721088Y-98528845D01*
X175721091Y-98528847D01*
X175721094Y-98528850D01*
X175865731Y-98633936D01*
X176029057Y-98706653D01*
X176156137Y-98733664D01*
X176217619Y-98766856D01*
X176218038Y-98767273D01*
X177972686Y-100521922D01*
X178006171Y-100583245D01*
X178008326Y-100596641D01*
X178023123Y-100737424D01*
X178023124Y-100737427D01*
X178078367Y-100907449D01*
X178078370Y-100907455D01*
X178167761Y-101062285D01*
X178209432Y-101108566D01*
X178287384Y-101195141D01*
X178287387Y-101195143D01*
X178287390Y-101195146D01*
X178432027Y-101300232D01*
X178595353Y-101372949D01*
X178770229Y-101410120D01*
X178770230Y-101410120D01*
X178949009Y-101410120D01*
X178949011Y-101410120D01*
X179123887Y-101372949D01*
X179175066Y-101350162D01*
X179244313Y-101340877D01*
X179307590Y-101370505D01*
X179344804Y-101429640D01*
X179349500Y-101463442D01*
X179349500Y-102947870D01*
X179349501Y-102947876D01*
X179355908Y-103007483D01*
X179406202Y-103142328D01*
X179406206Y-103142335D01*
X179492452Y-103257544D01*
X179492455Y-103257547D01*
X179607664Y-103343793D01*
X179607671Y-103343797D01*
X179742517Y-103394091D01*
X179742516Y-103394091D01*
X179749444Y-103394835D01*
X179802127Y-103400500D01*
X181697872Y-103400499D01*
X181757483Y-103394091D01*
X181892331Y-103343796D01*
X182007546Y-103257546D01*
X182093796Y-103142331D01*
X182144091Y-103007483D01*
X182150500Y-102947873D01*
X182150499Y-101052128D01*
X182144091Y-100992517D01*
X182093796Y-100857669D01*
X182093795Y-100857668D01*
X182093793Y-100857664D01*
X182007547Y-100742455D01*
X182007544Y-100742452D01*
X181892335Y-100656206D01*
X181892328Y-100656202D01*
X181812094Y-100626277D01*
X181756160Y-100584406D01*
X181731743Y-100518941D01*
X181746595Y-100450668D01*
X181764190Y-100426121D01*
X181858979Y-100323153D01*
X181985924Y-100128849D01*
X182079157Y-99916300D01*
X182136134Y-99691305D01*
X182136289Y-99689435D01*
X182151986Y-99499998D01*
X184114532Y-99499998D01*
X184114532Y-99500001D01*
X184134364Y-99726686D01*
X184134366Y-99726697D01*
X184193258Y-99946488D01*
X184193261Y-99946497D01*
X184289431Y-100152732D01*
X184289432Y-100152734D01*
X184419954Y-100339141D01*
X184580858Y-100500045D01*
X184580861Y-100500047D01*
X184767266Y-100630568D01*
X184973504Y-100726739D01*
X185193308Y-100785635D01*
X185355230Y-100799801D01*
X185419998Y-100805468D01*
X185420000Y-100805468D01*
X185420002Y-100805468D01*
X185476673Y-100800509D01*
X185646692Y-100785635D01*
X185866496Y-100726739D01*
X186072734Y-100630568D01*
X186259139Y-100500047D01*
X186420047Y-100339139D01*
X186550568Y-100152734D01*
X186646739Y-99946496D01*
X186705635Y-99726692D01*
X186725468Y-99500000D01*
X186721968Y-99460000D01*
X186705635Y-99273313D01*
X186705635Y-99273308D01*
X186699389Y-99249999D01*
X194301127Y-99249999D01*
X194301128Y-99250000D01*
X195264314Y-99250000D01*
X195259920Y-99254394D01*
X195207259Y-99345606D01*
X195180000Y-99447339D01*
X195180000Y-99552661D01*
X195207259Y-99654394D01*
X195259920Y-99745606D01*
X195264314Y-99750000D01*
X194301128Y-99750000D01*
X194353730Y-99946317D01*
X194353734Y-99946326D01*
X194449865Y-100152482D01*
X194580342Y-100338820D01*
X194741179Y-100499657D01*
X194927517Y-100630134D01*
X195133673Y-100726265D01*
X195133682Y-100726269D01*
X195329999Y-100778872D01*
X195330000Y-100778871D01*
X195330000Y-99815686D01*
X195334394Y-99820080D01*
X195425606Y-99872741D01*
X195527339Y-99900000D01*
X195632661Y-99900000D01*
X195734394Y-99872741D01*
X195825606Y-99820080D01*
X195830000Y-99815686D01*
X195830000Y-100778872D01*
X196026317Y-100726269D01*
X196026326Y-100726265D01*
X196232482Y-100630134D01*
X196418820Y-100499657D01*
X196579657Y-100338820D01*
X196710134Y-100152482D01*
X196806265Y-99946326D01*
X196806269Y-99946317D01*
X196858872Y-99750000D01*
X195895686Y-99750000D01*
X195900080Y-99745606D01*
X195952741Y-99654394D01*
X195980000Y-99552661D01*
X195980000Y-99447339D01*
X195952741Y-99345606D01*
X195900080Y-99254394D01*
X195895686Y-99250000D01*
X196858872Y-99250000D01*
X196858872Y-99249999D01*
X196806269Y-99053682D01*
X196806265Y-99053673D01*
X196710134Y-98847517D01*
X196579657Y-98661179D01*
X196418820Y-98500342D01*
X196232482Y-98369865D01*
X196026328Y-98273734D01*
X195830000Y-98221127D01*
X195830000Y-99184314D01*
X195825606Y-99179920D01*
X195734394Y-99127259D01*
X195632661Y-99100000D01*
X195527339Y-99100000D01*
X195425606Y-99127259D01*
X195334394Y-99179920D01*
X195330000Y-99184314D01*
X195330000Y-98221127D01*
X195133671Y-98273734D01*
X194927517Y-98369865D01*
X194741179Y-98500342D01*
X194580342Y-98661179D01*
X194449865Y-98847517D01*
X194353734Y-99053673D01*
X194353730Y-99053682D01*
X194301127Y-99249999D01*
X186699389Y-99249999D01*
X186646739Y-99053504D01*
X186550568Y-98847266D01*
X186420047Y-98660861D01*
X186420045Y-98660858D01*
X186259141Y-98499954D01*
X186072734Y-98369432D01*
X186072732Y-98369431D01*
X185866497Y-98273261D01*
X185866488Y-98273258D01*
X185646697Y-98214366D01*
X185646693Y-98214365D01*
X185646692Y-98214365D01*
X185646691Y-98214364D01*
X185646686Y-98214364D01*
X185420002Y-98194532D01*
X185419998Y-98194532D01*
X185193313Y-98214364D01*
X185193302Y-98214366D01*
X184973511Y-98273258D01*
X184973502Y-98273261D01*
X184767267Y-98369431D01*
X184767265Y-98369432D01*
X184580858Y-98499954D01*
X184419954Y-98660858D01*
X184289432Y-98847265D01*
X184289431Y-98847267D01*
X184193261Y-99053502D01*
X184193258Y-99053511D01*
X184134366Y-99273302D01*
X184134364Y-99273313D01*
X184114532Y-99499998D01*
X182151986Y-99499998D01*
X182155300Y-99460006D01*
X182155300Y-99459993D01*
X182136135Y-99228702D01*
X182136133Y-99228691D01*
X182079157Y-99003699D01*
X181985924Y-98791151D01*
X181858983Y-98596852D01*
X181858980Y-98596849D01*
X181858979Y-98596847D01*
X181701784Y-98426087D01*
X181701779Y-98426083D01*
X181701777Y-98426081D01*
X181518634Y-98283535D01*
X181518628Y-98283531D01*
X181314504Y-98173064D01*
X181314495Y-98173061D01*
X181094984Y-98097702D01*
X180923282Y-98069050D01*
X180866049Y-98059500D01*
X180633951Y-98059500D01*
X180588164Y-98067140D01*
X180405015Y-98097702D01*
X180185504Y-98173061D01*
X180185495Y-98173064D01*
X179981371Y-98283531D01*
X179981365Y-98283535D01*
X179798222Y-98426081D01*
X179798219Y-98426084D01*
X179641016Y-98596852D01*
X179514075Y-98791151D01*
X179420842Y-99003699D01*
X179363866Y-99228691D01*
X179363864Y-99228702D01*
X179344700Y-99459993D01*
X179344700Y-99459996D01*
X179344700Y-99460000D01*
X179352598Y-99555316D01*
X179360497Y-99650641D01*
X179346415Y-99719077D01*
X179297570Y-99769036D01*
X179229469Y-99784657D01*
X179186486Y-99774161D01*
X179123888Y-99746291D01*
X179123885Y-99746290D01*
X178995855Y-99719077D01*
X178949011Y-99709120D01*
X178949010Y-99709120D01*
X178909718Y-99709120D01*
X178842679Y-99689435D01*
X178822037Y-99672801D01*
X177180254Y-98031019D01*
X177146769Y-97969696D01*
X177144614Y-97930379D01*
X177148509Y-97893324D01*
X177129821Y-97715521D01*
X177074574Y-97545489D01*
X176985183Y-97390659D01*
X176938327Y-97338620D01*
X176865559Y-97257802D01*
X176865556Y-97257800D01*
X176865555Y-97257799D01*
X176865554Y-97257798D01*
X176854813Y-97249994D01*
X205244357Y-97249994D01*
X205244357Y-97250005D01*
X205264890Y-97497812D01*
X205264892Y-97497824D01*
X205325936Y-97738881D01*
X205425826Y-97966606D01*
X205561833Y-98174782D01*
X205561836Y-98174785D01*
X205730256Y-98357738D01*
X205926491Y-98510474D01*
X205926493Y-98510475D01*
X206086103Y-98596852D01*
X206145190Y-98628828D01*
X206380386Y-98709571D01*
X206625665Y-98750500D01*
X206874335Y-98750500D01*
X207119614Y-98709571D01*
X207354810Y-98628828D01*
X207573509Y-98510474D01*
X207769744Y-98357738D01*
X207938164Y-98174785D01*
X208074173Y-97966607D01*
X208174063Y-97738881D01*
X208235108Y-97497821D01*
X208255643Y-97250000D01*
X208251541Y-97200500D01*
X208235109Y-97002187D01*
X208235107Y-97002175D01*
X208174063Y-96761118D01*
X208074173Y-96533393D01*
X207938166Y-96325217D01*
X207914373Y-96299371D01*
X207769744Y-96142262D01*
X207573509Y-95989526D01*
X207573507Y-95989525D01*
X207573506Y-95989524D01*
X207354811Y-95871172D01*
X207354802Y-95871169D01*
X207119616Y-95790429D01*
X206874335Y-95749500D01*
X206625665Y-95749500D01*
X206380383Y-95790429D01*
X206145197Y-95871169D01*
X206145188Y-95871172D01*
X205926493Y-95989524D01*
X205730257Y-96142261D01*
X205561833Y-96325217D01*
X205425826Y-96533393D01*
X205325936Y-96761118D01*
X205264892Y-97002175D01*
X205264890Y-97002187D01*
X205244357Y-97249994D01*
X176854813Y-97249994D01*
X176720917Y-97152712D01*
X176557591Y-97079995D01*
X176557589Y-97079994D01*
X176429918Y-97052857D01*
X176382715Y-97042824D01*
X176203933Y-97042824D01*
X176173278Y-97049339D01*
X176029057Y-97079994D01*
X176029052Y-97079996D01*
X175865732Y-97152711D01*
X175721092Y-97257799D01*
X175601464Y-97390660D01*
X175512074Y-97545488D01*
X175512071Y-97545494D01*
X175456828Y-97715516D01*
X175456827Y-97715518D01*
X175438139Y-97893324D01*
X138500500Y-97893324D01*
X138500500Y-94802135D01*
X157109500Y-94802135D01*
X157109500Y-96697870D01*
X157109501Y-96697876D01*
X157115908Y-96757483D01*
X157166202Y-96892328D01*
X157166206Y-96892335D01*
X157252452Y-97007544D01*
X157252455Y-97007547D01*
X157367664Y-97093793D01*
X157367671Y-97093797D01*
X157502517Y-97144091D01*
X157502516Y-97144091D01*
X157509444Y-97144835D01*
X157562127Y-97150500D01*
X159457872Y-97150499D01*
X159517483Y-97144091D01*
X159652331Y-97093796D01*
X159767546Y-97007546D01*
X159784890Y-96984376D01*
X159840823Y-96942505D01*
X159910515Y-96937521D01*
X159943170Y-96949630D01*
X160104497Y-97036936D01*
X160218487Y-97076068D01*
X160324015Y-97112297D01*
X160324017Y-97112297D01*
X160324019Y-97112298D01*
X160552951Y-97150500D01*
X160552952Y-97150500D01*
X160785048Y-97150500D01*
X160785049Y-97150500D01*
X161013981Y-97112298D01*
X161233503Y-97036936D01*
X161437626Y-96926470D01*
X161620784Y-96783913D01*
X161657269Y-96744278D01*
X161717156Y-96708288D01*
X161786994Y-96710387D01*
X161839731Y-96744279D01*
X161876213Y-96783910D01*
X161876222Y-96783918D01*
X162059365Y-96926464D01*
X162059371Y-96926468D01*
X162059374Y-96926470D01*
X162263497Y-97036936D01*
X162377487Y-97076068D01*
X162483015Y-97112297D01*
X162483017Y-97112297D01*
X162483019Y-97112298D01*
X162711951Y-97150500D01*
X162711952Y-97150500D01*
X162944048Y-97150500D01*
X162944049Y-97150500D01*
X163172981Y-97112298D01*
X163392503Y-97036936D01*
X163596626Y-96926470D01*
X163779784Y-96783913D01*
X163816269Y-96744278D01*
X163876156Y-96708288D01*
X163945994Y-96710387D01*
X163998731Y-96744279D01*
X164035213Y-96783910D01*
X164035222Y-96783918D01*
X164218365Y-96926464D01*
X164218371Y-96926468D01*
X164218374Y-96926470D01*
X164422497Y-97036936D01*
X164536487Y-97076068D01*
X164642015Y-97112297D01*
X164642017Y-97112297D01*
X164642019Y-97112298D01*
X164870951Y-97150500D01*
X164870952Y-97150500D01*
X165103048Y-97150500D01*
X165103049Y-97150500D01*
X165331981Y-97112298D01*
X165551503Y-97036936D01*
X165755626Y-96926470D01*
X165938784Y-96783913D01*
X166095979Y-96613153D01*
X166222924Y-96418849D01*
X166316157Y-96206300D01*
X166373134Y-95981305D01*
X166373135Y-95981297D01*
X166392300Y-95750006D01*
X166392300Y-95749993D01*
X166373135Y-95518702D01*
X166373133Y-95518691D01*
X166316157Y-95293699D01*
X166231192Y-95100000D01*
X172444815Y-95100000D01*
X172463503Y-95277805D01*
X172463504Y-95277807D01*
X172518747Y-95447829D01*
X172518750Y-95447835D01*
X172608141Y-95602665D01*
X172649812Y-95648946D01*
X172727764Y-95735521D01*
X172727767Y-95735523D01*
X172727770Y-95735526D01*
X172872407Y-95840612D01*
X173035733Y-95913329D01*
X173210609Y-95950500D01*
X173249903Y-95950500D01*
X173316942Y-95970185D01*
X173337584Y-95986819D01*
X173608496Y-96257731D01*
X173641981Y-96319054D01*
X173644815Y-96345412D01*
X173644815Y-96349997D01*
X173663503Y-96527805D01*
X173663504Y-96527807D01*
X173718747Y-96697829D01*
X173718750Y-96697835D01*
X173808141Y-96852665D01*
X173842381Y-96890692D01*
X173927764Y-96985521D01*
X173927767Y-96985523D01*
X173927770Y-96985526D01*
X174072407Y-97090612D01*
X174235733Y-97163329D01*
X174410609Y-97200500D01*
X174410610Y-97200500D01*
X174589389Y-97200500D01*
X174589391Y-97200500D01*
X174764267Y-97163329D01*
X174927593Y-97090612D01*
X175072230Y-96985526D01*
X175191859Y-96852665D01*
X175281250Y-96697835D01*
X175336497Y-96527803D01*
X175355185Y-96350000D01*
X175336497Y-96172197D01*
X175281250Y-96002165D01*
X175191859Y-95847335D01*
X175145003Y-95795296D01*
X175072235Y-95714478D01*
X175072232Y-95714476D01*
X175072231Y-95714475D01*
X175072230Y-95714474D01*
X174927593Y-95609388D01*
X174764267Y-95536671D01*
X174764265Y-95536670D01*
X174589391Y-95499500D01*
X174587620Y-95499314D01*
X174586663Y-95498920D01*
X174583034Y-95498149D01*
X174583175Y-95497484D01*
X174523008Y-95472725D01*
X174512910Y-95463675D01*
X174186933Y-95137698D01*
X174153448Y-95076375D01*
X174151295Y-95062992D01*
X174136497Y-94922197D01*
X174094100Y-94791713D01*
X174081252Y-94752170D01*
X174081249Y-94752164D01*
X173991859Y-94597335D01*
X173918286Y-94515624D01*
X173872235Y-94464478D01*
X173872232Y-94464476D01*
X173872231Y-94464475D01*
X173872230Y-94464474D01*
X173727593Y-94359388D01*
X173564267Y-94286671D01*
X173564265Y-94286670D01*
X173436594Y-94259533D01*
X173389391Y-94249500D01*
X173210609Y-94249500D01*
X173179954Y-94256015D01*
X173035733Y-94286670D01*
X173035728Y-94286672D01*
X172872408Y-94359387D01*
X172727768Y-94464475D01*
X172608140Y-94597336D01*
X172518750Y-94752164D01*
X172518747Y-94752170D01*
X172463504Y-94922192D01*
X172463503Y-94922194D01*
X172444815Y-95100000D01*
X166231192Y-95100000D01*
X166222924Y-95081151D01*
X166095983Y-94886852D01*
X166095980Y-94886849D01*
X166095979Y-94886847D01*
X165938784Y-94716087D01*
X165938779Y-94716083D01*
X165938777Y-94716081D01*
X165755634Y-94573535D01*
X165755628Y-94573531D01*
X165551504Y-94463064D01*
X165551495Y-94463061D01*
X165331984Y-94387702D01*
X165141450Y-94355908D01*
X165103049Y-94349500D01*
X164870951Y-94349500D01*
X164832550Y-94355908D01*
X164642015Y-94387702D01*
X164422504Y-94463061D01*
X164422495Y-94463064D01*
X164218371Y-94573531D01*
X164218365Y-94573535D01*
X164035222Y-94716081D01*
X164035218Y-94716084D01*
X164012689Y-94740557D01*
X164002000Y-94752170D01*
X163998730Y-94755722D01*
X163938843Y-94791713D01*
X163869004Y-94789612D01*
X163816270Y-94755722D01*
X163813000Y-94752170D01*
X163779784Y-94716087D01*
X163779783Y-94716086D01*
X163779781Y-94716084D01*
X163779777Y-94716081D01*
X163596634Y-94573535D01*
X163596628Y-94573531D01*
X163392504Y-94463064D01*
X163392495Y-94463061D01*
X163172984Y-94387702D01*
X162982450Y-94355908D01*
X162944049Y-94349500D01*
X162711951Y-94349500D01*
X162673550Y-94355908D01*
X162483015Y-94387702D01*
X162263504Y-94463061D01*
X162263495Y-94463064D01*
X162059371Y-94573531D01*
X162059365Y-94573535D01*
X161876222Y-94716081D01*
X161876218Y-94716084D01*
X161853689Y-94740557D01*
X161843000Y-94752170D01*
X161839730Y-94755722D01*
X161779843Y-94791713D01*
X161710004Y-94789612D01*
X161657270Y-94755722D01*
X161654000Y-94752170D01*
X161620784Y-94716087D01*
X161620783Y-94716086D01*
X161620781Y-94716084D01*
X161620777Y-94716081D01*
X161437634Y-94573535D01*
X161437628Y-94573531D01*
X161233504Y-94463064D01*
X161233495Y-94463061D01*
X161013984Y-94387702D01*
X160823450Y-94355908D01*
X160785049Y-94349500D01*
X160552951Y-94349500D01*
X160514550Y-94355908D01*
X160324015Y-94387702D01*
X160104504Y-94463061D01*
X160104490Y-94463067D01*
X159943174Y-94550367D01*
X159874846Y-94564962D01*
X159809474Y-94540299D01*
X159784891Y-94515624D01*
X159767546Y-94492454D01*
X159767544Y-94492453D01*
X159767544Y-94492452D01*
X159652335Y-94406206D01*
X159652328Y-94406202D01*
X159517482Y-94355908D01*
X159517483Y-94355908D01*
X159457883Y-94349501D01*
X159457881Y-94349500D01*
X159457873Y-94349500D01*
X159457864Y-94349500D01*
X157562129Y-94349500D01*
X157562123Y-94349501D01*
X157502516Y-94355908D01*
X157367671Y-94406202D01*
X157367664Y-94406206D01*
X157252455Y-94492452D01*
X157252452Y-94492455D01*
X157166206Y-94607664D01*
X157166202Y-94607671D01*
X157115908Y-94742517D01*
X157109501Y-94802116D01*
X157109500Y-94802135D01*
X138500500Y-94802135D01*
X138500500Y-92800000D01*
X177644815Y-92800000D01*
X177663503Y-92977805D01*
X177663504Y-92977807D01*
X177718747Y-93147829D01*
X177718750Y-93147835D01*
X177808141Y-93302665D01*
X177849812Y-93348946D01*
X177927764Y-93435521D01*
X177927767Y-93435523D01*
X177927770Y-93435526D01*
X178072407Y-93540612D01*
X178235733Y-93613329D01*
X178410609Y-93650500D01*
X178410610Y-93650500D01*
X178589389Y-93650500D01*
X178589391Y-93650500D01*
X178764267Y-93613329D01*
X178927593Y-93540612D01*
X179072230Y-93435526D01*
X179191859Y-93302665D01*
X179281250Y-93147835D01*
X179336497Y-92977803D01*
X179355185Y-92800000D01*
X179336497Y-92622197D01*
X179308873Y-92537181D01*
X179281252Y-92452170D01*
X179281249Y-92452164D01*
X179191860Y-92297336D01*
X179191855Y-92297329D01*
X179132350Y-92231242D01*
X179102120Y-92168250D01*
X179100500Y-92148270D01*
X179100500Y-88751568D01*
X179120185Y-88684529D01*
X179136819Y-88663887D01*
X180063888Y-87736819D01*
X180125211Y-87703334D01*
X180151569Y-87700500D01*
X181641271Y-87700500D01*
X181708310Y-87720185D01*
X181724245Y-87732351D01*
X181727766Y-87735521D01*
X181727770Y-87735526D01*
X181872407Y-87840612D01*
X182035733Y-87913329D01*
X182210609Y-87950500D01*
X182210610Y-87950500D01*
X182389389Y-87950500D01*
X182389391Y-87950500D01*
X182564267Y-87913329D01*
X182727593Y-87840612D01*
X182872230Y-87735526D01*
X182872238Y-87735517D01*
X182875755Y-87732351D01*
X182938747Y-87702121D01*
X182958729Y-87700500D01*
X186430921Y-87700500D01*
X186497960Y-87720185D01*
X186543715Y-87772989D01*
X186548852Y-87786182D01*
X186593012Y-87922093D01*
X186593015Y-87922100D01*
X186682406Y-88076930D01*
X186696053Y-88092086D01*
X186802029Y-88209786D01*
X186802032Y-88209788D01*
X186802035Y-88209791D01*
X186946672Y-88314877D01*
X187109998Y-88387594D01*
X187284874Y-88424765D01*
X187374693Y-88424765D01*
X187436693Y-88441377D01*
X187468215Y-88459577D01*
X187620943Y-88500501D01*
X187620946Y-88500501D01*
X187786653Y-88500501D01*
X187786669Y-88500500D01*
X188775500Y-88500500D01*
X188842539Y-88520185D01*
X188888294Y-88572989D01*
X188899500Y-88624500D01*
X188899500Y-88848270D01*
X188879815Y-88915309D01*
X188867650Y-88931242D01*
X188808144Y-88997329D01*
X188808139Y-88997336D01*
X188718750Y-89152164D01*
X188718747Y-89152170D01*
X188663504Y-89322192D01*
X188663503Y-89322194D01*
X188644815Y-89500000D01*
X188663503Y-89677805D01*
X188663504Y-89677807D01*
X188718747Y-89847829D01*
X188718750Y-89847835D01*
X188808141Y-90002665D01*
X188849812Y-90048946D01*
X188927764Y-90135521D01*
X188927767Y-90135523D01*
X188927770Y-90135526D01*
X189072407Y-90240612D01*
X189235733Y-90313329D01*
X189410609Y-90350500D01*
X189410610Y-90350500D01*
X189589389Y-90350500D01*
X189589391Y-90350500D01*
X189764267Y-90313329D01*
X189927593Y-90240612D01*
X190072230Y-90135526D01*
X190073758Y-90133830D01*
X190098148Y-90106741D01*
X190191859Y-90002665D01*
X190281250Y-89847835D01*
X190313039Y-89749999D01*
X194734357Y-89749999D01*
X194734357Y-89750000D01*
X194754884Y-89971535D01*
X194754885Y-89971537D01*
X194815769Y-90185523D01*
X194815775Y-90185538D01*
X194914938Y-90384683D01*
X194914943Y-90384691D01*
X195049020Y-90562238D01*
X195201088Y-90700866D01*
X195210637Y-90709571D01*
X195213437Y-90712123D01*
X195213439Y-90712125D01*
X195402595Y-90829245D01*
X195402596Y-90829245D01*
X195402599Y-90829247D01*
X195544898Y-90884374D01*
X195600298Y-90926946D01*
X195623889Y-90992713D01*
X195608178Y-91060793D01*
X195558154Y-91109572D01*
X195544906Y-91115622D01*
X195438693Y-91156769D01*
X195402601Y-91170752D01*
X195402595Y-91170754D01*
X195213439Y-91287874D01*
X195213437Y-91287876D01*
X195049020Y-91437761D01*
X194914943Y-91615308D01*
X194914938Y-91615316D01*
X194815775Y-91814461D01*
X194815769Y-91814476D01*
X194754885Y-92028462D01*
X194754884Y-92028464D01*
X194734357Y-92249999D01*
X194734357Y-92250000D01*
X194754884Y-92471535D01*
X194754885Y-92471537D01*
X194815769Y-92685523D01*
X194815775Y-92685538D01*
X194914938Y-92884683D01*
X194914943Y-92884691D01*
X195049020Y-93062238D01*
X195213437Y-93212123D01*
X195213439Y-93212125D01*
X195402595Y-93329245D01*
X195402596Y-93329245D01*
X195402599Y-93329247D01*
X195610060Y-93409618D01*
X195828757Y-93450500D01*
X195828759Y-93450500D01*
X196051241Y-93450500D01*
X196051243Y-93450500D01*
X196269940Y-93409618D01*
X196477401Y-93329247D01*
X196666562Y-93212124D01*
X196830981Y-93062236D01*
X196965058Y-92884689D01*
X197064229Y-92685528D01*
X197125115Y-92471536D01*
X197145643Y-92250000D01*
X197142428Y-92215309D01*
X197125115Y-92028464D01*
X197125114Y-92028462D01*
X197094587Y-91921172D01*
X197064229Y-91814472D01*
X197056774Y-91799500D01*
X196965061Y-91615316D01*
X196965056Y-91615308D01*
X196830979Y-91437761D01*
X196666562Y-91287876D01*
X196666560Y-91287874D01*
X196477404Y-91170754D01*
X196477395Y-91170750D01*
X196405560Y-91142921D01*
X196335101Y-91115625D01*
X196279701Y-91073054D01*
X196256110Y-91007288D01*
X196271821Y-90939207D01*
X196321844Y-90890428D01*
X196335093Y-90884377D01*
X196477401Y-90829247D01*
X196666562Y-90712124D01*
X196830981Y-90562236D01*
X196965058Y-90384689D01*
X197064229Y-90185528D01*
X197125115Y-89971536D01*
X197145643Y-89750000D01*
X197145643Y-89749999D01*
X202354357Y-89749999D01*
X202354357Y-89750000D01*
X202374884Y-89971535D01*
X202374885Y-89971537D01*
X202435769Y-90185523D01*
X202435775Y-90185538D01*
X202534938Y-90384683D01*
X202534943Y-90384691D01*
X202669020Y-90562238D01*
X202821088Y-90700866D01*
X202830637Y-90709571D01*
X202833437Y-90712123D01*
X202833439Y-90712125D01*
X203022595Y-90829245D01*
X203022596Y-90829245D01*
X203022599Y-90829247D01*
X203164898Y-90884374D01*
X203220298Y-90926946D01*
X203243889Y-90992713D01*
X203228178Y-91060793D01*
X203178154Y-91109572D01*
X203164906Y-91115622D01*
X203058693Y-91156769D01*
X203022601Y-91170752D01*
X203022595Y-91170754D01*
X202833439Y-91287874D01*
X202833437Y-91287876D01*
X202669020Y-91437761D01*
X202534943Y-91615308D01*
X202534938Y-91615316D01*
X202435775Y-91814461D01*
X202435769Y-91814476D01*
X202374885Y-92028462D01*
X202374884Y-92028464D01*
X202354357Y-92249999D01*
X202354357Y-92250000D01*
X202374884Y-92471535D01*
X202374885Y-92471537D01*
X202435769Y-92685523D01*
X202435775Y-92685538D01*
X202534938Y-92884683D01*
X202534943Y-92884691D01*
X202669020Y-93062238D01*
X202833437Y-93212123D01*
X202833439Y-93212125D01*
X203022595Y-93329245D01*
X203022596Y-93329245D01*
X203022599Y-93329247D01*
X203230060Y-93409618D01*
X203448757Y-93450500D01*
X203448759Y-93450500D01*
X203671241Y-93450500D01*
X203671243Y-93450500D01*
X203889940Y-93409618D01*
X204097401Y-93329247D01*
X204144646Y-93299994D01*
X205244357Y-93299994D01*
X205244357Y-93300005D01*
X205264890Y-93547812D01*
X205264892Y-93547824D01*
X205325936Y-93788881D01*
X205425826Y-94016606D01*
X205561833Y-94224782D01*
X205561836Y-94224785D01*
X205730256Y-94407738D01*
X205926491Y-94560474D01*
X206145190Y-94678828D01*
X206380386Y-94759571D01*
X206625665Y-94800500D01*
X206874335Y-94800500D01*
X207119614Y-94759571D01*
X207354810Y-94678828D01*
X207573509Y-94560474D01*
X207769744Y-94407738D01*
X207938164Y-94224785D01*
X208074173Y-94016607D01*
X208174063Y-93788881D01*
X208187933Y-93734108D01*
X212399500Y-93734108D01*
X212399500Y-94365892D01*
X212416554Y-94429539D01*
X212433608Y-94493187D01*
X212460809Y-94540299D01*
X212499500Y-94607314D01*
X212592686Y-94700500D01*
X212706814Y-94766392D01*
X212834108Y-94800500D01*
X212834110Y-94800500D01*
X214165890Y-94800500D01*
X214165892Y-94800500D01*
X214293186Y-94766392D01*
X214407314Y-94700500D01*
X214500500Y-94607314D01*
X214566392Y-94493186D01*
X214600500Y-94365892D01*
X214600500Y-93734108D01*
X214566392Y-93606814D01*
X214500500Y-93492686D01*
X214407314Y-93399500D01*
X214350250Y-93366554D01*
X214293187Y-93333608D01*
X214229539Y-93316554D01*
X214165892Y-93299500D01*
X212965892Y-93299500D01*
X212834108Y-93299500D01*
X212706812Y-93333608D01*
X212592686Y-93399500D01*
X212592683Y-93399502D01*
X212499502Y-93492683D01*
X212499500Y-93492686D01*
X212433608Y-93606812D01*
X212431862Y-93613329D01*
X212399500Y-93734108D01*
X208187933Y-93734108D01*
X208235108Y-93547821D01*
X208235109Y-93547812D01*
X208255643Y-93300005D01*
X208255643Y-93299994D01*
X208235109Y-93052187D01*
X208235107Y-93052175D01*
X208174063Y-92811118D01*
X208074173Y-92583393D01*
X207938166Y-92375217D01*
X207866465Y-92297329D01*
X207769744Y-92192262D01*
X207573509Y-92039526D01*
X207573507Y-92039525D01*
X207573506Y-92039524D01*
X207354811Y-91921172D01*
X207354802Y-91921169D01*
X207119616Y-91840429D01*
X206874335Y-91799500D01*
X206625665Y-91799500D01*
X206380383Y-91840429D01*
X206145197Y-91921169D01*
X206145188Y-91921172D01*
X205926493Y-92039524D01*
X205730257Y-92192261D01*
X205561833Y-92375217D01*
X205425826Y-92583393D01*
X205325936Y-92811118D01*
X205264892Y-93052175D01*
X205264890Y-93052187D01*
X205244357Y-93299994D01*
X204144646Y-93299994D01*
X204286562Y-93212124D01*
X204450981Y-93062236D01*
X204585058Y-92884689D01*
X204684229Y-92685528D01*
X204745115Y-92471536D01*
X204765643Y-92250000D01*
X204762428Y-92215309D01*
X204745115Y-92028464D01*
X204745114Y-92028462D01*
X204714587Y-91921172D01*
X204684229Y-91814472D01*
X204676774Y-91799500D01*
X204585061Y-91615316D01*
X204585056Y-91615308D01*
X204450979Y-91437761D01*
X204286562Y-91287876D01*
X204286560Y-91287874D01*
X204097404Y-91170754D01*
X204097395Y-91170750D01*
X204025560Y-91142921D01*
X203955101Y-91115625D01*
X203899701Y-91073054D01*
X203876110Y-91007288D01*
X203891821Y-90939207D01*
X203941844Y-90890428D01*
X203955093Y-90884377D01*
X204097401Y-90829247D01*
X204286562Y-90712124D01*
X204450981Y-90562236D01*
X204585058Y-90384689D01*
X204684229Y-90185528D01*
X204745115Y-89971536D01*
X204765643Y-89750000D01*
X204759136Y-89679782D01*
X204745115Y-89528464D01*
X204745114Y-89528462D01*
X204736393Y-89497812D01*
X204684229Y-89314472D01*
X204684224Y-89314461D01*
X204652123Y-89249994D01*
X205244357Y-89249994D01*
X205244357Y-89250005D01*
X205264890Y-89497812D01*
X205264892Y-89497824D01*
X205325936Y-89738881D01*
X205425826Y-89966606D01*
X205561833Y-90174782D01*
X205571735Y-90185538D01*
X205730256Y-90357738D01*
X205926491Y-90510474D01*
X206145190Y-90628828D01*
X206380386Y-90709571D01*
X206625665Y-90750500D01*
X206874335Y-90750500D01*
X207119614Y-90709571D01*
X207354810Y-90628828D01*
X207573509Y-90510474D01*
X207769744Y-90357738D01*
X207938164Y-90174785D01*
X208074173Y-89966607D01*
X208174063Y-89738881D01*
X208235108Y-89497821D01*
X208237280Y-89471607D01*
X208255643Y-89250005D01*
X208255643Y-89249994D01*
X208235109Y-89002187D01*
X208235107Y-89002175D01*
X208174063Y-88761118D01*
X208074173Y-88533393D01*
X207938166Y-88325217D01*
X207883761Y-88266118D01*
X207769744Y-88142262D01*
X207573509Y-87989526D01*
X207573507Y-87989525D01*
X207573506Y-87989524D01*
X207354811Y-87871172D01*
X207354802Y-87871169D01*
X207119616Y-87790429D01*
X206874335Y-87749500D01*
X206625665Y-87749500D01*
X206380383Y-87790429D01*
X206145197Y-87871169D01*
X206145188Y-87871172D01*
X205926493Y-87989524D01*
X205730257Y-88142261D01*
X205561833Y-88325217D01*
X205425826Y-88533393D01*
X205325936Y-88761118D01*
X205264892Y-89002175D01*
X205264890Y-89002187D01*
X205244357Y-89249994D01*
X204652123Y-89249994D01*
X204585061Y-89115316D01*
X204585056Y-89115308D01*
X204450979Y-88937761D01*
X204286562Y-88787876D01*
X204286560Y-88787874D01*
X204097404Y-88670754D01*
X204097398Y-88670752D01*
X203889940Y-88590382D01*
X203671243Y-88549500D01*
X203448757Y-88549500D01*
X203230060Y-88590382D01*
X203098864Y-88641207D01*
X203022601Y-88670752D01*
X203022595Y-88670754D01*
X202833439Y-88787874D01*
X202833437Y-88787876D01*
X202669020Y-88937761D01*
X202534943Y-89115308D01*
X202534938Y-89115316D01*
X202435775Y-89314461D01*
X202435769Y-89314476D01*
X202374885Y-89528462D01*
X202374884Y-89528464D01*
X202354357Y-89749999D01*
X197145643Y-89749999D01*
X197139136Y-89679782D01*
X197125115Y-89528464D01*
X197125114Y-89528462D01*
X197116393Y-89497812D01*
X197064229Y-89314472D01*
X197064224Y-89314461D01*
X196965061Y-89115316D01*
X196965056Y-89115308D01*
X196830979Y-88937761D01*
X196666562Y-88787876D01*
X196666560Y-88787874D01*
X196477404Y-88670754D01*
X196477398Y-88670752D01*
X196269940Y-88590382D01*
X196051243Y-88549500D01*
X195828757Y-88549500D01*
X195610060Y-88590382D01*
X195478864Y-88641207D01*
X195402601Y-88670752D01*
X195402595Y-88670754D01*
X195213439Y-88787874D01*
X195213437Y-88787876D01*
X195049020Y-88937761D01*
X194914943Y-89115308D01*
X194914938Y-89115316D01*
X194815775Y-89314461D01*
X194815769Y-89314476D01*
X194754885Y-89528462D01*
X194754884Y-89528464D01*
X194734357Y-89749999D01*
X190313039Y-89749999D01*
X190336497Y-89677803D01*
X190355185Y-89500000D01*
X190336497Y-89322197D01*
X190281250Y-89152165D01*
X190195028Y-89002824D01*
X190191860Y-88997336D01*
X190191855Y-88997329D01*
X190132350Y-88931242D01*
X190102120Y-88868250D01*
X190100500Y-88848270D01*
X190100500Y-88551728D01*
X190120185Y-88484689D01*
X190132350Y-88468756D01*
X190140615Y-88459577D01*
X190191859Y-88402665D01*
X190281250Y-88247835D01*
X190336497Y-88077803D01*
X190355185Y-87900000D01*
X190336497Y-87722197D01*
X190281250Y-87552165D01*
X190191859Y-87397335D01*
X190103768Y-87299500D01*
X190072235Y-87264478D01*
X190072232Y-87264476D01*
X190072231Y-87264475D01*
X190072230Y-87264474D01*
X189927593Y-87159388D01*
X189870813Y-87134108D01*
X212399500Y-87134108D01*
X212399500Y-87765891D01*
X212433608Y-87893187D01*
X212466554Y-87950250D01*
X212499500Y-88007314D01*
X212592686Y-88100500D01*
X212706814Y-88166392D01*
X212834108Y-88200500D01*
X212834110Y-88200500D01*
X214165890Y-88200500D01*
X214165892Y-88200500D01*
X214293186Y-88166392D01*
X214407314Y-88100500D01*
X214500500Y-88007314D01*
X214566392Y-87893186D01*
X214600500Y-87765892D01*
X214600500Y-87134108D01*
X214566392Y-87006814D01*
X214500500Y-86892686D01*
X214407314Y-86799500D01*
X214350250Y-86766554D01*
X214293187Y-86733608D01*
X214229539Y-86716554D01*
X214165892Y-86699500D01*
X212965892Y-86699500D01*
X212834108Y-86699500D01*
X212706812Y-86733608D01*
X212592686Y-86799500D01*
X212592683Y-86799502D01*
X212499502Y-86892683D01*
X212499500Y-86892686D01*
X212433608Y-87006812D01*
X212399500Y-87134108D01*
X189870813Y-87134108D01*
X189764267Y-87086671D01*
X189764265Y-87086670D01*
X189636594Y-87059533D01*
X189589391Y-87049500D01*
X189410609Y-87049500D01*
X189379954Y-87056015D01*
X189235733Y-87086670D01*
X189235728Y-87086672D01*
X189072408Y-87159387D01*
X188927772Y-87264472D01*
X188924245Y-87267649D01*
X188861253Y-87297879D01*
X188841271Y-87299500D01*
X188268574Y-87299500D01*
X188201535Y-87279815D01*
X188159689Y-87231523D01*
X188158764Y-87232058D01*
X188155990Y-87227253D01*
X188155780Y-87227011D01*
X188155529Y-87226455D01*
X188155515Y-87226430D01*
X188066124Y-87071600D01*
X188007790Y-87006814D01*
X187946500Y-86938743D01*
X187946497Y-86938741D01*
X187946496Y-86938740D01*
X187946495Y-86938739D01*
X187850070Y-86868681D01*
X187801857Y-86833652D01*
X187680654Y-86779689D01*
X187627417Y-86734439D01*
X187607096Y-86667590D01*
X187626141Y-86600366D01*
X187658202Y-86566094D01*
X187799870Y-86463166D01*
X187919499Y-86330305D01*
X188008890Y-86175475D01*
X188031833Y-86104864D01*
X188071270Y-86047188D01*
X188123980Y-86021891D01*
X188164267Y-86013329D01*
X188327593Y-85940612D01*
X188472230Y-85835526D01*
X188591859Y-85702665D01*
X188681250Y-85547835D01*
X188736497Y-85377803D01*
X188755185Y-85200000D01*
X188736497Y-85022197D01*
X188681250Y-84852165D01*
X188599499Y-84710568D01*
X188591860Y-84697336D01*
X188591855Y-84697329D01*
X188532350Y-84631242D01*
X188502120Y-84568250D01*
X188500500Y-84548270D01*
X188500500Y-83234160D01*
X188517113Y-83172160D01*
X188542555Y-83128093D01*
X188586095Y-83052680D01*
X188641342Y-82882648D01*
X188660030Y-82704845D01*
X188641342Y-82527042D01*
X188586095Y-82357010D01*
X188496704Y-82202180D01*
X188435161Y-82133830D01*
X188377080Y-82069323D01*
X188377077Y-82069321D01*
X188377076Y-82069320D01*
X188377075Y-82069319D01*
X188232438Y-81964233D01*
X188069112Y-81891516D01*
X188069110Y-81891515D01*
X187918822Y-81859571D01*
X187894236Y-81854345D01*
X187715454Y-81854345D01*
X187690872Y-81859570D01*
X187540578Y-81891515D01*
X187540573Y-81891517D01*
X187377253Y-81964232D01*
X187232613Y-82069320D01*
X187112985Y-82202181D01*
X187023595Y-82357009D01*
X187023592Y-82357015D01*
X186968349Y-82527037D01*
X186968348Y-82527039D01*
X186949660Y-82704845D01*
X186968348Y-82882650D01*
X186968349Y-82882652D01*
X187023592Y-83052674D01*
X187023595Y-83052680D01*
X187067135Y-83128093D01*
X187083608Y-83195993D01*
X187060755Y-83262020D01*
X187005834Y-83305211D01*
X186985533Y-83311383D01*
X186964838Y-83315782D01*
X186801518Y-83388497D01*
X186656878Y-83493585D01*
X186537250Y-83626446D01*
X186447860Y-83781274D01*
X186447857Y-83781280D01*
X186392614Y-83951302D01*
X186392613Y-83951304D01*
X186373925Y-84129110D01*
X186392613Y-84306915D01*
X186392614Y-84306917D01*
X186447857Y-84476939D01*
X186447860Y-84476945D01*
X186537251Y-84631775D01*
X186596276Y-84697329D01*
X186596760Y-84697866D01*
X186626990Y-84760857D01*
X186628610Y-84780838D01*
X186628610Y-85174279D01*
X186608925Y-85241318D01*
X186596760Y-85257251D01*
X186535780Y-85324976D01*
X186446390Y-85479804D01*
X186446387Y-85479810D01*
X186391144Y-85649832D01*
X186391143Y-85649834D01*
X186372455Y-85827640D01*
X186391143Y-86005445D01*
X186391144Y-86005447D01*
X186446387Y-86175469D01*
X186446389Y-86175472D01*
X186446390Y-86175475D01*
X186507567Y-86281437D01*
X186526079Y-86313501D01*
X186542551Y-86381401D01*
X186519698Y-86447428D01*
X186464776Y-86490618D01*
X186418691Y-86499500D01*
X182958729Y-86499500D01*
X182891690Y-86479815D01*
X182875755Y-86467649D01*
X182872233Y-86464477D01*
X182872230Y-86464474D01*
X182727593Y-86359388D01*
X182564267Y-86286671D01*
X182564265Y-86286670D01*
X182436594Y-86259533D01*
X182389391Y-86249500D01*
X182210609Y-86249500D01*
X182179954Y-86256015D01*
X182035733Y-86286670D01*
X182035728Y-86286672D01*
X181872408Y-86359387D01*
X181727772Y-86464472D01*
X181724245Y-86467649D01*
X181661253Y-86497879D01*
X181641271Y-86499500D01*
X179938141Y-86499500D01*
X179938125Y-86499499D01*
X179930529Y-86499499D01*
X179772414Y-86499499D01*
X179696050Y-86519961D01*
X179619685Y-86540423D01*
X179619680Y-86540426D01*
X179482761Y-86619475D01*
X179482753Y-86619481D01*
X178019479Y-88082755D01*
X178003476Y-88110475D01*
X177985124Y-88142262D01*
X177940423Y-88219686D01*
X177899499Y-88372414D01*
X177899499Y-88372416D01*
X177899499Y-88540517D01*
X177899500Y-88540530D01*
X177899500Y-92148270D01*
X177879815Y-92215309D01*
X177867650Y-92231242D01*
X177808144Y-92297329D01*
X177808139Y-92297336D01*
X177718750Y-92452164D01*
X177718747Y-92452170D01*
X177663504Y-92622192D01*
X177663503Y-92622194D01*
X177644815Y-92800000D01*
X138500500Y-92800000D01*
X138500500Y-88754994D01*
X155229357Y-88754994D01*
X155229357Y-88755005D01*
X155249890Y-89002812D01*
X155249892Y-89002824D01*
X155310936Y-89243881D01*
X155410826Y-89471606D01*
X155546833Y-89679782D01*
X155546836Y-89679785D01*
X155715256Y-89862738D01*
X155911491Y-90015474D01*
X156130190Y-90133828D01*
X156365386Y-90214571D01*
X156610665Y-90255500D01*
X156859335Y-90255500D01*
X157104614Y-90214571D01*
X157339810Y-90133828D01*
X157558509Y-90015474D01*
X157754744Y-89862738D01*
X157923164Y-89679785D01*
X158059173Y-89471607D01*
X158159063Y-89243881D01*
X158220108Y-89002821D01*
X158220162Y-89002175D01*
X158240643Y-88755005D01*
X158240643Y-88754994D01*
X158220109Y-88507187D01*
X158220107Y-88507175D01*
X158159063Y-88266118D01*
X158059173Y-88038393D01*
X157923166Y-87830217D01*
X157870484Y-87772989D01*
X157754744Y-87647262D01*
X157558509Y-87494526D01*
X157558507Y-87494525D01*
X157558506Y-87494524D01*
X157339811Y-87376172D01*
X157339802Y-87376169D01*
X157104616Y-87295429D01*
X156859335Y-87254500D01*
X156610665Y-87254500D01*
X156365383Y-87295429D01*
X156130197Y-87376169D01*
X156130188Y-87376172D01*
X155911493Y-87494524D01*
X155715257Y-87647261D01*
X155546833Y-87830217D01*
X155410826Y-88038393D01*
X155310936Y-88266118D01*
X155249892Y-88507175D01*
X155249890Y-88507187D01*
X155229357Y-88754994D01*
X138500500Y-88754994D01*
X138500500Y-85802155D01*
X141750000Y-85802155D01*
X141750000Y-86600000D01*
X142759252Y-86600000D01*
X142737482Y-86637708D01*
X142700000Y-86777591D01*
X142700000Y-86922409D01*
X142737482Y-87062292D01*
X142759252Y-87100000D01*
X141750000Y-87100000D01*
X141750000Y-87897844D01*
X141756401Y-87957372D01*
X141756403Y-87957379D01*
X141806645Y-88092086D01*
X141806649Y-88092093D01*
X141892809Y-88207187D01*
X141892812Y-88207190D01*
X142007906Y-88293350D01*
X142007913Y-88293354D01*
X142142620Y-88343596D01*
X142142627Y-88343598D01*
X142202155Y-88349999D01*
X142202172Y-88350000D01*
X143000000Y-88350000D01*
X143000000Y-87340747D01*
X143037708Y-87362518D01*
X143177591Y-87400000D01*
X143322409Y-87400000D01*
X143462292Y-87362518D01*
X143500000Y-87340747D01*
X143500000Y-88350000D01*
X144297828Y-88350000D01*
X144297844Y-88349999D01*
X144357372Y-88343598D01*
X144357379Y-88343596D01*
X144492086Y-88293354D01*
X144492093Y-88293350D01*
X144607187Y-88207190D01*
X144607190Y-88207187D01*
X144693350Y-88092093D01*
X144693354Y-88092086D01*
X144743596Y-87957379D01*
X144743598Y-87957372D01*
X144749999Y-87897844D01*
X144750000Y-87897827D01*
X144750000Y-87100000D01*
X143740748Y-87100000D01*
X143762518Y-87062292D01*
X143800000Y-86922409D01*
X143800000Y-86849994D01*
X146844357Y-86849994D01*
X146844357Y-86850005D01*
X146864890Y-87097812D01*
X146864892Y-87097824D01*
X146925936Y-87338881D01*
X147025826Y-87566606D01*
X147161833Y-87774782D01*
X147161836Y-87774785D01*
X147330256Y-87957738D01*
X147526491Y-88110474D01*
X147745190Y-88228828D01*
X147980386Y-88309571D01*
X148225665Y-88350500D01*
X148474335Y-88350500D01*
X148719614Y-88309571D01*
X148954810Y-88228828D01*
X149173509Y-88110474D01*
X149369744Y-87957738D01*
X149538164Y-87774785D01*
X149674173Y-87566607D01*
X149774063Y-87338881D01*
X149835108Y-87097821D01*
X149842649Y-87006814D01*
X149855643Y-86850005D01*
X149855643Y-86849994D01*
X151944357Y-86849994D01*
X151944357Y-86850005D01*
X151964890Y-87097812D01*
X151964892Y-87097824D01*
X152025936Y-87338881D01*
X152125826Y-87566606D01*
X152261833Y-87774782D01*
X152261836Y-87774785D01*
X152430256Y-87957738D01*
X152626491Y-88110474D01*
X152845190Y-88228828D01*
X153080386Y-88309571D01*
X153325665Y-88350500D01*
X153574335Y-88350500D01*
X153819614Y-88309571D01*
X154054810Y-88228828D01*
X154273509Y-88110474D01*
X154469744Y-87957738D01*
X154638164Y-87774785D01*
X154774173Y-87566607D01*
X154874063Y-87338881D01*
X154935108Y-87097821D01*
X154942649Y-87006814D01*
X154955643Y-86850005D01*
X154955643Y-86849994D01*
X154935109Y-86602187D01*
X154935107Y-86602175D01*
X154874063Y-86361118D01*
X154774173Y-86133393D01*
X154638166Y-85925217D01*
X154616557Y-85901744D01*
X154469744Y-85742262D01*
X154273509Y-85589526D01*
X154273507Y-85589525D01*
X154273506Y-85589524D01*
X154054811Y-85471172D01*
X154054802Y-85471169D01*
X153819616Y-85390429D01*
X153574335Y-85349500D01*
X153325665Y-85349500D01*
X153080383Y-85390429D01*
X152845197Y-85471169D01*
X152845188Y-85471172D01*
X152626493Y-85589524D01*
X152481130Y-85702665D01*
X152430256Y-85742262D01*
X152429920Y-85742627D01*
X152261833Y-85925217D01*
X152125826Y-86133393D01*
X152025936Y-86361118D01*
X151964892Y-86602175D01*
X151964890Y-86602187D01*
X151944357Y-86849994D01*
X149855643Y-86849994D01*
X149835109Y-86602187D01*
X149835107Y-86602175D01*
X149774063Y-86361118D01*
X149674173Y-86133393D01*
X149538166Y-85925217D01*
X149516557Y-85901744D01*
X149369744Y-85742262D01*
X149173509Y-85589526D01*
X149173507Y-85589525D01*
X149173506Y-85589524D01*
X148954811Y-85471172D01*
X148954802Y-85471169D01*
X148719616Y-85390429D01*
X148474335Y-85349500D01*
X148225665Y-85349500D01*
X147980383Y-85390429D01*
X147745197Y-85471169D01*
X147745188Y-85471172D01*
X147526493Y-85589524D01*
X147381130Y-85702665D01*
X147330256Y-85742262D01*
X147329920Y-85742627D01*
X147161833Y-85925217D01*
X147025826Y-86133393D01*
X146925936Y-86361118D01*
X146864892Y-86602175D01*
X146864890Y-86602187D01*
X146844357Y-86849994D01*
X143800000Y-86849994D01*
X143800000Y-86777591D01*
X143762518Y-86637708D01*
X143740748Y-86600000D01*
X144750000Y-86600000D01*
X144750000Y-85802172D01*
X144749999Y-85802155D01*
X144743598Y-85742627D01*
X144743596Y-85742620D01*
X144693354Y-85607913D01*
X144693350Y-85607906D01*
X144607190Y-85492812D01*
X144607187Y-85492809D01*
X144492093Y-85406649D01*
X144492086Y-85406645D01*
X144357379Y-85356403D01*
X144357372Y-85356401D01*
X144297844Y-85350000D01*
X143500000Y-85350000D01*
X143500000Y-86359252D01*
X143462292Y-86337482D01*
X143322409Y-86300000D01*
X143177591Y-86300000D01*
X143037708Y-86337482D01*
X143000000Y-86359252D01*
X143000000Y-85350000D01*
X142202155Y-85350000D01*
X142142627Y-85356401D01*
X142142620Y-85356403D01*
X142007913Y-85406645D01*
X142007906Y-85406649D01*
X141892812Y-85492809D01*
X141892809Y-85492812D01*
X141806649Y-85607906D01*
X141806645Y-85607913D01*
X141756403Y-85742620D01*
X141756401Y-85742627D01*
X141750000Y-85802155D01*
X138500500Y-85802155D01*
X138500500Y-83579998D01*
X182694532Y-83579998D01*
X182694532Y-83580001D01*
X182714364Y-83806686D01*
X182714366Y-83806697D01*
X182773258Y-84026488D01*
X182773261Y-84026497D01*
X182869431Y-84232732D01*
X182869432Y-84232734D01*
X182999954Y-84419141D01*
X183160858Y-84580045D01*
X183160861Y-84580047D01*
X183347266Y-84710568D01*
X183553504Y-84806739D01*
X183773308Y-84865635D01*
X183935230Y-84879801D01*
X183999998Y-84885468D01*
X184000000Y-84885468D01*
X184000002Y-84885468D01*
X184056673Y-84880509D01*
X184226692Y-84865635D01*
X184446496Y-84806739D01*
X184652734Y-84710568D01*
X184839139Y-84580047D01*
X185000047Y-84419139D01*
X185130568Y-84232734D01*
X185226739Y-84026496D01*
X185285635Y-83806692D01*
X185305468Y-83580000D01*
X185285635Y-83353308D01*
X185226739Y-83133504D01*
X185130568Y-82927266D01*
X185000047Y-82740861D01*
X185000045Y-82740858D01*
X184839141Y-82579954D01*
X184652734Y-82449432D01*
X184652732Y-82449431D01*
X184446497Y-82353261D01*
X184446488Y-82353258D01*
X184226697Y-82294366D01*
X184226693Y-82294365D01*
X184226692Y-82294365D01*
X184226691Y-82294364D01*
X184226686Y-82294364D01*
X184000002Y-82274532D01*
X183999998Y-82274532D01*
X183773313Y-82294364D01*
X183773302Y-82294366D01*
X183553511Y-82353258D01*
X183553502Y-82353261D01*
X183347267Y-82449431D01*
X183347265Y-82449432D01*
X183160858Y-82579954D01*
X182999954Y-82740858D01*
X182869432Y-82927265D01*
X182869431Y-82927267D01*
X182773261Y-83133502D01*
X182773258Y-83133511D01*
X182714366Y-83353302D01*
X182714364Y-83353313D01*
X182694532Y-83579998D01*
X138500500Y-83579998D01*
X138500500Y-80754994D01*
X152129357Y-80754994D01*
X152129357Y-80755005D01*
X152149890Y-81002812D01*
X152149892Y-81002824D01*
X152210936Y-81243881D01*
X152310826Y-81471606D01*
X152446833Y-81679782D01*
X152446836Y-81679785D01*
X152615256Y-81862738D01*
X152811491Y-82015474D01*
X153030190Y-82133828D01*
X153265386Y-82214571D01*
X153510665Y-82255500D01*
X153759335Y-82255500D01*
X154004614Y-82214571D01*
X154239810Y-82133828D01*
X154458509Y-82015474D01*
X154654744Y-81862738D01*
X154823164Y-81679785D01*
X154959173Y-81471607D01*
X155059063Y-81243881D01*
X155120108Y-81002821D01*
X155120166Y-81002121D01*
X155140643Y-80755005D01*
X155140643Y-80754994D01*
X155120109Y-80507187D01*
X155120107Y-80507175D01*
X155092965Y-80399994D01*
X159994357Y-80399994D01*
X159994357Y-80400005D01*
X160014890Y-80647812D01*
X160014892Y-80647824D01*
X160075936Y-80888881D01*
X160175826Y-81116606D01*
X160311833Y-81324782D01*
X160311836Y-81324785D01*
X160480256Y-81507738D01*
X160676491Y-81660474D01*
X160895190Y-81778828D01*
X161130386Y-81859571D01*
X161375665Y-81900500D01*
X161624335Y-81900500D01*
X161869614Y-81859571D01*
X162104810Y-81778828D01*
X162323509Y-81660474D01*
X162519744Y-81507738D01*
X162688164Y-81324785D01*
X162824173Y-81116607D01*
X162924063Y-80888881D01*
X162985108Y-80647821D01*
X162990910Y-80577803D01*
X163005643Y-80400005D01*
X163005643Y-80400000D01*
X165344815Y-80400000D01*
X165363503Y-80577805D01*
X165363504Y-80577807D01*
X165418747Y-80747829D01*
X165418750Y-80747835D01*
X165508141Y-80902665D01*
X165549812Y-80948946D01*
X165627764Y-81035521D01*
X165627767Y-81035523D01*
X165627770Y-81035526D01*
X165772407Y-81140612D01*
X165935733Y-81213329D01*
X166110609Y-81250500D01*
X166110610Y-81250500D01*
X166289389Y-81250500D01*
X166289391Y-81250500D01*
X166464267Y-81213329D01*
X166627593Y-81140612D01*
X166772230Y-81035526D01*
X166772238Y-81035517D01*
X166775755Y-81032351D01*
X166838747Y-81002121D01*
X166858729Y-81000500D01*
X169141271Y-81000500D01*
X169208310Y-81020185D01*
X169224245Y-81032351D01*
X169227766Y-81035521D01*
X169227770Y-81035526D01*
X169372407Y-81140612D01*
X169535733Y-81213329D01*
X169710609Y-81250500D01*
X169710610Y-81250500D01*
X169889389Y-81250500D01*
X169889391Y-81250500D01*
X170064267Y-81213329D01*
X170227593Y-81140612D01*
X170372230Y-81035526D01*
X170491859Y-80902665D01*
X170581250Y-80747835D01*
X170636497Y-80577803D01*
X170655185Y-80400000D01*
X170655184Y-80399994D01*
X171994357Y-80399994D01*
X171994357Y-80400005D01*
X172014890Y-80647812D01*
X172014892Y-80647824D01*
X172075936Y-80888881D01*
X172175826Y-81116606D01*
X172311833Y-81324782D01*
X172311836Y-81324785D01*
X172480256Y-81507738D01*
X172676491Y-81660474D01*
X172895190Y-81778828D01*
X173130386Y-81859571D01*
X173375665Y-81900500D01*
X173624335Y-81900500D01*
X173869614Y-81859571D01*
X174104810Y-81778828D01*
X174323509Y-81660474D01*
X174519744Y-81507738D01*
X174688164Y-81324785D01*
X174824173Y-81116607D01*
X174924063Y-80888881D01*
X174985108Y-80647821D01*
X174990910Y-80577803D01*
X175005643Y-80400005D01*
X175005643Y-80399994D01*
X174985109Y-80152187D01*
X174985107Y-80152175D01*
X174924063Y-79911118D01*
X174824173Y-79683393D01*
X174688166Y-79475217D01*
X174599435Y-79378830D01*
X174519744Y-79292262D01*
X174323509Y-79139526D01*
X174323507Y-79139525D01*
X174323506Y-79139524D01*
X174104811Y-79021172D01*
X174104802Y-79021169D01*
X173869616Y-78940429D01*
X173624335Y-78899500D01*
X173375665Y-78899500D01*
X173130383Y-78940429D01*
X172895197Y-79021169D01*
X172895188Y-79021172D01*
X172676493Y-79139524D01*
X172480257Y-79292261D01*
X172311833Y-79475217D01*
X172175826Y-79683393D01*
X172075936Y-79911118D01*
X172014892Y-80152175D01*
X172014890Y-80152187D01*
X171994357Y-80399994D01*
X170655184Y-80399994D01*
X170636497Y-80222197D01*
X170581250Y-80052165D01*
X170491859Y-79897335D01*
X170445003Y-79845296D01*
X170372235Y-79764478D01*
X170372232Y-79764476D01*
X170372231Y-79764475D01*
X170372230Y-79764474D01*
X170227593Y-79659388D01*
X170064267Y-79586671D01*
X170064265Y-79586670D01*
X169936594Y-79559533D01*
X169889391Y-79549500D01*
X169710609Y-79549500D01*
X169679954Y-79556015D01*
X169535733Y-79586670D01*
X169535728Y-79586672D01*
X169372408Y-79659387D01*
X169227772Y-79764472D01*
X169224245Y-79767649D01*
X169161253Y-79797879D01*
X169141271Y-79799500D01*
X166858729Y-79799500D01*
X166791690Y-79779815D01*
X166775755Y-79767649D01*
X166772233Y-79764477D01*
X166772230Y-79764474D01*
X166627593Y-79659388D01*
X166464267Y-79586671D01*
X166464265Y-79586670D01*
X166336594Y-79559533D01*
X166289391Y-79549500D01*
X166110609Y-79549500D01*
X166079954Y-79556015D01*
X165935733Y-79586670D01*
X165935728Y-79586672D01*
X165772408Y-79659387D01*
X165627768Y-79764475D01*
X165508140Y-79897336D01*
X165418750Y-80052164D01*
X165418747Y-80052170D01*
X165363504Y-80222192D01*
X165363503Y-80222194D01*
X165344815Y-80400000D01*
X163005643Y-80400000D01*
X163005643Y-80399994D01*
X162985109Y-80152187D01*
X162985107Y-80152175D01*
X162924063Y-79911118D01*
X162824173Y-79683393D01*
X162688166Y-79475217D01*
X162599435Y-79378830D01*
X162519744Y-79292262D01*
X162323509Y-79139526D01*
X162323507Y-79139525D01*
X162323506Y-79139524D01*
X162104811Y-79021172D01*
X162104802Y-79021169D01*
X161869616Y-78940429D01*
X161624335Y-78899500D01*
X161375665Y-78899500D01*
X161130383Y-78940429D01*
X160895197Y-79021169D01*
X160895188Y-79021172D01*
X160676493Y-79139524D01*
X160480257Y-79292261D01*
X160311833Y-79475217D01*
X160175826Y-79683393D01*
X160075936Y-79911118D01*
X160014892Y-80152175D01*
X160014890Y-80152187D01*
X159994357Y-80399994D01*
X155092965Y-80399994D01*
X155059063Y-80266118D01*
X154959173Y-80038393D01*
X154823166Y-79830217D01*
X154793397Y-79797879D01*
X154654744Y-79647262D01*
X154458509Y-79494526D01*
X154458507Y-79494525D01*
X154458506Y-79494524D01*
X154239811Y-79376172D01*
X154239802Y-79376169D01*
X154004616Y-79295429D01*
X153759335Y-79254500D01*
X153510665Y-79254500D01*
X153265383Y-79295429D01*
X153030197Y-79376169D01*
X153030188Y-79376172D01*
X152811493Y-79494524D01*
X152615257Y-79647261D01*
X152446833Y-79830217D01*
X152310826Y-80038393D01*
X152210936Y-80266118D01*
X152149892Y-80507175D01*
X152149890Y-80507187D01*
X152129357Y-80754994D01*
X138500500Y-80754994D01*
X138500500Y-80339269D01*
X138520185Y-80272230D01*
X138572989Y-80226475D01*
X138642147Y-80216531D01*
X138705703Y-80245556D01*
X138723766Y-80264958D01*
X138792809Y-80357187D01*
X138792812Y-80357190D01*
X138907906Y-80443350D01*
X138907913Y-80443354D01*
X139042620Y-80493596D01*
X139042627Y-80493598D01*
X139102155Y-80499999D01*
X139102172Y-80500000D01*
X139900000Y-80500000D01*
X139900000Y-79490747D01*
X139937708Y-79512518D01*
X140077591Y-79550000D01*
X140222409Y-79550000D01*
X140362292Y-79512518D01*
X140400000Y-79490747D01*
X140400000Y-80500000D01*
X141197828Y-80500000D01*
X141197844Y-80499999D01*
X141257372Y-80493598D01*
X141257379Y-80493596D01*
X141392086Y-80443354D01*
X141392093Y-80443350D01*
X141507187Y-80357190D01*
X141507190Y-80357187D01*
X141593350Y-80242093D01*
X141593354Y-80242086D01*
X141643596Y-80107379D01*
X141643598Y-80107372D01*
X141649999Y-80047844D01*
X141650000Y-80047827D01*
X141650000Y-79250000D01*
X140640748Y-79250000D01*
X140662518Y-79212292D01*
X140700000Y-79072409D01*
X140700000Y-78999994D01*
X143744357Y-78999994D01*
X143744357Y-79000005D01*
X143764890Y-79247812D01*
X143764892Y-79247824D01*
X143825936Y-79488881D01*
X143925826Y-79716606D01*
X144061833Y-79924782D01*
X144061836Y-79924785D01*
X144230256Y-80107738D01*
X144426491Y-80260474D01*
X144645190Y-80378828D01*
X144880386Y-80459571D01*
X145125665Y-80500500D01*
X145374335Y-80500500D01*
X145619614Y-80459571D01*
X145854810Y-80378828D01*
X146073509Y-80260474D01*
X146269744Y-80107738D01*
X146438164Y-79924785D01*
X146574173Y-79716607D01*
X146674063Y-79488881D01*
X146735108Y-79247821D01*
X146755643Y-79000000D01*
X146755643Y-78999994D01*
X148844357Y-78999994D01*
X148844357Y-79000005D01*
X148864890Y-79247812D01*
X148864892Y-79247824D01*
X148925936Y-79488881D01*
X149025826Y-79716606D01*
X149161833Y-79924782D01*
X149161836Y-79924785D01*
X149330256Y-80107738D01*
X149526491Y-80260474D01*
X149745190Y-80378828D01*
X149980386Y-80459571D01*
X150225665Y-80500500D01*
X150474335Y-80500500D01*
X150719614Y-80459571D01*
X150954810Y-80378828D01*
X151173509Y-80260474D01*
X151369744Y-80107738D01*
X151538164Y-79924785D01*
X151674173Y-79716607D01*
X151774063Y-79488881D01*
X151835108Y-79247821D01*
X151855643Y-79000000D01*
X151849410Y-78924782D01*
X151835109Y-78752187D01*
X151835107Y-78752175D01*
X151774063Y-78511118D01*
X151674173Y-78283393D01*
X151538166Y-78075217D01*
X151515800Y-78050921D01*
X151468918Y-77999994D01*
X189744357Y-77999994D01*
X189744357Y-78000005D01*
X189764890Y-78247812D01*
X189764892Y-78247824D01*
X189825936Y-78488881D01*
X189925826Y-78716606D01*
X190061833Y-78924782D01*
X190061836Y-78924785D01*
X190230256Y-79107738D01*
X190426491Y-79260474D01*
X190426493Y-79260475D01*
X190640276Y-79376169D01*
X190645190Y-79378828D01*
X190880386Y-79459571D01*
X191125665Y-79500500D01*
X191374335Y-79500500D01*
X191619614Y-79459571D01*
X191854810Y-79378828D01*
X192073509Y-79260474D01*
X192269744Y-79107738D01*
X192438164Y-78924785D01*
X192574173Y-78716607D01*
X192674063Y-78488881D01*
X192735108Y-78247821D01*
X192735109Y-78247812D01*
X192751424Y-78050921D01*
X192770359Y-78001848D01*
X192978213Y-78001848D01*
X192996456Y-78036170D01*
X192998576Y-78050921D01*
X193014890Y-78247812D01*
X193014892Y-78247824D01*
X193075936Y-78488881D01*
X193175826Y-78716606D01*
X193311833Y-78924782D01*
X193311836Y-78924785D01*
X193480256Y-79107738D01*
X193676491Y-79260474D01*
X193676493Y-79260475D01*
X193890276Y-79376169D01*
X193895190Y-79378828D01*
X194130386Y-79459571D01*
X194375665Y-79500500D01*
X194624335Y-79500500D01*
X194869614Y-79459571D01*
X195104810Y-79378828D01*
X195323509Y-79260474D01*
X195519744Y-79107738D01*
X195688164Y-78924785D01*
X195824173Y-78716607D01*
X195924063Y-78488881D01*
X195985108Y-78247821D01*
X195985109Y-78247812D01*
X196001424Y-78050921D01*
X196020359Y-78001848D01*
X196228213Y-78001848D01*
X196246456Y-78036170D01*
X196248576Y-78050921D01*
X196264890Y-78247812D01*
X196264892Y-78247824D01*
X196325936Y-78488881D01*
X196425826Y-78716606D01*
X196561833Y-78924782D01*
X196561836Y-78924785D01*
X196730256Y-79107738D01*
X196926491Y-79260474D01*
X196926493Y-79260475D01*
X197140276Y-79376169D01*
X197145190Y-79378828D01*
X197380386Y-79459571D01*
X197625665Y-79500500D01*
X197874335Y-79500500D01*
X198119614Y-79459571D01*
X198354810Y-79378828D01*
X198573509Y-79260474D01*
X198769744Y-79107738D01*
X198938164Y-78924785D01*
X199074173Y-78716607D01*
X199174063Y-78488881D01*
X199235108Y-78247821D01*
X199235109Y-78247812D01*
X199255643Y-78000005D01*
X199255643Y-77999994D01*
X199235109Y-77752187D01*
X199235107Y-77752175D01*
X199174063Y-77511118D01*
X199074173Y-77283393D01*
X198938166Y-77075217D01*
X198818006Y-76944689D01*
X198769744Y-76892262D01*
X198573509Y-76739526D01*
X198573507Y-76739525D01*
X198573506Y-76739524D01*
X198354811Y-76621172D01*
X198354802Y-76621169D01*
X198119616Y-76540429D01*
X197874335Y-76499500D01*
X197625665Y-76499500D01*
X197380383Y-76540429D01*
X197145197Y-76621169D01*
X197145188Y-76621172D01*
X196926493Y-76739524D01*
X196730257Y-76892261D01*
X196561833Y-77075217D01*
X196425826Y-77283393D01*
X196325936Y-77511118D01*
X196264892Y-77752175D01*
X196264890Y-77752187D01*
X196248576Y-77949078D01*
X196228213Y-78001848D01*
X196020359Y-78001848D01*
X196021786Y-77998150D01*
X196003544Y-77963828D01*
X196001424Y-77949078D01*
X195985109Y-77752187D01*
X195985107Y-77752175D01*
X195924063Y-77511118D01*
X195824173Y-77283393D01*
X195688166Y-77075217D01*
X195568006Y-76944689D01*
X195519744Y-76892262D01*
X195323509Y-76739526D01*
X195323507Y-76739525D01*
X195323506Y-76739524D01*
X195104811Y-76621172D01*
X195104802Y-76621169D01*
X194869616Y-76540429D01*
X194624335Y-76499500D01*
X194375665Y-76499500D01*
X194130383Y-76540429D01*
X193895197Y-76621169D01*
X193895188Y-76621172D01*
X193676493Y-76739524D01*
X193480257Y-76892261D01*
X193311833Y-77075217D01*
X193175826Y-77283393D01*
X193075936Y-77511118D01*
X193014892Y-77752175D01*
X193014890Y-77752187D01*
X192998576Y-77949078D01*
X192978213Y-78001848D01*
X192770359Y-78001848D01*
X192771786Y-77998150D01*
X192753544Y-77963828D01*
X192751424Y-77949078D01*
X192735109Y-77752187D01*
X192735107Y-77752175D01*
X192674063Y-77511118D01*
X192574173Y-77283393D01*
X192438166Y-77075217D01*
X192318006Y-76944689D01*
X192269744Y-76892262D01*
X192073509Y-76739526D01*
X192073507Y-76739525D01*
X192073506Y-76739524D01*
X191854811Y-76621172D01*
X191854802Y-76621169D01*
X191619616Y-76540429D01*
X191374335Y-76499500D01*
X191125665Y-76499500D01*
X190880383Y-76540429D01*
X190645197Y-76621169D01*
X190645188Y-76621172D01*
X190426493Y-76739524D01*
X190230257Y-76892261D01*
X190061833Y-77075217D01*
X189925826Y-77283393D01*
X189825936Y-77511118D01*
X189764892Y-77752175D01*
X189764890Y-77752187D01*
X189744357Y-77999994D01*
X151468918Y-77999994D01*
X151369744Y-77892262D01*
X151173509Y-77739526D01*
X151173507Y-77739525D01*
X151173506Y-77739524D01*
X150954811Y-77621172D01*
X150954802Y-77621169D01*
X150719616Y-77540429D01*
X150474335Y-77499500D01*
X150225665Y-77499500D01*
X149980383Y-77540429D01*
X149745197Y-77621169D01*
X149745188Y-77621172D01*
X149526493Y-77739524D01*
X149472054Y-77781896D01*
X149330256Y-77892262D01*
X149329920Y-77892627D01*
X149161833Y-78075217D01*
X149025826Y-78283393D01*
X148925936Y-78511118D01*
X148864892Y-78752175D01*
X148864890Y-78752187D01*
X148844357Y-78999994D01*
X146755643Y-78999994D01*
X146749410Y-78924782D01*
X146735109Y-78752187D01*
X146735107Y-78752175D01*
X146674063Y-78511118D01*
X146574173Y-78283393D01*
X146438166Y-78075217D01*
X146415800Y-78050921D01*
X146269744Y-77892262D01*
X146073509Y-77739526D01*
X146073507Y-77739525D01*
X146073506Y-77739524D01*
X145854811Y-77621172D01*
X145854802Y-77621169D01*
X145619616Y-77540429D01*
X145374335Y-77499500D01*
X145125665Y-77499500D01*
X144880383Y-77540429D01*
X144645197Y-77621169D01*
X144645188Y-77621172D01*
X144426493Y-77739524D01*
X144372054Y-77781896D01*
X144230256Y-77892262D01*
X144229920Y-77892627D01*
X144061833Y-78075217D01*
X143925826Y-78283393D01*
X143825936Y-78511118D01*
X143764892Y-78752175D01*
X143764890Y-78752187D01*
X143744357Y-78999994D01*
X140700000Y-78999994D01*
X140700000Y-78927591D01*
X140662518Y-78787708D01*
X140640748Y-78750000D01*
X141650000Y-78750000D01*
X141650000Y-77952172D01*
X141649999Y-77952155D01*
X141643598Y-77892627D01*
X141643596Y-77892620D01*
X141593354Y-77757913D01*
X141593350Y-77757906D01*
X141507190Y-77642812D01*
X141507187Y-77642809D01*
X141392093Y-77556649D01*
X141392086Y-77556645D01*
X141257379Y-77506403D01*
X141257372Y-77506401D01*
X141197844Y-77500000D01*
X140400000Y-77500000D01*
X140400000Y-78509252D01*
X140362292Y-78487482D01*
X140222409Y-78450000D01*
X140077591Y-78450000D01*
X139937708Y-78487482D01*
X139900000Y-78509252D01*
X139900000Y-77500000D01*
X139102155Y-77500000D01*
X139042627Y-77506401D01*
X139042620Y-77506403D01*
X138907913Y-77556645D01*
X138907906Y-77556649D01*
X138792812Y-77642809D01*
X138723766Y-77735042D01*
X138667832Y-77776912D01*
X138598140Y-77781896D01*
X138536817Y-77748410D01*
X138503333Y-77687086D01*
X138500500Y-77660730D01*
X138500500Y-75599994D01*
X159994859Y-75599994D01*
X159994859Y-75600005D01*
X160015385Y-75847729D01*
X160015387Y-75847738D01*
X160076412Y-76088717D01*
X160176267Y-76316367D01*
X160276562Y-76469881D01*
X160976212Y-75770233D01*
X160987482Y-75812292D01*
X161059890Y-75937708D01*
X161162292Y-76040110D01*
X161287708Y-76112518D01*
X161329766Y-76123787D01*
X160629943Y-76823609D01*
X160676768Y-76860055D01*
X160676771Y-76860057D01*
X160895385Y-76978364D01*
X160895396Y-76978369D01*
X161130506Y-77059083D01*
X161375707Y-77100000D01*
X161624293Y-77100000D01*
X161869493Y-77059083D01*
X162104603Y-76978369D01*
X162104614Y-76978364D01*
X162323230Y-76860056D01*
X162323236Y-76860051D01*
X162370055Y-76823610D01*
X162370056Y-76823609D01*
X161670233Y-76123787D01*
X161712292Y-76112518D01*
X161837708Y-76040110D01*
X161940110Y-75937708D01*
X162012518Y-75812292D01*
X162023787Y-75770234D01*
X162723435Y-76469882D01*
X162823733Y-76316364D01*
X162923587Y-76088717D01*
X162984612Y-75847738D01*
X162984614Y-75847729D01*
X163005141Y-75600005D01*
X163005141Y-75599994D01*
X171994859Y-75599994D01*
X171994859Y-75600005D01*
X172015385Y-75847729D01*
X172015387Y-75847738D01*
X172076412Y-76088717D01*
X172176267Y-76316367D01*
X172276562Y-76469881D01*
X172976212Y-75770233D01*
X172987482Y-75812292D01*
X173059890Y-75937708D01*
X173162292Y-76040110D01*
X173287708Y-76112518D01*
X173329766Y-76123787D01*
X172629943Y-76823609D01*
X172676768Y-76860055D01*
X172676771Y-76860057D01*
X172895385Y-76978364D01*
X172895396Y-76978369D01*
X173130506Y-77059083D01*
X173375707Y-77100000D01*
X173624293Y-77100000D01*
X173869493Y-77059083D01*
X174104603Y-76978369D01*
X174104614Y-76978364D01*
X174323230Y-76860056D01*
X174323236Y-76860051D01*
X174370055Y-76823610D01*
X174370056Y-76823609D01*
X173670233Y-76123787D01*
X173712292Y-76112518D01*
X173837708Y-76040110D01*
X173940110Y-75937708D01*
X174012518Y-75812292D01*
X174023787Y-75770234D01*
X174723435Y-76469882D01*
X174823733Y-76316364D01*
X174826525Y-76309999D01*
X206294357Y-76309999D01*
X206294357Y-76310000D01*
X206314884Y-76531535D01*
X206314885Y-76531537D01*
X206375769Y-76745523D01*
X206375775Y-76745538D01*
X206474938Y-76944683D01*
X206474943Y-76944691D01*
X206609020Y-77122238D01*
X206773437Y-77272123D01*
X206773439Y-77272125D01*
X206962595Y-77389245D01*
X206962596Y-77389245D01*
X206962599Y-77389247D01*
X207170060Y-77469618D01*
X207388757Y-77510500D01*
X207388759Y-77510500D01*
X207611241Y-77510500D01*
X207611243Y-77510500D01*
X207829940Y-77469618D01*
X208037401Y-77389247D01*
X208226562Y-77272124D01*
X208390981Y-77122236D01*
X208525058Y-76944689D01*
X208624229Y-76745528D01*
X208685115Y-76531536D01*
X208705643Y-76310000D01*
X208685115Y-76088464D01*
X208624229Y-75874472D01*
X208624224Y-75874461D01*
X208525061Y-75675316D01*
X208525056Y-75675308D01*
X208390979Y-75497761D01*
X208226562Y-75347876D01*
X208226560Y-75347874D01*
X208037404Y-75230754D01*
X208037398Y-75230752D01*
X207829940Y-75150382D01*
X207611243Y-75109500D01*
X207388757Y-75109500D01*
X207170060Y-75150382D01*
X207038864Y-75201207D01*
X206962601Y-75230752D01*
X206962595Y-75230754D01*
X206773439Y-75347874D01*
X206773437Y-75347876D01*
X206609020Y-75497761D01*
X206474943Y-75675308D01*
X206474938Y-75675316D01*
X206375775Y-75874461D01*
X206375769Y-75874476D01*
X206314885Y-76088462D01*
X206314884Y-76088464D01*
X206294357Y-76309999D01*
X174826525Y-76309999D01*
X174923587Y-76088717D01*
X174984612Y-75847738D01*
X174984614Y-75847729D01*
X175005141Y-75600005D01*
X175005141Y-75599994D01*
X174984614Y-75352270D01*
X174984612Y-75352261D01*
X174923587Y-75111282D01*
X174823732Y-74883632D01*
X174723435Y-74730116D01*
X174023787Y-75429765D01*
X174012518Y-75387708D01*
X173940110Y-75262292D01*
X173837708Y-75159890D01*
X173712292Y-75087482D01*
X173670233Y-75076212D01*
X174370055Y-74376389D01*
X174370055Y-74376388D01*
X174323236Y-74339947D01*
X174323231Y-74339944D01*
X174104614Y-74221635D01*
X174104603Y-74221630D01*
X173869493Y-74140916D01*
X173624293Y-74100000D01*
X173375707Y-74100000D01*
X173130506Y-74140916D01*
X172895396Y-74221630D01*
X172895385Y-74221635D01*
X172676770Y-74339943D01*
X172629943Y-74376389D01*
X173329766Y-75076212D01*
X173287708Y-75087482D01*
X173162292Y-75159890D01*
X173059890Y-75262292D01*
X172987482Y-75387708D01*
X172976212Y-75429765D01*
X172276563Y-74730117D01*
X172176267Y-74883633D01*
X172176265Y-74883637D01*
X172076412Y-75111282D01*
X172015387Y-75352261D01*
X172015385Y-75352270D01*
X171994859Y-75599994D01*
X163005141Y-75599994D01*
X162984614Y-75352270D01*
X162984612Y-75352261D01*
X162923587Y-75111282D01*
X162823732Y-74883632D01*
X162723435Y-74730116D01*
X162023787Y-75429765D01*
X162012518Y-75387708D01*
X161940110Y-75262292D01*
X161837708Y-75159890D01*
X161712292Y-75087482D01*
X161670233Y-75076212D01*
X162370055Y-74376389D01*
X162370055Y-74376388D01*
X162323236Y-74339947D01*
X162323231Y-74339944D01*
X162104614Y-74221635D01*
X162104603Y-74221630D01*
X161869493Y-74140916D01*
X161624293Y-74100000D01*
X161375707Y-74100000D01*
X161130506Y-74140916D01*
X160895396Y-74221630D01*
X160895385Y-74221635D01*
X160676770Y-74339943D01*
X160629943Y-74376389D01*
X161329766Y-75076212D01*
X161287708Y-75087482D01*
X161162292Y-75159890D01*
X161059890Y-75262292D01*
X160987482Y-75387708D01*
X160976212Y-75429766D01*
X160276563Y-74730117D01*
X160176267Y-74883633D01*
X160176265Y-74883637D01*
X160076412Y-75111282D01*
X160015387Y-75352261D01*
X160015385Y-75352270D01*
X159994859Y-75599994D01*
X138500500Y-75599994D01*
X138500500Y-73419998D01*
X182694532Y-73419998D01*
X182694532Y-73420001D01*
X182714364Y-73646686D01*
X182714366Y-73646697D01*
X182773258Y-73866488D01*
X182773261Y-73866497D01*
X182869431Y-74072732D01*
X182869432Y-74072734D01*
X182999954Y-74259141D01*
X183160858Y-74420045D01*
X183160861Y-74420047D01*
X183347266Y-74550568D01*
X183553504Y-74646739D01*
X183773308Y-74705635D01*
X183935230Y-74719801D01*
X183999998Y-74725468D01*
X184000000Y-74725468D01*
X184000002Y-74725468D01*
X184056673Y-74720509D01*
X184226692Y-74705635D01*
X184446496Y-74646739D01*
X184652734Y-74550568D01*
X184839139Y-74420047D01*
X185000047Y-74259139D01*
X185130568Y-74072734D01*
X185226739Y-73866496D01*
X185285635Y-73646692D01*
X185305468Y-73420000D01*
X185285635Y-73193308D01*
X185226739Y-72973504D01*
X185130568Y-72767266D01*
X185000047Y-72580861D01*
X185000045Y-72580858D01*
X184839141Y-72419954D01*
X184652734Y-72289432D01*
X184652732Y-72289431D01*
X184446497Y-72193261D01*
X184446488Y-72193258D01*
X184226697Y-72134366D01*
X184226693Y-72134365D01*
X184226692Y-72134365D01*
X184226691Y-72134364D01*
X184226686Y-72134364D01*
X184000002Y-72114532D01*
X183999998Y-72114532D01*
X183773313Y-72134364D01*
X183773302Y-72134366D01*
X183553511Y-72193258D01*
X183553502Y-72193261D01*
X183347267Y-72289431D01*
X183347265Y-72289432D01*
X183160858Y-72419954D01*
X182999954Y-72580858D01*
X182869432Y-72767265D01*
X182869431Y-72767267D01*
X182773261Y-72973502D01*
X182773258Y-72973511D01*
X182714366Y-73193302D01*
X182714364Y-73193313D01*
X182694532Y-73419998D01*
X138500500Y-73419998D01*
X138500500Y-67249994D01*
X165744357Y-67249994D01*
X165744357Y-67250005D01*
X165764890Y-67497812D01*
X165764892Y-67497824D01*
X165825936Y-67738881D01*
X165925826Y-67966606D01*
X166061833Y-68174782D01*
X166061836Y-68174785D01*
X166230256Y-68357738D01*
X166426491Y-68510474D01*
X166645190Y-68628828D01*
X166880386Y-68709571D01*
X167125665Y-68750500D01*
X167374335Y-68750500D01*
X167619614Y-68709571D01*
X167854810Y-68628828D01*
X168073509Y-68510474D01*
X168269744Y-68357738D01*
X168438164Y-68174785D01*
X168574173Y-67966607D01*
X168674063Y-67738881D01*
X168735108Y-67497821D01*
X168735109Y-67497812D01*
X168755643Y-67250005D01*
X168755643Y-67249994D01*
X168735109Y-67002187D01*
X168735107Y-67002175D01*
X168709231Y-66899994D01*
X182494357Y-66899994D01*
X182494357Y-66900005D01*
X182514890Y-67147812D01*
X182514892Y-67147824D01*
X182575936Y-67388881D01*
X182675826Y-67616606D01*
X182811833Y-67824782D01*
X182811836Y-67824785D01*
X182980256Y-68007738D01*
X183176491Y-68160474D01*
X183395190Y-68278828D01*
X183630386Y-68359571D01*
X183875665Y-68400500D01*
X184124335Y-68400500D01*
X184369614Y-68359571D01*
X184604810Y-68278828D01*
X184823509Y-68160474D01*
X185019744Y-68007738D01*
X185188164Y-67824785D01*
X185324173Y-67616607D01*
X185424063Y-67388881D01*
X185485108Y-67147821D01*
X185497176Y-67002187D01*
X185505643Y-66900005D01*
X185505643Y-66899994D01*
X185485109Y-66652187D01*
X185485107Y-66652175D01*
X185424063Y-66411118D01*
X185324173Y-66183393D01*
X185188166Y-65975217D01*
X185160349Y-65945000D01*
X185019744Y-65792262D01*
X184823509Y-65639526D01*
X184823507Y-65639525D01*
X184823506Y-65639524D01*
X184604811Y-65521172D01*
X184604802Y-65521169D01*
X184369616Y-65440429D01*
X184124335Y-65399500D01*
X183875665Y-65399500D01*
X183630383Y-65440429D01*
X183395197Y-65521169D01*
X183395188Y-65521172D01*
X183176493Y-65639524D01*
X182980257Y-65792261D01*
X182811833Y-65975217D01*
X182675826Y-66183393D01*
X182575936Y-66411118D01*
X182514892Y-66652175D01*
X182514890Y-66652187D01*
X182494357Y-66899994D01*
X168709231Y-66899994D01*
X168674063Y-66761118D01*
X168574173Y-66533393D01*
X168438166Y-66325217D01*
X168416557Y-66301744D01*
X168269744Y-66142262D01*
X168073509Y-65989526D01*
X168073507Y-65989525D01*
X168073506Y-65989524D01*
X167854811Y-65871172D01*
X167854802Y-65871169D01*
X167619616Y-65790429D01*
X167374335Y-65749500D01*
X167125665Y-65749500D01*
X166880383Y-65790429D01*
X166645197Y-65871169D01*
X166645188Y-65871172D01*
X166426493Y-65989524D01*
X166230257Y-66142261D01*
X166061833Y-66325217D01*
X165925826Y-66533393D01*
X165825936Y-66761118D01*
X165764892Y-67002175D01*
X165764890Y-67002187D01*
X165744357Y-67249994D01*
X138500500Y-67249994D01*
X138500500Y-64347155D01*
X152265000Y-64347155D01*
X152265000Y-65145000D01*
X153274252Y-65145000D01*
X153252482Y-65182708D01*
X153215000Y-65322591D01*
X153215000Y-65467409D01*
X153252482Y-65607292D01*
X153274252Y-65645000D01*
X152265000Y-65645000D01*
X152265000Y-66442844D01*
X152271401Y-66502372D01*
X152271403Y-66502379D01*
X152321645Y-66637086D01*
X152321649Y-66637093D01*
X152407809Y-66752187D01*
X152407812Y-66752190D01*
X152522906Y-66838350D01*
X152522913Y-66838354D01*
X152657620Y-66888596D01*
X152657627Y-66888598D01*
X152717155Y-66894999D01*
X152717172Y-66895000D01*
X153515000Y-66895000D01*
X153515000Y-65885747D01*
X153552708Y-65907518D01*
X153692591Y-65945000D01*
X153837409Y-65945000D01*
X153977292Y-65907518D01*
X154015000Y-65885747D01*
X154015000Y-66895000D01*
X154812828Y-66895000D01*
X154812844Y-66894999D01*
X154872372Y-66888598D01*
X154872379Y-66888596D01*
X155007086Y-66838354D01*
X155007093Y-66838350D01*
X155122187Y-66752190D01*
X155122190Y-66752187D01*
X155208350Y-66637093D01*
X155208354Y-66637086D01*
X155258596Y-66502379D01*
X155258598Y-66502372D01*
X155264999Y-66442844D01*
X155265000Y-66442827D01*
X155265000Y-65645000D01*
X154255748Y-65645000D01*
X154277518Y-65607292D01*
X154315000Y-65467409D01*
X154315000Y-65394994D01*
X157359357Y-65394994D01*
X157359357Y-65395005D01*
X157379890Y-65642812D01*
X157379892Y-65642824D01*
X157440936Y-65883881D01*
X157540826Y-66111606D01*
X157676833Y-66319782D01*
X157709245Y-66354991D01*
X157845256Y-66502738D01*
X158041491Y-66655474D01*
X158260190Y-66773828D01*
X158495386Y-66854571D01*
X158740665Y-66895500D01*
X158989335Y-66895500D01*
X159234614Y-66854571D01*
X159469810Y-66773828D01*
X159688509Y-66655474D01*
X159884744Y-66502738D01*
X160053164Y-66319785D01*
X160189173Y-66111607D01*
X160289063Y-65883881D01*
X160350108Y-65642821D01*
X160360188Y-65521172D01*
X160370643Y-65395005D01*
X160370643Y-65394994D01*
X162459357Y-65394994D01*
X162459357Y-65395005D01*
X162479890Y-65642812D01*
X162479892Y-65642824D01*
X162540936Y-65883881D01*
X162640826Y-66111606D01*
X162776833Y-66319782D01*
X162809245Y-66354991D01*
X162945256Y-66502738D01*
X163141491Y-66655474D01*
X163360190Y-66773828D01*
X163595386Y-66854571D01*
X163840665Y-66895500D01*
X164089335Y-66895500D01*
X164334614Y-66854571D01*
X164569810Y-66773828D01*
X164788509Y-66655474D01*
X164984744Y-66502738D01*
X165153164Y-66319785D01*
X165289173Y-66111607D01*
X165389063Y-65883881D01*
X165450108Y-65642821D01*
X165460188Y-65521172D01*
X165470643Y-65395005D01*
X165470643Y-65394994D01*
X165450109Y-65147187D01*
X165450107Y-65147175D01*
X165434136Y-65084108D01*
X187459500Y-65084108D01*
X187459500Y-73815891D01*
X187493608Y-73943187D01*
X187526554Y-74000250D01*
X187559500Y-74057314D01*
X187652686Y-74150500D01*
X187766814Y-74216392D01*
X187894108Y-74250500D01*
X187991724Y-74250500D01*
X188058763Y-74270185D01*
X188104518Y-74322989D01*
X188114462Y-74392147D01*
X188110385Y-74410495D01*
X188054699Y-74594067D01*
X188034417Y-74800000D01*
X188054699Y-75005932D01*
X188054700Y-75005934D01*
X188114768Y-75203954D01*
X188212315Y-75386450D01*
X188246969Y-75428677D01*
X188343589Y-75546410D01*
X188408890Y-75600000D01*
X188503550Y-75677685D01*
X188686046Y-75775232D01*
X188884066Y-75835300D01*
X188884065Y-75835300D01*
X188902529Y-75837118D01*
X189090000Y-75855583D01*
X189295934Y-75835300D01*
X189493954Y-75775232D01*
X189676450Y-75677685D01*
X189836410Y-75546410D01*
X189884146Y-75488242D01*
X189941892Y-75448908D01*
X190011736Y-75447037D01*
X190071505Y-75483224D01*
X190075854Y-75488243D01*
X190123589Y-75546410D01*
X190188890Y-75600000D01*
X190283550Y-75677685D01*
X190466046Y-75775232D01*
X190664066Y-75835300D01*
X190664065Y-75835300D01*
X190682529Y-75837118D01*
X190870000Y-75855583D01*
X191075934Y-75835300D01*
X191273954Y-75775232D01*
X191456450Y-75677685D01*
X191616410Y-75546410D01*
X191664146Y-75488242D01*
X191721892Y-75448908D01*
X191791736Y-75447037D01*
X191851505Y-75483224D01*
X191855854Y-75488243D01*
X191903589Y-75546410D01*
X191968890Y-75600000D01*
X192063550Y-75677685D01*
X192246046Y-75775232D01*
X192444066Y-75835300D01*
X192444065Y-75835300D01*
X192462529Y-75837118D01*
X192650000Y-75855583D01*
X192855934Y-75835300D01*
X193053954Y-75775232D01*
X193236450Y-75677685D01*
X193396410Y-75546410D01*
X193444146Y-75488242D01*
X193501892Y-75448908D01*
X193571736Y-75447037D01*
X193631505Y-75483224D01*
X193635854Y-75488243D01*
X193683589Y-75546410D01*
X193748890Y-75600000D01*
X193843550Y-75677685D01*
X194026046Y-75775232D01*
X194224066Y-75835300D01*
X194224065Y-75835300D01*
X194242529Y-75837118D01*
X194430000Y-75855583D01*
X194635934Y-75835300D01*
X194833954Y-75775232D01*
X195016450Y-75677685D01*
X195176410Y-75546410D01*
X195224146Y-75488242D01*
X195281892Y-75448908D01*
X195351736Y-75447037D01*
X195411505Y-75483224D01*
X195415854Y-75488243D01*
X195463589Y-75546410D01*
X195528890Y-75600000D01*
X195623550Y-75677685D01*
X195806046Y-75775232D01*
X196004066Y-75835300D01*
X196004065Y-75835300D01*
X196022529Y-75837118D01*
X196210000Y-75855583D01*
X196415934Y-75835300D01*
X196613954Y-75775232D01*
X196796450Y-75677685D01*
X196956410Y-75546410D01*
X197004146Y-75488242D01*
X197061892Y-75448908D01*
X197131736Y-75447037D01*
X197191505Y-75483224D01*
X197195854Y-75488243D01*
X197243589Y-75546410D01*
X197308890Y-75600000D01*
X197403550Y-75677685D01*
X197586046Y-75775232D01*
X197784066Y-75835300D01*
X197784065Y-75835300D01*
X197802529Y-75837118D01*
X197990000Y-75855583D01*
X198195934Y-75835300D01*
X198393954Y-75775232D01*
X198576450Y-75677685D01*
X198736410Y-75546410D01*
X198784146Y-75488242D01*
X198841892Y-75448908D01*
X198911736Y-75447037D01*
X198971505Y-75483224D01*
X198975854Y-75488243D01*
X199023589Y-75546410D01*
X199088890Y-75600000D01*
X199183550Y-75677685D01*
X199366046Y-75775232D01*
X199564066Y-75835300D01*
X199564065Y-75835300D01*
X199582529Y-75837118D01*
X199770000Y-75855583D01*
X199975934Y-75835300D01*
X200173954Y-75775232D01*
X200356450Y-75677685D01*
X200516410Y-75546410D01*
X200564146Y-75488242D01*
X200621892Y-75448908D01*
X200691736Y-75447037D01*
X200751505Y-75483224D01*
X200755854Y-75488243D01*
X200803589Y-75546410D01*
X200868890Y-75600000D01*
X200963550Y-75677685D01*
X201146046Y-75775232D01*
X201344066Y-75835300D01*
X201344065Y-75835300D01*
X201362529Y-75837118D01*
X201550000Y-75855583D01*
X201755934Y-75835300D01*
X201953954Y-75775232D01*
X202136450Y-75677685D01*
X202296410Y-75546410D01*
X202427685Y-75386450D01*
X202525232Y-75203954D01*
X202585300Y-75005934D01*
X202605583Y-74800000D01*
X202585300Y-74594066D01*
X202529614Y-74410494D01*
X202528992Y-74340628D01*
X202566241Y-74281515D01*
X202629535Y-74251924D01*
X202648276Y-74250500D01*
X205285890Y-74250500D01*
X205285892Y-74250500D01*
X205413186Y-74216392D01*
X205527314Y-74150500D01*
X205620500Y-74057314D01*
X205686392Y-73943186D01*
X205720500Y-73815892D01*
X205720500Y-68689999D01*
X206294357Y-68689999D01*
X206294357Y-68690000D01*
X206314884Y-68911535D01*
X206314885Y-68911537D01*
X206375769Y-69125523D01*
X206375775Y-69125538D01*
X206474938Y-69324683D01*
X206474943Y-69324691D01*
X206609020Y-69502238D01*
X206773437Y-69652123D01*
X206773439Y-69652125D01*
X206962595Y-69769245D01*
X206962596Y-69769245D01*
X206962599Y-69769247D01*
X207170060Y-69849618D01*
X207388757Y-69890500D01*
X207388759Y-69890500D01*
X207611241Y-69890500D01*
X207611243Y-69890500D01*
X207829940Y-69849618D01*
X208037401Y-69769247D01*
X208226562Y-69652124D01*
X208390981Y-69502236D01*
X208525058Y-69324689D01*
X208624229Y-69125528D01*
X208685115Y-68911536D01*
X208705643Y-68690000D01*
X208685115Y-68468464D01*
X208624229Y-68254472D01*
X208624224Y-68254461D01*
X208525061Y-68055316D01*
X208525056Y-68055308D01*
X208390979Y-67877761D01*
X208226562Y-67727876D01*
X208226560Y-67727874D01*
X208037404Y-67610754D01*
X208037398Y-67610752D01*
X207829940Y-67530382D01*
X207611243Y-67489500D01*
X207388757Y-67489500D01*
X207170060Y-67530382D01*
X207038864Y-67581207D01*
X206962601Y-67610752D01*
X206962595Y-67610754D01*
X206773439Y-67727874D01*
X206773437Y-67727876D01*
X206609020Y-67877761D01*
X206474943Y-68055308D01*
X206474938Y-68055316D01*
X206375775Y-68254461D01*
X206375769Y-68254476D01*
X206314885Y-68468462D01*
X206314884Y-68468464D01*
X206294357Y-68689999D01*
X205720500Y-68689999D01*
X205720500Y-65084108D01*
X205686392Y-64956814D01*
X205620500Y-64842686D01*
X205527314Y-64749500D01*
X205470250Y-64716554D01*
X205413187Y-64683608D01*
X205349539Y-64666554D01*
X205285892Y-64649500D01*
X205285891Y-64649500D01*
X203614500Y-64649500D01*
X203547461Y-64629815D01*
X203501706Y-64577011D01*
X203490500Y-64525500D01*
X203490499Y-63502129D01*
X203490498Y-63502123D01*
X203484091Y-63442516D01*
X203433797Y-63307671D01*
X203433793Y-63307664D01*
X203347547Y-63192455D01*
X203347544Y-63192452D01*
X203232335Y-63106206D01*
X203232328Y-63106202D01*
X203097482Y-63055908D01*
X203097483Y-63055908D01*
X203037883Y-63049501D01*
X203037881Y-63049500D01*
X203037873Y-63049500D01*
X203037864Y-63049500D01*
X201842129Y-63049500D01*
X201842123Y-63049501D01*
X201782516Y-63055908D01*
X201647671Y-63106202D01*
X201647664Y-63106206D01*
X201532455Y-63192452D01*
X201532453Y-63192454D01*
X201487466Y-63252548D01*
X201431532Y-63294418D01*
X201361840Y-63299401D01*
X201309536Y-63274088D01*
X201246453Y-63222317D01*
X201246451Y-63222316D01*
X201246450Y-63222315D01*
X201063954Y-63124768D01*
X200865934Y-63064700D01*
X200865932Y-63064699D01*
X200865934Y-63064699D01*
X200660000Y-63044417D01*
X200454067Y-63064699D01*
X200317244Y-63106204D01*
X200256050Y-63124767D01*
X200256043Y-63124769D01*
X200145898Y-63183643D01*
X200073550Y-63222315D01*
X200073548Y-63222316D01*
X200073547Y-63222317D01*
X199913589Y-63353590D01*
X199865853Y-63411757D01*
X199808108Y-63451091D01*
X199738263Y-63452962D01*
X199678495Y-63416774D01*
X199674147Y-63411757D01*
X199626410Y-63353590D01*
X199466452Y-63222317D01*
X199466453Y-63222317D01*
X199466450Y-63222315D01*
X199283954Y-63124768D01*
X199085934Y-63064700D01*
X199085932Y-63064699D01*
X199085934Y-63064699D01*
X198880000Y-63044417D01*
X198674067Y-63064699D01*
X198537244Y-63106204D01*
X198476050Y-63124767D01*
X198476043Y-63124769D01*
X198365898Y-63183643D01*
X198293550Y-63222315D01*
X198293548Y-63222316D01*
X198293547Y-63222317D01*
X198133589Y-63353590D01*
X198085853Y-63411757D01*
X198028108Y-63451091D01*
X197958263Y-63452962D01*
X197898495Y-63416774D01*
X197894147Y-63411757D01*
X197846410Y-63353590D01*
X197686452Y-63222317D01*
X197686453Y-63222317D01*
X197686450Y-63222315D01*
X197598465Y-63175285D01*
X197503954Y-63124767D01*
X197489404Y-63120354D01*
X197430966Y-63082055D01*
X197402510Y-63018243D01*
X197413072Y-62949176D01*
X197437717Y-62914016D01*
X199014916Y-61336819D01*
X199076239Y-61303334D01*
X199102597Y-61300500D01*
X210841271Y-61300500D01*
X210908310Y-61320185D01*
X210924245Y-61332351D01*
X210927766Y-61335521D01*
X210927770Y-61335526D01*
X211072407Y-61440612D01*
X211235733Y-61513329D01*
X211410609Y-61550500D01*
X211410610Y-61550500D01*
X211589389Y-61550500D01*
X211589391Y-61550500D01*
X211764267Y-61513329D01*
X211927593Y-61440612D01*
X212072230Y-61335526D01*
X212191859Y-61202665D01*
X212281250Y-61047835D01*
X212336497Y-60877803D01*
X212355185Y-60700000D01*
X212336497Y-60522197D01*
X212281250Y-60352165D01*
X212191859Y-60197335D01*
X212140615Y-60140423D01*
X212072235Y-60064478D01*
X212072232Y-60064476D01*
X212072231Y-60064475D01*
X212072230Y-60064474D01*
X211927593Y-59959388D01*
X211764267Y-59886671D01*
X211764265Y-59886670D01*
X211636594Y-59859533D01*
X211589391Y-59849500D01*
X211410609Y-59849500D01*
X211379954Y-59856015D01*
X211235733Y-59886670D01*
X211235728Y-59886672D01*
X211072408Y-59959387D01*
X210927772Y-60064472D01*
X210924245Y-60067649D01*
X210861253Y-60097879D01*
X210841271Y-60099500D01*
X198889169Y-60099500D01*
X198889153Y-60099499D01*
X198881557Y-60099499D01*
X198723443Y-60099499D01*
X198616087Y-60128265D01*
X198570710Y-60140424D01*
X198570709Y-60140425D01*
X198520596Y-60169359D01*
X198520595Y-60169360D01*
X198477189Y-60194420D01*
X198433785Y-60219479D01*
X198433782Y-60219481D01*
X198321978Y-60331286D01*
X195624419Y-63028844D01*
X195563096Y-63062329D01*
X195524584Y-63064566D01*
X195320000Y-63044417D01*
X195114067Y-63064699D01*
X194977244Y-63106204D01*
X194916050Y-63124767D01*
X194916043Y-63124769D01*
X194805898Y-63183643D01*
X194733550Y-63222315D01*
X194733548Y-63222316D01*
X194733547Y-63222317D01*
X194573589Y-63353590D01*
X194525853Y-63411757D01*
X194468108Y-63451091D01*
X194398263Y-63452962D01*
X194338495Y-63416774D01*
X194334147Y-63411757D01*
X194286410Y-63353590D01*
X194126452Y-63222317D01*
X194126453Y-63222317D01*
X194126450Y-63222315D01*
X193943954Y-63124768D01*
X193745934Y-63064700D01*
X193745932Y-63064699D01*
X193745934Y-63064699D01*
X193540000Y-63044417D01*
X193334067Y-63064699D01*
X193197244Y-63106204D01*
X193136050Y-63124767D01*
X193136043Y-63124769D01*
X193025898Y-63183643D01*
X192953550Y-63222315D01*
X192953548Y-63222316D01*
X192953547Y-63222317D01*
X192793589Y-63353590D01*
X192745853Y-63411757D01*
X192688108Y-63451091D01*
X192618263Y-63452962D01*
X192558495Y-63416774D01*
X192554147Y-63411757D01*
X192506410Y-63353590D01*
X192346452Y-63222317D01*
X192346453Y-63222317D01*
X192346450Y-63222315D01*
X192163954Y-63124768D01*
X191965934Y-63064700D01*
X191965932Y-63064699D01*
X191965934Y-63064699D01*
X191760000Y-63044417D01*
X191554067Y-63064699D01*
X191417244Y-63106204D01*
X191356050Y-63124767D01*
X191356043Y-63124769D01*
X191245898Y-63183643D01*
X191173550Y-63222315D01*
X191173548Y-63222316D01*
X191173547Y-63222317D01*
X191013589Y-63353589D01*
X190882316Y-63513547D01*
X190847705Y-63578298D01*
X190826029Y-63607523D01*
X190330000Y-64103552D01*
X190330000Y-64053922D01*
X190306148Y-63964905D01*
X190260070Y-63885095D01*
X190194905Y-63819930D01*
X190115095Y-63773852D01*
X190026078Y-63750000D01*
X189933922Y-63750000D01*
X189844905Y-63773852D01*
X189765095Y-63819930D01*
X189699930Y-63885095D01*
X189653852Y-63964905D01*
X189630000Y-64053922D01*
X189630000Y-64103554D01*
X189080976Y-63554530D01*
X189080975Y-63554530D01*
X189005233Y-63696233D01*
X188945191Y-63894165D01*
X188924919Y-64100000D01*
X188945191Y-64305833D01*
X189000908Y-64489504D01*
X189001531Y-64559371D01*
X188964283Y-64618484D01*
X188900989Y-64648075D01*
X188882247Y-64649500D01*
X187894108Y-64649500D01*
X187766812Y-64683608D01*
X187652686Y-64749500D01*
X187652683Y-64749502D01*
X187559502Y-64842683D01*
X187559500Y-64842686D01*
X187493608Y-64956812D01*
X187459500Y-65084108D01*
X165434136Y-65084108D01*
X165389063Y-64906118D01*
X165289173Y-64678393D01*
X165153166Y-64470217D01*
X165112597Y-64426148D01*
X164984744Y-64287262D01*
X164788509Y-64134526D01*
X164788507Y-64134525D01*
X164788506Y-64134524D01*
X164569811Y-64016172D01*
X164569802Y-64016169D01*
X164334616Y-63935429D01*
X164089335Y-63894500D01*
X163840665Y-63894500D01*
X163595383Y-63935429D01*
X163360197Y-64016169D01*
X163360188Y-64016172D01*
X163141493Y-64134524D01*
X163034761Y-64217597D01*
X162945256Y-64287262D01*
X162944920Y-64287627D01*
X162776833Y-64470217D01*
X162640826Y-64678393D01*
X162540936Y-64906118D01*
X162479892Y-65147175D01*
X162479890Y-65147187D01*
X162459357Y-65394994D01*
X160370643Y-65394994D01*
X160350109Y-65147187D01*
X160350107Y-65147175D01*
X160289063Y-64906118D01*
X160189173Y-64678393D01*
X160053166Y-64470217D01*
X160012597Y-64426148D01*
X159884744Y-64287262D01*
X159688509Y-64134526D01*
X159688507Y-64134525D01*
X159688506Y-64134524D01*
X159469811Y-64016172D01*
X159469802Y-64016169D01*
X159234616Y-63935429D01*
X158989335Y-63894500D01*
X158740665Y-63894500D01*
X158495383Y-63935429D01*
X158260197Y-64016169D01*
X158260188Y-64016172D01*
X158041493Y-64134524D01*
X157934761Y-64217597D01*
X157845256Y-64287262D01*
X157844920Y-64287627D01*
X157676833Y-64470217D01*
X157540826Y-64678393D01*
X157440936Y-64906118D01*
X157379892Y-65147175D01*
X157379890Y-65147187D01*
X157359357Y-65394994D01*
X154315000Y-65394994D01*
X154315000Y-65322591D01*
X154277518Y-65182708D01*
X154255748Y-65145000D01*
X155265000Y-65145000D01*
X155265000Y-64347172D01*
X155264999Y-64347155D01*
X155258598Y-64287627D01*
X155258596Y-64287620D01*
X155208354Y-64152913D01*
X155208350Y-64152906D01*
X155122190Y-64037812D01*
X155122187Y-64037809D01*
X155007093Y-63951649D01*
X155007086Y-63951645D01*
X154872379Y-63901403D01*
X154872372Y-63901401D01*
X154812844Y-63895000D01*
X154015000Y-63895000D01*
X154015000Y-64904252D01*
X153977292Y-64882482D01*
X153837409Y-64845000D01*
X153692591Y-64845000D01*
X153552708Y-64882482D01*
X153515000Y-64904252D01*
X153515000Y-63895000D01*
X152717155Y-63895000D01*
X152657627Y-63901401D01*
X152657620Y-63901403D01*
X152522913Y-63951645D01*
X152522906Y-63951649D01*
X152407812Y-64037809D01*
X152407809Y-64037812D01*
X152321649Y-64152906D01*
X152321645Y-64152913D01*
X152271403Y-64287620D01*
X152271401Y-64287627D01*
X152265000Y-64347155D01*
X138500500Y-64347155D01*
X138500500Y-63200975D01*
X189434530Y-63200975D01*
X189434530Y-63200976D01*
X189980000Y-63746446D01*
X189980001Y-63746446D01*
X190525468Y-63200976D01*
X190383764Y-63125233D01*
X190185834Y-63065191D01*
X189980000Y-63044919D01*
X189774165Y-63065191D01*
X189576233Y-63125233D01*
X189434530Y-63200975D01*
X138500500Y-63200975D01*
X138500500Y-59204994D01*
X165744357Y-59204994D01*
X165744357Y-59205005D01*
X165764890Y-59452812D01*
X165764892Y-59452824D01*
X165825936Y-59693881D01*
X165925826Y-59921606D01*
X166061833Y-60129782D01*
X166061836Y-60129785D01*
X166230256Y-60312738D01*
X166426491Y-60465474D01*
X166645190Y-60583828D01*
X166880386Y-60664571D01*
X167125665Y-60705500D01*
X167374335Y-60705500D01*
X167619614Y-60664571D01*
X167854810Y-60583828D01*
X168073509Y-60465474D01*
X168269744Y-60312738D01*
X168438164Y-60129785D01*
X168574173Y-59921607D01*
X168674063Y-59693881D01*
X168735108Y-59452821D01*
X168755643Y-59205000D01*
X168738656Y-59000000D01*
X168735109Y-58957187D01*
X168735107Y-58957175D01*
X168674063Y-58716118D01*
X168574173Y-58488393D01*
X168438166Y-58280217D01*
X168416557Y-58256744D01*
X168269744Y-58097262D01*
X168073509Y-57944526D01*
X168073507Y-57944525D01*
X168073506Y-57944524D01*
X167854811Y-57826172D01*
X167854802Y-57826169D01*
X167619616Y-57745429D01*
X167374335Y-57704500D01*
X167125665Y-57704500D01*
X166880383Y-57745429D01*
X166645197Y-57826169D01*
X166645188Y-57826172D01*
X166426493Y-57944524D01*
X166230257Y-58097261D01*
X166061833Y-58280217D01*
X165925826Y-58488393D01*
X165825936Y-58716118D01*
X165764892Y-58957175D01*
X165764890Y-58957187D01*
X165744357Y-59204994D01*
X138500500Y-59204994D01*
X138500500Y-56452155D01*
X152265000Y-56452155D01*
X152265000Y-57250000D01*
X153274252Y-57250000D01*
X153252482Y-57287708D01*
X153215000Y-57427591D01*
X153215000Y-57572409D01*
X153252482Y-57712292D01*
X153274252Y-57750000D01*
X152265000Y-57750000D01*
X152265000Y-58547844D01*
X152271401Y-58607372D01*
X152271403Y-58607379D01*
X152321645Y-58742086D01*
X152321649Y-58742093D01*
X152407809Y-58857187D01*
X152407812Y-58857190D01*
X152522906Y-58943350D01*
X152522913Y-58943354D01*
X152657620Y-58993596D01*
X152657627Y-58993598D01*
X152717155Y-58999999D01*
X152717172Y-59000000D01*
X153515000Y-59000000D01*
X153515000Y-57990747D01*
X153552708Y-58012518D01*
X153692591Y-58050000D01*
X153837409Y-58050000D01*
X153977292Y-58012518D01*
X154015000Y-57990747D01*
X154015000Y-59000000D01*
X154812828Y-59000000D01*
X154812844Y-58999999D01*
X154872372Y-58993598D01*
X154872379Y-58993596D01*
X155007086Y-58943354D01*
X155007093Y-58943350D01*
X155122187Y-58857190D01*
X155122190Y-58857187D01*
X155208350Y-58742093D01*
X155208354Y-58742086D01*
X155258596Y-58607379D01*
X155258598Y-58607372D01*
X155264999Y-58547844D01*
X155265000Y-58547827D01*
X155265000Y-57750000D01*
X154255748Y-57750000D01*
X154277518Y-57712292D01*
X154315000Y-57572409D01*
X154315000Y-57499994D01*
X157359357Y-57499994D01*
X157359357Y-57500005D01*
X157379890Y-57747812D01*
X157379892Y-57747824D01*
X157440936Y-57988881D01*
X157540826Y-58216606D01*
X157676833Y-58424782D01*
X157676836Y-58424785D01*
X157845256Y-58607738D01*
X158041491Y-58760474D01*
X158260190Y-58878828D01*
X158495386Y-58959571D01*
X158740665Y-59000500D01*
X158989335Y-59000500D01*
X159234614Y-58959571D01*
X159469810Y-58878828D01*
X159688509Y-58760474D01*
X159884744Y-58607738D01*
X160053164Y-58424785D01*
X160189173Y-58216607D01*
X160289063Y-57988881D01*
X160350108Y-57747821D01*
X160358034Y-57652170D01*
X160370643Y-57500005D01*
X160370643Y-57499994D01*
X162459357Y-57499994D01*
X162459357Y-57500005D01*
X162479890Y-57747812D01*
X162479892Y-57747824D01*
X162540936Y-57988881D01*
X162640826Y-58216606D01*
X162776833Y-58424782D01*
X162776836Y-58424785D01*
X162945256Y-58607738D01*
X163141491Y-58760474D01*
X163360190Y-58878828D01*
X163595386Y-58959571D01*
X163840665Y-59000500D01*
X164089335Y-59000500D01*
X164334614Y-58959571D01*
X164569810Y-58878828D01*
X164788509Y-58760474D01*
X164984744Y-58607738D01*
X165153164Y-58424785D01*
X165289173Y-58216607D01*
X165389063Y-57988881D01*
X165450108Y-57747821D01*
X165458034Y-57652170D01*
X165470643Y-57500005D01*
X165470643Y-57499994D01*
X165450109Y-57252187D01*
X165450107Y-57252175D01*
X165389063Y-57011118D01*
X165289173Y-56783393D01*
X165153166Y-56575217D01*
X165131557Y-56551744D01*
X164984744Y-56392262D01*
X164788509Y-56239526D01*
X164788507Y-56239525D01*
X164788506Y-56239524D01*
X164569811Y-56121172D01*
X164569802Y-56121169D01*
X164334616Y-56040429D01*
X164089335Y-55999500D01*
X163840665Y-55999500D01*
X163595383Y-56040429D01*
X163360197Y-56121169D01*
X163360188Y-56121172D01*
X163141493Y-56239524D01*
X163117876Y-56257906D01*
X162945256Y-56392262D01*
X162944920Y-56392627D01*
X162776833Y-56575217D01*
X162640826Y-56783393D01*
X162540936Y-57011118D01*
X162479892Y-57252175D01*
X162479890Y-57252187D01*
X162459357Y-57499994D01*
X160370643Y-57499994D01*
X160350109Y-57252187D01*
X160350107Y-57252175D01*
X160289063Y-57011118D01*
X160189173Y-56783393D01*
X160053166Y-56575217D01*
X160031557Y-56551744D01*
X159884744Y-56392262D01*
X159688509Y-56239526D01*
X159688507Y-56239525D01*
X159688506Y-56239524D01*
X159469811Y-56121172D01*
X159469802Y-56121169D01*
X159234616Y-56040429D01*
X158989335Y-55999500D01*
X158740665Y-55999500D01*
X158495383Y-56040429D01*
X158260197Y-56121169D01*
X158260188Y-56121172D01*
X158041493Y-56239524D01*
X158017876Y-56257906D01*
X157845256Y-56392262D01*
X157844920Y-56392627D01*
X157676833Y-56575217D01*
X157540826Y-56783393D01*
X157440936Y-57011118D01*
X157379892Y-57252175D01*
X157379890Y-57252187D01*
X157359357Y-57499994D01*
X154315000Y-57499994D01*
X154315000Y-57427591D01*
X154277518Y-57287708D01*
X154255748Y-57250000D01*
X155265000Y-57250000D01*
X155265000Y-56452172D01*
X155264999Y-56452155D01*
X155258598Y-56392627D01*
X155258596Y-56392620D01*
X155208354Y-56257913D01*
X155208350Y-56257906D01*
X155122190Y-56142812D01*
X155122187Y-56142809D01*
X155007093Y-56056649D01*
X155007086Y-56056645D01*
X154872379Y-56006403D01*
X154872372Y-56006401D01*
X154812844Y-56000000D01*
X154015000Y-56000000D01*
X154015000Y-57009252D01*
X153977292Y-56987482D01*
X153837409Y-56950000D01*
X153692591Y-56950000D01*
X153552708Y-56987482D01*
X153515000Y-57009252D01*
X153515000Y-56000000D01*
X152717155Y-56000000D01*
X152657627Y-56006401D01*
X152657620Y-56006403D01*
X152522913Y-56056645D01*
X152522906Y-56056649D01*
X152407812Y-56142809D01*
X152407809Y-56142812D01*
X152321649Y-56257906D01*
X152321645Y-56257913D01*
X152271403Y-56392620D01*
X152271401Y-56392627D01*
X152265000Y-56452155D01*
X138500500Y-56452155D01*
X138500500Y-54030994D01*
X195594357Y-54030994D01*
X195594357Y-54031005D01*
X195614890Y-54278812D01*
X195614892Y-54278824D01*
X195675936Y-54519881D01*
X195775826Y-54747606D01*
X195911833Y-54955782D01*
X195911836Y-54955785D01*
X196080256Y-55138738D01*
X196276491Y-55291474D01*
X196495190Y-55409828D01*
X196730386Y-55490571D01*
X196975665Y-55531500D01*
X197224335Y-55531500D01*
X197469608Y-55490572D01*
X197469607Y-55490572D01*
X197469614Y-55490571D01*
X197575607Y-55454182D01*
X197645402Y-55451033D01*
X197703547Y-55483782D01*
X200700284Y-58480520D01*
X200700286Y-58480521D01*
X200700290Y-58480524D01*
X200837209Y-58559573D01*
X200837216Y-58559577D01*
X200989943Y-58600501D01*
X200989945Y-58600501D01*
X201155654Y-58600501D01*
X201155670Y-58600500D01*
X202941271Y-58600500D01*
X203008310Y-58620185D01*
X203024245Y-58632351D01*
X203027766Y-58635521D01*
X203027770Y-58635526D01*
X203172407Y-58740612D01*
X203335733Y-58813329D01*
X203510609Y-58850500D01*
X203510610Y-58850500D01*
X203689389Y-58850500D01*
X203689391Y-58850500D01*
X203864267Y-58813329D01*
X204027593Y-58740612D01*
X204172230Y-58635526D01*
X204291859Y-58502665D01*
X204381250Y-58347835D01*
X204436497Y-58177803D01*
X204455185Y-58000000D01*
X204436497Y-57822197D01*
X204381250Y-57652165D01*
X204291859Y-57497335D01*
X204203768Y-57399500D01*
X204172235Y-57364478D01*
X204172232Y-57364476D01*
X204172231Y-57364475D01*
X204172230Y-57364474D01*
X204027593Y-57259388D01*
X203864267Y-57186671D01*
X203864265Y-57186670D01*
X203736594Y-57159533D01*
X203689391Y-57149500D01*
X203510609Y-57149500D01*
X203479954Y-57156015D01*
X203335733Y-57186670D01*
X203335728Y-57186672D01*
X203172408Y-57259387D01*
X203027772Y-57364472D01*
X203024245Y-57367649D01*
X202961253Y-57397879D01*
X202941271Y-57399500D01*
X201369098Y-57399500D01*
X201302059Y-57379815D01*
X201281417Y-57363181D01*
X199924637Y-56006401D01*
X198556515Y-54638280D01*
X198523031Y-54576958D01*
X198523992Y-54520159D01*
X198524061Y-54519884D01*
X198524063Y-54519881D01*
X198585108Y-54278821D01*
X198585109Y-54278812D01*
X198605643Y-54031005D01*
X198605643Y-54030994D01*
X198603074Y-53999994D01*
X198994357Y-53999994D01*
X198994357Y-54000005D01*
X199014890Y-54247812D01*
X199014892Y-54247824D01*
X199075936Y-54488881D01*
X199175826Y-54716606D01*
X199311833Y-54924782D01*
X199311836Y-54924785D01*
X199480256Y-55107738D01*
X199676491Y-55260474D01*
X199895190Y-55378828D01*
X200130386Y-55459571D01*
X200375665Y-55500500D01*
X200624335Y-55500500D01*
X200869614Y-55459571D01*
X201104810Y-55378828D01*
X201323509Y-55260474D01*
X201519744Y-55107738D01*
X201688164Y-54924785D01*
X201824173Y-54716607D01*
X201924063Y-54488881D01*
X201985108Y-54247821D01*
X202003074Y-54031005D01*
X202005643Y-54000005D01*
X202005643Y-53999994D01*
X201985109Y-53752187D01*
X201985107Y-53752175D01*
X201924063Y-53511118D01*
X201824173Y-53283393D01*
X201688166Y-53075217D01*
X201548281Y-52923262D01*
X201519744Y-52892262D01*
X201323509Y-52739526D01*
X201323507Y-52739525D01*
X201323506Y-52739524D01*
X201104811Y-52621172D01*
X201104802Y-52621169D01*
X200869616Y-52540429D01*
X200624335Y-52499500D01*
X200375665Y-52499500D01*
X200130383Y-52540429D01*
X199895197Y-52621169D01*
X199895188Y-52621172D01*
X199676493Y-52739524D01*
X199480257Y-52892261D01*
X199311833Y-53075217D01*
X199175826Y-53283393D01*
X199075936Y-53511118D01*
X199014892Y-53752175D01*
X199014890Y-53752187D01*
X198994357Y-53999994D01*
X198603074Y-53999994D01*
X198585109Y-53783187D01*
X198585107Y-53783175D01*
X198524063Y-53542118D01*
X198424173Y-53314393D01*
X198288166Y-53106217D01*
X198259628Y-53075217D01*
X198119744Y-52923262D01*
X197923509Y-52770526D01*
X197923507Y-52770525D01*
X197923506Y-52770524D01*
X197704811Y-52652172D01*
X197704802Y-52652169D01*
X197469616Y-52571429D01*
X197224335Y-52530500D01*
X196975665Y-52530500D01*
X196730383Y-52571429D01*
X196495197Y-52652169D01*
X196495188Y-52652172D01*
X196276493Y-52770524D01*
X196080257Y-52923261D01*
X195911833Y-53106217D01*
X195775826Y-53314393D01*
X195675936Y-53542118D01*
X195614892Y-53783175D01*
X195614890Y-53783187D01*
X195594357Y-54030994D01*
X138500500Y-54030994D01*
X138500500Y-51624500D01*
X138520185Y-51557461D01*
X138572989Y-51511706D01*
X138624500Y-51500500D01*
X215875500Y-51500500D01*
X215942539Y-51520185D01*
G37*
G04 #@! TD.AperFunction*
M02*
