M48
; DRILL file {KiCad 8.0.7} date 2025-01-18T00:39:15-0500
; FORMAT={-:-/ absolute / metric / decimal}
; #@! TF.CreationDate,2025-01-18T00:39:15-05:00
; #@! TF.GenerationSoftware,Kicad,Pcbnew,8.0.7
; #@! TF.FileFunction,Plated,1,2,PTH
FMAT,2
METRIC
; #@! TA.AperFunction,Plated,PTH,ViaDrill
T1C0.300
; #@! TA.AperFunction,Plated,PTH,ComponentDrill
T2C0.700
; #@! TA.AperFunction,Plated,PTH,ComponentDrill
T3C0.800
; #@! TA.AperFunction,Plated,PTH,ComponentDrill
T4C0.900
; #@! TA.AperFunction,Plated,PTH,ComponentDrill
T5C1.000
; #@! TA.AperFunction,Plated,PTH,ComponentDrill
T6C1.100
%
G90
G05
T1
X166.2Y-80.4
X167.0Y-109.36
X168.154Y-108.154
X169.8Y-80.4
X173.3Y-95.1
X174.5Y-96.35
X176.293Y-97.893
X178.5Y-92.8
X178.86Y-100.56
X179.8Y-88.0
X182.3Y-87.1
X184.242Y-91.5
X187.228Y-85.828
X187.229Y-84.129
X187.374Y-87.574
X187.805Y-82.705
X187.9Y-85.2
X189.5Y-87.9
X189.5Y-89.5
X197.5Y-82.1
X203.6Y-58.0
X208.6Y-87.7
X211.5Y-60.7
T2
X161.25Y-100.19
X161.25Y-107.81
X163.5Y-100.19
X163.5Y-107.81
X189.09Y-74.8
X189.98Y-64.1
X190.87Y-74.8
X191.76Y-64.1
X192.65Y-74.8
X193.54Y-64.1
X194.43Y-74.8
X195.32Y-64.1
X195.94Y-89.75
X195.94Y-92.25
X196.21Y-74.8
X197.1Y-64.1
X197.99Y-74.8
X198.88Y-64.1
X199.77Y-74.8
X200.66Y-64.1
X201.55Y-74.8
X202.44Y-64.1
X203.56Y-89.75
X203.56Y-92.25
X207.5Y-68.69
X207.5Y-76.31
T3
X158.5Y-100.17
X158.5Y-110.33
X180.59Y-105.725
X184.0Y-73.42
X184.0Y-83.58
X185.42Y-99.5
X190.75Y-105.725
X195.58Y-99.5
T4
X158.51Y-95.75
X160.669Y-95.75
X162.828Y-95.75
X164.987Y-95.75
X180.75Y-99.46
X180.75Y-102.0
T5
X153.635Y-80.755
X156.735Y-88.755
X167.25Y-59.205
X167.25Y-67.25
X170.25Y-112.25
X172.25Y-108.5
X172.75Y-112.25
X175.25Y-108.5
X175.25Y-112.25
X184.0Y-66.9
X191.25Y-78.0
X194.5Y-78.0
X197.1Y-54.031
X197.75Y-78.0
X200.5Y-54.0
X206.75Y-89.25
X206.75Y-93.3
X206.75Y-97.25
T6
X140.15Y-79.0
X143.25Y-86.85
X145.25Y-79.0
X148.35Y-86.85
X150.35Y-79.0
X153.45Y-86.85
X153.765Y-57.5
X153.765Y-65.395
X158.865Y-57.5
X158.865Y-65.395
X161.5Y-75.6
X161.5Y-80.4
X163.965Y-57.5
X163.965Y-65.395
X173.5Y-75.6
X173.5Y-80.4
M30
