G04 #@! TF.GenerationSoftware,KiCad,Pcbnew,8.0.7*
G04 #@! TF.CreationDate,2025-01-18T00:35:04-05:00*
G04 #@! TF.ProjectId,Mouse,4d6f7573-652e-46b6-9963-61645f706362,rev?*
G04 #@! TF.SameCoordinates,Original*
G04 #@! TF.FileFunction,Paste,Top*
G04 #@! TF.FilePolarity,Positive*
%FSLAX46Y46*%
G04 Gerber Fmt 4.6, Leading zero omitted, Abs format (unit mm)*
G04 Created by KiCad (PCBNEW 8.0.7) date 2025-01-18 00:35:04*
%MOMM*%
%LPD*%
G01*
G04 APERTURE LIST*
G04 Aperture macros list*
%AMRoundRect*
0 Rectangle with rounded corners*
0 $1 Rounding radius*
0 $2 $3 $4 $5 $6 $7 $8 $9 X,Y pos of 4 corners*
0 Add a 4 corners polygon primitive as box body*
4,1,4,$2,$3,$4,$5,$6,$7,$8,$9,$2,$3,0*
0 Add four circle primitives for the rounded corners*
1,1,$1+$1,$2,$3*
1,1,$1+$1,$4,$5*
1,1,$1+$1,$6,$7*
1,1,$1+$1,$8,$9*
0 Add four rect primitives between the rounded corners*
20,1,$1+$1,$2,$3,$4,$5,0*
20,1,$1+$1,$4,$5,$6,$7,0*
20,1,$1+$1,$6,$7,$8,$9,0*
20,1,$1+$1,$8,$9,$2,$3,0*%
%AMOutline5P*
0 Free polygon, 5 corners , with rotation*
0 The origin of the aperture is its center*
0 number of corners: always 5*
0 $1 to $10 corner X, Y*
0 $11 Rotation angle, in degrees counterclockwise*
0 create outline with 5 corners*
4,1,5,$1,$2,$3,$4,$5,$6,$7,$8,$9,$10,$1,$2,$11*%
%AMOutline6P*
0 Free polygon, 6 corners , with rotation*
0 The origin of the aperture is its center*
0 number of corners: always 6*
0 $1 to $12 corner X, Y*
0 $13 Rotation angle, in degrees counterclockwise*
0 create outline with 6 corners*
4,1,6,$1,$2,$3,$4,$5,$6,$7,$8,$9,$10,$11,$12,$1,$2,$13*%
%AMOutline7P*
0 Free polygon, 7 corners , with rotation*
0 The origin of the aperture is its center*
0 number of corners: always 7*
0 $1 to $14 corner X, Y*
0 $15 Rotation angle, in degrees counterclockwise*
0 create outline with 7 corners*
4,1,7,$1,$2,$3,$4,$5,$6,$7,$8,$9,$10,$11,$12,$13,$14,$1,$2,$15*%
%AMOutline8P*
0 Free polygon, 8 corners , with rotation*
0 The origin of the aperture is its center*
0 number of corners: always 8*
0 $1 to $16 corner X, Y*
0 $17 Rotation angle, in degrees counterclockwise*
0 create outline with 8 corners*
4,1,8,$1,$2,$3,$4,$5,$6,$7,$8,$9,$10,$11,$12,$13,$14,$15,$16,$1,$2,$17*%
G04 Aperture macros list end*
%ADD10C,0.000000*%
%ADD11R,1.346200X0.406400*%
%ADD12R,1.397000X1.600200*%
%ADD13R,1.905000X1.905000*%
%ADD14Outline5P,-0.700000X0.600000X0.220000X0.600000X0.700000X0.120000X0.700000X-0.600000X-0.700000X-0.600000X0.000000*%
%ADD15R,1.400000X1.200000*%
%ADD16R,0.889000X1.473200*%
%ADD17R,1.473200X0.889000*%
%ADD18RoundRect,0.250000X0.000000X0.388909X-0.388909X0.000000X0.000000X-0.388909X0.388909X0.000000X0*%
%ADD19RoundRect,0.062500X0.291682X0.380070X-0.380070X-0.291682X-0.291682X-0.380070X0.380070X0.291682X0*%
%ADD20RoundRect,0.062500X-0.291682X0.380070X-0.380070X0.291682X0.291682X-0.380070X0.380070X-0.291682X0*%
%ADD21RoundRect,0.225000X-0.225000X-0.250000X0.225000X-0.250000X0.225000X0.250000X-0.225000X0.250000X0*%
%ADD22RoundRect,0.140000X-0.140000X-0.170000X0.140000X-0.170000X0.140000X0.170000X-0.140000X0.170000X0*%
%ADD23RoundRect,0.140000X0.140000X0.170000X-0.140000X0.170000X-0.140000X-0.170000X0.140000X-0.170000X0*%
%ADD24RoundRect,0.250000X0.250000X0.475000X-0.250000X0.475000X-0.250000X-0.475000X0.250000X-0.475000X0*%
%ADD25RoundRect,0.250000X0.475000X-0.250000X0.475000X0.250000X-0.475000X0.250000X-0.475000X-0.250000X0*%
%ADD26RoundRect,0.140000X0.170000X-0.140000X0.170000X0.140000X-0.170000X0.140000X-0.170000X-0.140000X0*%
%ADD27RoundRect,0.225000X0.250000X-0.225000X0.250000X0.225000X-0.250000X0.225000X-0.250000X-0.225000X0*%
%ADD28RoundRect,0.079500X0.100500X-0.079500X0.100500X0.079500X-0.100500X0.079500X-0.100500X-0.079500X0*%
%ADD29RoundRect,0.079500X-0.100500X0.079500X-0.100500X-0.079500X0.100500X-0.079500X0.100500X0.079500X0*%
G04 APERTURE END LIST*
D10*
G36*
X205474800Y-78767600D02*
G01*
X202325200Y-78767600D01*
X202325200Y-77294400D01*
X205474800Y-77294400D01*
X205474800Y-78767600D01*
G37*
G36*
X207967600Y-64574800D02*
G01*
X206494400Y-64574800D01*
X206494400Y-61425200D01*
X207967600Y-61425200D01*
X207967600Y-64574800D01*
G37*
D11*
X210642901Y-92050000D03*
X210642901Y-91399999D03*
X210642901Y-90750000D03*
X210642901Y-90100001D03*
X210642901Y-89450000D03*
D12*
X210867902Y-93950001D03*
X210867902Y-87549999D03*
D13*
X213517901Y-91950000D03*
X213517901Y-89550000D03*
D14*
X177400000Y-86850000D03*
D15*
X179600000Y-86850000D03*
X179600000Y-85250000D03*
X177400000Y-85250000D03*
D16*
X201600000Y-84569000D03*
X203900000Y-84569000D03*
X206200000Y-84569000D03*
D17*
X213769000Y-65300000D03*
X213769000Y-63000000D03*
X213769000Y-60700000D03*
D18*
X187000000Y-91500000D03*
X186080762Y-90580761D03*
X185161523Y-89661522D03*
X184242284Y-88742284D03*
X186080762Y-92419239D03*
X185161523Y-91500000D03*
X184242284Y-90580761D03*
X183323045Y-89661522D03*
X185161523Y-93338478D03*
X184242284Y-92419239D03*
X183323045Y-91500000D03*
X182403806Y-90580761D03*
X184242284Y-94257716D03*
X183323045Y-93338478D03*
X182403806Y-92419239D03*
X181484568Y-91500000D03*
D19*
X188370020Y-90907798D03*
X188016466Y-90554245D03*
X187662913Y-90200691D03*
X187309360Y-89847138D03*
X186955806Y-89493585D03*
X186602253Y-89140031D03*
X186248699Y-88786478D03*
X185895146Y-88432924D03*
X185541593Y-88079371D03*
X185188039Y-87725818D03*
X184834486Y-87372264D03*
D20*
X183650082Y-87372264D03*
X183296529Y-87725818D03*
X182942975Y-88079371D03*
X182589422Y-88432924D03*
X182235869Y-88786478D03*
X181882315Y-89140031D03*
X181528762Y-89493585D03*
X181175208Y-89847138D03*
X180821655Y-90200691D03*
X180468102Y-90554245D03*
X180114548Y-90907798D03*
D19*
X180114548Y-92092202D03*
X180468102Y-92445755D03*
X180821655Y-92799309D03*
X181175208Y-93152862D03*
X181528762Y-93506415D03*
X181882315Y-93859969D03*
X182235869Y-94213522D03*
X182589422Y-94567076D03*
X182942975Y-94920629D03*
X183296529Y-95274182D03*
X183650082Y-95627736D03*
D20*
X184834486Y-95627736D03*
X185188039Y-95274182D03*
X185541593Y-94920629D03*
X185895146Y-94567076D03*
X186248699Y-94213522D03*
X186602253Y-93859969D03*
X186955806Y-93506415D03*
X187309360Y-93152862D03*
X187662913Y-92799309D03*
X188016466Y-92445755D03*
X188370020Y-92092202D03*
D21*
X199000000Y-60500000D03*
X200550000Y-60500000D03*
D22*
X198995000Y-59300000D03*
X199955000Y-59300000D03*
D23*
X196220000Y-59100000D03*
X197180000Y-59100000D03*
D24*
X195300000Y-60600000D03*
X197200000Y-60600000D03*
D25*
X190500000Y-61900000D03*
X190500000Y-60000000D03*
D26*
X192000000Y-61930000D03*
X192000000Y-60970000D03*
X206000000Y-57980000D03*
X206000000Y-57020000D03*
D25*
X207500000Y-57950000D03*
X207500000Y-56050000D03*
D27*
X189600000Y-85025000D03*
X189600000Y-86575000D03*
D22*
X189020000Y-94250000D03*
X189980000Y-94250000D03*
D26*
X192500000Y-86480000D03*
X192500000Y-85520000D03*
D28*
X180900000Y-84155000D03*
X180900000Y-84845000D03*
D26*
X193500000Y-85520000D03*
X193500000Y-86480000D03*
X194500000Y-85520000D03*
X194500000Y-86480000D03*
D29*
X177100000Y-87905000D03*
X177100000Y-88595000D03*
D27*
X191100000Y-86575000D03*
X191100000Y-85025000D03*
M02*
