G04 #@! TF.GenerationSoftware,KiCad,Pcbnew,8.0.7*
G04 #@! TF.CreationDate,2025-01-18T00:35:04-05:00*
G04 #@! TF.ProjectId,Mouse,4d6f7573-652e-46b6-9963-61645f706362,rev?*
G04 #@! TF.SameCoordinates,Original*
G04 #@! TF.FileFunction,Soldermask,Bot*
G04 #@! TF.FilePolarity,Negative*
%FSLAX46Y46*%
G04 Gerber Fmt 4.6, Leading zero omitted, Abs format (unit mm)*
G04 Created by KiCad (PCBNEW 8.0.7) date 2025-01-18 00:35:04*
%MOMM*%
%LPD*%
G01*
G04 APERTURE LIST*
G04 APERTURE END LIST*
G36*
X170426725Y-111418574D02*
G01*
X170514112Y-111437149D01*
X170677341Y-111509823D01*
X170821893Y-111614846D01*
X170941451Y-111747629D01*
X170941452Y-111747631D01*
X171030791Y-111902370D01*
X171086005Y-112072302D01*
X171104682Y-112250000D01*
X171086005Y-112427698D01*
X171030791Y-112597630D01*
X170941452Y-112752369D01*
X170821894Y-112885153D01*
X170677341Y-112990176D01*
X170514111Y-113062851D01*
X170339339Y-113100000D01*
X170339338Y-113100000D01*
X170160662Y-113100000D01*
X170160661Y-113100000D01*
X169985889Y-113062851D01*
X169953657Y-113048500D01*
X169822658Y-112990176D01*
X169678106Y-112885153D01*
X169558548Y-112752370D01*
X169469209Y-112597631D01*
X169413994Y-112427697D01*
X169395318Y-112250000D01*
X169413994Y-112072302D01*
X169469209Y-111902368D01*
X169558548Y-111747629D01*
X169678106Y-111614846D01*
X169822659Y-111509823D01*
X169985887Y-111437149D01*
X170102403Y-111412383D01*
X170160661Y-111400000D01*
X170339339Y-111400000D01*
X170426725Y-111418574D01*
G37*
G36*
X172926725Y-111418574D02*
G01*
X173014112Y-111437149D01*
X173177341Y-111509823D01*
X173321893Y-111614846D01*
X173441451Y-111747629D01*
X173441452Y-111747631D01*
X173530791Y-111902370D01*
X173586005Y-112072302D01*
X173604682Y-112250000D01*
X173586005Y-112427698D01*
X173530791Y-112597630D01*
X173441452Y-112752369D01*
X173321894Y-112885153D01*
X173177341Y-112990176D01*
X173014111Y-113062851D01*
X172839339Y-113100000D01*
X172839338Y-113100000D01*
X172660662Y-113100000D01*
X172660661Y-113100000D01*
X172485889Y-113062851D01*
X172453657Y-113048500D01*
X172322658Y-112990176D01*
X172178106Y-112885153D01*
X172058548Y-112752370D01*
X171969209Y-112597631D01*
X171913994Y-112427697D01*
X171895318Y-112250000D01*
X171913994Y-112072302D01*
X171969209Y-111902368D01*
X172058548Y-111747629D01*
X172178106Y-111614846D01*
X172322659Y-111509823D01*
X172485887Y-111437149D01*
X172602403Y-111412383D01*
X172660661Y-111400000D01*
X172839339Y-111400000D01*
X172926725Y-111418574D01*
G37*
G36*
X175426725Y-111418574D02*
G01*
X175514112Y-111437149D01*
X175677341Y-111509823D01*
X175821893Y-111614846D01*
X175941451Y-111747629D01*
X175941452Y-111747631D01*
X176030791Y-111902370D01*
X176086005Y-112072302D01*
X176104682Y-112250000D01*
X176086005Y-112427698D01*
X176030791Y-112597630D01*
X175941452Y-112752369D01*
X175821894Y-112885153D01*
X175677341Y-112990176D01*
X175514111Y-113062851D01*
X175339339Y-113100000D01*
X175339338Y-113100000D01*
X175160662Y-113100000D01*
X175160661Y-113100000D01*
X174985889Y-113062851D01*
X174953657Y-113048500D01*
X174822658Y-112990176D01*
X174678106Y-112885153D01*
X174558548Y-112752370D01*
X174469209Y-112597631D01*
X174413994Y-112427697D01*
X174395318Y-112250000D01*
X174413994Y-112072302D01*
X174469209Y-111902368D01*
X174558548Y-111747629D01*
X174678106Y-111614846D01*
X174822659Y-111509823D01*
X174985887Y-111437149D01*
X175102403Y-111412383D01*
X175160661Y-111400000D01*
X175339339Y-111400000D01*
X175426725Y-111418574D01*
G37*
G36*
X158544926Y-109530000D02*
G01*
X158584083Y-109530000D01*
X158628255Y-109539389D01*
X158679143Y-109545123D01*
X158716147Y-109558071D01*
X158748575Y-109564964D01*
X158795306Y-109585769D01*
X158849303Y-109604664D01*
X158877408Y-109622324D01*
X158902203Y-109633363D01*
X158948434Y-109666952D01*
X159001948Y-109700577D01*
X159021166Y-109719795D01*
X159038252Y-109732209D01*
X159080489Y-109779118D01*
X159129423Y-109828052D01*
X159140678Y-109845965D01*
X159150779Y-109857183D01*
X159185330Y-109917028D01*
X159225336Y-109980697D01*
X159230331Y-109994972D01*
X159234859Y-110002815D01*
X159258056Y-110074207D01*
X159284877Y-110150857D01*
X159285893Y-110159879D01*
X159286828Y-110162755D01*
X159295293Y-110243302D01*
X159305062Y-110330000D01*
X159295292Y-110416705D01*
X159286828Y-110497244D01*
X159285893Y-110500119D01*
X159284877Y-110509143D01*
X159258051Y-110585805D01*
X159234859Y-110657184D01*
X159230332Y-110665024D01*
X159225336Y-110679303D01*
X159185323Y-110742982D01*
X159150779Y-110802816D01*
X159140680Y-110814031D01*
X159129423Y-110831948D01*
X159080480Y-110880890D01*
X159038252Y-110927790D01*
X159021170Y-110940200D01*
X159001948Y-110959423D01*
X158948423Y-110993054D01*
X158902203Y-111026636D01*
X158877414Y-111037672D01*
X158849303Y-111055336D01*
X158795295Y-111074233D01*
X158748575Y-111095035D01*
X158716153Y-111101926D01*
X158679143Y-111114877D01*
X158628253Y-111120611D01*
X158584083Y-111130000D01*
X158544926Y-111130000D01*
X158500000Y-111135062D01*
X158455074Y-111130000D01*
X158415917Y-111130000D01*
X158371746Y-111120610D01*
X158320857Y-111114877D01*
X158283848Y-111101927D01*
X158251424Y-111095035D01*
X158204699Y-111074232D01*
X158150697Y-111055336D01*
X158122588Y-111037674D01*
X158097796Y-111026636D01*
X158051568Y-110993049D01*
X157998052Y-110959423D01*
X157978832Y-110940203D01*
X157961747Y-110927790D01*
X157919509Y-110880880D01*
X157870577Y-110831948D01*
X157859321Y-110814034D01*
X157849220Y-110802816D01*
X157814664Y-110742962D01*
X157774664Y-110679303D01*
X157769669Y-110665029D01*
X157765140Y-110657184D01*
X157741934Y-110585765D01*
X157715123Y-110509143D01*
X157714106Y-110500123D01*
X157713171Y-110497244D01*
X157704692Y-110416573D01*
X157694938Y-110330000D01*
X157704691Y-110243434D01*
X157713171Y-110162755D01*
X157714106Y-110159874D01*
X157715123Y-110150857D01*
X157741929Y-110074247D01*
X157765140Y-110002815D01*
X157769670Y-109994968D01*
X157774664Y-109980697D01*
X157814656Y-109917048D01*
X157849220Y-109857183D01*
X157859323Y-109845961D01*
X157870577Y-109828052D01*
X157919500Y-109779128D01*
X157961747Y-109732209D01*
X157978835Y-109719793D01*
X157998052Y-109700577D01*
X158051563Y-109666953D01*
X158097797Y-109633363D01*
X158122591Y-109622323D01*
X158150697Y-109604664D01*
X158204690Y-109585770D01*
X158251424Y-109564964D01*
X158283853Y-109558070D01*
X158320857Y-109545123D01*
X158371743Y-109539389D01*
X158415917Y-109530000D01*
X158455074Y-109530000D01*
X158500000Y-109524938D01*
X158544926Y-109530000D01*
G37*
G36*
X172446031Y-107514468D02*
G01*
X172634536Y-107571650D01*
X172764746Y-107641249D01*
X172808259Y-107664507D01*
X172960528Y-107789472D01*
X173085493Y-107941741D01*
X173178350Y-108115465D01*
X173235531Y-108303966D01*
X173254839Y-108500000D01*
X173235531Y-108696034D01*
X173178350Y-108884535D01*
X173085493Y-109058259D01*
X172960528Y-109210528D01*
X172808259Y-109335493D01*
X172634535Y-109428350D01*
X172446034Y-109485531D01*
X172250000Y-109504839D01*
X172053966Y-109485531D01*
X171865465Y-109428350D01*
X171691741Y-109335493D01*
X171539472Y-109210528D01*
X171414507Y-109058259D01*
X171403887Y-109038390D01*
X171321650Y-108884536D01*
X171264468Y-108696031D01*
X171245161Y-108500000D01*
X171264468Y-108303968D01*
X171321650Y-108115463D01*
X171414506Y-107941742D01*
X171539472Y-107789472D01*
X171691742Y-107664506D01*
X171865463Y-107571650D01*
X172053968Y-107514468D01*
X172250000Y-107495161D01*
X172446031Y-107514468D01*
G37*
G36*
X175446031Y-107514468D02*
G01*
X175634536Y-107571650D01*
X175764746Y-107641249D01*
X175808259Y-107664507D01*
X175960528Y-107789472D01*
X176085493Y-107941741D01*
X176178350Y-108115465D01*
X176235531Y-108303966D01*
X176254839Y-108500000D01*
X176235531Y-108696034D01*
X176178350Y-108884535D01*
X176085493Y-109058259D01*
X175960528Y-109210528D01*
X175808259Y-109335493D01*
X175634535Y-109428350D01*
X175446034Y-109485531D01*
X175250000Y-109504839D01*
X175053966Y-109485531D01*
X174865465Y-109428350D01*
X174691741Y-109335493D01*
X174539472Y-109210528D01*
X174414507Y-109058259D01*
X174403887Y-109038390D01*
X174321650Y-108884536D01*
X174264468Y-108696031D01*
X174245161Y-108500000D01*
X174264468Y-108303968D01*
X174321650Y-108115463D01*
X174414506Y-107941742D01*
X174539472Y-107789472D01*
X174691742Y-107664506D01*
X174865463Y-107571650D01*
X175053968Y-107514468D01*
X175250000Y-107495161D01*
X175446031Y-107514468D01*
G37*
G36*
X161289317Y-107110000D02*
G01*
X161334995Y-107110000D01*
X161373458Y-107119480D01*
X161406753Y-107123232D01*
X161449824Y-107138303D01*
X161500046Y-107150682D01*
X161529742Y-107166267D01*
X161555638Y-107175329D01*
X161599398Y-107202825D01*
X161650566Y-107229680D01*
X161671127Y-107247895D01*
X161689207Y-107259256D01*
X161730030Y-107300079D01*
X161777806Y-107342405D01*
X161789950Y-107359999D01*
X161800743Y-107370792D01*
X161834677Y-107424798D01*
X161874371Y-107482305D01*
X161879790Y-107496595D01*
X161884670Y-107504361D01*
X161907738Y-107570287D01*
X161934651Y-107641249D01*
X161935757Y-107650360D01*
X161936767Y-107653246D01*
X161945258Y-107728611D01*
X161955141Y-107810000D01*
X161945257Y-107891395D01*
X161936767Y-107966753D01*
X161935757Y-107969637D01*
X161934651Y-107978751D01*
X161907734Y-108049724D01*
X161884670Y-108115638D01*
X161879791Y-108123401D01*
X161874371Y-108137695D01*
X161834670Y-108195211D01*
X161800743Y-108249207D01*
X161789952Y-108259997D01*
X161777806Y-108277595D01*
X161730021Y-108319928D01*
X161689207Y-108360743D01*
X161671131Y-108372100D01*
X161650566Y-108390320D01*
X161599388Y-108417179D01*
X161555638Y-108444670D01*
X161529748Y-108453729D01*
X161500046Y-108469318D01*
X161449814Y-108481699D01*
X161406753Y-108496767D01*
X161373466Y-108500517D01*
X161334995Y-108510000D01*
X161289308Y-108510000D01*
X161250000Y-108514429D01*
X161210692Y-108510000D01*
X161165005Y-108510000D01*
X161126534Y-108500517D01*
X161093246Y-108496767D01*
X161050181Y-108481698D01*
X160999954Y-108469318D01*
X160970253Y-108453730D01*
X160944361Y-108444670D01*
X160900605Y-108417176D01*
X160849434Y-108390320D01*
X160828871Y-108372102D01*
X160810792Y-108360743D01*
X160769969Y-108319920D01*
X160722194Y-108277595D01*
X160710049Y-108260000D01*
X160699256Y-108249207D01*
X160665318Y-108195195D01*
X160625629Y-108137695D01*
X160620209Y-108123405D01*
X160615329Y-108115638D01*
X160592253Y-108049690D01*
X160565349Y-107978751D01*
X160564243Y-107969642D01*
X160563232Y-107966753D01*
X160554728Y-107891281D01*
X160544859Y-107810000D01*
X160554727Y-107728725D01*
X160563232Y-107653246D01*
X160564243Y-107650356D01*
X160565349Y-107641249D01*
X160592248Y-107570321D01*
X160615329Y-107504361D01*
X160620210Y-107496591D01*
X160625629Y-107482305D01*
X160665311Y-107424814D01*
X160699256Y-107370792D01*
X160710051Y-107359996D01*
X160722194Y-107342405D01*
X160769960Y-107300087D01*
X160810792Y-107259256D01*
X160828875Y-107247893D01*
X160849434Y-107229680D01*
X160900595Y-107202828D01*
X160944361Y-107175329D01*
X160970259Y-107166266D01*
X160999954Y-107150682D01*
X161050172Y-107138304D01*
X161093246Y-107123232D01*
X161126541Y-107119480D01*
X161165005Y-107110000D01*
X161210683Y-107110000D01*
X161250000Y-107105570D01*
X161289317Y-107110000D01*
G37*
G36*
X163539317Y-107110000D02*
G01*
X163584995Y-107110000D01*
X163623458Y-107119480D01*
X163656753Y-107123232D01*
X163699824Y-107138303D01*
X163750046Y-107150682D01*
X163779742Y-107166267D01*
X163805638Y-107175329D01*
X163849398Y-107202825D01*
X163900566Y-107229680D01*
X163921127Y-107247895D01*
X163939207Y-107259256D01*
X163980030Y-107300079D01*
X164027806Y-107342405D01*
X164039950Y-107359999D01*
X164050743Y-107370792D01*
X164084677Y-107424798D01*
X164124371Y-107482305D01*
X164129790Y-107496595D01*
X164134670Y-107504361D01*
X164157738Y-107570287D01*
X164184651Y-107641249D01*
X164185757Y-107650360D01*
X164186767Y-107653246D01*
X164195258Y-107728611D01*
X164205141Y-107810000D01*
X164195257Y-107891395D01*
X164186767Y-107966753D01*
X164185757Y-107969637D01*
X164184651Y-107978751D01*
X164157734Y-108049724D01*
X164134670Y-108115638D01*
X164129791Y-108123401D01*
X164124371Y-108137695D01*
X164084670Y-108195211D01*
X164050743Y-108249207D01*
X164039952Y-108259997D01*
X164027806Y-108277595D01*
X163980021Y-108319928D01*
X163939207Y-108360743D01*
X163921131Y-108372100D01*
X163900566Y-108390320D01*
X163849388Y-108417179D01*
X163805638Y-108444670D01*
X163779748Y-108453729D01*
X163750046Y-108469318D01*
X163699814Y-108481699D01*
X163656753Y-108496767D01*
X163623466Y-108500517D01*
X163584995Y-108510000D01*
X163539308Y-108510000D01*
X163500000Y-108514429D01*
X163460692Y-108510000D01*
X163415005Y-108510000D01*
X163376534Y-108500517D01*
X163343246Y-108496767D01*
X163300181Y-108481698D01*
X163249954Y-108469318D01*
X163220253Y-108453730D01*
X163194361Y-108444670D01*
X163150605Y-108417176D01*
X163099434Y-108390320D01*
X163078871Y-108372102D01*
X163060792Y-108360743D01*
X163019969Y-108319920D01*
X162972194Y-108277595D01*
X162960049Y-108260000D01*
X162949256Y-108249207D01*
X162915318Y-108195195D01*
X162875629Y-108137695D01*
X162870209Y-108123405D01*
X162865329Y-108115638D01*
X162842253Y-108049690D01*
X162815349Y-107978751D01*
X162814243Y-107969642D01*
X162813232Y-107966753D01*
X162804728Y-107891281D01*
X162794859Y-107810000D01*
X162804727Y-107728725D01*
X162813232Y-107653246D01*
X162814243Y-107650356D01*
X162815349Y-107641249D01*
X162842248Y-107570321D01*
X162865329Y-107504361D01*
X162870210Y-107496591D01*
X162875629Y-107482305D01*
X162915311Y-107424814D01*
X162949256Y-107370792D01*
X162960051Y-107359996D01*
X162972194Y-107342405D01*
X163019960Y-107300087D01*
X163060792Y-107259256D01*
X163078875Y-107247893D01*
X163099434Y-107229680D01*
X163150595Y-107202828D01*
X163194361Y-107175329D01*
X163220259Y-107166266D01*
X163249954Y-107150682D01*
X163300172Y-107138304D01*
X163343246Y-107123232D01*
X163376541Y-107119480D01*
X163415005Y-107110000D01*
X163460683Y-107110000D01*
X163500000Y-107105570D01*
X163539317Y-107110000D01*
G37*
G36*
X180634926Y-104925000D02*
G01*
X180674083Y-104925000D01*
X180718255Y-104934389D01*
X180769143Y-104940123D01*
X180806147Y-104953071D01*
X180838575Y-104959964D01*
X180885306Y-104980769D01*
X180939303Y-104999664D01*
X180967408Y-105017324D01*
X180992203Y-105028363D01*
X181038434Y-105061952D01*
X181091948Y-105095577D01*
X181111166Y-105114795D01*
X181128252Y-105127209D01*
X181170489Y-105174118D01*
X181219423Y-105223052D01*
X181230678Y-105240965D01*
X181240779Y-105252183D01*
X181275330Y-105312028D01*
X181315336Y-105375697D01*
X181320331Y-105389972D01*
X181324859Y-105397815D01*
X181348056Y-105469207D01*
X181374877Y-105545857D01*
X181375893Y-105554879D01*
X181376828Y-105557755D01*
X181385293Y-105638302D01*
X181395062Y-105725000D01*
X181385292Y-105811705D01*
X181376828Y-105892244D01*
X181375893Y-105895119D01*
X181374877Y-105904143D01*
X181348051Y-105980805D01*
X181324859Y-106052184D01*
X181320332Y-106060024D01*
X181315336Y-106074303D01*
X181275323Y-106137982D01*
X181240779Y-106197816D01*
X181230680Y-106209031D01*
X181219423Y-106226948D01*
X181170480Y-106275890D01*
X181128252Y-106322790D01*
X181111170Y-106335200D01*
X181091948Y-106354423D01*
X181038423Y-106388054D01*
X180992203Y-106421636D01*
X180967414Y-106432672D01*
X180939303Y-106450336D01*
X180885295Y-106469233D01*
X180838575Y-106490035D01*
X180806153Y-106496926D01*
X180769143Y-106509877D01*
X180718253Y-106515611D01*
X180674083Y-106525000D01*
X180634926Y-106525000D01*
X180590000Y-106530062D01*
X180545074Y-106525000D01*
X180505917Y-106525000D01*
X180461746Y-106515610D01*
X180410857Y-106509877D01*
X180373848Y-106496927D01*
X180341424Y-106490035D01*
X180294699Y-106469232D01*
X180240697Y-106450336D01*
X180212588Y-106432674D01*
X180187796Y-106421636D01*
X180141568Y-106388049D01*
X180088052Y-106354423D01*
X180068832Y-106335203D01*
X180051747Y-106322790D01*
X180009509Y-106275880D01*
X179960577Y-106226948D01*
X179949321Y-106209034D01*
X179939220Y-106197816D01*
X179904664Y-106137962D01*
X179864664Y-106074303D01*
X179859669Y-106060029D01*
X179855140Y-106052184D01*
X179831934Y-105980765D01*
X179805123Y-105904143D01*
X179804106Y-105895123D01*
X179803171Y-105892244D01*
X179794692Y-105811573D01*
X179784938Y-105725000D01*
X179794691Y-105638434D01*
X179803171Y-105557755D01*
X179804106Y-105554874D01*
X179805123Y-105545857D01*
X179831929Y-105469247D01*
X179855140Y-105397815D01*
X179859670Y-105389968D01*
X179864664Y-105375697D01*
X179904656Y-105312048D01*
X179939220Y-105252183D01*
X179949323Y-105240961D01*
X179960577Y-105223052D01*
X180009500Y-105174128D01*
X180051747Y-105127209D01*
X180068835Y-105114793D01*
X180088052Y-105095577D01*
X180141563Y-105061953D01*
X180187797Y-105028363D01*
X180212591Y-105017323D01*
X180240697Y-104999664D01*
X180294690Y-104980770D01*
X180341424Y-104959964D01*
X180373853Y-104953070D01*
X180410857Y-104940123D01*
X180461743Y-104934389D01*
X180505917Y-104925000D01*
X180545074Y-104925000D01*
X180590000Y-104919938D01*
X180634926Y-104925000D01*
G37*
G36*
X190794926Y-104925000D02*
G01*
X190834083Y-104925000D01*
X190878255Y-104934389D01*
X190929143Y-104940123D01*
X190966147Y-104953071D01*
X190998575Y-104959964D01*
X191045306Y-104980769D01*
X191099303Y-104999664D01*
X191127408Y-105017324D01*
X191152203Y-105028363D01*
X191198434Y-105061952D01*
X191251948Y-105095577D01*
X191271166Y-105114795D01*
X191288252Y-105127209D01*
X191330489Y-105174118D01*
X191379423Y-105223052D01*
X191390678Y-105240965D01*
X191400779Y-105252183D01*
X191435330Y-105312028D01*
X191475336Y-105375697D01*
X191480331Y-105389972D01*
X191484859Y-105397815D01*
X191508056Y-105469207D01*
X191534877Y-105545857D01*
X191535893Y-105554879D01*
X191536828Y-105557755D01*
X191545293Y-105638302D01*
X191555062Y-105725000D01*
X191545292Y-105811705D01*
X191536828Y-105892244D01*
X191535893Y-105895119D01*
X191534877Y-105904143D01*
X191508051Y-105980805D01*
X191484859Y-106052184D01*
X191480332Y-106060024D01*
X191475336Y-106074303D01*
X191435323Y-106137982D01*
X191400779Y-106197816D01*
X191390680Y-106209031D01*
X191379423Y-106226948D01*
X191330480Y-106275890D01*
X191288252Y-106322790D01*
X191271170Y-106335200D01*
X191251948Y-106354423D01*
X191198423Y-106388054D01*
X191152203Y-106421636D01*
X191127414Y-106432672D01*
X191099303Y-106450336D01*
X191045295Y-106469233D01*
X190998575Y-106490035D01*
X190966153Y-106496926D01*
X190929143Y-106509877D01*
X190878253Y-106515611D01*
X190834083Y-106525000D01*
X190794926Y-106525000D01*
X190750000Y-106530062D01*
X190705074Y-106525000D01*
X190665917Y-106525000D01*
X190621746Y-106515610D01*
X190570857Y-106509877D01*
X190533848Y-106496927D01*
X190501424Y-106490035D01*
X190454699Y-106469232D01*
X190400697Y-106450336D01*
X190372588Y-106432674D01*
X190347796Y-106421636D01*
X190301568Y-106388049D01*
X190248052Y-106354423D01*
X190228832Y-106335203D01*
X190211747Y-106322790D01*
X190169509Y-106275880D01*
X190120577Y-106226948D01*
X190109321Y-106209034D01*
X190099220Y-106197816D01*
X190064664Y-106137962D01*
X190024664Y-106074303D01*
X190019669Y-106060029D01*
X190015140Y-106052184D01*
X189991934Y-105980765D01*
X189965123Y-105904143D01*
X189964106Y-105895123D01*
X189963171Y-105892244D01*
X189954692Y-105811573D01*
X189944938Y-105725000D01*
X189954691Y-105638434D01*
X189963171Y-105557755D01*
X189964106Y-105554874D01*
X189965123Y-105545857D01*
X189991929Y-105469247D01*
X190015140Y-105397815D01*
X190019670Y-105389968D01*
X190024664Y-105375697D01*
X190064656Y-105312048D01*
X190099220Y-105252183D01*
X190109323Y-105240961D01*
X190120577Y-105223052D01*
X190169500Y-105174128D01*
X190211747Y-105127209D01*
X190228835Y-105114793D01*
X190248052Y-105095577D01*
X190301563Y-105061953D01*
X190347797Y-105028363D01*
X190372591Y-105017323D01*
X190400697Y-104999664D01*
X190454690Y-104980770D01*
X190501424Y-104959964D01*
X190533853Y-104953070D01*
X190570857Y-104940123D01*
X190621743Y-104934389D01*
X190665917Y-104925000D01*
X190705074Y-104925000D01*
X190750000Y-104919938D01*
X190794926Y-104925000D01*
G37*
G36*
X181650000Y-102900000D02*
G01*
X179850000Y-102900000D01*
X179850000Y-101100000D01*
X181650000Y-101100000D01*
X181650000Y-102900000D01*
G37*
G36*
X158544926Y-99370000D02*
G01*
X158584083Y-99370000D01*
X158628255Y-99379389D01*
X158679143Y-99385123D01*
X158716147Y-99398071D01*
X158748575Y-99404964D01*
X158795306Y-99425769D01*
X158849303Y-99444664D01*
X158877408Y-99462324D01*
X158902203Y-99473363D01*
X158948434Y-99506952D01*
X159001948Y-99540577D01*
X159021166Y-99559795D01*
X159038252Y-99572209D01*
X159080489Y-99619118D01*
X159129423Y-99668052D01*
X159140678Y-99685965D01*
X159150779Y-99697183D01*
X159185330Y-99757028D01*
X159225336Y-99820697D01*
X159230331Y-99834972D01*
X159234859Y-99842815D01*
X159258056Y-99914207D01*
X159284877Y-99990857D01*
X159285893Y-99999879D01*
X159286828Y-100002755D01*
X159295293Y-100083302D01*
X159305062Y-100170000D01*
X159295292Y-100256705D01*
X159286828Y-100337244D01*
X159285893Y-100340119D01*
X159284877Y-100349143D01*
X159258051Y-100425805D01*
X159234859Y-100497184D01*
X159230332Y-100505024D01*
X159225336Y-100519303D01*
X159185323Y-100582982D01*
X159150779Y-100642816D01*
X159140680Y-100654031D01*
X159129423Y-100671948D01*
X159080480Y-100720890D01*
X159038252Y-100767790D01*
X159021170Y-100780200D01*
X159001948Y-100799423D01*
X158948423Y-100833054D01*
X158902203Y-100866636D01*
X158877414Y-100877672D01*
X158849303Y-100895336D01*
X158795295Y-100914233D01*
X158748575Y-100935035D01*
X158716153Y-100941926D01*
X158679143Y-100954877D01*
X158628253Y-100960611D01*
X158584083Y-100970000D01*
X158544926Y-100970000D01*
X158500000Y-100975062D01*
X158455074Y-100970000D01*
X158415917Y-100970000D01*
X158371746Y-100960610D01*
X158320857Y-100954877D01*
X158283848Y-100941927D01*
X158251424Y-100935035D01*
X158204699Y-100914232D01*
X158150697Y-100895336D01*
X158122588Y-100877674D01*
X158097796Y-100866636D01*
X158051568Y-100833049D01*
X157998052Y-100799423D01*
X157978832Y-100780203D01*
X157961747Y-100767790D01*
X157919509Y-100720880D01*
X157870577Y-100671948D01*
X157859321Y-100654034D01*
X157849220Y-100642816D01*
X157814664Y-100582962D01*
X157774664Y-100519303D01*
X157769669Y-100505029D01*
X157765140Y-100497184D01*
X157741934Y-100425765D01*
X157715123Y-100349143D01*
X157714106Y-100340123D01*
X157713171Y-100337244D01*
X157704692Y-100256573D01*
X157694938Y-100170000D01*
X157704691Y-100083434D01*
X157713171Y-100002755D01*
X157714106Y-99999874D01*
X157715123Y-99990857D01*
X157741929Y-99914247D01*
X157765140Y-99842815D01*
X157769670Y-99834968D01*
X157774664Y-99820697D01*
X157814656Y-99757048D01*
X157849220Y-99697183D01*
X157859323Y-99685961D01*
X157870577Y-99668052D01*
X157919500Y-99619128D01*
X157961747Y-99572209D01*
X157978835Y-99559793D01*
X157998052Y-99540577D01*
X158051563Y-99506953D01*
X158097797Y-99473363D01*
X158122591Y-99462323D01*
X158150697Y-99444664D01*
X158204690Y-99425770D01*
X158251424Y-99404964D01*
X158283853Y-99398070D01*
X158320857Y-99385123D01*
X158371743Y-99379389D01*
X158415917Y-99370000D01*
X158455074Y-99370000D01*
X158500000Y-99364938D01*
X158544926Y-99370000D01*
G37*
G36*
X161289317Y-99490000D02*
G01*
X161334995Y-99490000D01*
X161373458Y-99499480D01*
X161406753Y-99503232D01*
X161449824Y-99518303D01*
X161500046Y-99530682D01*
X161529742Y-99546267D01*
X161555638Y-99555329D01*
X161599398Y-99582825D01*
X161650566Y-99609680D01*
X161671127Y-99627895D01*
X161689207Y-99639256D01*
X161730030Y-99680079D01*
X161777806Y-99722405D01*
X161789950Y-99739999D01*
X161800743Y-99750792D01*
X161834677Y-99804798D01*
X161874371Y-99862305D01*
X161879790Y-99876595D01*
X161884670Y-99884361D01*
X161907738Y-99950287D01*
X161934651Y-100021249D01*
X161935757Y-100030360D01*
X161936767Y-100033246D01*
X161945258Y-100108611D01*
X161955141Y-100190000D01*
X161945257Y-100271395D01*
X161936767Y-100346753D01*
X161935757Y-100349637D01*
X161934651Y-100358751D01*
X161907734Y-100429724D01*
X161884670Y-100495638D01*
X161879791Y-100503401D01*
X161874371Y-100517695D01*
X161834670Y-100575211D01*
X161800743Y-100629207D01*
X161789952Y-100639997D01*
X161777806Y-100657595D01*
X161730021Y-100699928D01*
X161689207Y-100740743D01*
X161671131Y-100752100D01*
X161650566Y-100770320D01*
X161599388Y-100797179D01*
X161555638Y-100824670D01*
X161529748Y-100833729D01*
X161500046Y-100849318D01*
X161449814Y-100861699D01*
X161406753Y-100876767D01*
X161373466Y-100880517D01*
X161334995Y-100890000D01*
X161289308Y-100890000D01*
X161250000Y-100894429D01*
X161210692Y-100890000D01*
X161165005Y-100890000D01*
X161126534Y-100880517D01*
X161093246Y-100876767D01*
X161050181Y-100861698D01*
X160999954Y-100849318D01*
X160970253Y-100833730D01*
X160944361Y-100824670D01*
X160900605Y-100797176D01*
X160849434Y-100770320D01*
X160828871Y-100752102D01*
X160810792Y-100740743D01*
X160769969Y-100699920D01*
X160722194Y-100657595D01*
X160710049Y-100640000D01*
X160699256Y-100629207D01*
X160665318Y-100575195D01*
X160625629Y-100517695D01*
X160620209Y-100503405D01*
X160615329Y-100495638D01*
X160592253Y-100429690D01*
X160565349Y-100358751D01*
X160564243Y-100349642D01*
X160563232Y-100346753D01*
X160554728Y-100271281D01*
X160544859Y-100190000D01*
X160554727Y-100108725D01*
X160563232Y-100033246D01*
X160564243Y-100030356D01*
X160565349Y-100021249D01*
X160592248Y-99950321D01*
X160615329Y-99884361D01*
X160620210Y-99876591D01*
X160625629Y-99862305D01*
X160665311Y-99804814D01*
X160699256Y-99750792D01*
X160710051Y-99739996D01*
X160722194Y-99722405D01*
X160769960Y-99680087D01*
X160810792Y-99639256D01*
X160828875Y-99627893D01*
X160849434Y-99609680D01*
X160900595Y-99582828D01*
X160944361Y-99555329D01*
X160970259Y-99546266D01*
X160999954Y-99530682D01*
X161050172Y-99518304D01*
X161093246Y-99503232D01*
X161126541Y-99499480D01*
X161165005Y-99490000D01*
X161210683Y-99490000D01*
X161250000Y-99485570D01*
X161289317Y-99490000D01*
G37*
G36*
X163539317Y-99490000D02*
G01*
X163584995Y-99490000D01*
X163623458Y-99499480D01*
X163656753Y-99503232D01*
X163699824Y-99518303D01*
X163750046Y-99530682D01*
X163779742Y-99546267D01*
X163805638Y-99555329D01*
X163849398Y-99582825D01*
X163900566Y-99609680D01*
X163921127Y-99627895D01*
X163939207Y-99639256D01*
X163980030Y-99680079D01*
X164027806Y-99722405D01*
X164039950Y-99739999D01*
X164050743Y-99750792D01*
X164084677Y-99804798D01*
X164124371Y-99862305D01*
X164129790Y-99876595D01*
X164134670Y-99884361D01*
X164157738Y-99950287D01*
X164184651Y-100021249D01*
X164185757Y-100030360D01*
X164186767Y-100033246D01*
X164195258Y-100108611D01*
X164205141Y-100190000D01*
X164195257Y-100271395D01*
X164186767Y-100346753D01*
X164185757Y-100349637D01*
X164184651Y-100358751D01*
X164157734Y-100429724D01*
X164134670Y-100495638D01*
X164129791Y-100503401D01*
X164124371Y-100517695D01*
X164084670Y-100575211D01*
X164050743Y-100629207D01*
X164039952Y-100639997D01*
X164027806Y-100657595D01*
X163980021Y-100699928D01*
X163939207Y-100740743D01*
X163921131Y-100752100D01*
X163900566Y-100770320D01*
X163849388Y-100797179D01*
X163805638Y-100824670D01*
X163779748Y-100833729D01*
X163750046Y-100849318D01*
X163699814Y-100861699D01*
X163656753Y-100876767D01*
X163623466Y-100880517D01*
X163584995Y-100890000D01*
X163539308Y-100890000D01*
X163500000Y-100894429D01*
X163460692Y-100890000D01*
X163415005Y-100890000D01*
X163376534Y-100880517D01*
X163343246Y-100876767D01*
X163300181Y-100861698D01*
X163249954Y-100849318D01*
X163220253Y-100833730D01*
X163194361Y-100824670D01*
X163150605Y-100797176D01*
X163099434Y-100770320D01*
X163078871Y-100752102D01*
X163060792Y-100740743D01*
X163019969Y-100699920D01*
X162972194Y-100657595D01*
X162960049Y-100640000D01*
X162949256Y-100629207D01*
X162915318Y-100575195D01*
X162875629Y-100517695D01*
X162870209Y-100503405D01*
X162865329Y-100495638D01*
X162842253Y-100429690D01*
X162815349Y-100358751D01*
X162814243Y-100349642D01*
X162813232Y-100346753D01*
X162804728Y-100271281D01*
X162794859Y-100190000D01*
X162804727Y-100108725D01*
X162813232Y-100033246D01*
X162814243Y-100030356D01*
X162815349Y-100021249D01*
X162842248Y-99950321D01*
X162865329Y-99884361D01*
X162870210Y-99876591D01*
X162875629Y-99862305D01*
X162915311Y-99804814D01*
X162949256Y-99750792D01*
X162960051Y-99739996D01*
X162972194Y-99722405D01*
X163019960Y-99680087D01*
X163060792Y-99639256D01*
X163078875Y-99627893D01*
X163099434Y-99609680D01*
X163150595Y-99582828D01*
X163194361Y-99555329D01*
X163220259Y-99546266D01*
X163249954Y-99530682D01*
X163300172Y-99518304D01*
X163343246Y-99503232D01*
X163376541Y-99499480D01*
X163415005Y-99490000D01*
X163460683Y-99490000D01*
X163500000Y-99485570D01*
X163539317Y-99490000D01*
G37*
G36*
X180794226Y-98560000D02*
G01*
X180844594Y-98560000D01*
X180888085Y-98569244D01*
X180926427Y-98573021D01*
X180974603Y-98587634D01*
X181029647Y-98599335D01*
X181064865Y-98615014D01*
X181096081Y-98624484D01*
X181145683Y-98650997D01*
X181202479Y-98676284D01*
X181228887Y-98695470D01*
X181252434Y-98708057D01*
X181300470Y-98747479D01*
X181355534Y-98787486D01*
X181373411Y-98807341D01*
X181389475Y-98820524D01*
X181432639Y-98873119D01*
X181482126Y-98928080D01*
X181492522Y-98946087D01*
X181501942Y-98957565D01*
X181536796Y-99022772D01*
X181576719Y-99091921D01*
X181581310Y-99106052D01*
X181585515Y-99113918D01*
X181608685Y-99190302D01*
X181635182Y-99271849D01*
X181636115Y-99280727D01*
X181636978Y-99283572D01*
X181645382Y-99368902D01*
X181654957Y-99460000D01*
X181645381Y-99551105D01*
X181636978Y-99636427D01*
X181636115Y-99639270D01*
X181635182Y-99648151D01*
X181608680Y-99729711D01*
X181585515Y-99806081D01*
X181581311Y-99813945D01*
X181576719Y-99828079D01*
X181536789Y-99897239D01*
X181501942Y-99962434D01*
X181492524Y-99973909D01*
X181482126Y-99991920D01*
X181432630Y-100046890D01*
X181389475Y-100099475D01*
X181373415Y-100112654D01*
X181355534Y-100132514D01*
X181300459Y-100172528D01*
X181252434Y-100211942D01*
X181228892Y-100224525D01*
X181202479Y-100243716D01*
X181145672Y-100269007D01*
X181096081Y-100295515D01*
X181064872Y-100304981D01*
X181029647Y-100320665D01*
X180974592Y-100332367D01*
X180926427Y-100346978D01*
X180888094Y-100350753D01*
X180844594Y-100360000D01*
X180794216Y-100360000D01*
X180750000Y-100364355D01*
X180705784Y-100360000D01*
X180655406Y-100360000D01*
X180611906Y-100350753D01*
X180573572Y-100346978D01*
X180525404Y-100332366D01*
X180470353Y-100320665D01*
X180435130Y-100304982D01*
X180403918Y-100295515D01*
X180354321Y-100269005D01*
X180297521Y-100243716D01*
X180271110Y-100224527D01*
X180247565Y-100211942D01*
X180199531Y-100172521D01*
X180144466Y-100132514D01*
X180126587Y-100112658D01*
X180110524Y-100099475D01*
X180067358Y-100046877D01*
X180017874Y-99991920D01*
X180007478Y-99973913D01*
X179998057Y-99962434D01*
X179963197Y-99897216D01*
X179923281Y-99828079D01*
X179918690Y-99813950D01*
X179914484Y-99806081D01*
X179891304Y-99729665D01*
X179864818Y-99648151D01*
X179863885Y-99639276D01*
X179863021Y-99636427D01*
X179854602Y-99550953D01*
X179845043Y-99460000D01*
X179854601Y-99369053D01*
X179863021Y-99283572D01*
X179863885Y-99280722D01*
X179864818Y-99271849D01*
X179891299Y-99190348D01*
X179914484Y-99113918D01*
X179918691Y-99106047D01*
X179923281Y-99091921D01*
X179963190Y-99022796D01*
X179998057Y-98957565D01*
X180007479Y-98946083D01*
X180017874Y-98928080D01*
X180067349Y-98873132D01*
X180110524Y-98820524D01*
X180126590Y-98807338D01*
X180144466Y-98787486D01*
X180199518Y-98747488D01*
X180247565Y-98708057D01*
X180271118Y-98695467D01*
X180297522Y-98676284D01*
X180354307Y-98651001D01*
X180403918Y-98624484D01*
X180435137Y-98615013D01*
X180470353Y-98599335D01*
X180525393Y-98587635D01*
X180573572Y-98573021D01*
X180611915Y-98569244D01*
X180655406Y-98560000D01*
X180705774Y-98560000D01*
X180750000Y-98555644D01*
X180794226Y-98560000D01*
G37*
G36*
X185464926Y-98700000D02*
G01*
X185504083Y-98700000D01*
X185548255Y-98709389D01*
X185599143Y-98715123D01*
X185636147Y-98728071D01*
X185668575Y-98734964D01*
X185715306Y-98755769D01*
X185769303Y-98774664D01*
X185797408Y-98792324D01*
X185822203Y-98803363D01*
X185868434Y-98836952D01*
X185921948Y-98870577D01*
X185941166Y-98889795D01*
X185958252Y-98902209D01*
X186000489Y-98949118D01*
X186049423Y-98998052D01*
X186060678Y-99015965D01*
X186070779Y-99027183D01*
X186105330Y-99087028D01*
X186145336Y-99150697D01*
X186150331Y-99164972D01*
X186154859Y-99172815D01*
X186178056Y-99244207D01*
X186204877Y-99320857D01*
X186205893Y-99329879D01*
X186206828Y-99332755D01*
X186215293Y-99413302D01*
X186225062Y-99500000D01*
X186215292Y-99586705D01*
X186206828Y-99667244D01*
X186205893Y-99670119D01*
X186204877Y-99679143D01*
X186178051Y-99755805D01*
X186154859Y-99827184D01*
X186150332Y-99835024D01*
X186145336Y-99849303D01*
X186105323Y-99912982D01*
X186070779Y-99972816D01*
X186060680Y-99984031D01*
X186049423Y-100001948D01*
X186000480Y-100050890D01*
X185958252Y-100097790D01*
X185941170Y-100110200D01*
X185921948Y-100129423D01*
X185868423Y-100163054D01*
X185822203Y-100196636D01*
X185797414Y-100207672D01*
X185769303Y-100225336D01*
X185715295Y-100244233D01*
X185668575Y-100265035D01*
X185636153Y-100271926D01*
X185599143Y-100284877D01*
X185548253Y-100290611D01*
X185504083Y-100300000D01*
X185464926Y-100300000D01*
X185420000Y-100305062D01*
X185375074Y-100300000D01*
X185335917Y-100300000D01*
X185291746Y-100290610D01*
X185240857Y-100284877D01*
X185203848Y-100271927D01*
X185171424Y-100265035D01*
X185124699Y-100244232D01*
X185070697Y-100225336D01*
X185042588Y-100207674D01*
X185017796Y-100196636D01*
X184971568Y-100163049D01*
X184918052Y-100129423D01*
X184898832Y-100110203D01*
X184881747Y-100097790D01*
X184839509Y-100050880D01*
X184790577Y-100001948D01*
X184779321Y-99984034D01*
X184769220Y-99972816D01*
X184734664Y-99912962D01*
X184694664Y-99849303D01*
X184689669Y-99835029D01*
X184685140Y-99827184D01*
X184661934Y-99755765D01*
X184635123Y-99679143D01*
X184634106Y-99670123D01*
X184633171Y-99667244D01*
X184624692Y-99586573D01*
X184614938Y-99500000D01*
X184624691Y-99413434D01*
X184633171Y-99332755D01*
X184634106Y-99329874D01*
X184635123Y-99320857D01*
X184661929Y-99244247D01*
X184685140Y-99172815D01*
X184689670Y-99164968D01*
X184694664Y-99150697D01*
X184734656Y-99087048D01*
X184769220Y-99027183D01*
X184779323Y-99015961D01*
X184790577Y-98998052D01*
X184839500Y-98949128D01*
X184881747Y-98902209D01*
X184898835Y-98889793D01*
X184918052Y-98870577D01*
X184971563Y-98836953D01*
X185017797Y-98803363D01*
X185042591Y-98792323D01*
X185070697Y-98774664D01*
X185124690Y-98755770D01*
X185171424Y-98734964D01*
X185203853Y-98728070D01*
X185240857Y-98715123D01*
X185291743Y-98709389D01*
X185335917Y-98700000D01*
X185375074Y-98700000D01*
X185420000Y-98694938D01*
X185464926Y-98700000D01*
G37*
G36*
X195624926Y-98700000D02*
G01*
X195664083Y-98700000D01*
X195708255Y-98709389D01*
X195759143Y-98715123D01*
X195796147Y-98728071D01*
X195828575Y-98734964D01*
X195875306Y-98755769D01*
X195929303Y-98774664D01*
X195957408Y-98792324D01*
X195982203Y-98803363D01*
X196028434Y-98836952D01*
X196081948Y-98870577D01*
X196101166Y-98889795D01*
X196118252Y-98902209D01*
X196160489Y-98949118D01*
X196209423Y-98998052D01*
X196220678Y-99015965D01*
X196230779Y-99027183D01*
X196265330Y-99087028D01*
X196305336Y-99150697D01*
X196310331Y-99164972D01*
X196314859Y-99172815D01*
X196338056Y-99244207D01*
X196364877Y-99320857D01*
X196365893Y-99329879D01*
X196366828Y-99332755D01*
X196375293Y-99413302D01*
X196385062Y-99500000D01*
X196375292Y-99586705D01*
X196366828Y-99667244D01*
X196365893Y-99670119D01*
X196364877Y-99679143D01*
X196338051Y-99755805D01*
X196314859Y-99827184D01*
X196310332Y-99835024D01*
X196305336Y-99849303D01*
X196265323Y-99912982D01*
X196230779Y-99972816D01*
X196220680Y-99984031D01*
X196209423Y-100001948D01*
X196160480Y-100050890D01*
X196118252Y-100097790D01*
X196101170Y-100110200D01*
X196081948Y-100129423D01*
X196028423Y-100163054D01*
X195982203Y-100196636D01*
X195957414Y-100207672D01*
X195929303Y-100225336D01*
X195875295Y-100244233D01*
X195828575Y-100265035D01*
X195796153Y-100271926D01*
X195759143Y-100284877D01*
X195708253Y-100290611D01*
X195664083Y-100300000D01*
X195624926Y-100300000D01*
X195580000Y-100305062D01*
X195535074Y-100300000D01*
X195495917Y-100300000D01*
X195451746Y-100290610D01*
X195400857Y-100284877D01*
X195363848Y-100271927D01*
X195331424Y-100265035D01*
X195284699Y-100244232D01*
X195230697Y-100225336D01*
X195202588Y-100207674D01*
X195177796Y-100196636D01*
X195131568Y-100163049D01*
X195078052Y-100129423D01*
X195058832Y-100110203D01*
X195041747Y-100097790D01*
X194999509Y-100050880D01*
X194950577Y-100001948D01*
X194939321Y-99984034D01*
X194929220Y-99972816D01*
X194894664Y-99912962D01*
X194854664Y-99849303D01*
X194849669Y-99835029D01*
X194845140Y-99827184D01*
X194821934Y-99755765D01*
X194795123Y-99679143D01*
X194794106Y-99670123D01*
X194793171Y-99667244D01*
X194784692Y-99586573D01*
X194774938Y-99500000D01*
X194784691Y-99413434D01*
X194793171Y-99332755D01*
X194794106Y-99329874D01*
X194795123Y-99320857D01*
X194821929Y-99244247D01*
X194845140Y-99172815D01*
X194849670Y-99164968D01*
X194854664Y-99150697D01*
X194894656Y-99087048D01*
X194929220Y-99027183D01*
X194939323Y-99015961D01*
X194950577Y-98998052D01*
X194999500Y-98949128D01*
X195041747Y-98902209D01*
X195058835Y-98889793D01*
X195078052Y-98870577D01*
X195131563Y-98836953D01*
X195177797Y-98803363D01*
X195202591Y-98792323D01*
X195230697Y-98774664D01*
X195284690Y-98755770D01*
X195331424Y-98734964D01*
X195363853Y-98728070D01*
X195400857Y-98715123D01*
X195451743Y-98709389D01*
X195495917Y-98700000D01*
X195535074Y-98700000D01*
X195580000Y-98694938D01*
X195624926Y-98700000D01*
G37*
G36*
X206946031Y-96264468D02*
G01*
X207134536Y-96321650D01*
X207261427Y-96389475D01*
X207308259Y-96414507D01*
X207460528Y-96539472D01*
X207585493Y-96691741D01*
X207678350Y-96865465D01*
X207735531Y-97053966D01*
X207754839Y-97250000D01*
X207735531Y-97446034D01*
X207678350Y-97634535D01*
X207585493Y-97808259D01*
X207460528Y-97960528D01*
X207308259Y-98085493D01*
X207134535Y-98178350D01*
X206946034Y-98235531D01*
X206750000Y-98254839D01*
X206553966Y-98235531D01*
X206365465Y-98178350D01*
X206191741Y-98085493D01*
X206039472Y-97960528D01*
X205914507Y-97808259D01*
X205903887Y-97788390D01*
X205821650Y-97634536D01*
X205764468Y-97446031D01*
X205745161Y-97250000D01*
X205764468Y-97053968D01*
X205821650Y-96865463D01*
X205914506Y-96691742D01*
X206039472Y-96539472D01*
X206191742Y-96414506D01*
X206365463Y-96321650D01*
X206553968Y-96264468D01*
X206750000Y-96245161D01*
X206946031Y-96264468D01*
G37*
G36*
X160713226Y-94850000D02*
G01*
X160763594Y-94850000D01*
X160807085Y-94859244D01*
X160845427Y-94863021D01*
X160893603Y-94877634D01*
X160948647Y-94889335D01*
X160983865Y-94905014D01*
X161015081Y-94914484D01*
X161064683Y-94940997D01*
X161121479Y-94966284D01*
X161147887Y-94985470D01*
X161171434Y-94998057D01*
X161219470Y-95037479D01*
X161274534Y-95077486D01*
X161292411Y-95097341D01*
X161308475Y-95110524D01*
X161351639Y-95163119D01*
X161401126Y-95218080D01*
X161411522Y-95236087D01*
X161420942Y-95247565D01*
X161455796Y-95312772D01*
X161495719Y-95381921D01*
X161500310Y-95396052D01*
X161504515Y-95403918D01*
X161527685Y-95480302D01*
X161554182Y-95561849D01*
X161555115Y-95570727D01*
X161555978Y-95573572D01*
X161564382Y-95658902D01*
X161573957Y-95750000D01*
X161564381Y-95841105D01*
X161555978Y-95926427D01*
X161555115Y-95929270D01*
X161554182Y-95938151D01*
X161527680Y-96019711D01*
X161504515Y-96096081D01*
X161500311Y-96103945D01*
X161495719Y-96118079D01*
X161455789Y-96187239D01*
X161420942Y-96252434D01*
X161411524Y-96263909D01*
X161401126Y-96281920D01*
X161351630Y-96336890D01*
X161308475Y-96389475D01*
X161292415Y-96402654D01*
X161274534Y-96422514D01*
X161219459Y-96462528D01*
X161171434Y-96501942D01*
X161147892Y-96514525D01*
X161121479Y-96533716D01*
X161064672Y-96559007D01*
X161015081Y-96585515D01*
X160983872Y-96594981D01*
X160948647Y-96610665D01*
X160893592Y-96622367D01*
X160845427Y-96636978D01*
X160807094Y-96640753D01*
X160763594Y-96650000D01*
X160713216Y-96650000D01*
X160669000Y-96654355D01*
X160624784Y-96650000D01*
X160574406Y-96650000D01*
X160530906Y-96640753D01*
X160492572Y-96636978D01*
X160444404Y-96622366D01*
X160389353Y-96610665D01*
X160354130Y-96594982D01*
X160322918Y-96585515D01*
X160273321Y-96559005D01*
X160216521Y-96533716D01*
X160190110Y-96514527D01*
X160166565Y-96501942D01*
X160118531Y-96462521D01*
X160063466Y-96422514D01*
X160045587Y-96402658D01*
X160029524Y-96389475D01*
X159986358Y-96336877D01*
X159936874Y-96281920D01*
X159926478Y-96263913D01*
X159917057Y-96252434D01*
X159882197Y-96187216D01*
X159842281Y-96118079D01*
X159837690Y-96103950D01*
X159833484Y-96096081D01*
X159810304Y-96019665D01*
X159783818Y-95938151D01*
X159782885Y-95929276D01*
X159782021Y-95926427D01*
X159773602Y-95840953D01*
X159764043Y-95750000D01*
X159773601Y-95659053D01*
X159782021Y-95573572D01*
X159782885Y-95570722D01*
X159783818Y-95561849D01*
X159810299Y-95480348D01*
X159833484Y-95403918D01*
X159837691Y-95396047D01*
X159842281Y-95381921D01*
X159882190Y-95312796D01*
X159917057Y-95247565D01*
X159926479Y-95236083D01*
X159936874Y-95218080D01*
X159986349Y-95163132D01*
X160029524Y-95110524D01*
X160045590Y-95097338D01*
X160063466Y-95077486D01*
X160118518Y-95037488D01*
X160166565Y-94998057D01*
X160190118Y-94985467D01*
X160216522Y-94966284D01*
X160273307Y-94941001D01*
X160322918Y-94914484D01*
X160354137Y-94905013D01*
X160389353Y-94889335D01*
X160444393Y-94877635D01*
X160492572Y-94863021D01*
X160530915Y-94859244D01*
X160574406Y-94850000D01*
X160624774Y-94850000D01*
X160669000Y-94845644D01*
X160713226Y-94850000D01*
G37*
G36*
X162872226Y-94850000D02*
G01*
X162922594Y-94850000D01*
X162966085Y-94859244D01*
X163004427Y-94863021D01*
X163052603Y-94877634D01*
X163107647Y-94889335D01*
X163142865Y-94905014D01*
X163174081Y-94914484D01*
X163223683Y-94940997D01*
X163280479Y-94966284D01*
X163306887Y-94985470D01*
X163330434Y-94998057D01*
X163378470Y-95037479D01*
X163433534Y-95077486D01*
X163451411Y-95097341D01*
X163467475Y-95110524D01*
X163510639Y-95163119D01*
X163560126Y-95218080D01*
X163570522Y-95236087D01*
X163579942Y-95247565D01*
X163614796Y-95312772D01*
X163654719Y-95381921D01*
X163659310Y-95396052D01*
X163663515Y-95403918D01*
X163686685Y-95480302D01*
X163713182Y-95561849D01*
X163714115Y-95570727D01*
X163714978Y-95573572D01*
X163723382Y-95658902D01*
X163732957Y-95750000D01*
X163723381Y-95841105D01*
X163714978Y-95926427D01*
X163714115Y-95929270D01*
X163713182Y-95938151D01*
X163686680Y-96019711D01*
X163663515Y-96096081D01*
X163659311Y-96103945D01*
X163654719Y-96118079D01*
X163614789Y-96187239D01*
X163579942Y-96252434D01*
X163570524Y-96263909D01*
X163560126Y-96281920D01*
X163510630Y-96336890D01*
X163467475Y-96389475D01*
X163451415Y-96402654D01*
X163433534Y-96422514D01*
X163378459Y-96462528D01*
X163330434Y-96501942D01*
X163306892Y-96514525D01*
X163280479Y-96533716D01*
X163223672Y-96559007D01*
X163174081Y-96585515D01*
X163142872Y-96594981D01*
X163107647Y-96610665D01*
X163052592Y-96622367D01*
X163004427Y-96636978D01*
X162966094Y-96640753D01*
X162922594Y-96650000D01*
X162872216Y-96650000D01*
X162828000Y-96654355D01*
X162783784Y-96650000D01*
X162733406Y-96650000D01*
X162689906Y-96640753D01*
X162651572Y-96636978D01*
X162603404Y-96622366D01*
X162548353Y-96610665D01*
X162513130Y-96594982D01*
X162481918Y-96585515D01*
X162432321Y-96559005D01*
X162375521Y-96533716D01*
X162349110Y-96514527D01*
X162325565Y-96501942D01*
X162277531Y-96462521D01*
X162222466Y-96422514D01*
X162204587Y-96402658D01*
X162188524Y-96389475D01*
X162145358Y-96336877D01*
X162095874Y-96281920D01*
X162085478Y-96263913D01*
X162076057Y-96252434D01*
X162041197Y-96187216D01*
X162001281Y-96118079D01*
X161996690Y-96103950D01*
X161992484Y-96096081D01*
X161969304Y-96019665D01*
X161942818Y-95938151D01*
X161941885Y-95929276D01*
X161941021Y-95926427D01*
X161932602Y-95840953D01*
X161923043Y-95750000D01*
X161932601Y-95659053D01*
X161941021Y-95573572D01*
X161941885Y-95570722D01*
X161942818Y-95561849D01*
X161969299Y-95480348D01*
X161992484Y-95403918D01*
X161996691Y-95396047D01*
X162001281Y-95381921D01*
X162041190Y-95312796D01*
X162076057Y-95247565D01*
X162085479Y-95236083D01*
X162095874Y-95218080D01*
X162145349Y-95163132D01*
X162188524Y-95110524D01*
X162204590Y-95097338D01*
X162222466Y-95077486D01*
X162277518Y-95037488D01*
X162325565Y-94998057D01*
X162349118Y-94985467D01*
X162375522Y-94966284D01*
X162432307Y-94941001D01*
X162481918Y-94914484D01*
X162513137Y-94905013D01*
X162548353Y-94889335D01*
X162603393Y-94877635D01*
X162651572Y-94863021D01*
X162689915Y-94859244D01*
X162733406Y-94850000D01*
X162783774Y-94850000D01*
X162828000Y-94845644D01*
X162872226Y-94850000D01*
G37*
G36*
X165031226Y-94850000D02*
G01*
X165081594Y-94850000D01*
X165125085Y-94859244D01*
X165163427Y-94863021D01*
X165211603Y-94877634D01*
X165266647Y-94889335D01*
X165301865Y-94905014D01*
X165333081Y-94914484D01*
X165382683Y-94940997D01*
X165439479Y-94966284D01*
X165465887Y-94985470D01*
X165489434Y-94998057D01*
X165537470Y-95037479D01*
X165592534Y-95077486D01*
X165610411Y-95097341D01*
X165626475Y-95110524D01*
X165669639Y-95163119D01*
X165719126Y-95218080D01*
X165729522Y-95236087D01*
X165738942Y-95247565D01*
X165773796Y-95312772D01*
X165813719Y-95381921D01*
X165818310Y-95396052D01*
X165822515Y-95403918D01*
X165845685Y-95480302D01*
X165872182Y-95561849D01*
X165873115Y-95570727D01*
X165873978Y-95573572D01*
X165882382Y-95658902D01*
X165891957Y-95750000D01*
X165882381Y-95841105D01*
X165873978Y-95926427D01*
X165873115Y-95929270D01*
X165872182Y-95938151D01*
X165845680Y-96019711D01*
X165822515Y-96096081D01*
X165818311Y-96103945D01*
X165813719Y-96118079D01*
X165773789Y-96187239D01*
X165738942Y-96252434D01*
X165729524Y-96263909D01*
X165719126Y-96281920D01*
X165669630Y-96336890D01*
X165626475Y-96389475D01*
X165610415Y-96402654D01*
X165592534Y-96422514D01*
X165537459Y-96462528D01*
X165489434Y-96501942D01*
X165465892Y-96514525D01*
X165439479Y-96533716D01*
X165382672Y-96559007D01*
X165333081Y-96585515D01*
X165301872Y-96594981D01*
X165266647Y-96610665D01*
X165211592Y-96622367D01*
X165163427Y-96636978D01*
X165125094Y-96640753D01*
X165081594Y-96650000D01*
X165031216Y-96650000D01*
X164987000Y-96654355D01*
X164942784Y-96650000D01*
X164892406Y-96650000D01*
X164848906Y-96640753D01*
X164810572Y-96636978D01*
X164762404Y-96622366D01*
X164707353Y-96610665D01*
X164672130Y-96594982D01*
X164640918Y-96585515D01*
X164591321Y-96559005D01*
X164534521Y-96533716D01*
X164508110Y-96514527D01*
X164484565Y-96501942D01*
X164436531Y-96462521D01*
X164381466Y-96422514D01*
X164363587Y-96402658D01*
X164347524Y-96389475D01*
X164304358Y-96336877D01*
X164254874Y-96281920D01*
X164244478Y-96263913D01*
X164235057Y-96252434D01*
X164200197Y-96187216D01*
X164160281Y-96118079D01*
X164155690Y-96103950D01*
X164151484Y-96096081D01*
X164128304Y-96019665D01*
X164101818Y-95938151D01*
X164100885Y-95929276D01*
X164100021Y-95926427D01*
X164091602Y-95840953D01*
X164082043Y-95750000D01*
X164091601Y-95659053D01*
X164100021Y-95573572D01*
X164100885Y-95570722D01*
X164101818Y-95561849D01*
X164128299Y-95480348D01*
X164151484Y-95403918D01*
X164155691Y-95396047D01*
X164160281Y-95381921D01*
X164200190Y-95312796D01*
X164235057Y-95247565D01*
X164244479Y-95236083D01*
X164254874Y-95218080D01*
X164304349Y-95163132D01*
X164347524Y-95110524D01*
X164363590Y-95097338D01*
X164381466Y-95077486D01*
X164436518Y-95037488D01*
X164484565Y-94998057D01*
X164508118Y-94985467D01*
X164534522Y-94966284D01*
X164591307Y-94941001D01*
X164640918Y-94914484D01*
X164672137Y-94905013D01*
X164707353Y-94889335D01*
X164762393Y-94877635D01*
X164810572Y-94863021D01*
X164848915Y-94859244D01*
X164892406Y-94850000D01*
X164942774Y-94850000D01*
X164987000Y-94845644D01*
X165031226Y-94850000D01*
G37*
G36*
X159410000Y-96650000D02*
G01*
X157610000Y-96650000D01*
X157610000Y-94850000D01*
X159410000Y-94850000D01*
X159410000Y-96650000D01*
G37*
G36*
X206946031Y-92314468D02*
G01*
X207134536Y-92371650D01*
X207288390Y-92453887D01*
X207308259Y-92464507D01*
X207460528Y-92589472D01*
X207585493Y-92741741D01*
X207678350Y-92915465D01*
X207735531Y-93103966D01*
X207754839Y-93300000D01*
X207735531Y-93496034D01*
X207678350Y-93684535D01*
X207585493Y-93858259D01*
X207460528Y-94010528D01*
X207308259Y-94135493D01*
X207134535Y-94228350D01*
X206946034Y-94285531D01*
X206750000Y-94304839D01*
X206553966Y-94285531D01*
X206365465Y-94228350D01*
X206191741Y-94135493D01*
X206039472Y-94010528D01*
X205914507Y-93858259D01*
X205903887Y-93838390D01*
X205821650Y-93684536D01*
X205764468Y-93496031D01*
X205745161Y-93300000D01*
X205764468Y-93103968D01*
X205821650Y-92915463D01*
X205914506Y-92741742D01*
X206039472Y-92589472D01*
X206191742Y-92464506D01*
X206365463Y-92371650D01*
X206553968Y-92314468D01*
X206750000Y-92295161D01*
X206946031Y-92314468D01*
G37*
G36*
X195979317Y-91550000D02*
G01*
X196024995Y-91550000D01*
X196063458Y-91559480D01*
X196096753Y-91563232D01*
X196139824Y-91578303D01*
X196190046Y-91590682D01*
X196219742Y-91606267D01*
X196245638Y-91615329D01*
X196289398Y-91642825D01*
X196340566Y-91669680D01*
X196361127Y-91687895D01*
X196379207Y-91699256D01*
X196420030Y-91740079D01*
X196467806Y-91782405D01*
X196479950Y-91799999D01*
X196490743Y-91810792D01*
X196524677Y-91864798D01*
X196564371Y-91922305D01*
X196569790Y-91936595D01*
X196574670Y-91944361D01*
X196597738Y-92010287D01*
X196624651Y-92081249D01*
X196625757Y-92090360D01*
X196626767Y-92093246D01*
X196635258Y-92168611D01*
X196645141Y-92250000D01*
X196635257Y-92331395D01*
X196626767Y-92406753D01*
X196625757Y-92409637D01*
X196624651Y-92418751D01*
X196597734Y-92489724D01*
X196574670Y-92555638D01*
X196569791Y-92563401D01*
X196564371Y-92577695D01*
X196524670Y-92635211D01*
X196490743Y-92689207D01*
X196479952Y-92699997D01*
X196467806Y-92717595D01*
X196420021Y-92759928D01*
X196379207Y-92800743D01*
X196361131Y-92812100D01*
X196340566Y-92830320D01*
X196289388Y-92857179D01*
X196245638Y-92884670D01*
X196219748Y-92893729D01*
X196190046Y-92909318D01*
X196139814Y-92921699D01*
X196096753Y-92936767D01*
X196063466Y-92940517D01*
X196024995Y-92950000D01*
X195979308Y-92950000D01*
X195940000Y-92954429D01*
X195900692Y-92950000D01*
X195855005Y-92950000D01*
X195816534Y-92940517D01*
X195783246Y-92936767D01*
X195740181Y-92921698D01*
X195689954Y-92909318D01*
X195660253Y-92893730D01*
X195634361Y-92884670D01*
X195590605Y-92857176D01*
X195539434Y-92830320D01*
X195518871Y-92812102D01*
X195500792Y-92800743D01*
X195459969Y-92759920D01*
X195412194Y-92717595D01*
X195400049Y-92700000D01*
X195389256Y-92689207D01*
X195355318Y-92635195D01*
X195315629Y-92577695D01*
X195310209Y-92563405D01*
X195305329Y-92555638D01*
X195282253Y-92489690D01*
X195255349Y-92418751D01*
X195254243Y-92409642D01*
X195253232Y-92406753D01*
X195244728Y-92331281D01*
X195234859Y-92250000D01*
X195244727Y-92168725D01*
X195253232Y-92093246D01*
X195254243Y-92090356D01*
X195255349Y-92081249D01*
X195282248Y-92010321D01*
X195305329Y-91944361D01*
X195310210Y-91936591D01*
X195315629Y-91922305D01*
X195355311Y-91864814D01*
X195389256Y-91810792D01*
X195400051Y-91799996D01*
X195412194Y-91782405D01*
X195459960Y-91740087D01*
X195500792Y-91699256D01*
X195518875Y-91687893D01*
X195539434Y-91669680D01*
X195590595Y-91642828D01*
X195634361Y-91615329D01*
X195660259Y-91606266D01*
X195689954Y-91590682D01*
X195740172Y-91578304D01*
X195783246Y-91563232D01*
X195816541Y-91559480D01*
X195855005Y-91550000D01*
X195900683Y-91550000D01*
X195940000Y-91545570D01*
X195979317Y-91550000D01*
G37*
G36*
X203599317Y-91550000D02*
G01*
X203644995Y-91550000D01*
X203683458Y-91559480D01*
X203716753Y-91563232D01*
X203759824Y-91578303D01*
X203810046Y-91590682D01*
X203839742Y-91606267D01*
X203865638Y-91615329D01*
X203909398Y-91642825D01*
X203960566Y-91669680D01*
X203981127Y-91687895D01*
X203999207Y-91699256D01*
X204040030Y-91740079D01*
X204087806Y-91782405D01*
X204099950Y-91799999D01*
X204110743Y-91810792D01*
X204144677Y-91864798D01*
X204184371Y-91922305D01*
X204189790Y-91936595D01*
X204194670Y-91944361D01*
X204217738Y-92010287D01*
X204244651Y-92081249D01*
X204245757Y-92090360D01*
X204246767Y-92093246D01*
X204255258Y-92168611D01*
X204265141Y-92250000D01*
X204255257Y-92331395D01*
X204246767Y-92406753D01*
X204245757Y-92409637D01*
X204244651Y-92418751D01*
X204217734Y-92489724D01*
X204194670Y-92555638D01*
X204189791Y-92563401D01*
X204184371Y-92577695D01*
X204144670Y-92635211D01*
X204110743Y-92689207D01*
X204099952Y-92699997D01*
X204087806Y-92717595D01*
X204040021Y-92759928D01*
X203999207Y-92800743D01*
X203981131Y-92812100D01*
X203960566Y-92830320D01*
X203909388Y-92857179D01*
X203865638Y-92884670D01*
X203839748Y-92893729D01*
X203810046Y-92909318D01*
X203759814Y-92921699D01*
X203716753Y-92936767D01*
X203683466Y-92940517D01*
X203644995Y-92950000D01*
X203599308Y-92950000D01*
X203560000Y-92954429D01*
X203520692Y-92950000D01*
X203475005Y-92950000D01*
X203436534Y-92940517D01*
X203403246Y-92936767D01*
X203360181Y-92921698D01*
X203309954Y-92909318D01*
X203280253Y-92893730D01*
X203254361Y-92884670D01*
X203210605Y-92857176D01*
X203159434Y-92830320D01*
X203138871Y-92812102D01*
X203120792Y-92800743D01*
X203079969Y-92759920D01*
X203032194Y-92717595D01*
X203020049Y-92700000D01*
X203009256Y-92689207D01*
X202975318Y-92635195D01*
X202935629Y-92577695D01*
X202930209Y-92563405D01*
X202925329Y-92555638D01*
X202902253Y-92489690D01*
X202875349Y-92418751D01*
X202874243Y-92409642D01*
X202873232Y-92406753D01*
X202864728Y-92331281D01*
X202854859Y-92250000D01*
X202864727Y-92168725D01*
X202873232Y-92093246D01*
X202874243Y-92090356D01*
X202875349Y-92081249D01*
X202902248Y-92010321D01*
X202925329Y-91944361D01*
X202930210Y-91936591D01*
X202935629Y-91922305D01*
X202975311Y-91864814D01*
X203009256Y-91810792D01*
X203020051Y-91799996D01*
X203032194Y-91782405D01*
X203079960Y-91740087D01*
X203120792Y-91699256D01*
X203138875Y-91687893D01*
X203159434Y-91669680D01*
X203210595Y-91642828D01*
X203254361Y-91615329D01*
X203280259Y-91606266D01*
X203309954Y-91590682D01*
X203360172Y-91578304D01*
X203403246Y-91563232D01*
X203436541Y-91559480D01*
X203475005Y-91550000D01*
X203520683Y-91550000D01*
X203560000Y-91545570D01*
X203599317Y-91550000D01*
G37*
G36*
X195979317Y-89050000D02*
G01*
X196024995Y-89050000D01*
X196063458Y-89059480D01*
X196096753Y-89063232D01*
X196139824Y-89078303D01*
X196190046Y-89090682D01*
X196219742Y-89106267D01*
X196245638Y-89115329D01*
X196289398Y-89142825D01*
X196340566Y-89169680D01*
X196361127Y-89187895D01*
X196379207Y-89199256D01*
X196420030Y-89240079D01*
X196467806Y-89282405D01*
X196479950Y-89299999D01*
X196490743Y-89310792D01*
X196524677Y-89364798D01*
X196564371Y-89422305D01*
X196569790Y-89436595D01*
X196574670Y-89444361D01*
X196597738Y-89510287D01*
X196624651Y-89581249D01*
X196625757Y-89590360D01*
X196626767Y-89593246D01*
X196635258Y-89668611D01*
X196645141Y-89750000D01*
X196635257Y-89831395D01*
X196626767Y-89906753D01*
X196625757Y-89909637D01*
X196624651Y-89918751D01*
X196597734Y-89989724D01*
X196574670Y-90055638D01*
X196569791Y-90063401D01*
X196564371Y-90077695D01*
X196524670Y-90135211D01*
X196490743Y-90189207D01*
X196479952Y-90199997D01*
X196467806Y-90217595D01*
X196420021Y-90259928D01*
X196379207Y-90300743D01*
X196361131Y-90312100D01*
X196340566Y-90330320D01*
X196289388Y-90357179D01*
X196245638Y-90384670D01*
X196219748Y-90393729D01*
X196190046Y-90409318D01*
X196139814Y-90421699D01*
X196096753Y-90436767D01*
X196063466Y-90440517D01*
X196024995Y-90450000D01*
X195979308Y-90450000D01*
X195940000Y-90454429D01*
X195900692Y-90450000D01*
X195855005Y-90450000D01*
X195816534Y-90440517D01*
X195783246Y-90436767D01*
X195740181Y-90421698D01*
X195689954Y-90409318D01*
X195660253Y-90393730D01*
X195634361Y-90384670D01*
X195590605Y-90357176D01*
X195539434Y-90330320D01*
X195518871Y-90312102D01*
X195500792Y-90300743D01*
X195459969Y-90259920D01*
X195412194Y-90217595D01*
X195400049Y-90200000D01*
X195389256Y-90189207D01*
X195355318Y-90135195D01*
X195315629Y-90077695D01*
X195310209Y-90063405D01*
X195305329Y-90055638D01*
X195282253Y-89989690D01*
X195255349Y-89918751D01*
X195254243Y-89909642D01*
X195253232Y-89906753D01*
X195244728Y-89831281D01*
X195234859Y-89750000D01*
X195244727Y-89668725D01*
X195253232Y-89593246D01*
X195254243Y-89590356D01*
X195255349Y-89581249D01*
X195282248Y-89510321D01*
X195305329Y-89444361D01*
X195310210Y-89436591D01*
X195315629Y-89422305D01*
X195355311Y-89364814D01*
X195389256Y-89310792D01*
X195400051Y-89299996D01*
X195412194Y-89282405D01*
X195459960Y-89240087D01*
X195500792Y-89199256D01*
X195518875Y-89187893D01*
X195539434Y-89169680D01*
X195590595Y-89142828D01*
X195634361Y-89115329D01*
X195660259Y-89106266D01*
X195689954Y-89090682D01*
X195740172Y-89078304D01*
X195783246Y-89063232D01*
X195816541Y-89059480D01*
X195855005Y-89050000D01*
X195900683Y-89050000D01*
X195940000Y-89045570D01*
X195979317Y-89050000D01*
G37*
G36*
X203599317Y-89050000D02*
G01*
X203644995Y-89050000D01*
X203683458Y-89059480D01*
X203716753Y-89063232D01*
X203759824Y-89078303D01*
X203810046Y-89090682D01*
X203839742Y-89106267D01*
X203865638Y-89115329D01*
X203909398Y-89142825D01*
X203960566Y-89169680D01*
X203981127Y-89187895D01*
X203999207Y-89199256D01*
X204040030Y-89240079D01*
X204087806Y-89282405D01*
X204099950Y-89299999D01*
X204110743Y-89310792D01*
X204144677Y-89364798D01*
X204184371Y-89422305D01*
X204189790Y-89436595D01*
X204194670Y-89444361D01*
X204217738Y-89510287D01*
X204244651Y-89581249D01*
X204245757Y-89590360D01*
X204246767Y-89593246D01*
X204255258Y-89668611D01*
X204265141Y-89750000D01*
X204255257Y-89831395D01*
X204246767Y-89906753D01*
X204245757Y-89909637D01*
X204244651Y-89918751D01*
X204217734Y-89989724D01*
X204194670Y-90055638D01*
X204189791Y-90063401D01*
X204184371Y-90077695D01*
X204144670Y-90135211D01*
X204110743Y-90189207D01*
X204099952Y-90199997D01*
X204087806Y-90217595D01*
X204040021Y-90259928D01*
X203999207Y-90300743D01*
X203981131Y-90312100D01*
X203960566Y-90330320D01*
X203909388Y-90357179D01*
X203865638Y-90384670D01*
X203839748Y-90393729D01*
X203810046Y-90409318D01*
X203759814Y-90421699D01*
X203716753Y-90436767D01*
X203683466Y-90440517D01*
X203644995Y-90450000D01*
X203599308Y-90450000D01*
X203560000Y-90454429D01*
X203520692Y-90450000D01*
X203475005Y-90450000D01*
X203436534Y-90440517D01*
X203403246Y-90436767D01*
X203360181Y-90421698D01*
X203309954Y-90409318D01*
X203280253Y-90393730D01*
X203254361Y-90384670D01*
X203210605Y-90357176D01*
X203159434Y-90330320D01*
X203138871Y-90312102D01*
X203120792Y-90300743D01*
X203079969Y-90259920D01*
X203032194Y-90217595D01*
X203020049Y-90200000D01*
X203009256Y-90189207D01*
X202975318Y-90135195D01*
X202935629Y-90077695D01*
X202930209Y-90063405D01*
X202925329Y-90055638D01*
X202902253Y-89989690D01*
X202875349Y-89918751D01*
X202874243Y-89909642D01*
X202873232Y-89906753D01*
X202864728Y-89831281D01*
X202854859Y-89750000D01*
X202864727Y-89668725D01*
X202873232Y-89593246D01*
X202874243Y-89590356D01*
X202875349Y-89581249D01*
X202902248Y-89510321D01*
X202925329Y-89444361D01*
X202930210Y-89436591D01*
X202935629Y-89422305D01*
X202975311Y-89364814D01*
X203009256Y-89310792D01*
X203020051Y-89299996D01*
X203032194Y-89282405D01*
X203079960Y-89240087D01*
X203120792Y-89199256D01*
X203138875Y-89187893D01*
X203159434Y-89169680D01*
X203210595Y-89142828D01*
X203254361Y-89115329D01*
X203280259Y-89106266D01*
X203309954Y-89090682D01*
X203360172Y-89078304D01*
X203403246Y-89063232D01*
X203436541Y-89059480D01*
X203475005Y-89050000D01*
X203520683Y-89050000D01*
X203560000Y-89045570D01*
X203599317Y-89050000D01*
G37*
G36*
X206946031Y-88264468D02*
G01*
X207134536Y-88321650D01*
X207225862Y-88370465D01*
X207308259Y-88414507D01*
X207460528Y-88539472D01*
X207585493Y-88691741D01*
X207678350Y-88865465D01*
X207735531Y-89053966D01*
X207754839Y-89250000D01*
X207735531Y-89446034D01*
X207678350Y-89634535D01*
X207585493Y-89808259D01*
X207460528Y-89960528D01*
X207308259Y-90085493D01*
X207134535Y-90178350D01*
X206946034Y-90235531D01*
X206750000Y-90254839D01*
X206553966Y-90235531D01*
X206365465Y-90178350D01*
X206191741Y-90085493D01*
X206039472Y-89960528D01*
X205914507Y-89808259D01*
X205888626Y-89759839D01*
X205821650Y-89634536D01*
X205764468Y-89446031D01*
X205745161Y-89250000D01*
X205764468Y-89053968D01*
X205821650Y-88865463D01*
X205914506Y-88691742D01*
X206039472Y-88539472D01*
X206191742Y-88414506D01*
X206365463Y-88321650D01*
X206553968Y-88264468D01*
X206750000Y-88245161D01*
X206946031Y-88264468D01*
G37*
G36*
X156931031Y-87769468D02*
G01*
X157119536Y-87826650D01*
X157273390Y-87908887D01*
X157293259Y-87919507D01*
X157445528Y-88044472D01*
X157570493Y-88196741D01*
X157663350Y-88370465D01*
X157720531Y-88558966D01*
X157739839Y-88755000D01*
X157720531Y-88951034D01*
X157663350Y-89139535D01*
X157570493Y-89313259D01*
X157445528Y-89465528D01*
X157293259Y-89590493D01*
X157119535Y-89683350D01*
X156931034Y-89740531D01*
X156735000Y-89759839D01*
X156538966Y-89740531D01*
X156350465Y-89683350D01*
X156176741Y-89590493D01*
X156024472Y-89465528D01*
X155899507Y-89313259D01*
X155883015Y-89282405D01*
X155806650Y-89139536D01*
X155749468Y-88951031D01*
X155730161Y-88755000D01*
X155749468Y-88558968D01*
X155806650Y-88370463D01*
X155899506Y-88196742D01*
X156024472Y-88044472D01*
X156176742Y-87919506D01*
X156350463Y-87826650D01*
X156538968Y-87769468D01*
X156735000Y-87750161D01*
X156931031Y-87769468D01*
G37*
G36*
X148546031Y-85864468D02*
G01*
X148734536Y-85921650D01*
X148888390Y-86003887D01*
X148908259Y-86014507D01*
X149060528Y-86139472D01*
X149185493Y-86291741D01*
X149278350Y-86465465D01*
X149335531Y-86653966D01*
X149354839Y-86850000D01*
X149335531Y-87046034D01*
X149278350Y-87234535D01*
X149185493Y-87408259D01*
X149060528Y-87560528D01*
X148908259Y-87685493D01*
X148734535Y-87778350D01*
X148546034Y-87835531D01*
X148350000Y-87854839D01*
X148153966Y-87835531D01*
X147965465Y-87778350D01*
X147791741Y-87685493D01*
X147639472Y-87560528D01*
X147514507Y-87408259D01*
X147503887Y-87388390D01*
X147421650Y-87234536D01*
X147364468Y-87046031D01*
X147345161Y-86850000D01*
X147364468Y-86653968D01*
X147421650Y-86465463D01*
X147514506Y-86291742D01*
X147639472Y-86139472D01*
X147791742Y-86014506D01*
X147965463Y-85921650D01*
X148153968Y-85864468D01*
X148350000Y-85845161D01*
X148546031Y-85864468D01*
G37*
G36*
X153646031Y-85864468D02*
G01*
X153834536Y-85921650D01*
X153988390Y-86003887D01*
X154008259Y-86014507D01*
X154160528Y-86139472D01*
X154285493Y-86291741D01*
X154378350Y-86465465D01*
X154435531Y-86653966D01*
X154454839Y-86850000D01*
X154435531Y-87046034D01*
X154378350Y-87234535D01*
X154285493Y-87408259D01*
X154160528Y-87560528D01*
X154008259Y-87685493D01*
X153834535Y-87778350D01*
X153646034Y-87835531D01*
X153450000Y-87854839D01*
X153253966Y-87835531D01*
X153065465Y-87778350D01*
X152891741Y-87685493D01*
X152739472Y-87560528D01*
X152614507Y-87408259D01*
X152603887Y-87388390D01*
X152521650Y-87234536D01*
X152464468Y-87046031D01*
X152445161Y-86850000D01*
X152464468Y-86653968D01*
X152521650Y-86465463D01*
X152614506Y-86291742D01*
X152739472Y-86139472D01*
X152891742Y-86014506D01*
X153065463Y-85921650D01*
X153253968Y-85864468D01*
X153450000Y-85845161D01*
X153646031Y-85864468D01*
G37*
G36*
X144250000Y-87850000D02*
G01*
X142250000Y-87850000D01*
X142250000Y-85850000D01*
X144250000Y-85850000D01*
X144250000Y-87850000D01*
G37*
G36*
X184044926Y-82780000D02*
G01*
X184084083Y-82780000D01*
X184128255Y-82789389D01*
X184179143Y-82795123D01*
X184216147Y-82808071D01*
X184248575Y-82814964D01*
X184295306Y-82835769D01*
X184349303Y-82854664D01*
X184377408Y-82872324D01*
X184402203Y-82883363D01*
X184448434Y-82916952D01*
X184501948Y-82950577D01*
X184521166Y-82969795D01*
X184538252Y-82982209D01*
X184580489Y-83029118D01*
X184629423Y-83078052D01*
X184640678Y-83095965D01*
X184650779Y-83107183D01*
X184685330Y-83167028D01*
X184725336Y-83230697D01*
X184730331Y-83244972D01*
X184734859Y-83252815D01*
X184758056Y-83324207D01*
X184784877Y-83400857D01*
X184785893Y-83409879D01*
X184786828Y-83412755D01*
X184795293Y-83493302D01*
X184805062Y-83580000D01*
X184795292Y-83666705D01*
X184786828Y-83747244D01*
X184785893Y-83750119D01*
X184784877Y-83759143D01*
X184758051Y-83835805D01*
X184734859Y-83907184D01*
X184730332Y-83915024D01*
X184725336Y-83929303D01*
X184685323Y-83992982D01*
X184650779Y-84052816D01*
X184640680Y-84064031D01*
X184629423Y-84081948D01*
X184580480Y-84130890D01*
X184538252Y-84177790D01*
X184521170Y-84190200D01*
X184501948Y-84209423D01*
X184448423Y-84243054D01*
X184402203Y-84276636D01*
X184377414Y-84287672D01*
X184349303Y-84305336D01*
X184295295Y-84324233D01*
X184248575Y-84345035D01*
X184216153Y-84351926D01*
X184179143Y-84364877D01*
X184128253Y-84370611D01*
X184084083Y-84380000D01*
X184044926Y-84380000D01*
X184000000Y-84385062D01*
X183955074Y-84380000D01*
X183915917Y-84380000D01*
X183871746Y-84370610D01*
X183820857Y-84364877D01*
X183783848Y-84351927D01*
X183751424Y-84345035D01*
X183704699Y-84324232D01*
X183650697Y-84305336D01*
X183622588Y-84287674D01*
X183597796Y-84276636D01*
X183551568Y-84243049D01*
X183498052Y-84209423D01*
X183478832Y-84190203D01*
X183461747Y-84177790D01*
X183419509Y-84130880D01*
X183370577Y-84081948D01*
X183359321Y-84064034D01*
X183349220Y-84052816D01*
X183314664Y-83992962D01*
X183274664Y-83929303D01*
X183269669Y-83915029D01*
X183265140Y-83907184D01*
X183241934Y-83835765D01*
X183215123Y-83759143D01*
X183214106Y-83750123D01*
X183213171Y-83747244D01*
X183204692Y-83666573D01*
X183194938Y-83580000D01*
X183204691Y-83493434D01*
X183213171Y-83412755D01*
X183214106Y-83409874D01*
X183215123Y-83400857D01*
X183241929Y-83324247D01*
X183265140Y-83252815D01*
X183269670Y-83244968D01*
X183274664Y-83230697D01*
X183314656Y-83167048D01*
X183349220Y-83107183D01*
X183359323Y-83095961D01*
X183370577Y-83078052D01*
X183419500Y-83029128D01*
X183461747Y-82982209D01*
X183478835Y-82969793D01*
X183498052Y-82950577D01*
X183551563Y-82916953D01*
X183597797Y-82883363D01*
X183622591Y-82872323D01*
X183650697Y-82854664D01*
X183704690Y-82835770D01*
X183751424Y-82814964D01*
X183783853Y-82808070D01*
X183820857Y-82795123D01*
X183871743Y-82789389D01*
X183915917Y-82780000D01*
X183955074Y-82780000D01*
X184000000Y-82774938D01*
X184044926Y-82780000D01*
G37*
G36*
X153831031Y-79769468D02*
G01*
X154019536Y-79826650D01*
X154173390Y-79908887D01*
X154193259Y-79919507D01*
X154345528Y-80044472D01*
X154470493Y-80196741D01*
X154563350Y-80370465D01*
X154620531Y-80558966D01*
X154639839Y-80755000D01*
X154620531Y-80951034D01*
X154563350Y-81139535D01*
X154470493Y-81313259D01*
X154345528Y-81465528D01*
X154193259Y-81590493D01*
X154019535Y-81683350D01*
X153831034Y-81740531D01*
X153635000Y-81759839D01*
X153438966Y-81740531D01*
X153250465Y-81683350D01*
X153076741Y-81590493D01*
X152924472Y-81465528D01*
X152799507Y-81313259D01*
X152757940Y-81235493D01*
X152706650Y-81139536D01*
X152649468Y-80951031D01*
X152630161Y-80755000D01*
X152649468Y-80558968D01*
X152706650Y-80370463D01*
X152799506Y-80196742D01*
X152924472Y-80044472D01*
X153076742Y-79919506D01*
X153250463Y-79826650D01*
X153438968Y-79769468D01*
X153635000Y-79750161D01*
X153831031Y-79769468D01*
G37*
G36*
X161696031Y-79414468D02*
G01*
X161884536Y-79471650D01*
X162038390Y-79553887D01*
X162058259Y-79564507D01*
X162210528Y-79689472D01*
X162335493Y-79841741D01*
X162428350Y-80015465D01*
X162485531Y-80203966D01*
X162504839Y-80400000D01*
X162485531Y-80596034D01*
X162428350Y-80784535D01*
X162335493Y-80958259D01*
X162210528Y-81110528D01*
X162058259Y-81235493D01*
X161884535Y-81328350D01*
X161696034Y-81385531D01*
X161500000Y-81404839D01*
X161303966Y-81385531D01*
X161115465Y-81328350D01*
X160941741Y-81235493D01*
X160789472Y-81110528D01*
X160664507Y-80958259D01*
X160653887Y-80938390D01*
X160571650Y-80784536D01*
X160514468Y-80596031D01*
X160495161Y-80400000D01*
X160514468Y-80203968D01*
X160571650Y-80015463D01*
X160664506Y-79841742D01*
X160789472Y-79689472D01*
X160941742Y-79564506D01*
X161115463Y-79471650D01*
X161303968Y-79414468D01*
X161500000Y-79395161D01*
X161696031Y-79414468D01*
G37*
G36*
X173696031Y-79414468D02*
G01*
X173884536Y-79471650D01*
X174038390Y-79553887D01*
X174058259Y-79564507D01*
X174210528Y-79689472D01*
X174335493Y-79841741D01*
X174428350Y-80015465D01*
X174485531Y-80203966D01*
X174504839Y-80400000D01*
X174485531Y-80596034D01*
X174428350Y-80784535D01*
X174335493Y-80958259D01*
X174210528Y-81110528D01*
X174058259Y-81235493D01*
X173884535Y-81328350D01*
X173696034Y-81385531D01*
X173500000Y-81404839D01*
X173303966Y-81385531D01*
X173115465Y-81328350D01*
X172941741Y-81235493D01*
X172789472Y-81110528D01*
X172664507Y-80958259D01*
X172653887Y-80938390D01*
X172571650Y-80784536D01*
X172514468Y-80596031D01*
X172495161Y-80400000D01*
X172514468Y-80203968D01*
X172571650Y-80015463D01*
X172664506Y-79841742D01*
X172789472Y-79689472D01*
X172941742Y-79564506D01*
X173115463Y-79471650D01*
X173303968Y-79414468D01*
X173500000Y-79395161D01*
X173696031Y-79414468D01*
G37*
G36*
X145446031Y-78014468D02*
G01*
X145634536Y-78071650D01*
X145788390Y-78153887D01*
X145808259Y-78164507D01*
X145960528Y-78289472D01*
X146085493Y-78441741D01*
X146178350Y-78615465D01*
X146235531Y-78803966D01*
X146254839Y-79000000D01*
X146235531Y-79196034D01*
X146178350Y-79384535D01*
X146085493Y-79558259D01*
X145960528Y-79710528D01*
X145808259Y-79835493D01*
X145634535Y-79928350D01*
X145446034Y-79985531D01*
X145250000Y-80004839D01*
X145053966Y-79985531D01*
X144865465Y-79928350D01*
X144691741Y-79835493D01*
X144539472Y-79710528D01*
X144414507Y-79558259D01*
X144403887Y-79538390D01*
X144321650Y-79384536D01*
X144264468Y-79196031D01*
X144245161Y-79000000D01*
X144264468Y-78803968D01*
X144321650Y-78615463D01*
X144414506Y-78441742D01*
X144539472Y-78289472D01*
X144691742Y-78164506D01*
X144865463Y-78071650D01*
X145053968Y-78014468D01*
X145250000Y-77995161D01*
X145446031Y-78014468D01*
G37*
G36*
X150546031Y-78014468D02*
G01*
X150734536Y-78071650D01*
X150888390Y-78153887D01*
X150908259Y-78164507D01*
X151060528Y-78289472D01*
X151185493Y-78441741D01*
X151278350Y-78615465D01*
X151335531Y-78803966D01*
X151354839Y-79000000D01*
X151335531Y-79196034D01*
X151278350Y-79384535D01*
X151185493Y-79558259D01*
X151060528Y-79710528D01*
X150908259Y-79835493D01*
X150734535Y-79928350D01*
X150546034Y-79985531D01*
X150350000Y-80004839D01*
X150153966Y-79985531D01*
X149965465Y-79928350D01*
X149791741Y-79835493D01*
X149639472Y-79710528D01*
X149514507Y-79558259D01*
X149503887Y-79538390D01*
X149421650Y-79384536D01*
X149364468Y-79196031D01*
X149345161Y-79000000D01*
X149364468Y-78803968D01*
X149421650Y-78615463D01*
X149514506Y-78441742D01*
X149639472Y-78289472D01*
X149791742Y-78164506D01*
X149965463Y-78071650D01*
X150153968Y-78014468D01*
X150350000Y-77995161D01*
X150546031Y-78014468D01*
G37*
G36*
X141150000Y-80000000D02*
G01*
X139150000Y-80000000D01*
X139150000Y-78000000D01*
X141150000Y-78000000D01*
X141150000Y-80000000D01*
G37*
G36*
X191446031Y-77014468D02*
G01*
X191634536Y-77071650D01*
X191788390Y-77153887D01*
X191808259Y-77164507D01*
X191960528Y-77289472D01*
X192085493Y-77441741D01*
X192178350Y-77615465D01*
X192235531Y-77803966D01*
X192254839Y-78000000D01*
X192235531Y-78196034D01*
X192178350Y-78384535D01*
X192085493Y-78558259D01*
X191960528Y-78710528D01*
X191808259Y-78835493D01*
X191634535Y-78928350D01*
X191446034Y-78985531D01*
X191250000Y-79004839D01*
X191053966Y-78985531D01*
X190865465Y-78928350D01*
X190691741Y-78835493D01*
X190539472Y-78710528D01*
X190414507Y-78558259D01*
X190403887Y-78538390D01*
X190321650Y-78384536D01*
X190264468Y-78196031D01*
X190245161Y-78000000D01*
X190264468Y-77803968D01*
X190321650Y-77615463D01*
X190414506Y-77441742D01*
X190539472Y-77289472D01*
X190691742Y-77164506D01*
X190865463Y-77071650D01*
X191053968Y-77014468D01*
X191250000Y-76995161D01*
X191446031Y-77014468D01*
G37*
G36*
X194696031Y-77014468D02*
G01*
X194884536Y-77071650D01*
X195038390Y-77153887D01*
X195058259Y-77164507D01*
X195210528Y-77289472D01*
X195335493Y-77441741D01*
X195428350Y-77615465D01*
X195485531Y-77803966D01*
X195504839Y-78000000D01*
X195485531Y-78196034D01*
X195428350Y-78384535D01*
X195335493Y-78558259D01*
X195210528Y-78710528D01*
X195058259Y-78835493D01*
X194884535Y-78928350D01*
X194696034Y-78985531D01*
X194500000Y-79004839D01*
X194303966Y-78985531D01*
X194115465Y-78928350D01*
X193941741Y-78835493D01*
X193789472Y-78710528D01*
X193664507Y-78558259D01*
X193653887Y-78538390D01*
X193571650Y-78384536D01*
X193514468Y-78196031D01*
X193495161Y-78000000D01*
X193514468Y-77803968D01*
X193571650Y-77615463D01*
X193664506Y-77441742D01*
X193789472Y-77289472D01*
X193941742Y-77164506D01*
X194115463Y-77071650D01*
X194303968Y-77014468D01*
X194500000Y-76995161D01*
X194696031Y-77014468D01*
G37*
G36*
X197946031Y-77014468D02*
G01*
X198134536Y-77071650D01*
X198288390Y-77153887D01*
X198308259Y-77164507D01*
X198460528Y-77289472D01*
X198585493Y-77441741D01*
X198678350Y-77615465D01*
X198735531Y-77803966D01*
X198754839Y-78000000D01*
X198735531Y-78196034D01*
X198678350Y-78384535D01*
X198585493Y-78558259D01*
X198460528Y-78710528D01*
X198308259Y-78835493D01*
X198134535Y-78928350D01*
X197946034Y-78985531D01*
X197750000Y-79004839D01*
X197553966Y-78985531D01*
X197365465Y-78928350D01*
X197191741Y-78835493D01*
X197039472Y-78710528D01*
X196914507Y-78558259D01*
X196903887Y-78538390D01*
X196821650Y-78384536D01*
X196764468Y-78196031D01*
X196745161Y-78000000D01*
X196764468Y-77803968D01*
X196821650Y-77615463D01*
X196914506Y-77441742D01*
X197039472Y-77289472D01*
X197191742Y-77164506D01*
X197365463Y-77071650D01*
X197553968Y-77014468D01*
X197750000Y-76995161D01*
X197946031Y-77014468D01*
G37*
G36*
X207539317Y-75610000D02*
G01*
X207584995Y-75610000D01*
X207623458Y-75619480D01*
X207656753Y-75623232D01*
X207699824Y-75638303D01*
X207750046Y-75650682D01*
X207779742Y-75666267D01*
X207805638Y-75675329D01*
X207849398Y-75702825D01*
X207900566Y-75729680D01*
X207921127Y-75747895D01*
X207939207Y-75759256D01*
X207980030Y-75800079D01*
X208027806Y-75842405D01*
X208039950Y-75859999D01*
X208050743Y-75870792D01*
X208084677Y-75924798D01*
X208124371Y-75982305D01*
X208129790Y-75996595D01*
X208134670Y-76004361D01*
X208157738Y-76070287D01*
X208184651Y-76141249D01*
X208185757Y-76150360D01*
X208186767Y-76153246D01*
X208195258Y-76228611D01*
X208205141Y-76310000D01*
X208195257Y-76391395D01*
X208186767Y-76466753D01*
X208185757Y-76469637D01*
X208184651Y-76478751D01*
X208157734Y-76549724D01*
X208134670Y-76615638D01*
X208129791Y-76623401D01*
X208124371Y-76637695D01*
X208084670Y-76695211D01*
X208050743Y-76749207D01*
X208039952Y-76759997D01*
X208027806Y-76777595D01*
X207980021Y-76819928D01*
X207939207Y-76860743D01*
X207921131Y-76872100D01*
X207900566Y-76890320D01*
X207849388Y-76917179D01*
X207805638Y-76944670D01*
X207779748Y-76953729D01*
X207750046Y-76969318D01*
X207699814Y-76981699D01*
X207656753Y-76996767D01*
X207623466Y-77000517D01*
X207584995Y-77010000D01*
X207539308Y-77010000D01*
X207500000Y-77014429D01*
X207460692Y-77010000D01*
X207415005Y-77010000D01*
X207376534Y-77000517D01*
X207343246Y-76996767D01*
X207300181Y-76981698D01*
X207249954Y-76969318D01*
X207220253Y-76953730D01*
X207194361Y-76944670D01*
X207150605Y-76917176D01*
X207099434Y-76890320D01*
X207078871Y-76872102D01*
X207060792Y-76860743D01*
X207019969Y-76819920D01*
X206972194Y-76777595D01*
X206960049Y-76760000D01*
X206949256Y-76749207D01*
X206915318Y-76695195D01*
X206875629Y-76637695D01*
X206870209Y-76623405D01*
X206865329Y-76615638D01*
X206842253Y-76549690D01*
X206815349Y-76478751D01*
X206814243Y-76469642D01*
X206813232Y-76466753D01*
X206804728Y-76391281D01*
X206794859Y-76310000D01*
X206804727Y-76228725D01*
X206813232Y-76153246D01*
X206814243Y-76150356D01*
X206815349Y-76141249D01*
X206842248Y-76070321D01*
X206865329Y-76004361D01*
X206870210Y-75996591D01*
X206875629Y-75982305D01*
X206915311Y-75924814D01*
X206949256Y-75870792D01*
X206960051Y-75859996D01*
X206972194Y-75842405D01*
X207019960Y-75800087D01*
X207060792Y-75759256D01*
X207078875Y-75747893D01*
X207099434Y-75729680D01*
X207150595Y-75702828D01*
X207194361Y-75675329D01*
X207220259Y-75666266D01*
X207249954Y-75650682D01*
X207300172Y-75638304D01*
X207343246Y-75623232D01*
X207376541Y-75619480D01*
X207415005Y-75610000D01*
X207460683Y-75610000D01*
X207500000Y-75605570D01*
X207539317Y-75610000D01*
G37*
G36*
X161696031Y-74614468D02*
G01*
X161884536Y-74671650D01*
X162038390Y-74753887D01*
X162058259Y-74764507D01*
X162210528Y-74889472D01*
X162335493Y-75041741D01*
X162428350Y-75215465D01*
X162485531Y-75403966D01*
X162504839Y-75600000D01*
X162485531Y-75796034D01*
X162428350Y-75984535D01*
X162335493Y-76158259D01*
X162210528Y-76310528D01*
X162058259Y-76435493D01*
X161884535Y-76528350D01*
X161696034Y-76585531D01*
X161500000Y-76604839D01*
X161303966Y-76585531D01*
X161115465Y-76528350D01*
X160941741Y-76435493D01*
X160789472Y-76310528D01*
X160664507Y-76158259D01*
X160582247Y-76004361D01*
X160571650Y-75984536D01*
X160514468Y-75796031D01*
X160495161Y-75600000D01*
X160514468Y-75403968D01*
X160571650Y-75215463D01*
X160664506Y-75041742D01*
X160789472Y-74889472D01*
X160941742Y-74764506D01*
X161115463Y-74671650D01*
X161303968Y-74614468D01*
X161500000Y-74595161D01*
X161696031Y-74614468D01*
G37*
G36*
X173696031Y-74614468D02*
G01*
X173884536Y-74671650D01*
X174038390Y-74753887D01*
X174058259Y-74764507D01*
X174210528Y-74889472D01*
X174335493Y-75041741D01*
X174428350Y-75215465D01*
X174485531Y-75403966D01*
X174504839Y-75600000D01*
X174485531Y-75796034D01*
X174428350Y-75984535D01*
X174335493Y-76158259D01*
X174210528Y-76310528D01*
X174058259Y-76435493D01*
X173884535Y-76528350D01*
X173696034Y-76585531D01*
X173500000Y-76604839D01*
X173303966Y-76585531D01*
X173115465Y-76528350D01*
X172941741Y-76435493D01*
X172789472Y-76310528D01*
X172664507Y-76158259D01*
X172582247Y-76004361D01*
X172571650Y-75984536D01*
X172514468Y-75796031D01*
X172495161Y-75600000D01*
X172514468Y-75403968D01*
X172571650Y-75215463D01*
X172664506Y-75041742D01*
X172789472Y-74889472D01*
X172941742Y-74764506D01*
X173115463Y-74671650D01*
X173303968Y-74614468D01*
X173500000Y-74595161D01*
X173696031Y-74614468D01*
G37*
G36*
X189233577Y-74264155D02*
G01*
X189367370Y-74319574D01*
X189367372Y-74319575D01*
X189367373Y-74319576D01*
X189482265Y-74407735D01*
X189570424Y-74522627D01*
X189570424Y-74522628D01*
X189625844Y-74656422D01*
X189644746Y-74800000D01*
X189625844Y-74943577D01*
X189625842Y-74943579D01*
X189625843Y-74943579D01*
X189570424Y-75077373D01*
X189482265Y-75192265D01*
X189367373Y-75280424D01*
X189288997Y-75312888D01*
X189233577Y-75335844D01*
X189090000Y-75354746D01*
X188946422Y-75335844D01*
X188812629Y-75280425D01*
X188812628Y-75280424D01*
X188812627Y-75280424D01*
X188697735Y-75192265D01*
X188609576Y-75077373D01*
X188609575Y-75077372D01*
X188609574Y-75077370D01*
X188554155Y-74943577D01*
X188535253Y-74800000D01*
X188554155Y-74656422D01*
X188609575Y-74522628D01*
X188697735Y-74407735D01*
X188812628Y-74319575D01*
X188946422Y-74264155D01*
X189090000Y-74245253D01*
X189233577Y-74264155D01*
G37*
G36*
X191013577Y-74264155D02*
G01*
X191147370Y-74319574D01*
X191147372Y-74319575D01*
X191147373Y-74319576D01*
X191262265Y-74407735D01*
X191350424Y-74522627D01*
X191350424Y-74522628D01*
X191405844Y-74656422D01*
X191424746Y-74800000D01*
X191405844Y-74943577D01*
X191405842Y-74943579D01*
X191405843Y-74943579D01*
X191350424Y-75077373D01*
X191262265Y-75192265D01*
X191147373Y-75280424D01*
X191068997Y-75312888D01*
X191013577Y-75335844D01*
X190870000Y-75354746D01*
X190726422Y-75335844D01*
X190592629Y-75280425D01*
X190592628Y-75280424D01*
X190592627Y-75280424D01*
X190477735Y-75192265D01*
X190389576Y-75077373D01*
X190389575Y-75077372D01*
X190389574Y-75077370D01*
X190334155Y-74943577D01*
X190315253Y-74800000D01*
X190334155Y-74656422D01*
X190389575Y-74522628D01*
X190477735Y-74407735D01*
X190592628Y-74319575D01*
X190726422Y-74264155D01*
X190870000Y-74245253D01*
X191013577Y-74264155D01*
G37*
G36*
X192793577Y-74264155D02*
G01*
X192927370Y-74319574D01*
X192927372Y-74319575D01*
X192927373Y-74319576D01*
X193042265Y-74407735D01*
X193130424Y-74522627D01*
X193130424Y-74522628D01*
X193185844Y-74656422D01*
X193204746Y-74800000D01*
X193185844Y-74943577D01*
X193185842Y-74943579D01*
X193185843Y-74943579D01*
X193130424Y-75077373D01*
X193042265Y-75192265D01*
X192927373Y-75280424D01*
X192848997Y-75312888D01*
X192793577Y-75335844D01*
X192650000Y-75354746D01*
X192506422Y-75335844D01*
X192372629Y-75280425D01*
X192372628Y-75280424D01*
X192372627Y-75280424D01*
X192257735Y-75192265D01*
X192169576Y-75077373D01*
X192169575Y-75077372D01*
X192169574Y-75077370D01*
X192114155Y-74943577D01*
X192095253Y-74800000D01*
X192114155Y-74656422D01*
X192169575Y-74522628D01*
X192257735Y-74407735D01*
X192372628Y-74319575D01*
X192506422Y-74264155D01*
X192650000Y-74245253D01*
X192793577Y-74264155D01*
G37*
G36*
X194573577Y-74264155D02*
G01*
X194707370Y-74319574D01*
X194707372Y-74319575D01*
X194707373Y-74319576D01*
X194822265Y-74407735D01*
X194910424Y-74522627D01*
X194910424Y-74522628D01*
X194965844Y-74656422D01*
X194984746Y-74800000D01*
X194965844Y-74943577D01*
X194965842Y-74943579D01*
X194965843Y-74943579D01*
X194910424Y-75077373D01*
X194822265Y-75192265D01*
X194707373Y-75280424D01*
X194628997Y-75312888D01*
X194573577Y-75335844D01*
X194430000Y-75354746D01*
X194286422Y-75335844D01*
X194152629Y-75280425D01*
X194152628Y-75280424D01*
X194152627Y-75280424D01*
X194037735Y-75192265D01*
X193949576Y-75077373D01*
X193949575Y-75077372D01*
X193949574Y-75077370D01*
X193894155Y-74943577D01*
X193875253Y-74800000D01*
X193894155Y-74656422D01*
X193949575Y-74522628D01*
X194037735Y-74407735D01*
X194152628Y-74319575D01*
X194286422Y-74264155D01*
X194430000Y-74245253D01*
X194573577Y-74264155D01*
G37*
G36*
X196353577Y-74264155D02*
G01*
X196487370Y-74319574D01*
X196487372Y-74319575D01*
X196487373Y-74319576D01*
X196602265Y-74407735D01*
X196690424Y-74522627D01*
X196690424Y-74522628D01*
X196745844Y-74656422D01*
X196764746Y-74800000D01*
X196745844Y-74943577D01*
X196745842Y-74943579D01*
X196745843Y-74943579D01*
X196690424Y-75077373D01*
X196602265Y-75192265D01*
X196487373Y-75280424D01*
X196408997Y-75312888D01*
X196353577Y-75335844D01*
X196210000Y-75354746D01*
X196066422Y-75335844D01*
X195932629Y-75280425D01*
X195932628Y-75280424D01*
X195932627Y-75280424D01*
X195817735Y-75192265D01*
X195729576Y-75077373D01*
X195729575Y-75077372D01*
X195729574Y-75077370D01*
X195674155Y-74943577D01*
X195655253Y-74800000D01*
X195674155Y-74656422D01*
X195729575Y-74522628D01*
X195817735Y-74407735D01*
X195932628Y-74319575D01*
X196066422Y-74264155D01*
X196210000Y-74245253D01*
X196353577Y-74264155D01*
G37*
G36*
X198133577Y-74264155D02*
G01*
X198267370Y-74319574D01*
X198267372Y-74319575D01*
X198267373Y-74319576D01*
X198382265Y-74407735D01*
X198470424Y-74522627D01*
X198470424Y-74522628D01*
X198525844Y-74656422D01*
X198544746Y-74800000D01*
X198525844Y-74943577D01*
X198525842Y-74943579D01*
X198525843Y-74943579D01*
X198470424Y-75077373D01*
X198382265Y-75192265D01*
X198267373Y-75280424D01*
X198188997Y-75312888D01*
X198133577Y-75335844D01*
X197990000Y-75354746D01*
X197846422Y-75335844D01*
X197712629Y-75280425D01*
X197712628Y-75280424D01*
X197712627Y-75280424D01*
X197597735Y-75192265D01*
X197509576Y-75077373D01*
X197509575Y-75077372D01*
X197509574Y-75077370D01*
X197454155Y-74943577D01*
X197435253Y-74800000D01*
X197454155Y-74656422D01*
X197509575Y-74522628D01*
X197597735Y-74407735D01*
X197712628Y-74319575D01*
X197846422Y-74264155D01*
X197990000Y-74245253D01*
X198133577Y-74264155D01*
G37*
G36*
X199913577Y-74264155D02*
G01*
X200047370Y-74319574D01*
X200047372Y-74319575D01*
X200047373Y-74319576D01*
X200162265Y-74407735D01*
X200250424Y-74522627D01*
X200250424Y-74522628D01*
X200305844Y-74656422D01*
X200324746Y-74800000D01*
X200305844Y-74943577D01*
X200305842Y-74943579D01*
X200305843Y-74943579D01*
X200250424Y-75077373D01*
X200162265Y-75192265D01*
X200047373Y-75280424D01*
X199968997Y-75312888D01*
X199913577Y-75335844D01*
X199770000Y-75354746D01*
X199626422Y-75335844D01*
X199492629Y-75280425D01*
X199492628Y-75280424D01*
X199492627Y-75280424D01*
X199377735Y-75192265D01*
X199289576Y-75077373D01*
X199289575Y-75077372D01*
X199289574Y-75077370D01*
X199234155Y-74943577D01*
X199215253Y-74800000D01*
X199234155Y-74656422D01*
X199289575Y-74522628D01*
X199377735Y-74407735D01*
X199492628Y-74319575D01*
X199626422Y-74264155D01*
X199770000Y-74245253D01*
X199913577Y-74264155D01*
G37*
G36*
X201693577Y-74264155D02*
G01*
X201827370Y-74319574D01*
X201827372Y-74319575D01*
X201827373Y-74319576D01*
X201942265Y-74407735D01*
X202030424Y-74522627D01*
X202030424Y-74522628D01*
X202085844Y-74656422D01*
X202104746Y-74800000D01*
X202085844Y-74943577D01*
X202085842Y-74943579D01*
X202085843Y-74943579D01*
X202030424Y-75077373D01*
X201942265Y-75192265D01*
X201827373Y-75280424D01*
X201748997Y-75312888D01*
X201693577Y-75335844D01*
X201550000Y-75354746D01*
X201406422Y-75335844D01*
X201272629Y-75280425D01*
X201272628Y-75280424D01*
X201272627Y-75280424D01*
X201157735Y-75192265D01*
X201069576Y-75077373D01*
X201069575Y-75077372D01*
X201069574Y-75077370D01*
X201014155Y-74943577D01*
X200995253Y-74800000D01*
X201014155Y-74656422D01*
X201069575Y-74522628D01*
X201157735Y-74407735D01*
X201272628Y-74319575D01*
X201406422Y-74264155D01*
X201550000Y-74245253D01*
X201693577Y-74264155D01*
G37*
G36*
X184044926Y-72620000D02*
G01*
X184084083Y-72620000D01*
X184128255Y-72629389D01*
X184179143Y-72635123D01*
X184216147Y-72648071D01*
X184248575Y-72654964D01*
X184295306Y-72675769D01*
X184349303Y-72694664D01*
X184377408Y-72712324D01*
X184402203Y-72723363D01*
X184448434Y-72756952D01*
X184501948Y-72790577D01*
X184521166Y-72809795D01*
X184538252Y-72822209D01*
X184580489Y-72869118D01*
X184629423Y-72918052D01*
X184640678Y-72935965D01*
X184650779Y-72947183D01*
X184685330Y-73007028D01*
X184725336Y-73070697D01*
X184730331Y-73084972D01*
X184734859Y-73092815D01*
X184758056Y-73164207D01*
X184784877Y-73240857D01*
X184785893Y-73249879D01*
X184786828Y-73252755D01*
X184795293Y-73333302D01*
X184805062Y-73420000D01*
X184795292Y-73506705D01*
X184786828Y-73587244D01*
X184785893Y-73590119D01*
X184784877Y-73599143D01*
X184758051Y-73675805D01*
X184734859Y-73747184D01*
X184730332Y-73755024D01*
X184725336Y-73769303D01*
X184685323Y-73832982D01*
X184650779Y-73892816D01*
X184640680Y-73904031D01*
X184629423Y-73921948D01*
X184580480Y-73970890D01*
X184538252Y-74017790D01*
X184521170Y-74030200D01*
X184501948Y-74049423D01*
X184448423Y-74083054D01*
X184402203Y-74116636D01*
X184377414Y-74127672D01*
X184349303Y-74145336D01*
X184295295Y-74164233D01*
X184248575Y-74185035D01*
X184216153Y-74191926D01*
X184179143Y-74204877D01*
X184128253Y-74210611D01*
X184084083Y-74220000D01*
X184044926Y-74220000D01*
X184000000Y-74225062D01*
X183955074Y-74220000D01*
X183915917Y-74220000D01*
X183871746Y-74210610D01*
X183820857Y-74204877D01*
X183783848Y-74191927D01*
X183751424Y-74185035D01*
X183704699Y-74164232D01*
X183650697Y-74145336D01*
X183622588Y-74127674D01*
X183597796Y-74116636D01*
X183551568Y-74083049D01*
X183498052Y-74049423D01*
X183478832Y-74030203D01*
X183461747Y-74017790D01*
X183419509Y-73970880D01*
X183370577Y-73921948D01*
X183359321Y-73904034D01*
X183349220Y-73892816D01*
X183314664Y-73832962D01*
X183274664Y-73769303D01*
X183269669Y-73755029D01*
X183265140Y-73747184D01*
X183241934Y-73675765D01*
X183215123Y-73599143D01*
X183214106Y-73590123D01*
X183213171Y-73587244D01*
X183204692Y-73506573D01*
X183194938Y-73420000D01*
X183204691Y-73333434D01*
X183213171Y-73252755D01*
X183214106Y-73249874D01*
X183215123Y-73240857D01*
X183241929Y-73164247D01*
X183265140Y-73092815D01*
X183269670Y-73084968D01*
X183274664Y-73070697D01*
X183314656Y-73007048D01*
X183349220Y-72947183D01*
X183359323Y-72935961D01*
X183370577Y-72918052D01*
X183419500Y-72869128D01*
X183461747Y-72822209D01*
X183478835Y-72809793D01*
X183498052Y-72790577D01*
X183551563Y-72756953D01*
X183597797Y-72723363D01*
X183622591Y-72712323D01*
X183650697Y-72694664D01*
X183704690Y-72675770D01*
X183751424Y-72654964D01*
X183783853Y-72648070D01*
X183820857Y-72635123D01*
X183871743Y-72629389D01*
X183915917Y-72620000D01*
X183955074Y-72620000D01*
X184000000Y-72614938D01*
X184044926Y-72620000D01*
G37*
G36*
X207539317Y-67990000D02*
G01*
X207584995Y-67990000D01*
X207623458Y-67999480D01*
X207656753Y-68003232D01*
X207699824Y-68018303D01*
X207750046Y-68030682D01*
X207779742Y-68046267D01*
X207805638Y-68055329D01*
X207849398Y-68082825D01*
X207900566Y-68109680D01*
X207921127Y-68127895D01*
X207939207Y-68139256D01*
X207980030Y-68180079D01*
X208027806Y-68222405D01*
X208039950Y-68239999D01*
X208050743Y-68250792D01*
X208084677Y-68304798D01*
X208124371Y-68362305D01*
X208129790Y-68376595D01*
X208134670Y-68384361D01*
X208157738Y-68450287D01*
X208184651Y-68521249D01*
X208185757Y-68530360D01*
X208186767Y-68533246D01*
X208195258Y-68608611D01*
X208205141Y-68690000D01*
X208195257Y-68771395D01*
X208186767Y-68846753D01*
X208185757Y-68849637D01*
X208184651Y-68858751D01*
X208157734Y-68929724D01*
X208134670Y-68995638D01*
X208129791Y-69003401D01*
X208124371Y-69017695D01*
X208084670Y-69075211D01*
X208050743Y-69129207D01*
X208039952Y-69139997D01*
X208027806Y-69157595D01*
X207980021Y-69199928D01*
X207939207Y-69240743D01*
X207921131Y-69252100D01*
X207900566Y-69270320D01*
X207849388Y-69297179D01*
X207805638Y-69324670D01*
X207779748Y-69333729D01*
X207750046Y-69349318D01*
X207699814Y-69361699D01*
X207656753Y-69376767D01*
X207623466Y-69380517D01*
X207584995Y-69390000D01*
X207539308Y-69390000D01*
X207500000Y-69394429D01*
X207460692Y-69390000D01*
X207415005Y-69390000D01*
X207376534Y-69380517D01*
X207343246Y-69376767D01*
X207300181Y-69361698D01*
X207249954Y-69349318D01*
X207220253Y-69333730D01*
X207194361Y-69324670D01*
X207150605Y-69297176D01*
X207099434Y-69270320D01*
X207078871Y-69252102D01*
X207060792Y-69240743D01*
X207019969Y-69199920D01*
X206972194Y-69157595D01*
X206960049Y-69140000D01*
X206949256Y-69129207D01*
X206915318Y-69075195D01*
X206875629Y-69017695D01*
X206870209Y-69003405D01*
X206865329Y-68995638D01*
X206842253Y-68929690D01*
X206815349Y-68858751D01*
X206814243Y-68849642D01*
X206813232Y-68846753D01*
X206804728Y-68771281D01*
X206794859Y-68690000D01*
X206804727Y-68608725D01*
X206813232Y-68533246D01*
X206814243Y-68530356D01*
X206815349Y-68521249D01*
X206842248Y-68450321D01*
X206865329Y-68384361D01*
X206870210Y-68376591D01*
X206875629Y-68362305D01*
X206915311Y-68304814D01*
X206949256Y-68250792D01*
X206960051Y-68239996D01*
X206972194Y-68222405D01*
X207019960Y-68180087D01*
X207060792Y-68139256D01*
X207078875Y-68127893D01*
X207099434Y-68109680D01*
X207150595Y-68082828D01*
X207194361Y-68055329D01*
X207220259Y-68046266D01*
X207249954Y-68030682D01*
X207300172Y-68018304D01*
X207343246Y-68003232D01*
X207376541Y-67999480D01*
X207415005Y-67990000D01*
X207460683Y-67990000D01*
X207500000Y-67985570D01*
X207539317Y-67990000D01*
G37*
G36*
X167446031Y-66264468D02*
G01*
X167634536Y-66321650D01*
X167672125Y-66341742D01*
X167808259Y-66414507D01*
X167960528Y-66539472D01*
X168085493Y-66691741D01*
X168178350Y-66865465D01*
X168235531Y-67053966D01*
X168254839Y-67250000D01*
X168235531Y-67446034D01*
X168178350Y-67634535D01*
X168085493Y-67808259D01*
X167960528Y-67960528D01*
X167808259Y-68085493D01*
X167634535Y-68178350D01*
X167446034Y-68235531D01*
X167250000Y-68254839D01*
X167053966Y-68235531D01*
X166865465Y-68178350D01*
X166691741Y-68085493D01*
X166539472Y-67960528D01*
X166414507Y-67808259D01*
X166375613Y-67735493D01*
X166321650Y-67634536D01*
X166264468Y-67446031D01*
X166245161Y-67250000D01*
X166264468Y-67053968D01*
X166321650Y-66865463D01*
X166414506Y-66691742D01*
X166539472Y-66539472D01*
X166691742Y-66414506D01*
X166865463Y-66321650D01*
X167053968Y-66264468D01*
X167250000Y-66245161D01*
X167446031Y-66264468D01*
G37*
G36*
X184196031Y-65914468D02*
G01*
X184384536Y-65971650D01*
X184538390Y-66053887D01*
X184558259Y-66064507D01*
X184710528Y-66189472D01*
X184835493Y-66341741D01*
X184928350Y-66515465D01*
X184985531Y-66703966D01*
X185004839Y-66900000D01*
X184985531Y-67096034D01*
X184928350Y-67284535D01*
X184835493Y-67458259D01*
X184710528Y-67610528D01*
X184558259Y-67735493D01*
X184384535Y-67828350D01*
X184196034Y-67885531D01*
X184000000Y-67904839D01*
X183803966Y-67885531D01*
X183615465Y-67828350D01*
X183441741Y-67735493D01*
X183289472Y-67610528D01*
X183164507Y-67458259D01*
X183153887Y-67438390D01*
X183071650Y-67284536D01*
X183014468Y-67096031D01*
X182995161Y-66900000D01*
X183014468Y-66703968D01*
X183071650Y-66515463D01*
X183164506Y-66341742D01*
X183289472Y-66189472D01*
X183441742Y-66064506D01*
X183615463Y-65971650D01*
X183803968Y-65914468D01*
X184000000Y-65895161D01*
X184196031Y-65914468D01*
G37*
G36*
X159061031Y-64409468D02*
G01*
X159249536Y-64466650D01*
X159297456Y-64492264D01*
X159423259Y-64559507D01*
X159575528Y-64684472D01*
X159700493Y-64836741D01*
X159793350Y-65010465D01*
X159850531Y-65198966D01*
X159869839Y-65395000D01*
X159850531Y-65591034D01*
X159793350Y-65779535D01*
X159700493Y-65953259D01*
X159575528Y-66105528D01*
X159423259Y-66230493D01*
X159249535Y-66323350D01*
X159061034Y-66380531D01*
X158865000Y-66399839D01*
X158668966Y-66380531D01*
X158480465Y-66323350D01*
X158477284Y-66321650D01*
X158370306Y-66264469D01*
X158306741Y-66230493D01*
X158154472Y-66105528D01*
X158029507Y-65953259D01*
X157998453Y-65895161D01*
X157936650Y-65779536D01*
X157879468Y-65591031D01*
X157860161Y-65395000D01*
X157879468Y-65198968D01*
X157936650Y-65010463D01*
X158029506Y-64836742D01*
X158154472Y-64684472D01*
X158306742Y-64559506D01*
X158480463Y-64466650D01*
X158668968Y-64409468D01*
X158865000Y-64390161D01*
X159061031Y-64409468D01*
G37*
G36*
X164161031Y-64409468D02*
G01*
X164349536Y-64466650D01*
X164397456Y-64492264D01*
X164523259Y-64559507D01*
X164675528Y-64684472D01*
X164800493Y-64836741D01*
X164893350Y-65010465D01*
X164950531Y-65198966D01*
X164969839Y-65395000D01*
X164950531Y-65591034D01*
X164893350Y-65779535D01*
X164800493Y-65953259D01*
X164675528Y-66105528D01*
X164523259Y-66230493D01*
X164349535Y-66323350D01*
X164161034Y-66380531D01*
X163965000Y-66399839D01*
X163768966Y-66380531D01*
X163580465Y-66323350D01*
X163577284Y-66321650D01*
X163470306Y-66264469D01*
X163406741Y-66230493D01*
X163254472Y-66105528D01*
X163129507Y-65953259D01*
X163098453Y-65895161D01*
X163036650Y-65779536D01*
X162979468Y-65591031D01*
X162960161Y-65395000D01*
X162979468Y-65198968D01*
X163036650Y-65010463D01*
X163129506Y-64836742D01*
X163254472Y-64684472D01*
X163406742Y-64559506D01*
X163580463Y-64466650D01*
X163768968Y-64409468D01*
X163965000Y-64390161D01*
X164161031Y-64409468D01*
G37*
G36*
X154765000Y-66395000D02*
G01*
X152765000Y-66395000D01*
X152765000Y-64395000D01*
X154765000Y-64395000D01*
X154765000Y-66395000D01*
G37*
G36*
X190123577Y-63564155D02*
G01*
X190257370Y-63619574D01*
X190257372Y-63619575D01*
X190257373Y-63619576D01*
X190372265Y-63707735D01*
X190460424Y-63822627D01*
X190460424Y-63822628D01*
X190515844Y-63956422D01*
X190534746Y-64100000D01*
X190515844Y-64243577D01*
X190515842Y-64243579D01*
X190515843Y-64243579D01*
X190460424Y-64377373D01*
X190372265Y-64492265D01*
X190257373Y-64580424D01*
X190178997Y-64612888D01*
X190123577Y-64635844D01*
X189980000Y-64654746D01*
X189836422Y-64635844D01*
X189702629Y-64580425D01*
X189702628Y-64580424D01*
X189702627Y-64580424D01*
X189587735Y-64492265D01*
X189499576Y-64377373D01*
X189499575Y-64377372D01*
X189499574Y-64377370D01*
X189444155Y-64243577D01*
X189425253Y-64100000D01*
X189444155Y-63956422D01*
X189499575Y-63822628D01*
X189587735Y-63707735D01*
X189702628Y-63619575D01*
X189836422Y-63564155D01*
X189980000Y-63545253D01*
X190123577Y-63564155D01*
G37*
G36*
X191903577Y-63564155D02*
G01*
X192037370Y-63619574D01*
X192037372Y-63619575D01*
X192037373Y-63619576D01*
X192152265Y-63707735D01*
X192240424Y-63822627D01*
X192240424Y-63822628D01*
X192295844Y-63956422D01*
X192314746Y-64100000D01*
X192295844Y-64243577D01*
X192295842Y-64243579D01*
X192295843Y-64243579D01*
X192240424Y-64377373D01*
X192152265Y-64492265D01*
X192037373Y-64580424D01*
X191958997Y-64612888D01*
X191903577Y-64635844D01*
X191760000Y-64654746D01*
X191616422Y-64635844D01*
X191482629Y-64580425D01*
X191482628Y-64580424D01*
X191482627Y-64580424D01*
X191367735Y-64492265D01*
X191279576Y-64377373D01*
X191279575Y-64377372D01*
X191279574Y-64377370D01*
X191224155Y-64243577D01*
X191205253Y-64100000D01*
X191224155Y-63956422D01*
X191279575Y-63822628D01*
X191367735Y-63707735D01*
X191482628Y-63619575D01*
X191616422Y-63564155D01*
X191760000Y-63545253D01*
X191903577Y-63564155D01*
G37*
G36*
X193683577Y-63564155D02*
G01*
X193817370Y-63619574D01*
X193817372Y-63619575D01*
X193817373Y-63619576D01*
X193932265Y-63707735D01*
X194020424Y-63822627D01*
X194020424Y-63822628D01*
X194075844Y-63956422D01*
X194094746Y-64100000D01*
X194075844Y-64243577D01*
X194075842Y-64243579D01*
X194075843Y-64243579D01*
X194020424Y-64377373D01*
X193932265Y-64492265D01*
X193817373Y-64580424D01*
X193738997Y-64612888D01*
X193683577Y-64635844D01*
X193540000Y-64654746D01*
X193396422Y-64635844D01*
X193262629Y-64580425D01*
X193262628Y-64580424D01*
X193262627Y-64580424D01*
X193147735Y-64492265D01*
X193059576Y-64377373D01*
X193059575Y-64377372D01*
X193059574Y-64377370D01*
X193004155Y-64243577D01*
X192985253Y-64100000D01*
X193004155Y-63956422D01*
X193059575Y-63822628D01*
X193147735Y-63707735D01*
X193262628Y-63619575D01*
X193396422Y-63564155D01*
X193540000Y-63545253D01*
X193683577Y-63564155D01*
G37*
G36*
X195463577Y-63564155D02*
G01*
X195597370Y-63619574D01*
X195597372Y-63619575D01*
X195597373Y-63619576D01*
X195712265Y-63707735D01*
X195800424Y-63822627D01*
X195800424Y-63822628D01*
X195855844Y-63956422D01*
X195874746Y-64100000D01*
X195855844Y-64243577D01*
X195855842Y-64243579D01*
X195855843Y-64243579D01*
X195800424Y-64377373D01*
X195712265Y-64492265D01*
X195597373Y-64580424D01*
X195518997Y-64612888D01*
X195463577Y-64635844D01*
X195320000Y-64654746D01*
X195176422Y-64635844D01*
X195042629Y-64580425D01*
X195042628Y-64580424D01*
X195042627Y-64580424D01*
X194927735Y-64492265D01*
X194839576Y-64377373D01*
X194839575Y-64377372D01*
X194839574Y-64377370D01*
X194784155Y-64243577D01*
X194765253Y-64100000D01*
X194784155Y-63956422D01*
X194839575Y-63822628D01*
X194927735Y-63707735D01*
X195042628Y-63619575D01*
X195176422Y-63564155D01*
X195320000Y-63545253D01*
X195463577Y-63564155D01*
G37*
G36*
X197243577Y-63564155D02*
G01*
X197377370Y-63619574D01*
X197377372Y-63619575D01*
X197377373Y-63619576D01*
X197492265Y-63707735D01*
X197580424Y-63822627D01*
X197580424Y-63822628D01*
X197635844Y-63956422D01*
X197654746Y-64100000D01*
X197635844Y-64243577D01*
X197635842Y-64243579D01*
X197635843Y-64243579D01*
X197580424Y-64377373D01*
X197492265Y-64492265D01*
X197377373Y-64580424D01*
X197298997Y-64612888D01*
X197243577Y-64635844D01*
X197100000Y-64654746D01*
X196956422Y-64635844D01*
X196822629Y-64580425D01*
X196822628Y-64580424D01*
X196822627Y-64580424D01*
X196707735Y-64492265D01*
X196619576Y-64377373D01*
X196619575Y-64377372D01*
X196619574Y-64377370D01*
X196564155Y-64243577D01*
X196545253Y-64100000D01*
X196564155Y-63956422D01*
X196619575Y-63822628D01*
X196707735Y-63707735D01*
X196822628Y-63619575D01*
X196956422Y-63564155D01*
X197100000Y-63545253D01*
X197243577Y-63564155D01*
G37*
G36*
X199023577Y-63564155D02*
G01*
X199157370Y-63619574D01*
X199157372Y-63619575D01*
X199157373Y-63619576D01*
X199272265Y-63707735D01*
X199360424Y-63822627D01*
X199360424Y-63822628D01*
X199415844Y-63956422D01*
X199434746Y-64100000D01*
X199415844Y-64243577D01*
X199415842Y-64243579D01*
X199415843Y-64243579D01*
X199360424Y-64377373D01*
X199272265Y-64492265D01*
X199157373Y-64580424D01*
X199078997Y-64612888D01*
X199023577Y-64635844D01*
X198880000Y-64654746D01*
X198736422Y-64635844D01*
X198602629Y-64580425D01*
X198602628Y-64580424D01*
X198602627Y-64580424D01*
X198487735Y-64492265D01*
X198399576Y-64377373D01*
X198399575Y-64377372D01*
X198399574Y-64377370D01*
X198344155Y-64243577D01*
X198325253Y-64100000D01*
X198344155Y-63956422D01*
X198399575Y-63822628D01*
X198487735Y-63707735D01*
X198602628Y-63619575D01*
X198736422Y-63564155D01*
X198880000Y-63545253D01*
X199023577Y-63564155D01*
G37*
G36*
X200803577Y-63564155D02*
G01*
X200937370Y-63619574D01*
X200937372Y-63619575D01*
X200937373Y-63619576D01*
X201052265Y-63707735D01*
X201140424Y-63822627D01*
X201140424Y-63822628D01*
X201195844Y-63956422D01*
X201214746Y-64100000D01*
X201195844Y-64243577D01*
X201195842Y-64243579D01*
X201195843Y-64243579D01*
X201140424Y-64377373D01*
X201052265Y-64492265D01*
X200937373Y-64580424D01*
X200858997Y-64612888D01*
X200803577Y-64635844D01*
X200660000Y-64654746D01*
X200516422Y-64635844D01*
X200382629Y-64580425D01*
X200382628Y-64580424D01*
X200382627Y-64580424D01*
X200267735Y-64492265D01*
X200179576Y-64377373D01*
X200179575Y-64377372D01*
X200179574Y-64377370D01*
X200124155Y-64243577D01*
X200105253Y-64100000D01*
X200124155Y-63956422D01*
X200179575Y-63822628D01*
X200267735Y-63707735D01*
X200382628Y-63619575D01*
X200516422Y-63564155D01*
X200660000Y-63545253D01*
X200803577Y-63564155D01*
G37*
G36*
X202990000Y-64650000D02*
G01*
X201890000Y-64650000D01*
X201890000Y-63550000D01*
X202990000Y-63550000D01*
X202990000Y-64650000D01*
G37*
G36*
X167446031Y-58219468D02*
G01*
X167634536Y-58276650D01*
X167744623Y-58335493D01*
X167808259Y-58369507D01*
X167960528Y-58494472D01*
X168085493Y-58646741D01*
X168178350Y-58820465D01*
X168235531Y-59008966D01*
X168254839Y-59205000D01*
X168235531Y-59401034D01*
X168178350Y-59589535D01*
X168085493Y-59763259D01*
X167960528Y-59915528D01*
X167808259Y-60040493D01*
X167634535Y-60133350D01*
X167446034Y-60190531D01*
X167250000Y-60209839D01*
X167053966Y-60190531D01*
X166865465Y-60133350D01*
X166691741Y-60040493D01*
X166539472Y-59915528D01*
X166414507Y-59763259D01*
X166403887Y-59743390D01*
X166321650Y-59589536D01*
X166264468Y-59401031D01*
X166245161Y-59205000D01*
X166264468Y-59008968D01*
X166321650Y-58820463D01*
X166414506Y-58646742D01*
X166539472Y-58494472D01*
X166691742Y-58369506D01*
X166865463Y-58276650D01*
X167053968Y-58219468D01*
X167250000Y-58200161D01*
X167446031Y-58219468D01*
G37*
G36*
X159061031Y-56514468D02*
G01*
X159249536Y-56571650D01*
X159403390Y-56653887D01*
X159423259Y-56664507D01*
X159575528Y-56789472D01*
X159700493Y-56941741D01*
X159793350Y-57115465D01*
X159850531Y-57303966D01*
X159869839Y-57500000D01*
X159850531Y-57696034D01*
X159793350Y-57884535D01*
X159700493Y-58058259D01*
X159575528Y-58210528D01*
X159423259Y-58335493D01*
X159249535Y-58428350D01*
X159061034Y-58485531D01*
X158865000Y-58504839D01*
X158668966Y-58485531D01*
X158480465Y-58428350D01*
X158306741Y-58335493D01*
X158154472Y-58210528D01*
X158029507Y-58058259D01*
X158018887Y-58038390D01*
X157936650Y-57884536D01*
X157879468Y-57696031D01*
X157860161Y-57500000D01*
X157879468Y-57303968D01*
X157936650Y-57115463D01*
X158029506Y-56941742D01*
X158154472Y-56789472D01*
X158306742Y-56664506D01*
X158480463Y-56571650D01*
X158668968Y-56514468D01*
X158865000Y-56495161D01*
X159061031Y-56514468D01*
G37*
G36*
X164161031Y-56514468D02*
G01*
X164349536Y-56571650D01*
X164503390Y-56653887D01*
X164523259Y-56664507D01*
X164675528Y-56789472D01*
X164800493Y-56941741D01*
X164893350Y-57115465D01*
X164950531Y-57303966D01*
X164969839Y-57500000D01*
X164950531Y-57696034D01*
X164893350Y-57884535D01*
X164800493Y-58058259D01*
X164675528Y-58210528D01*
X164523259Y-58335493D01*
X164349535Y-58428350D01*
X164161034Y-58485531D01*
X163965000Y-58504839D01*
X163768966Y-58485531D01*
X163580465Y-58428350D01*
X163406741Y-58335493D01*
X163254472Y-58210528D01*
X163129507Y-58058259D01*
X163118887Y-58038390D01*
X163036650Y-57884536D01*
X162979468Y-57696031D01*
X162960161Y-57500000D01*
X162979468Y-57303968D01*
X163036650Y-57115463D01*
X163129506Y-56941742D01*
X163254472Y-56789472D01*
X163406742Y-56664506D01*
X163580463Y-56571650D01*
X163768968Y-56514468D01*
X163965000Y-56495161D01*
X164161031Y-56514468D01*
G37*
G36*
X154765000Y-58500000D02*
G01*
X152765000Y-58500000D01*
X152765000Y-56500000D01*
X154765000Y-56500000D01*
X154765000Y-58500000D01*
G37*
G36*
X197296031Y-53045468D02*
G01*
X197484536Y-53102650D01*
X197600260Y-53164506D01*
X197658259Y-53195507D01*
X197810528Y-53320472D01*
X197935493Y-53472741D01*
X198028350Y-53646465D01*
X198085531Y-53834966D01*
X198104839Y-54031000D01*
X198085531Y-54227034D01*
X198028350Y-54415535D01*
X197935493Y-54589259D01*
X197810528Y-54741528D01*
X197658259Y-54866493D01*
X197484535Y-54959350D01*
X197296034Y-55016531D01*
X197100000Y-55035839D01*
X196903966Y-55016531D01*
X196715465Y-54959350D01*
X196541741Y-54866493D01*
X196389472Y-54741528D01*
X196264507Y-54589259D01*
X196247936Y-54558257D01*
X196171650Y-54415536D01*
X196114468Y-54227031D01*
X196095161Y-54031000D01*
X196114468Y-53834968D01*
X196171650Y-53646463D01*
X196264506Y-53472742D01*
X196389472Y-53320472D01*
X196541742Y-53195506D01*
X196715463Y-53102650D01*
X196903968Y-53045468D01*
X197100000Y-53026161D01*
X197296031Y-53045468D01*
G37*
G36*
X200696031Y-53014468D02*
G01*
X200884536Y-53071650D01*
X201038390Y-53153887D01*
X201058259Y-53164507D01*
X201210528Y-53289472D01*
X201335493Y-53441741D01*
X201428350Y-53615465D01*
X201485531Y-53803966D01*
X201504839Y-54000000D01*
X201485531Y-54196034D01*
X201428350Y-54384535D01*
X201335493Y-54558259D01*
X201210528Y-54710528D01*
X201058259Y-54835493D01*
X200884535Y-54928350D01*
X200696034Y-54985531D01*
X200500000Y-55004839D01*
X200303966Y-54985531D01*
X200115465Y-54928350D01*
X199941741Y-54835493D01*
X199789472Y-54710528D01*
X199664507Y-54558259D01*
X199588220Y-54415536D01*
X199571650Y-54384536D01*
X199514468Y-54196031D01*
X199495161Y-54000000D01*
X199514468Y-53803968D01*
X199571650Y-53615463D01*
X199664506Y-53441742D01*
X199789472Y-53289472D01*
X199941742Y-53164506D01*
X200115463Y-53071650D01*
X200303968Y-53014468D01*
X200500000Y-52995161D01*
X200696031Y-53014468D01*
G37*
M02*
