G04 #@! TF.GenerationSoftware,KiCad,Pcbnew,8.0.7*
G04 #@! TF.CreationDate,2025-01-18T00:35:04-05:00*
G04 #@! TF.ProjectId,Mouse,4d6f7573-652e-46b6-9963-61645f706362,rev?*
G04 #@! TF.SameCoordinates,Original*
G04 #@! TF.FileFunction,Copper,L1,Top*
G04 #@! TF.FilePolarity,Positive*
%FSLAX46Y46*%
G04 Gerber Fmt 4.6, Leading zero omitted, Abs format (unit mm)*
G04 Created by KiCad (PCBNEW 8.0.7) date 2025-01-18 00:35:04*
%MOMM*%
%LPD*%
G01*
G04 APERTURE LIST*
G04 Aperture macros list*
%AMRoundRect*
0 Rectangle with rounded corners*
0 $1 Rounding radius*
0 $2 $3 $4 $5 $6 $7 $8 $9 X,Y pos of 4 corners*
0 Add a 4 corners polygon primitive as box body*
4,1,4,$2,$3,$4,$5,$6,$7,$8,$9,$2,$3,0*
0 Add four circle primitives for the rounded corners*
1,1,$1+$1,$2,$3*
1,1,$1+$1,$4,$5*
1,1,$1+$1,$6,$7*
1,1,$1+$1,$8,$9*
0 Add four rect primitives between the rounded corners*
20,1,$1+$1,$2,$3,$4,$5,0*
20,1,$1+$1,$4,$5,$6,$7,0*
20,1,$1+$1,$6,$7,$8,$9,0*
20,1,$1+$1,$8,$9,$2,$3,0*%
%AMRotRect*
0 Rectangle, with rotation*
0 The origin of the aperture is its center*
0 $1 length*
0 $2 width*
0 $3 Rotation angle, in degrees counterclockwise*
0 Add horizontal line*
21,1,$1,$2,0,0,$3*%
%AMOutline5P*
0 Free polygon, 5 corners , with rotation*
0 The origin of the aperture is its center*
0 number of corners: always 5*
0 $1 to $10 corner X, Y*
0 $11 Rotation angle, in degrees counterclockwise*
0 create outline with 5 corners*
4,1,5,$1,$2,$3,$4,$5,$6,$7,$8,$9,$10,$1,$2,$11*%
%AMOutline6P*
0 Free polygon, 6 corners , with rotation*
0 The origin of the aperture is its center*
0 number of corners: always 6*
0 $1 to $12 corner X, Y*
0 $13 Rotation angle, in degrees counterclockwise*
0 create outline with 6 corners*
4,1,6,$1,$2,$3,$4,$5,$6,$7,$8,$9,$10,$11,$12,$1,$2,$13*%
%AMOutline7P*
0 Free polygon, 7 corners , with rotation*
0 The origin of the aperture is its center*
0 number of corners: always 7*
0 $1 to $14 corner X, Y*
0 $15 Rotation angle, in degrees counterclockwise*
0 create outline with 7 corners*
4,1,7,$1,$2,$3,$4,$5,$6,$7,$8,$9,$10,$11,$12,$13,$14,$1,$2,$15*%
%AMOutline8P*
0 Free polygon, 8 corners , with rotation*
0 The origin of the aperture is its center*
0 number of corners: always 8*
0 $1 to $16 corner X, Y*
0 $17 Rotation angle, in degrees counterclockwise*
0 create outline with 8 corners*
4,1,8,$1,$2,$3,$4,$5,$6,$7,$8,$9,$10,$11,$12,$13,$14,$15,$16,$1,$2,$17*%
G04 Aperture macros list end*
G04 #@! TA.AperFunction,EtchedComponent*
%ADD10C,0.000000*%
G04 #@! TD*
G04 #@! TA.AperFunction,SMDPad,CuDef*
%ADD11R,1.346200X0.406400*%
G04 #@! TD*
G04 #@! TA.AperFunction,SMDPad,CuDef*
%ADD12R,1.397000X1.600200*%
G04 #@! TD*
G04 #@! TA.AperFunction,SMDPad,CuDef*
%ADD13R,1.905000X1.905000*%
G04 #@! TD*
G04 #@! TA.AperFunction,ComponentPad*
%ADD14C,1.700000*%
G04 #@! TD*
G04 #@! TA.AperFunction,ComponentPad*
%ADD15R,1.100000X1.100000*%
G04 #@! TD*
G04 #@! TA.AperFunction,ComponentPad*
%ADD16C,1.100000*%
G04 #@! TD*
G04 #@! TA.AperFunction,SMDPad,CuDef*
%ADD17Outline5P,-0.700000X0.600000X0.220000X0.600000X0.700000X0.120000X0.700000X-0.600000X-0.700000X-0.600000X0.000000*%
G04 #@! TD*
G04 #@! TA.AperFunction,SMDPad,CuDef*
%ADD18R,1.400000X1.200000*%
G04 #@! TD*
G04 #@! TA.AperFunction,ComponentPad*
%ADD19C,2.000000*%
G04 #@! TD*
G04 #@! TA.AperFunction,ComponentPad*
%ADD20R,2.000000X2.000000*%
G04 #@! TD*
G04 #@! TA.AperFunction,SMDPad,CuDef*
%ADD21R,0.889000X1.473200*%
G04 #@! TD*
G04 #@! TA.AperFunction,SMDPad,CuDef*
%ADD22R,1.473200X0.889000*%
G04 #@! TD*
G04 #@! TA.AperFunction,SMDPad,CuDef*
%ADD23RoundRect,0.062500X0.291682X0.380070X-0.380070X-0.291682X-0.291682X-0.380070X0.380070X0.291682X0*%
G04 #@! TD*
G04 #@! TA.AperFunction,SMDPad,CuDef*
%ADD24RoundRect,0.062500X-0.291682X0.380070X-0.380070X0.291682X0.291682X-0.380070X0.380070X-0.291682X0*%
G04 #@! TD*
G04 #@! TA.AperFunction,HeatsinkPad*
%ADD25RotRect,5.200000X5.200000X225.000000*%
G04 #@! TD*
G04 #@! TA.AperFunction,ComponentPad*
%ADD26C,1.400000*%
G04 #@! TD*
G04 #@! TA.AperFunction,ComponentPad*
%ADD27O,1.400000X1.400000*%
G04 #@! TD*
G04 #@! TA.AperFunction,ComponentPad*
%ADD28C,1.600000*%
G04 #@! TD*
G04 #@! TA.AperFunction,ComponentPad*
%ADD29O,1.600000X1.600000*%
G04 #@! TD*
G04 #@! TA.AperFunction,ComponentPad*
%ADD30R,1.800000X1.800000*%
G04 #@! TD*
G04 #@! TA.AperFunction,ComponentPad*
%ADD31C,1.800000*%
G04 #@! TD*
G04 #@! TA.AperFunction,SMDPad,CuDef*
%ADD32RoundRect,0.225000X-0.225000X-0.250000X0.225000X-0.250000X0.225000X0.250000X-0.225000X0.250000X0*%
G04 #@! TD*
G04 #@! TA.AperFunction,SMDPad,CuDef*
%ADD33RoundRect,0.140000X-0.140000X-0.170000X0.140000X-0.170000X0.140000X0.170000X-0.140000X0.170000X0*%
G04 #@! TD*
G04 #@! TA.AperFunction,SMDPad,CuDef*
%ADD34RoundRect,0.140000X0.140000X0.170000X-0.140000X0.170000X-0.140000X-0.170000X0.140000X-0.170000X0*%
G04 #@! TD*
G04 #@! TA.AperFunction,SMDPad,CuDef*
%ADD35RoundRect,0.250000X0.250000X0.475000X-0.250000X0.475000X-0.250000X-0.475000X0.250000X-0.475000X0*%
G04 #@! TD*
G04 #@! TA.AperFunction,SMDPad,CuDef*
%ADD36RoundRect,0.250000X0.475000X-0.250000X0.475000X0.250000X-0.475000X0.250000X-0.475000X-0.250000X0*%
G04 #@! TD*
G04 #@! TA.AperFunction,SMDPad,CuDef*
%ADD37RoundRect,0.140000X0.170000X-0.140000X0.170000X0.140000X-0.170000X0.140000X-0.170000X-0.140000X0*%
G04 #@! TD*
G04 #@! TA.AperFunction,SMDPad,CuDef*
%ADD38RoundRect,0.225000X0.250000X-0.225000X0.250000X0.225000X-0.250000X0.225000X-0.250000X-0.225000X0*%
G04 #@! TD*
G04 #@! TA.AperFunction,SMDPad,CuDef*
%ADD39RoundRect,0.100000X0.100000X-0.130000X0.100000X0.130000X-0.100000X0.130000X-0.100000X-0.130000X0*%
G04 #@! TD*
G04 #@! TA.AperFunction,SMDPad,CuDef*
%ADD40RoundRect,0.100000X-0.100000X0.130000X-0.100000X-0.130000X0.100000X-0.130000X0.100000X0.130000X0*%
G04 #@! TD*
G04 #@! TA.AperFunction,ViaPad*
%ADD41C,0.700000*%
G04 #@! TD*
G04 #@! TA.AperFunction,Conductor*
%ADD42C,0.200000*%
G04 #@! TD*
G04 APERTURE END LIST*
D10*
G04 #@! TA.AperFunction,EtchedComponent*
G36*
X205474800Y-78767600D02*
G01*
X202325200Y-78767600D01*
X202325200Y-77294400D01*
X205474800Y-77294400D01*
X205474800Y-78767600D01*
G37*
G04 #@! TD.AperFunction*
G04 #@! TA.AperFunction,EtchedComponent*
G36*
X207967600Y-64574800D02*
G01*
X206494400Y-64574800D01*
X206494400Y-61425200D01*
X207967600Y-61425200D01*
X207967600Y-64574800D01*
G37*
G04 #@! TD.AperFunction*
D11*
X210642901Y-92050000D03*
X210642901Y-91399999D03*
X210642901Y-90750000D03*
X210642901Y-90100001D03*
X210642901Y-89450000D03*
D12*
X210867902Y-93950001D03*
X210867902Y-87549999D03*
D13*
X213517901Y-91950000D03*
X213517901Y-89550000D03*
D14*
X175250000Y-112250000D03*
X172750000Y-112250000D03*
X170250000Y-112250000D03*
D15*
X202440000Y-64100000D03*
D16*
X200660000Y-64100000D03*
X198880000Y-64100000D03*
X197100000Y-64100000D03*
X195320000Y-64100000D03*
X193540000Y-64100000D03*
X191760000Y-64100000D03*
X189980000Y-64100000D03*
X189090000Y-74800000D03*
X190870000Y-74800000D03*
X192650000Y-74800000D03*
X194430000Y-74800000D03*
X196210000Y-74800000D03*
X197990000Y-74800000D03*
X199770000Y-74800000D03*
X201550000Y-74800000D03*
D17*
X177400000Y-86850000D03*
D18*
X179600000Y-86850000D03*
X179600000Y-85250000D03*
X177400000Y-85250000D03*
D19*
X161500000Y-75600000D03*
X173500000Y-75600000D03*
X161500000Y-80400000D03*
X173500000Y-80400000D03*
X206750000Y-93300000D03*
X206750000Y-89250000D03*
D20*
X143250000Y-86850000D03*
D19*
X148350000Y-86850000D03*
X153450000Y-86850000D03*
D20*
X140150000Y-79000000D03*
D19*
X145250000Y-79000000D03*
X150350000Y-79000000D03*
D20*
X153765000Y-65395000D03*
D19*
X158865000Y-65395000D03*
X163965000Y-65395000D03*
X163965000Y-57500000D03*
X158865000Y-57500000D03*
D20*
X153765000Y-57500000D03*
D21*
X201600000Y-84569000D03*
X203900000Y-84569000D03*
X206200000Y-84569000D03*
D22*
X213769000Y-65300000D03*
X213769000Y-63000000D03*
X213769000Y-60700000D03*
D23*
X188370020Y-90907798D03*
X188016466Y-90554245D03*
X187662913Y-90200691D03*
X187309360Y-89847138D03*
X186955806Y-89493585D03*
X186602253Y-89140031D03*
X186248699Y-88786478D03*
X185895146Y-88432924D03*
X185541593Y-88079371D03*
X185188039Y-87725818D03*
X184834486Y-87372264D03*
D24*
X183650082Y-87372264D03*
X183296529Y-87725818D03*
X182942975Y-88079371D03*
X182589422Y-88432924D03*
X182235869Y-88786478D03*
X181882315Y-89140031D03*
X181528762Y-89493585D03*
X181175208Y-89847138D03*
X180821655Y-90200691D03*
X180468102Y-90554245D03*
X180114548Y-90907798D03*
D23*
X180114548Y-92092202D03*
X180468102Y-92445755D03*
X180821655Y-92799309D03*
X181175208Y-93152862D03*
X181528762Y-93506415D03*
X181882315Y-93859969D03*
X182235869Y-94213522D03*
X182589422Y-94567076D03*
X182942975Y-94920629D03*
X183296529Y-95274182D03*
X183650082Y-95627736D03*
D24*
X184834486Y-95627736D03*
X185188039Y-95274182D03*
X185541593Y-94920629D03*
X185895146Y-94567076D03*
X186248699Y-94213522D03*
X186602253Y-93859969D03*
X186955806Y-93506415D03*
X187309360Y-93152862D03*
X187662913Y-92799309D03*
X188016466Y-92445755D03*
X188370020Y-92092202D03*
D25*
X184242284Y-91500000D03*
D19*
X200500000Y-54000000D03*
X156735000Y-88755000D03*
X153635000Y-80755000D03*
X175250000Y-108500000D03*
X167250000Y-67250000D03*
X167250000Y-59205000D03*
X172250000Y-108500000D03*
X191250000Y-78000000D03*
X184000000Y-66900000D03*
X197100000Y-54031000D03*
X194500000Y-78000000D03*
X197750000Y-78000000D03*
X206750000Y-97250000D03*
D26*
X207500000Y-68690000D03*
D27*
X207500000Y-76310000D03*
D26*
X163500000Y-107810000D03*
D27*
X163500000Y-100190000D03*
D26*
X161250000Y-107810000D03*
D27*
X161250000Y-100190000D03*
D28*
X158500000Y-110330000D03*
D29*
X158500000Y-100170000D03*
D28*
X184000000Y-73420000D03*
D29*
X184000000Y-83580000D03*
D28*
X180590000Y-105725000D03*
D29*
X190750000Y-105725000D03*
D28*
X185420000Y-99500000D03*
D29*
X195580000Y-99500000D03*
D26*
X195940000Y-92250000D03*
D27*
X203560000Y-92250000D03*
D26*
X203560000Y-89750000D03*
D27*
X195940000Y-89750000D03*
D30*
X158510000Y-95750000D03*
D31*
X160669000Y-95750000D03*
X162828000Y-95750000D03*
X164987000Y-95750000D03*
D30*
X180750000Y-102000000D03*
D31*
X180750000Y-99460000D03*
D32*
X199000000Y-60500000D03*
X200550000Y-60500000D03*
D33*
X198995000Y-59300000D03*
X199955000Y-59300000D03*
D34*
X196220000Y-59100000D03*
X197180000Y-59100000D03*
D35*
X195300000Y-60600000D03*
X197200000Y-60600000D03*
D36*
X190500000Y-61900000D03*
X190500000Y-60000000D03*
D37*
X192000000Y-61930000D03*
X192000000Y-60970000D03*
X206000000Y-57980000D03*
X206000000Y-57020000D03*
D36*
X207500000Y-57950000D03*
X207500000Y-56050000D03*
D38*
X189600000Y-85025000D03*
X189600000Y-86575000D03*
D33*
X189020000Y-94250000D03*
X189980000Y-94250000D03*
D37*
X192500000Y-86480000D03*
X192500000Y-85520000D03*
D39*
X180900000Y-84180000D03*
X180900000Y-84820000D03*
D37*
X193500000Y-85520000D03*
X193500000Y-86480000D03*
X194500000Y-85520000D03*
X194500000Y-86480000D03*
D40*
X177100000Y-87930000D03*
X177100000Y-88570000D03*
D38*
X191100000Y-86575000D03*
X191100000Y-85025000D03*
D41*
X203600000Y-58000000D03*
X211500000Y-60700000D03*
X178500000Y-92800000D03*
X184242284Y-91500000D03*
X182300000Y-87100000D03*
X179800000Y-88000000D03*
X187374265Y-87574265D03*
X176293324Y-97893324D03*
X178859620Y-100559620D03*
X208600000Y-87700000D03*
X197500000Y-82100000D03*
X174500000Y-96350000D03*
X173300000Y-95100000D03*
X187900000Y-85200000D03*
X187804845Y-82704845D03*
X187227640Y-85827640D03*
X187229110Y-84129110D03*
X168153984Y-108153984D03*
X167000000Y-109360000D03*
X189500000Y-89500000D03*
X189500000Y-87900000D03*
X166200000Y-80400000D03*
X169800000Y-80400000D03*
D42*
X186298375Y-85878375D02*
X186328375Y-85878375D01*
X184000000Y-83580000D02*
X186298375Y-85878375D01*
X186328375Y-85878375D02*
X185753375Y-86453375D01*
X194206750Y-78000000D02*
X186328375Y-85878375D01*
X189600000Y-85025000D02*
X191100000Y-85025000D01*
X176470000Y-88570000D02*
X176000000Y-88100000D01*
X177100000Y-88570000D02*
X176470000Y-88570000D01*
X180880000Y-84180000D02*
X180250000Y-83550000D01*
X180900000Y-84180000D02*
X180880000Y-84180000D01*
X209100000Y-67090000D02*
X207500000Y-68690000D01*
X209100000Y-59550000D02*
X209100000Y-67090000D01*
X207500000Y-57950000D02*
X209100000Y-59550000D01*
X182900000Y-87329289D02*
X183296529Y-87725818D01*
X178600000Y-80400000D02*
X182900000Y-84700000D01*
X173500000Y-80400000D02*
X178600000Y-80400000D01*
X182900000Y-84700000D02*
X182900000Y-87329289D01*
X174806897Y-89506897D02*
X180834967Y-89506897D01*
X167250000Y-81950000D02*
X174806897Y-89506897D01*
X180834967Y-89506897D02*
X181175208Y-89847138D01*
X167250000Y-67250000D02*
X167250000Y-81950000D01*
X161500000Y-80400000D02*
X166200000Y-80400000D01*
X177120000Y-87130000D02*
X177400000Y-86850000D01*
X177120000Y-88000000D02*
X177120000Y-87130000D01*
X181188521Y-89153344D02*
X181528762Y-89493585D01*
X175053344Y-89153344D02*
X181188521Y-89153344D01*
X168500000Y-82600000D02*
X175053344Y-89153344D01*
X168500000Y-60455000D02*
X168500000Y-82600000D01*
X167250000Y-59205000D02*
X168500000Y-60455000D01*
X189000000Y-61900000D02*
X190500000Y-61900000D01*
X184000000Y-66900000D02*
X189000000Y-61900000D01*
X184000000Y-73420000D02*
X184000000Y-66900000D01*
X203620000Y-57980000D02*
X203600000Y-58000000D01*
X206000000Y-57980000D02*
X203620000Y-57980000D01*
X213769000Y-60700000D02*
X211500000Y-60700000D01*
X180113857Y-92800000D02*
X178500000Y-92800000D01*
X180468102Y-92445755D02*
X180113857Y-92800000D01*
X187070711Y-91500000D02*
X184242284Y-91500000D01*
X188016466Y-92445755D02*
X187070711Y-91500000D01*
X180114548Y-92092202D02*
X180706750Y-91500000D01*
X180706750Y-91500000D02*
X184242284Y-91500000D01*
X182589422Y-88432924D02*
X184242284Y-90085786D01*
X184242284Y-90085786D02*
X184242284Y-91500000D01*
X184949391Y-91500000D02*
X184242284Y-91500000D01*
X186955806Y-89493585D02*
X184949391Y-91500000D01*
X185528280Y-95614423D02*
X188615577Y-95614423D01*
X188615577Y-95614423D02*
X189980000Y-94250000D01*
X185188039Y-95274182D02*
X185528280Y-95614423D01*
X179800000Y-88000000D02*
X179800000Y-87050000D01*
X179800000Y-87050000D02*
X179600000Y-86850000D01*
X182300000Y-87436396D02*
X182300000Y-87100000D01*
X182942975Y-88079371D02*
X182300000Y-87436396D01*
X180900000Y-86450000D02*
X180900000Y-87450609D01*
X180900000Y-87450609D02*
X182235869Y-88786478D01*
X179600000Y-85250000D02*
X179700000Y-85250000D01*
X179700000Y-85250000D02*
X180900000Y-86450000D01*
X186942493Y-88799791D02*
X186602253Y-89140031D01*
X187100209Y-88799791D02*
X186942493Y-88799791D01*
X189325000Y-86575000D02*
X187100209Y-88799791D01*
X189600000Y-86575000D02*
X189325000Y-86575000D01*
X186248699Y-88699831D02*
X187374265Y-87574265D01*
X186248699Y-88786478D02*
X186248699Y-88699831D01*
X186235387Y-88092683D02*
X185895146Y-88432924D01*
X188875000Y-85725000D02*
X187822360Y-86777640D01*
X187822360Y-86777640D02*
X187322360Y-86777640D01*
X188875000Y-84597014D02*
X188875000Y-85725000D01*
X194222014Y-79250000D02*
X188875000Y-84597014D01*
X196500000Y-79250000D02*
X194222014Y-79250000D01*
X186235387Y-87864613D02*
X186235387Y-88092683D01*
X187322360Y-86777640D02*
X186235387Y-87864613D01*
X197750000Y-78000000D02*
X196500000Y-79250000D01*
X190600000Y-90600000D02*
X189500000Y-89500000D01*
X190600000Y-94495424D02*
X190600000Y-90600000D01*
X188745424Y-96350000D02*
X190600000Y-94495424D01*
X185556750Y-96350000D02*
X188745424Y-96350000D01*
X184834486Y-95627736D02*
X185556750Y-96350000D01*
X189200000Y-93100000D02*
X189980000Y-93880000D01*
X189980000Y-93880000D02*
X189980000Y-94250000D01*
X188670711Y-93100000D02*
X189200000Y-93100000D01*
X188016466Y-92445755D02*
X188670711Y-93100000D01*
X189500000Y-90962222D02*
X188370020Y-92092202D01*
X189500000Y-89500000D02*
X189500000Y-90962222D01*
X179000000Y-86850000D02*
X177400000Y-85250000D01*
X179600000Y-86850000D02*
X179000000Y-86850000D01*
X185188039Y-95274182D02*
X185188039Y-95288039D01*
X176434746Y-97893324D02*
X181175208Y-93152862D01*
X176293324Y-97893324D02*
X176434746Y-97893324D01*
X179650380Y-100559620D02*
X178859620Y-100559620D01*
X180750000Y-99460000D02*
X179650380Y-100559620D01*
X180800691Y-92799309D02*
X180821655Y-92799309D01*
X177250000Y-96350000D02*
X180800691Y-92799309D01*
X174500000Y-96350000D02*
X177250000Y-96350000D01*
X158186897Y-90206897D02*
X156735000Y-88755000D01*
X168406897Y-90206897D02*
X158186897Y-90206897D01*
X173300000Y-95100000D02*
X168406897Y-90206897D01*
X210350000Y-89450000D02*
X208600000Y-87700000D01*
X210642901Y-89450000D02*
X210350000Y-89450000D01*
X203031000Y-86000000D02*
X201600000Y-84569000D01*
X207300000Y-86000000D02*
X203031000Y-86000000D01*
X213769000Y-79531000D02*
X207300000Y-86000000D01*
X213769000Y-65300000D02*
X213769000Y-79531000D01*
X209000000Y-70190000D02*
X207500000Y-68690000D01*
X209000000Y-81769000D02*
X209000000Y-70190000D01*
X206200000Y-84569000D02*
X209000000Y-81769000D01*
X198131000Y-84569000D02*
X196100000Y-86600000D01*
X201600000Y-84569000D02*
X198131000Y-84569000D01*
X179770754Y-89856897D02*
X180468102Y-90554245D01*
X162736897Y-89856897D02*
X179770754Y-89856897D01*
X153635000Y-80755000D02*
X162736897Y-89856897D01*
X200500000Y-56000000D02*
X198995000Y-57505000D01*
X198995000Y-57505000D02*
X198995000Y-59300000D01*
X200500000Y-54000000D02*
X200500000Y-56000000D01*
X185541593Y-88058407D02*
X185541593Y-88079371D01*
X187172360Y-86427640D02*
X185541593Y-88058407D01*
X187476169Y-86427640D02*
X187172360Y-86427640D01*
X187900000Y-86003809D02*
X187476169Y-86427640D01*
X187900000Y-85200000D02*
X187900000Y-86003809D01*
X187804845Y-77927655D02*
X187804845Y-82704845D01*
X190892500Y-74840000D02*
X187804845Y-77927655D01*
X201262500Y-76310000D02*
X199792500Y-74840000D01*
X207500000Y-76310000D02*
X201262500Y-76310000D01*
X197100000Y-54031000D02*
X197100000Y-59020000D01*
X197100000Y-59020000D02*
X197180000Y-59100000D01*
X207470000Y-57980000D02*
X207500000Y-57950000D01*
X206000000Y-57980000D02*
X207470000Y-57980000D01*
X167250000Y-59205000D02*
X160570000Y-59205000D01*
X160570000Y-59205000D02*
X158865000Y-57500000D01*
X160720000Y-67250000D02*
X158865000Y-65395000D01*
X167250000Y-67250000D02*
X160720000Y-67250000D01*
X147005000Y-80755000D02*
X145250000Y-79000000D01*
X153635000Y-80755000D02*
X147005000Y-80755000D01*
X181542075Y-88799791D02*
X181882315Y-89140031D01*
X179349791Y-88799791D02*
X181542075Y-88799791D01*
X177400000Y-86850000D02*
X179349791Y-88799791D01*
X193112500Y-61930000D02*
X195342500Y-64160000D01*
X192000000Y-61930000D02*
X193112500Y-61930000D01*
X197200000Y-64082500D02*
X197122500Y-64160000D01*
X197200000Y-60600000D02*
X197200000Y-64082500D01*
X199000000Y-64062500D02*
X198902500Y-64160000D01*
X199000000Y-60500000D02*
X199000000Y-64062500D01*
X198995000Y-60495000D02*
X199000000Y-60500000D01*
X198995000Y-59300000D02*
X198995000Y-60495000D01*
X197200000Y-59120000D02*
X197180000Y-59100000D01*
X197200000Y-60600000D02*
X197200000Y-59120000D01*
X191970000Y-61900000D02*
X192000000Y-61930000D01*
X190500000Y-61900000D02*
X191970000Y-61900000D01*
X185753375Y-86453375D02*
X184834486Y-87372264D01*
X187086217Y-85827640D02*
X185188039Y-87725818D01*
X187227640Y-85827640D02*
X187086217Y-85827640D01*
X191250000Y-80108220D02*
X187229110Y-84129110D01*
X191250000Y-78000000D02*
X191250000Y-80108220D01*
X194500000Y-78000000D02*
X194206750Y-78000000D01*
X191100000Y-86575000D02*
X190825000Y-86575000D01*
X192405000Y-86575000D02*
X191100000Y-86575000D01*
X192500000Y-86480000D02*
X192405000Y-86575000D01*
X190825000Y-86575000D02*
X189500000Y-87900000D01*
X194620000Y-86600000D02*
X194500000Y-86480000D01*
X196100000Y-86600000D02*
X194620000Y-86600000D01*
X193500000Y-86480000D02*
X192500000Y-86480000D01*
X194500000Y-86480000D02*
X193500000Y-86480000D01*
X206750000Y-97250000D02*
X196100000Y-86600000D01*
X192672500Y-76577500D02*
X191250000Y-78000000D01*
X192672500Y-74840000D02*
X192672500Y-76577500D01*
X194452500Y-77952500D02*
X194500000Y-78000000D01*
X194452500Y-74840000D02*
X194452500Y-77952500D01*
X197750000Y-76357500D02*
X196232500Y-74840000D01*
X197750000Y-78000000D02*
X197750000Y-76357500D01*
X150255000Y-88755000D02*
X156735000Y-88755000D01*
X148350000Y-86850000D02*
X150255000Y-88755000D01*
X177163857Y-95750000D02*
X180468102Y-92445755D01*
X164987000Y-95750000D02*
X177163857Y-95750000D01*
X158500000Y-95760000D02*
X158510000Y-95750000D01*
X158500000Y-100170000D02*
X158500000Y-95760000D01*
X161250000Y-96331000D02*
X160669000Y-95750000D01*
X161250000Y-100190000D02*
X161250000Y-96331000D01*
X163500000Y-96422000D02*
X162828000Y-95750000D01*
X163500000Y-100190000D02*
X163500000Y-96422000D01*
X168246016Y-108153984D02*
X182186478Y-94213522D01*
X168153984Y-108153984D02*
X168246016Y-108153984D01*
X182186478Y-94213522D02*
X182235869Y-94213522D01*
X166030000Y-110330000D02*
X167000000Y-109360000D01*
X158500000Y-110330000D02*
X166030000Y-110330000D01*
X168396498Y-108760000D02*
X182589422Y-94567076D01*
X162200000Y-108760000D02*
X168396498Y-108760000D01*
X161250000Y-107810000D02*
X162200000Y-108760000D01*
X167225177Y-107810000D02*
X181528762Y-93506415D01*
X163500000Y-107810000D02*
X167225177Y-107810000D01*
X183650082Y-95649918D02*
X183650082Y-95627736D01*
X183000000Y-96300000D02*
X183650082Y-95649918D01*
X183000000Y-97080000D02*
X183000000Y-96300000D01*
X185420000Y-99500000D02*
X183000000Y-97080000D01*
X189500000Y-89500000D02*
X189070711Y-89500000D01*
X189070711Y-89500000D02*
X188016466Y-90554245D01*
X188656498Y-88500000D02*
X187309360Y-89847138D01*
X195940000Y-89750000D02*
X194690000Y-88500000D01*
X194690000Y-88500000D02*
X188656498Y-88500000D01*
X188963604Y-88900000D02*
X187662913Y-90200691D01*
X190049997Y-88900000D02*
X188963604Y-88900000D01*
X193399997Y-92250000D02*
X190049997Y-88900000D01*
X195940000Y-92250000D02*
X193399997Y-92250000D01*
X187662913Y-90198177D02*
X187662913Y-90200691D01*
X172250000Y-105613604D02*
X182942975Y-94920629D01*
X172250000Y-108500000D02*
X172250000Y-105613604D01*
X175250000Y-103320711D02*
X183296529Y-95274182D01*
X175250000Y-108500000D02*
X175250000Y-103320711D01*
X172750000Y-109000000D02*
X172250000Y-108500000D01*
X172750000Y-112250000D02*
X172750000Y-109000000D01*
X175250000Y-112250000D02*
X175250000Y-108500000D01*
X180590000Y-102160000D02*
X180750000Y-102000000D01*
X180590000Y-105725000D02*
X180590000Y-102160000D01*
X189020000Y-94156396D02*
X187662913Y-92799309D01*
X189020000Y-94250000D02*
X189020000Y-94156396D01*
X206750000Y-95942901D02*
X206750000Y-97250000D01*
X210642901Y-92050000D02*
X206750000Y-95942901D01*
X208250000Y-90750000D02*
X206750000Y-89250000D01*
X210642901Y-90750000D02*
X208250000Y-90750000D01*
X208650001Y-91399999D02*
X210642901Y-91399999D01*
X206750000Y-93300000D02*
X208650001Y-91399999D01*
X205700000Y-92250000D02*
X206750000Y-93300000D01*
X203560000Y-92250000D02*
X205700000Y-92250000D01*
X206250000Y-89750000D02*
X206750000Y-89250000D01*
X203560000Y-89750000D02*
X206250000Y-89750000D01*
X169800000Y-80400000D02*
X173500000Y-80400000D01*
X180900000Y-84820000D02*
X180030000Y-84820000D01*
X180030000Y-84820000D02*
X179600000Y-85250000D01*
G04 #@! TA.AperFunction,Conductor*
G36*
X188019504Y-94012841D02*
G01*
X188049064Y-94034695D01*
X188203181Y-94188812D01*
X188236666Y-94250135D01*
X188239500Y-94276493D01*
X188239500Y-94484697D01*
X188242356Y-94520991D01*
X188242357Y-94520997D01*
X188287504Y-94676390D01*
X188287505Y-94676393D01*
X188287506Y-94676395D01*
X188290783Y-94681936D01*
X188369881Y-94815684D01*
X188369887Y-94815692D01*
X188484307Y-94930112D01*
X188484311Y-94930115D01*
X188484313Y-94930117D01*
X188623605Y-95012494D01*
X188641817Y-95017785D01*
X188779002Y-95057642D01*
X188779005Y-95057642D01*
X188779007Y-95057643D01*
X188815310Y-95060500D01*
X188886327Y-95060500D01*
X188953366Y-95080185D01*
X188999121Y-95132989D01*
X189009065Y-95202147D01*
X188980040Y-95265703D01*
X188974008Y-95272181D01*
X188533008Y-95713181D01*
X188471685Y-95746666D01*
X188445327Y-95749500D01*
X186470555Y-95749500D01*
X186403516Y-95729815D01*
X186357761Y-95677011D01*
X186347817Y-95607853D01*
X186372180Y-95550013D01*
X186413442Y-95496240D01*
X186413444Y-95496233D01*
X186417506Y-95489201D01*
X186420475Y-95490915D01*
X186454280Y-95448854D01*
X186464032Y-95443528D01*
X186463720Y-95442988D01*
X186470753Y-95438926D01*
X186470757Y-95438925D01*
X186558836Y-95371340D01*
X186629120Y-95301055D01*
X186699401Y-95230775D01*
X186699404Y-95230770D01*
X186699409Y-95230766D01*
X186766995Y-95142687D01*
X186766996Y-95142683D01*
X186771060Y-95135647D01*
X186774029Y-95137361D01*
X186807834Y-95095300D01*
X186817583Y-95089973D01*
X186817272Y-95089434D01*
X186824304Y-95085373D01*
X186824310Y-95085371D01*
X186912389Y-95017786D01*
X186982673Y-94947501D01*
X187052954Y-94877221D01*
X187052957Y-94877216D01*
X187052962Y-94877212D01*
X187120548Y-94789133D01*
X187120550Y-94789127D01*
X187124611Y-94782095D01*
X187127575Y-94783806D01*
X187161422Y-94741723D01*
X187171134Y-94736421D01*
X187170824Y-94735883D01*
X187177860Y-94731819D01*
X187177864Y-94731818D01*
X187265943Y-94664233D01*
X187336227Y-94593948D01*
X187406508Y-94523668D01*
X187406511Y-94523663D01*
X187406516Y-94523659D01*
X187474102Y-94435580D01*
X187474103Y-94435576D01*
X187478167Y-94428540D01*
X187481136Y-94430254D01*
X187514941Y-94388193D01*
X187524690Y-94382866D01*
X187524379Y-94382327D01*
X187531411Y-94378266D01*
X187531417Y-94378264D01*
X187619496Y-94310679D01*
X187689780Y-94240394D01*
X187760061Y-94170114D01*
X187760064Y-94170109D01*
X187760069Y-94170105D01*
X187827655Y-94082026D01*
X187827657Y-94082020D01*
X187831718Y-94074988D01*
X187834682Y-94076699D01*
X187868529Y-94034616D01*
X187878241Y-94029314D01*
X187877931Y-94028776D01*
X187884964Y-94024714D01*
X187884964Y-94024713D01*
X187884971Y-94024711D01*
X187885892Y-94024004D01*
X187886812Y-94023648D01*
X187892009Y-94020648D01*
X187892476Y-94021458D01*
X187951058Y-93998807D01*
X188019504Y-94012841D01*
G37*
G04 #@! TD.AperFunction*
G04 #@! TA.AperFunction,Conductor*
G36*
X184331002Y-88322173D02*
G01*
X184340659Y-88333318D01*
X184383775Y-88389508D01*
X184524341Y-88530074D01*
X184524345Y-88530077D01*
X184524349Y-88530081D01*
X184598919Y-88587301D01*
X184612428Y-88597667D01*
X184619459Y-88601726D01*
X184617751Y-88604684D01*
X184659857Y-88638566D01*
X184665150Y-88648251D01*
X184665681Y-88647945D01*
X184669743Y-88654981D01*
X184737324Y-88743055D01*
X184737329Y-88743061D01*
X184877894Y-88883626D01*
X184877901Y-88883632D01*
X184877903Y-88883634D01*
X184877910Y-88883639D01*
X184965980Y-88951219D01*
X184973024Y-88955286D01*
X184971322Y-88958233D01*
X185013470Y-88992208D01*
X185018712Y-89001797D01*
X185019233Y-89001497D01*
X185023295Y-89008532D01*
X185023296Y-89008534D01*
X185023297Y-89008535D01*
X185032582Y-89020636D01*
X185090877Y-89096609D01*
X185231447Y-89237179D01*
X185231454Y-89237185D01*
X185231456Y-89237187D01*
X185276210Y-89271528D01*
X185319535Y-89304773D01*
X185326575Y-89308838D01*
X185324871Y-89311788D01*
X185367006Y-89345735D01*
X185372260Y-89355355D01*
X185372787Y-89355052D01*
X185376849Y-89362088D01*
X185444430Y-89450162D01*
X185444435Y-89450168D01*
X185585001Y-89590734D01*
X185585005Y-89590737D01*
X185585009Y-89590741D01*
X185668062Y-89654470D01*
X185673088Y-89658327D01*
X185680119Y-89662386D01*
X185678411Y-89665344D01*
X185720517Y-89699226D01*
X185725810Y-89708911D01*
X185726341Y-89708605D01*
X185730403Y-89715641D01*
X185797984Y-89803715D01*
X185797989Y-89803721D01*
X185938554Y-89944286D01*
X185938561Y-89944292D01*
X185938563Y-89944294D01*
X186026639Y-90011878D01*
X186026642Y-90011880D01*
X186033682Y-90015945D01*
X186032081Y-90018716D01*
X186074785Y-90053142D01*
X186079803Y-90062204D01*
X186080327Y-90061902D01*
X186084393Y-90068945D01*
X186136179Y-90136432D01*
X186156061Y-90116550D01*
X186217384Y-90083064D01*
X186259955Y-90081295D01*
X186261209Y-90081460D01*
X186325099Y-90109741D01*
X186363557Y-90168075D01*
X186367940Y-90188252D01*
X186368104Y-90189501D01*
X186357314Y-90258532D01*
X186332841Y-90293325D01*
X186312957Y-90313208D01*
X186312957Y-90313209D01*
X186380450Y-90364999D01*
X186387486Y-90369062D01*
X186385617Y-90372298D01*
X186426734Y-90404798D01*
X186432926Y-90416013D01*
X186433448Y-90415712D01*
X186437510Y-90422748D01*
X186505091Y-90510822D01*
X186505096Y-90510828D01*
X186645661Y-90651393D01*
X186645668Y-90651399D01*
X186645670Y-90651401D01*
X186672375Y-90671893D01*
X186733747Y-90718986D01*
X186740791Y-90723053D01*
X186739089Y-90726000D01*
X186781237Y-90759975D01*
X186786479Y-90769564D01*
X186787000Y-90769264D01*
X186791062Y-90776299D01*
X186858644Y-90864376D01*
X186999214Y-91004946D01*
X186999221Y-91004952D01*
X186999223Y-91004954D01*
X186999230Y-91004959D01*
X187087302Y-91072540D01*
X187094342Y-91076605D01*
X187092638Y-91079555D01*
X187134773Y-91113502D01*
X187140027Y-91123122D01*
X187140554Y-91122819D01*
X187144616Y-91129855D01*
X187212197Y-91217929D01*
X187212202Y-91217935D01*
X187352767Y-91358500D01*
X187352774Y-91358506D01*
X187352776Y-91358508D01*
X187408964Y-91401623D01*
X187409376Y-91401939D01*
X187450578Y-91458367D01*
X187454733Y-91528113D01*
X187420520Y-91589033D01*
X187409376Y-91598689D01*
X187373617Y-91626127D01*
X187373617Y-91626129D01*
X187393501Y-91646013D01*
X187426986Y-91707336D01*
X187428754Y-91749921D01*
X187428589Y-91751171D01*
X187400300Y-91815058D01*
X187341963Y-91853509D01*
X187321882Y-91857878D01*
X187321363Y-91857946D01*
X187320631Y-91858042D01*
X187251593Y-91847300D01*
X187216724Y-91822790D01*
X187196840Y-91802906D01*
X187145050Y-91870399D01*
X187140991Y-91877432D01*
X187137975Y-91875691D01*
X187103850Y-91917661D01*
X187094092Y-91922964D01*
X187094341Y-91923395D01*
X187087305Y-91927457D01*
X186999228Y-91995040D01*
X186999222Y-91995045D01*
X186858658Y-92135610D01*
X186858650Y-92135618D01*
X186791066Y-92223694D01*
X186786999Y-92230739D01*
X186784080Y-92229053D01*
X186749901Y-92271307D01*
X186740494Y-92276442D01*
X186740787Y-92276949D01*
X186733751Y-92281011D01*
X186645674Y-92348593D01*
X186645669Y-92348598D01*
X186505105Y-92489163D01*
X186505097Y-92489171D01*
X186437511Y-92577249D01*
X186433445Y-92584293D01*
X186430507Y-92582596D01*
X186396461Y-92624781D01*
X186386941Y-92629980D01*
X186387240Y-92630498D01*
X186380199Y-92634563D01*
X186292118Y-92702148D01*
X186292115Y-92702151D01*
X186151551Y-92842716D01*
X186151543Y-92842724D01*
X186083957Y-92930802D01*
X186079895Y-92937840D01*
X186076973Y-92936153D01*
X186042820Y-92978396D01*
X186033387Y-92983546D01*
X186033681Y-92984055D01*
X186026645Y-92988117D01*
X185938568Y-93055700D01*
X185938562Y-93055705D01*
X185797998Y-93196270D01*
X185797990Y-93196278D01*
X185730404Y-93284356D01*
X185726338Y-93291400D01*
X185723400Y-93289703D01*
X185689354Y-93331888D01*
X185679834Y-93337087D01*
X185680133Y-93337605D01*
X185673092Y-93341670D01*
X185585011Y-93409255D01*
X185585008Y-93409258D01*
X185444444Y-93549823D01*
X185444436Y-93549831D01*
X185376850Y-93637909D01*
X185372788Y-93644947D01*
X185369866Y-93643260D01*
X185335713Y-93685503D01*
X185326280Y-93690653D01*
X185326574Y-93691162D01*
X185319538Y-93695224D01*
X185231461Y-93762807D01*
X185231455Y-93762812D01*
X185090891Y-93903377D01*
X185090883Y-93903385D01*
X185023299Y-93991461D01*
X185019232Y-93998506D01*
X185016313Y-93996820D01*
X184982134Y-94039074D01*
X184972727Y-94044209D01*
X184973020Y-94044716D01*
X184965984Y-94048778D01*
X184877907Y-94116360D01*
X184877902Y-94116365D01*
X184737338Y-94256930D01*
X184737330Y-94256938D01*
X184669744Y-94345016D01*
X184665678Y-94352060D01*
X184662910Y-94350462D01*
X184628457Y-94393179D01*
X184619394Y-94398150D01*
X184619716Y-94398707D01*
X184612683Y-94402766D01*
X184545190Y-94454556D01*
X184565074Y-94474440D01*
X184598559Y-94535763D01*
X184600327Y-94578348D01*
X184600162Y-94579598D01*
X184571873Y-94643485D01*
X184513536Y-94681936D01*
X184493455Y-94686305D01*
X184492936Y-94686373D01*
X184492204Y-94686469D01*
X184423166Y-94675727D01*
X184388297Y-94651217D01*
X184368413Y-94631333D01*
X184368412Y-94631333D01*
X184340973Y-94667092D01*
X184284544Y-94708294D01*
X184214798Y-94712448D01*
X184153878Y-94678234D01*
X184144222Y-94667090D01*
X184100797Y-94610496D01*
X183960228Y-94469927D01*
X183960219Y-94469919D01*
X183872141Y-94402333D01*
X183865101Y-94398269D01*
X183866802Y-94395322D01*
X183824651Y-94361345D01*
X183819415Y-94351754D01*
X183818889Y-94352058D01*
X183814824Y-94345018D01*
X183747243Y-94256944D01*
X183747238Y-94256938D01*
X183606674Y-94116374D01*
X183606665Y-94116366D01*
X183518584Y-94048778D01*
X183511548Y-94044716D01*
X183513240Y-94041784D01*
X183471037Y-94007705D01*
X183465854Y-93998204D01*
X183465336Y-93998504D01*
X183461273Y-93991468D01*
X183451711Y-93979007D01*
X183393686Y-93903386D01*
X183327430Y-93837130D01*
X183253121Y-93762821D01*
X183253112Y-93762813D01*
X183165034Y-93695227D01*
X183157994Y-93691163D01*
X183159695Y-93688216D01*
X183117544Y-93654239D01*
X183112307Y-93644640D01*
X183111779Y-93644946D01*
X183107716Y-93637908D01*
X183040137Y-93549837D01*
X183040132Y-93549831D01*
X182899568Y-93409267D01*
X182899559Y-93409259D01*
X182811481Y-93341673D01*
X182804441Y-93337609D01*
X182806142Y-93334662D01*
X182763991Y-93300685D01*
X182758755Y-93291094D01*
X182758229Y-93291398D01*
X182754164Y-93284358D01*
X182686583Y-93196284D01*
X182686578Y-93196278D01*
X182546014Y-93055714D01*
X182546005Y-93055706D01*
X182457927Y-92988120D01*
X182450887Y-92984056D01*
X182452588Y-92981109D01*
X182410437Y-92947132D01*
X182405200Y-92937533D01*
X182404672Y-92937839D01*
X182400609Y-92930801D01*
X182333030Y-92842730D01*
X182333025Y-92842724D01*
X182192461Y-92702160D01*
X182192452Y-92702152D01*
X182104374Y-92634566D01*
X182097334Y-92630502D01*
X182099035Y-92627555D01*
X182056884Y-92593578D01*
X182051648Y-92583987D01*
X182051122Y-92584291D01*
X182047057Y-92577251D01*
X181979476Y-92489177D01*
X181979471Y-92489171D01*
X181838907Y-92348607D01*
X181838898Y-92348599D01*
X181750817Y-92281011D01*
X181743781Y-92276949D01*
X181745473Y-92274017D01*
X181703270Y-92239938D01*
X181698087Y-92230437D01*
X181697569Y-92230737D01*
X181693506Y-92223701D01*
X181625923Y-92135624D01*
X181625918Y-92135618D01*
X181485354Y-91995054D01*
X181485345Y-91995046D01*
X181397267Y-91927460D01*
X181390227Y-91923396D01*
X181391928Y-91920449D01*
X181349777Y-91886472D01*
X181344540Y-91876873D01*
X181344012Y-91877179D01*
X181339949Y-91870141D01*
X181272370Y-91782070D01*
X181272365Y-91782064D01*
X181131799Y-91641498D01*
X181131794Y-91641494D01*
X181131792Y-91641492D01*
X181075600Y-91598374D01*
X181034399Y-91541947D01*
X181030245Y-91472201D01*
X181064458Y-91411281D01*
X181075604Y-91401623D01*
X181131789Y-91358511D01*
X181131792Y-91358509D01*
X181202076Y-91288224D01*
X181272357Y-91217944D01*
X181272360Y-91217939D01*
X181272365Y-91217935D01*
X181339951Y-91129856D01*
X181339952Y-91129852D01*
X181344016Y-91122816D01*
X181346985Y-91124530D01*
X181380790Y-91082469D01*
X181390539Y-91077142D01*
X181390228Y-91076603D01*
X181397260Y-91072542D01*
X181397266Y-91072540D01*
X181485345Y-91004955D01*
X181555629Y-90934670D01*
X181625910Y-90864390D01*
X181625913Y-90864385D01*
X181625918Y-90864381D01*
X181693504Y-90776302D01*
X181693505Y-90776299D01*
X181697568Y-90769263D01*
X181700537Y-90770977D01*
X181734342Y-90728916D01*
X181744094Y-90723590D01*
X181743782Y-90723050D01*
X181750815Y-90718988D01*
X181750819Y-90718987D01*
X181838898Y-90651402D01*
X181909182Y-90581117D01*
X181979463Y-90510837D01*
X181979466Y-90510832D01*
X181979471Y-90510828D01*
X182047057Y-90422749D01*
X182047059Y-90422743D01*
X182051120Y-90415711D01*
X182054084Y-90417422D01*
X182087931Y-90375339D01*
X182097643Y-90370037D01*
X182097333Y-90369499D01*
X182104369Y-90365435D01*
X182104373Y-90365434D01*
X182192452Y-90297849D01*
X182262736Y-90227564D01*
X182333017Y-90157284D01*
X182333020Y-90157279D01*
X182333025Y-90157275D01*
X182400611Y-90069196D01*
X182400612Y-90069192D01*
X182404676Y-90062156D01*
X182407645Y-90063870D01*
X182441450Y-90021809D01*
X182451199Y-90016482D01*
X182450888Y-90015943D01*
X182457920Y-90011882D01*
X182457926Y-90011880D01*
X182546005Y-89944295D01*
X182616289Y-89874010D01*
X182686570Y-89803730D01*
X182686573Y-89803725D01*
X182686578Y-89803721D01*
X182754164Y-89715642D01*
X182754166Y-89715636D01*
X182758227Y-89708604D01*
X182761191Y-89710315D01*
X182795038Y-89668232D01*
X182804750Y-89662930D01*
X182804440Y-89662392D01*
X182811476Y-89658328D01*
X182811480Y-89658327D01*
X182899559Y-89590742D01*
X182969843Y-89520457D01*
X183040124Y-89450177D01*
X183040127Y-89450172D01*
X183040132Y-89450168D01*
X183107718Y-89362089D01*
X183107719Y-89362085D01*
X183111783Y-89355049D01*
X183114568Y-89356656D01*
X183148893Y-89314004D01*
X183158106Y-89309041D01*
X183157738Y-89308403D01*
X183164780Y-89304336D01*
X183232269Y-89252549D01*
X183212387Y-89232667D01*
X183178902Y-89171344D01*
X183177134Y-89128765D01*
X183177300Y-89127504D01*
X183205588Y-89063621D01*
X183263925Y-89025170D01*
X183283996Y-89020803D01*
X183285260Y-89020636D01*
X183354295Y-89031379D01*
X183389165Y-89055889D01*
X183409047Y-89075771D01*
X183460834Y-89008282D01*
X183464901Y-89001240D01*
X183468180Y-89003133D01*
X183500354Y-88962197D01*
X183511858Y-88955826D01*
X183511546Y-88955285D01*
X183518582Y-88951221D01*
X183518586Y-88951220D01*
X183606665Y-88883635D01*
X183676949Y-88813350D01*
X183747230Y-88743070D01*
X183747233Y-88743065D01*
X183747238Y-88743061D01*
X183814824Y-88654982D01*
X183814826Y-88654976D01*
X183818887Y-88647944D01*
X183821851Y-88649655D01*
X183855698Y-88607572D01*
X183865410Y-88602270D01*
X183865100Y-88601732D01*
X183872136Y-88597668D01*
X183872140Y-88597667D01*
X183960219Y-88530082D01*
X184100792Y-88389508D01*
X184143910Y-88333315D01*
X184200335Y-88292116D01*
X184270081Y-88287961D01*
X184331002Y-88322173D01*
G37*
G04 #@! TD.AperFunction*
G04 #@! TA.AperFunction,Conductor*
G36*
X189918834Y-91495136D02*
G01*
X189974767Y-91537008D01*
X189999184Y-91602472D01*
X189999500Y-91611318D01*
X189999500Y-93802534D01*
X189979815Y-93869573D01*
X189927011Y-93915328D01*
X189857853Y-93925272D01*
X189794297Y-93896247D01*
X189756523Y-93837469D01*
X189756424Y-93837130D01*
X189752495Y-93823607D01*
X189752492Y-93823600D01*
X189747266Y-93814763D01*
X189730000Y-93751645D01*
X189730000Y-93445494D01*
X189729998Y-93445493D01*
X189583809Y-93487965D01*
X189583806Y-93487967D01*
X189563608Y-93499912D01*
X189495884Y-93517092D01*
X189437370Y-93499910D01*
X189416397Y-93487507D01*
X189416390Y-93487504D01*
X189260997Y-93442357D01*
X189260991Y-93442356D01*
X189224697Y-93439500D01*
X189224690Y-93439500D01*
X189203701Y-93439500D01*
X189136662Y-93419815D01*
X189116020Y-93403181D01*
X188897942Y-93185103D01*
X188864457Y-93123780D01*
X188869441Y-93054088D01*
X188887256Y-93021925D01*
X188887878Y-93021113D01*
X188891945Y-93014071D01*
X188895224Y-93015964D01*
X188927398Y-92975028D01*
X188938905Y-92968655D01*
X188938593Y-92968114D01*
X188945625Y-92964053D01*
X188945631Y-92964051D01*
X189033710Y-92896466D01*
X189103994Y-92826181D01*
X189174275Y-92755901D01*
X189174278Y-92755896D01*
X189174283Y-92755892D01*
X189241869Y-92667813D01*
X189249199Y-92650118D01*
X189259693Y-92624781D01*
X189298598Y-92530856D01*
X189317948Y-92383884D01*
X189298598Y-92236911D01*
X189264681Y-92155027D01*
X189257212Y-92085558D01*
X189288487Y-92023079D01*
X189291533Y-92019922D01*
X189787819Y-91523637D01*
X189849142Y-91490152D01*
X189918834Y-91495136D01*
G37*
G04 #@! TD.AperFunction*
G04 #@! TA.AperFunction,Conductor*
G36*
X172110923Y-81020185D02*
G01*
X172156678Y-81072989D01*
X172157440Y-81074689D01*
X172175827Y-81116608D01*
X172311833Y-81324782D01*
X172311836Y-81324785D01*
X172480256Y-81507738D01*
X172676491Y-81660474D01*
X172895190Y-81778828D01*
X173130386Y-81859571D01*
X173375665Y-81900500D01*
X173624335Y-81900500D01*
X173869614Y-81859571D01*
X174104810Y-81778828D01*
X174323509Y-81660474D01*
X174519744Y-81507738D01*
X174688164Y-81324785D01*
X174824173Y-81116607D01*
X174842560Y-81074689D01*
X174887517Y-81021204D01*
X174954253Y-81000514D01*
X174956116Y-81000500D01*
X178299903Y-81000500D01*
X178366942Y-81020185D01*
X178387584Y-81036819D01*
X180634360Y-83283595D01*
X180667845Y-83344918D01*
X180662861Y-83414610D01*
X180620989Y-83470543D01*
X180594133Y-83485837D01*
X180497411Y-83525901D01*
X180372075Y-83622075D01*
X180275899Y-83747413D01*
X180215445Y-83893365D01*
X180215444Y-83893369D01*
X180200000Y-84010669D01*
X180200000Y-84025500D01*
X180180315Y-84092539D01*
X180127511Y-84138294D01*
X180076000Y-84149500D01*
X178852129Y-84149500D01*
X178852123Y-84149501D01*
X178792516Y-84155908D01*
X178657671Y-84206202D01*
X178657664Y-84206206D01*
X178542455Y-84292452D01*
X178542452Y-84292455D01*
X178456206Y-84407664D01*
X178456202Y-84407671D01*
X178405908Y-84542516D01*
X178403944Y-84560790D01*
X178377205Y-84625341D01*
X178368336Y-84635214D01*
X177576776Y-85426776D01*
X177290370Y-85713181D01*
X177229047Y-85746666D01*
X177202689Y-85749500D01*
X176846309Y-85749500D01*
X176779270Y-85729815D01*
X176733515Y-85677011D01*
X176723571Y-85607853D01*
X176752596Y-85544297D01*
X176758628Y-85537818D01*
X177046447Y-85249999D01*
X176242442Y-84445994D01*
X176242441Y-84445994D01*
X176206403Y-84542617D01*
X176206401Y-84542627D01*
X176200000Y-84602155D01*
X176200000Y-85897844D01*
X176206401Y-85957372D01*
X176206403Y-85957383D01*
X176224519Y-86005953D01*
X176229503Y-86075644D01*
X176224520Y-86092616D01*
X176205908Y-86142517D01*
X176199501Y-86202116D01*
X176199500Y-86202135D01*
X176199500Y-87497870D01*
X176199501Y-87497876D01*
X176205908Y-87557483D01*
X176256202Y-87692328D01*
X176256203Y-87692329D01*
X176256204Y-87692331D01*
X176311271Y-87765891D01*
X176342454Y-87807546D01*
X176349808Y-87813051D01*
X176391681Y-87868983D01*
X176399500Y-87912319D01*
X176399500Y-88099363D01*
X176414954Y-88216756D01*
X176415525Y-88218886D01*
X176415525Y-88221091D01*
X176416016Y-88224821D01*
X176415525Y-88224885D01*
X176415526Y-88275184D01*
X176416505Y-88275313D01*
X176415526Y-88282741D01*
X176415527Y-88283060D01*
X176415444Y-88283368D01*
X176400000Y-88400669D01*
X176400000Y-88428844D01*
X176380315Y-88495883D01*
X176327511Y-88541638D01*
X176276000Y-88552844D01*
X175353441Y-88552844D01*
X175286402Y-88533159D01*
X175265760Y-88516525D01*
X170899235Y-84150000D01*
X176653551Y-84150000D01*
X177399999Y-84896447D01*
X178146447Y-84150000D01*
X176653551Y-84150000D01*
X170899235Y-84150000D01*
X169136819Y-82387584D01*
X169103334Y-82326261D01*
X169100500Y-82299903D01*
X169100500Y-81186423D01*
X169120185Y-81119384D01*
X169172989Y-81073629D01*
X169242147Y-81063685D01*
X169297384Y-81086104D01*
X169372407Y-81140612D01*
X169535733Y-81213329D01*
X169710609Y-81250500D01*
X169710610Y-81250500D01*
X169889389Y-81250500D01*
X169889391Y-81250500D01*
X170064267Y-81213329D01*
X170227593Y-81140612D01*
X170372230Y-81035526D01*
X170372238Y-81035517D01*
X170375755Y-81032351D01*
X170438747Y-81002121D01*
X170458729Y-81000500D01*
X172043884Y-81000500D01*
X172110923Y-81020185D01*
G37*
G04 #@! TD.AperFunction*
G04 #@! TA.AperFunction,Conductor*
G36*
X180563050Y-87962894D02*
G01*
X180563055Y-87962899D01*
X180587766Y-87987610D01*
X180621251Y-88048933D01*
X180616267Y-88118625D01*
X180574395Y-88174558D01*
X180508931Y-88198975D01*
X180500085Y-88199291D01*
X179649888Y-88199291D01*
X179582849Y-88179606D01*
X179562207Y-88162972D01*
X179560916Y-88161681D01*
X179527431Y-88100358D01*
X179532415Y-88030666D01*
X179574287Y-87974733D01*
X179639751Y-87950316D01*
X179648597Y-87950000D01*
X180347828Y-87950000D01*
X180347844Y-87949999D01*
X180407374Y-87943598D01*
X180432037Y-87934399D01*
X180501729Y-87929413D01*
X180563050Y-87962894D01*
G37*
G04 #@! TD.AperFunction*
G04 #@! TA.AperFunction,Conductor*
G36*
X198971505Y-75483224D02*
G01*
X198975854Y-75488243D01*
X199023589Y-75546410D01*
X199088890Y-75600000D01*
X199183550Y-75677685D01*
X199366046Y-75775232D01*
X199564066Y-75835300D01*
X199564065Y-75835300D01*
X199584348Y-75837297D01*
X199770000Y-75855583D01*
X199883551Y-75844398D01*
X199952195Y-75857416D01*
X199983385Y-75880120D01*
X200777639Y-76674374D01*
X200777649Y-76674385D01*
X200781979Y-76678715D01*
X200781980Y-76678716D01*
X200893784Y-76790520D01*
X200951099Y-76823610D01*
X200980595Y-76840639D01*
X200980597Y-76840641D01*
X201018651Y-76862611D01*
X201030715Y-76869577D01*
X201183443Y-76910501D01*
X201183446Y-76910501D01*
X201349153Y-76910501D01*
X201349169Y-76910500D01*
X201757510Y-76910500D01*
X201824549Y-76930185D01*
X201870304Y-76982989D01*
X201880248Y-77052147D01*
X201870304Y-77086012D01*
X201840176Y-77151980D01*
X201840175Y-77151985D01*
X201819700Y-77294399D01*
X201819700Y-78767602D01*
X201824844Y-78839540D01*
X201865382Y-78977594D01*
X201943167Y-79098630D01*
X201943171Y-79098634D01*
X202034589Y-79177849D01*
X202051906Y-79192854D01*
X202092374Y-79211335D01*
X202182780Y-79252623D01*
X202182783Y-79252623D01*
X202182784Y-79252624D01*
X202325200Y-79273100D01*
X202325203Y-79273100D01*
X205474800Y-79273100D01*
X205546740Y-79267955D01*
X205684792Y-79227419D01*
X205805832Y-79149631D01*
X205900054Y-79040894D01*
X205959824Y-78910016D01*
X205980300Y-78767600D01*
X205980300Y-77294400D01*
X205975155Y-77222460D01*
X205934619Y-77084408D01*
X205934617Y-77084405D01*
X205932120Y-77075900D01*
X205933825Y-77075399D01*
X205925407Y-77016853D01*
X205954432Y-76953297D01*
X206013210Y-76915523D01*
X206048145Y-76910500D01*
X206387379Y-76910500D01*
X206454418Y-76930185D01*
X206486332Y-76959772D01*
X206500372Y-76978364D01*
X206609020Y-77122238D01*
X206773437Y-77272123D01*
X206773439Y-77272125D01*
X206962595Y-77389245D01*
X206962596Y-77389245D01*
X206962599Y-77389247D01*
X207170060Y-77469618D01*
X207388757Y-77510500D01*
X207388759Y-77510500D01*
X207611241Y-77510500D01*
X207611243Y-77510500D01*
X207829940Y-77469618D01*
X208037401Y-77389247D01*
X208190585Y-77294400D01*
X208210223Y-77282241D01*
X208277583Y-77263686D01*
X208344283Y-77284494D01*
X208389144Y-77338059D01*
X208399500Y-77387668D01*
X208399500Y-81468902D01*
X208379815Y-81535941D01*
X208363181Y-81556583D01*
X206624182Y-83295581D01*
X206562859Y-83329066D01*
X206536501Y-83331900D01*
X205707629Y-83331900D01*
X205707623Y-83331901D01*
X205648016Y-83338308D01*
X205513171Y-83388602D01*
X205513164Y-83388606D01*
X205397955Y-83474852D01*
X205397952Y-83474855D01*
X205311706Y-83590064D01*
X205311702Y-83590071D01*
X205261408Y-83724917D01*
X205255349Y-83781280D01*
X205255000Y-83784527D01*
X205255000Y-84560790D01*
X205255001Y-85275500D01*
X205235316Y-85342539D01*
X205182513Y-85388294D01*
X205131001Y-85399500D01*
X204968500Y-85399500D01*
X204901461Y-85379815D01*
X204855706Y-85327011D01*
X204844500Y-85275500D01*
X204844500Y-84819000D01*
X202955500Y-84819000D01*
X202937584Y-84836915D01*
X202935815Y-84842941D01*
X202883011Y-84888696D01*
X202813853Y-84898640D01*
X202750297Y-84869615D01*
X202743819Y-84863583D01*
X202581318Y-84701082D01*
X202547833Y-84639759D01*
X202544999Y-84613401D01*
X202544999Y-83784555D01*
X202955500Y-83784555D01*
X202955500Y-84319000D01*
X203650000Y-84319000D01*
X204150000Y-84319000D01*
X204844500Y-84319000D01*
X204844500Y-83784572D01*
X204844499Y-83784555D01*
X204838098Y-83725027D01*
X204838096Y-83725020D01*
X204787854Y-83590313D01*
X204787850Y-83590306D01*
X204701690Y-83475212D01*
X204701687Y-83475209D01*
X204586593Y-83389049D01*
X204586586Y-83389045D01*
X204451879Y-83338803D01*
X204451872Y-83338801D01*
X204392344Y-83332400D01*
X204150000Y-83332400D01*
X204150000Y-84319000D01*
X203650000Y-84319000D01*
X203650000Y-83332400D01*
X203407655Y-83332400D01*
X203348127Y-83338801D01*
X203348120Y-83338803D01*
X203213413Y-83389045D01*
X203213406Y-83389049D01*
X203098312Y-83475209D01*
X203098309Y-83475212D01*
X203012149Y-83590306D01*
X203012145Y-83590313D01*
X202961903Y-83725020D01*
X202961901Y-83725027D01*
X202955500Y-83784555D01*
X202544999Y-83784555D01*
X202544999Y-83784529D01*
X202544998Y-83784523D01*
X202544997Y-83784516D01*
X202538591Y-83724917D01*
X202501863Y-83626445D01*
X202488297Y-83590071D01*
X202488293Y-83590064D01*
X202402047Y-83474855D01*
X202402044Y-83474852D01*
X202286835Y-83388606D01*
X202286828Y-83388602D01*
X202151982Y-83338308D01*
X202151983Y-83338308D01*
X202092383Y-83331901D01*
X202092381Y-83331900D01*
X202092373Y-83331900D01*
X202092364Y-83331900D01*
X201107629Y-83331900D01*
X201107623Y-83331901D01*
X201048016Y-83338308D01*
X200913171Y-83388602D01*
X200913164Y-83388606D01*
X200797955Y-83474852D01*
X200797952Y-83474855D01*
X200711706Y-83590064D01*
X200711702Y-83590071D01*
X200661408Y-83724917D01*
X200655349Y-83781280D01*
X200655001Y-83784523D01*
X200655000Y-83784535D01*
X200655000Y-83844500D01*
X200635315Y-83911539D01*
X200582511Y-83957294D01*
X200531000Y-83968500D01*
X198217670Y-83968500D01*
X198217654Y-83968499D01*
X198210058Y-83968499D01*
X198051943Y-83968499D01*
X197975579Y-83988961D01*
X197899214Y-84009423D01*
X197899209Y-84009426D01*
X197762290Y-84088475D01*
X197762282Y-84088481D01*
X195887584Y-85963181D01*
X195826261Y-85996666D01*
X195799903Y-85999500D01*
X195402982Y-85999500D01*
X195335943Y-85979815D01*
X195290188Y-85927011D01*
X195280244Y-85857853D01*
X195283905Y-85840906D01*
X195304504Y-85770000D01*
X194998352Y-85770000D01*
X194935233Y-85752732D01*
X194926395Y-85747506D01*
X194926393Y-85747505D01*
X194926389Y-85747503D01*
X194770997Y-85702357D01*
X194770991Y-85702356D01*
X194734697Y-85699500D01*
X194734690Y-85699500D01*
X194265310Y-85699500D01*
X194265302Y-85699500D01*
X194229008Y-85702356D01*
X194229002Y-85702357D01*
X194073608Y-85747504D01*
X194073600Y-85747507D01*
X194064767Y-85752732D01*
X194001646Y-85770000D01*
X193998354Y-85770000D01*
X193935233Y-85752732D01*
X193926399Y-85747507D01*
X193926391Y-85747504D01*
X193770997Y-85702357D01*
X193770991Y-85702356D01*
X193734697Y-85699500D01*
X193734690Y-85699500D01*
X193265310Y-85699500D01*
X193265302Y-85699500D01*
X193229008Y-85702356D01*
X193229002Y-85702357D01*
X193073608Y-85747504D01*
X193073600Y-85747507D01*
X193064767Y-85752732D01*
X193001646Y-85770000D01*
X192998354Y-85770000D01*
X192935233Y-85752732D01*
X192926399Y-85747507D01*
X192926391Y-85747504D01*
X192770997Y-85702357D01*
X192770991Y-85702356D01*
X192734697Y-85699500D01*
X192734690Y-85699500D01*
X192624000Y-85699500D01*
X192556961Y-85679815D01*
X192511206Y-85627011D01*
X192500000Y-85575500D01*
X192500000Y-85520000D01*
X192374000Y-85520000D01*
X192306961Y-85500315D01*
X192261206Y-85447511D01*
X192250000Y-85396000D01*
X192250000Y-84741210D01*
X192249999Y-84741209D01*
X192750000Y-84741209D01*
X192750000Y-85270000D01*
X193250000Y-85270000D01*
X193250000Y-84741210D01*
X193249999Y-84741209D01*
X193750000Y-84741209D01*
X193750000Y-85270000D01*
X194250000Y-85270000D01*
X194750000Y-85270000D01*
X195304504Y-85270000D01*
X195262031Y-85123804D01*
X195179721Y-84984625D01*
X195179714Y-84984616D01*
X195065383Y-84870285D01*
X195065374Y-84870278D01*
X194926195Y-84787968D01*
X194926190Y-84787966D01*
X194770918Y-84742855D01*
X194770912Y-84742854D01*
X194750000Y-84741209D01*
X194750000Y-85270000D01*
X194250000Y-85270000D01*
X194250000Y-84741210D01*
X194249999Y-84741209D01*
X194229087Y-84742854D01*
X194229081Y-84742855D01*
X194073809Y-84787966D01*
X194073803Y-84787968D01*
X194063118Y-84794288D01*
X193995393Y-84811468D01*
X193936882Y-84794288D01*
X193926196Y-84787968D01*
X193926190Y-84787966D01*
X193770918Y-84742855D01*
X193770912Y-84742854D01*
X193750000Y-84741209D01*
X193249999Y-84741209D01*
X193229087Y-84742854D01*
X193229081Y-84742855D01*
X193073809Y-84787966D01*
X193073803Y-84787968D01*
X193063118Y-84794288D01*
X192995393Y-84811468D01*
X192936882Y-84794288D01*
X192926196Y-84787968D01*
X192926190Y-84787966D01*
X192770918Y-84742855D01*
X192770912Y-84742854D01*
X192750000Y-84741209D01*
X192249999Y-84741209D01*
X192229091Y-84742854D01*
X192229079Y-84742856D01*
X192220650Y-84745305D01*
X192150781Y-84745100D01*
X192092114Y-84707154D01*
X192067949Y-84658501D01*
X192066986Y-84658821D01*
X192011547Y-84491518D01*
X192011542Y-84491507D01*
X191922575Y-84347271D01*
X191922572Y-84347267D01*
X191802732Y-84227427D01*
X191802728Y-84227424D01*
X191658492Y-84138457D01*
X191658481Y-84138452D01*
X191497606Y-84085144D01*
X191398322Y-84075000D01*
X191350000Y-84075000D01*
X191350000Y-84901000D01*
X191330315Y-84968039D01*
X191277511Y-85013794D01*
X191226000Y-85025000D01*
X191100000Y-85025000D01*
X191100000Y-85151000D01*
X191080315Y-85218039D01*
X191027511Y-85263794D01*
X190976000Y-85275000D01*
X189724000Y-85275000D01*
X189656961Y-85255315D01*
X189611206Y-85202511D01*
X189600000Y-85151000D01*
X189600000Y-84899000D01*
X189619685Y-84831961D01*
X189672489Y-84786206D01*
X189724000Y-84775000D01*
X190850000Y-84775000D01*
X190850000Y-84075000D01*
X190849999Y-84074999D01*
X190801693Y-84075000D01*
X190801675Y-84075001D01*
X190702392Y-84085144D01*
X190541518Y-84138452D01*
X190541504Y-84138459D01*
X190508312Y-84158932D01*
X190440920Y-84177372D01*
X190374257Y-84156449D01*
X190329488Y-84102806D01*
X190320827Y-84033475D01*
X190351024Y-83970468D01*
X190355514Y-83965734D01*
X194434431Y-79886819D01*
X194495754Y-79853334D01*
X194522112Y-79850500D01*
X196413331Y-79850500D01*
X196413347Y-79850501D01*
X196420943Y-79850501D01*
X196579054Y-79850501D01*
X196579057Y-79850501D01*
X196731785Y-79809577D01*
X196809905Y-79764474D01*
X196868716Y-79730520D01*
X196980520Y-79618716D01*
X196980520Y-79618714D01*
X196990724Y-79608511D01*
X196990728Y-79608506D01*
X197146452Y-79452781D01*
X197207773Y-79419298D01*
X197274392Y-79423182D01*
X197336041Y-79444347D01*
X197380385Y-79459571D01*
X197625665Y-79500500D01*
X197874335Y-79500500D01*
X198119614Y-79459571D01*
X198354810Y-79378828D01*
X198573509Y-79260474D01*
X198769744Y-79107738D01*
X198938164Y-78924785D01*
X199074173Y-78716607D01*
X199174063Y-78488881D01*
X199235108Y-78247821D01*
X199242326Y-78160713D01*
X199255643Y-78000005D01*
X199255643Y-77999994D01*
X199235109Y-77752187D01*
X199235107Y-77752175D01*
X199174063Y-77511118D01*
X199074173Y-77283393D01*
X198938166Y-77075217D01*
X198843448Y-76972326D01*
X198769744Y-76892262D01*
X198573509Y-76739526D01*
X198573507Y-76739525D01*
X198573506Y-76739524D01*
X198415482Y-76654006D01*
X198365892Y-76604786D01*
X198350500Y-76544951D01*
X198350500Y-76278445D01*
X198350500Y-76278443D01*
X198309577Y-76125715D01*
X198280639Y-76075595D01*
X198230520Y-75988784D01*
X198230518Y-75988782D01*
X198228076Y-75984552D01*
X198211604Y-75916652D01*
X198234457Y-75850625D01*
X198289379Y-75807435D01*
X198299447Y-75803899D01*
X198393954Y-75775232D01*
X198576450Y-75677685D01*
X198736410Y-75546410D01*
X198784146Y-75488242D01*
X198841892Y-75448908D01*
X198911736Y-75447037D01*
X198971505Y-75483224D01*
G37*
G04 #@! TD.AperFunction*
G04 #@! TA.AperFunction,Conductor*
G36*
X215942539Y-51520185D02*
G01*
X215988294Y-51572989D01*
X215999500Y-51624500D01*
X215999500Y-116375500D01*
X215979815Y-116442539D01*
X215927011Y-116488294D01*
X215875500Y-116499500D01*
X138624500Y-116499500D01*
X138557461Y-116479815D01*
X138511706Y-116427011D01*
X138500500Y-116375500D01*
X138500500Y-85802155D01*
X141750000Y-85802155D01*
X141750000Y-86600000D01*
X142759252Y-86600000D01*
X142737482Y-86637708D01*
X142700000Y-86777591D01*
X142700000Y-86922409D01*
X142737482Y-87062292D01*
X142759252Y-87100000D01*
X141750000Y-87100000D01*
X141750000Y-87897844D01*
X141756401Y-87957372D01*
X141756403Y-87957379D01*
X141806645Y-88092086D01*
X141806649Y-88092093D01*
X141892809Y-88207187D01*
X141892812Y-88207190D01*
X142007906Y-88293350D01*
X142007913Y-88293354D01*
X142142620Y-88343596D01*
X142142627Y-88343598D01*
X142202155Y-88349999D01*
X142202172Y-88350000D01*
X143000000Y-88350000D01*
X143000000Y-87340747D01*
X143037708Y-87362518D01*
X143177591Y-87400000D01*
X143322409Y-87400000D01*
X143462292Y-87362518D01*
X143500000Y-87340747D01*
X143500000Y-88350000D01*
X144297828Y-88350000D01*
X144297844Y-88349999D01*
X144357372Y-88343598D01*
X144357379Y-88343596D01*
X144492086Y-88293354D01*
X144492093Y-88293350D01*
X144607187Y-88207190D01*
X144607190Y-88207187D01*
X144693350Y-88092093D01*
X144693354Y-88092086D01*
X144743596Y-87957379D01*
X144743598Y-87957372D01*
X144749999Y-87897844D01*
X144750000Y-87897827D01*
X144750000Y-87100000D01*
X143740748Y-87100000D01*
X143762518Y-87062292D01*
X143800000Y-86922409D01*
X143800000Y-86777591D01*
X143762518Y-86637708D01*
X143740748Y-86600000D01*
X144750000Y-86600000D01*
X144750000Y-85802172D01*
X144749999Y-85802155D01*
X144743598Y-85742627D01*
X144743596Y-85742620D01*
X144693354Y-85607913D01*
X144693350Y-85607906D01*
X144607190Y-85492812D01*
X144607187Y-85492809D01*
X144492093Y-85406649D01*
X144492086Y-85406645D01*
X144357379Y-85356403D01*
X144357372Y-85356401D01*
X144297844Y-85350000D01*
X143500000Y-85350000D01*
X143500000Y-86359252D01*
X143462292Y-86337482D01*
X143322409Y-86300000D01*
X143177591Y-86300000D01*
X143037708Y-86337482D01*
X143000000Y-86359252D01*
X143000000Y-85350000D01*
X142202155Y-85350000D01*
X142142627Y-85356401D01*
X142142620Y-85356403D01*
X142007913Y-85406645D01*
X142007906Y-85406649D01*
X141892812Y-85492809D01*
X141892809Y-85492812D01*
X141806649Y-85607906D01*
X141806645Y-85607913D01*
X141756403Y-85742620D01*
X141756401Y-85742627D01*
X141750000Y-85802155D01*
X138500500Y-85802155D01*
X138500500Y-80339269D01*
X138520185Y-80272230D01*
X138572989Y-80226475D01*
X138642147Y-80216531D01*
X138705703Y-80245556D01*
X138723766Y-80264958D01*
X138792809Y-80357187D01*
X138792812Y-80357190D01*
X138907906Y-80443350D01*
X138907913Y-80443354D01*
X139042620Y-80493596D01*
X139042627Y-80493598D01*
X139102155Y-80499999D01*
X139102172Y-80500000D01*
X139900000Y-80500000D01*
X139900000Y-79490747D01*
X139937708Y-79512518D01*
X140077591Y-79550000D01*
X140222409Y-79550000D01*
X140362292Y-79512518D01*
X140400000Y-79490747D01*
X140400000Y-80500000D01*
X141197828Y-80500000D01*
X141197844Y-80499999D01*
X141257372Y-80493598D01*
X141257379Y-80493596D01*
X141392086Y-80443354D01*
X141392093Y-80443350D01*
X141507187Y-80357190D01*
X141507190Y-80357187D01*
X141593350Y-80242093D01*
X141593354Y-80242086D01*
X141643596Y-80107379D01*
X141643598Y-80107372D01*
X141649999Y-80047844D01*
X141650000Y-80047827D01*
X141650000Y-79250000D01*
X140640748Y-79250000D01*
X140662518Y-79212292D01*
X140700000Y-79072409D01*
X140700000Y-78999994D01*
X143744357Y-78999994D01*
X143744357Y-79000005D01*
X143764890Y-79247812D01*
X143764892Y-79247824D01*
X143825936Y-79488881D01*
X143925826Y-79716606D01*
X144061833Y-79924782D01*
X144061836Y-79924785D01*
X144230256Y-80107738D01*
X144426491Y-80260474D01*
X144645190Y-80378828D01*
X144880386Y-80459571D01*
X145125665Y-80500500D01*
X145374335Y-80500500D01*
X145619608Y-80459572D01*
X145619607Y-80459572D01*
X145619614Y-80459571D01*
X145725607Y-80423182D01*
X145795402Y-80420033D01*
X145853547Y-80452782D01*
X146636284Y-81235520D01*
X146773215Y-81314577D01*
X146925943Y-81355501D01*
X146925946Y-81355501D01*
X147091654Y-81355501D01*
X147091670Y-81355500D01*
X152178884Y-81355500D01*
X152245923Y-81375185D01*
X152291678Y-81427989D01*
X152292440Y-81429689D01*
X152310827Y-81471608D01*
X152446833Y-81679782D01*
X152446836Y-81679785D01*
X152615256Y-81862738D01*
X152811491Y-82015474D01*
X152920840Y-82074651D01*
X152969002Y-82100715D01*
X153030190Y-82133828D01*
X153265386Y-82214571D01*
X153510665Y-82255500D01*
X153759335Y-82255500D01*
X154004608Y-82214572D01*
X154004607Y-82214572D01*
X154004614Y-82214571D01*
X154110607Y-82178182D01*
X154180402Y-82175033D01*
X154238548Y-82207783D01*
X161425481Y-89394716D01*
X161458966Y-89456039D01*
X161453982Y-89525731D01*
X161412110Y-89581664D01*
X161346646Y-89606081D01*
X161337800Y-89606397D01*
X158486994Y-89606397D01*
X158419955Y-89586712D01*
X158399313Y-89570078D01*
X158191516Y-89362281D01*
X158158031Y-89300958D01*
X158158992Y-89244159D01*
X158159061Y-89243884D01*
X158159063Y-89243881D01*
X158220108Y-89002821D01*
X158220161Y-89002179D01*
X158240643Y-88755005D01*
X158240643Y-88754994D01*
X158220109Y-88507187D01*
X158220107Y-88507175D01*
X158159063Y-88266118D01*
X158059173Y-88038393D01*
X157923166Y-87830217D01*
X157872134Y-87774782D01*
X157754744Y-87647262D01*
X157558509Y-87494526D01*
X157558507Y-87494525D01*
X157558506Y-87494524D01*
X157339811Y-87376172D01*
X157339802Y-87376169D01*
X157104616Y-87295429D01*
X156859335Y-87254500D01*
X156610665Y-87254500D01*
X156365383Y-87295429D01*
X156130197Y-87376169D01*
X156130188Y-87376172D01*
X155911493Y-87494524D01*
X155715257Y-87647261D01*
X155546833Y-87830217D01*
X155410827Y-88038391D01*
X155392440Y-88080311D01*
X155347483Y-88133796D01*
X155280747Y-88154486D01*
X155278884Y-88154500D01*
X154571303Y-88154500D01*
X154504264Y-88134815D01*
X154458509Y-88082011D01*
X154448565Y-88012853D01*
X154477590Y-87949297D01*
X154480051Y-87946540D01*
X154638164Y-87774785D01*
X154774173Y-87566607D01*
X154874063Y-87338881D01*
X154935108Y-87097821D01*
X154942649Y-87006814D01*
X154955643Y-86850005D01*
X154955643Y-86849994D01*
X154935109Y-86602187D01*
X154935107Y-86602175D01*
X154874063Y-86361118D01*
X154774173Y-86133393D01*
X154638166Y-85925217D01*
X154560552Y-85840906D01*
X154469744Y-85742262D01*
X154273509Y-85589526D01*
X154273507Y-85589525D01*
X154273506Y-85589524D01*
X154054811Y-85471172D01*
X154054802Y-85471169D01*
X153819616Y-85390429D01*
X153574335Y-85349500D01*
X153325665Y-85349500D01*
X153080383Y-85390429D01*
X152845197Y-85471169D01*
X152845188Y-85471172D01*
X152626493Y-85589524D01*
X152481527Y-85702356D01*
X152430256Y-85742262D01*
X152429920Y-85742627D01*
X152261833Y-85925217D01*
X152125826Y-86133393D01*
X152025936Y-86361118D01*
X151964892Y-86602175D01*
X151964890Y-86602187D01*
X151944357Y-86849994D01*
X151944357Y-86850005D01*
X151964890Y-87097812D01*
X151964892Y-87097824D01*
X152025936Y-87338881D01*
X152125826Y-87566606D01*
X152261833Y-87774782D01*
X152261836Y-87774785D01*
X152419927Y-87946518D01*
X152450849Y-88009172D01*
X152442989Y-88078598D01*
X152398842Y-88132753D01*
X152332424Y-88154444D01*
X152328697Y-88154500D01*
X150555097Y-88154500D01*
X150488058Y-88134815D01*
X150467416Y-88118181D01*
X149806516Y-87457281D01*
X149773031Y-87395958D01*
X149773992Y-87339159D01*
X149774061Y-87338884D01*
X149774063Y-87338881D01*
X149835108Y-87097821D01*
X149842649Y-87006814D01*
X149855643Y-86850005D01*
X149855643Y-86849994D01*
X149835109Y-86602187D01*
X149835107Y-86602175D01*
X149774063Y-86361118D01*
X149674173Y-86133393D01*
X149538166Y-85925217D01*
X149460552Y-85840906D01*
X149369744Y-85742262D01*
X149173509Y-85589526D01*
X149173507Y-85589525D01*
X149173506Y-85589524D01*
X148954811Y-85471172D01*
X148954802Y-85471169D01*
X148719616Y-85390429D01*
X148474335Y-85349500D01*
X148225665Y-85349500D01*
X147980383Y-85390429D01*
X147745197Y-85471169D01*
X147745188Y-85471172D01*
X147526493Y-85589524D01*
X147381527Y-85702356D01*
X147330256Y-85742262D01*
X147329920Y-85742627D01*
X147161833Y-85925217D01*
X147025826Y-86133393D01*
X146925936Y-86361118D01*
X146864892Y-86602175D01*
X146864890Y-86602187D01*
X146844357Y-86849994D01*
X146844357Y-86850005D01*
X146864890Y-87097812D01*
X146864892Y-87097824D01*
X146925936Y-87338881D01*
X147025826Y-87566606D01*
X147161833Y-87774782D01*
X147161836Y-87774785D01*
X147330256Y-87957738D01*
X147526491Y-88110474D01*
X147745190Y-88228828D01*
X147980386Y-88309571D01*
X148225665Y-88350500D01*
X148474335Y-88350500D01*
X148719608Y-88309572D01*
X148719607Y-88309572D01*
X148719614Y-88309571D01*
X148825607Y-88273182D01*
X148895402Y-88270033D01*
X148953548Y-88302783D01*
X149770139Y-89119374D01*
X149770149Y-89119385D01*
X149774479Y-89123715D01*
X149774480Y-89123716D01*
X149886284Y-89235520D01*
X149948651Y-89271527D01*
X150004241Y-89303622D01*
X150022222Y-89314004D01*
X150023213Y-89314576D01*
X150023214Y-89314576D01*
X150023215Y-89314577D01*
X150175943Y-89355501D01*
X150175946Y-89355501D01*
X150341653Y-89355501D01*
X150341669Y-89355500D01*
X155278884Y-89355500D01*
X155345923Y-89375185D01*
X155391678Y-89427989D01*
X155392440Y-89429689D01*
X155410827Y-89471608D01*
X155546833Y-89679782D01*
X155566406Y-89701044D01*
X155715256Y-89862738D01*
X155911491Y-90015474D01*
X155911493Y-90015475D01*
X156122774Y-90129815D01*
X156130190Y-90133828D01*
X156365386Y-90214571D01*
X156610665Y-90255500D01*
X156859335Y-90255500D01*
X157104608Y-90214572D01*
X157104607Y-90214572D01*
X157104614Y-90214571D01*
X157210607Y-90178182D01*
X157280402Y-90175033D01*
X157338548Y-90207783D01*
X157702036Y-90571271D01*
X157702046Y-90571282D01*
X157706376Y-90575612D01*
X157706377Y-90575613D01*
X157818181Y-90687417D01*
X157818183Y-90687418D01*
X157818187Y-90687421D01*
X157917626Y-90744831D01*
X157955113Y-90766474D01*
X158061820Y-90795066D01*
X158061819Y-90795066D01*
X158074150Y-90798369D01*
X158107839Y-90807397D01*
X158107840Y-90807397D01*
X168106800Y-90807397D01*
X168173839Y-90827082D01*
X168194481Y-90843716D01*
X172288583Y-94937819D01*
X172322068Y-94999142D01*
X172317084Y-95068834D01*
X172275212Y-95124767D01*
X172209748Y-95149184D01*
X172200902Y-95149500D01*
X166333801Y-95149500D01*
X166266762Y-95129815D01*
X166224747Y-95084519D01*
X166222924Y-95081151D01*
X166095983Y-94886852D01*
X166095980Y-94886849D01*
X166095979Y-94886847D01*
X165938784Y-94716087D01*
X165938779Y-94716083D01*
X165938777Y-94716081D01*
X165755634Y-94573535D01*
X165755628Y-94573531D01*
X165551504Y-94463064D01*
X165551495Y-94463061D01*
X165331984Y-94387702D01*
X165116556Y-94351754D01*
X165103049Y-94349500D01*
X164870951Y-94349500D01*
X164857444Y-94351754D01*
X164642015Y-94387702D01*
X164422504Y-94463061D01*
X164422495Y-94463064D01*
X164218371Y-94573531D01*
X164218365Y-94573535D01*
X164035222Y-94716081D01*
X164035218Y-94716084D01*
X164016497Y-94736421D01*
X164002000Y-94752170D01*
X163998730Y-94755722D01*
X163938843Y-94791713D01*
X163869004Y-94789612D01*
X163816270Y-94755722D01*
X163813000Y-94752170D01*
X163779784Y-94716087D01*
X163779783Y-94716086D01*
X163779781Y-94716084D01*
X163779777Y-94716081D01*
X163596634Y-94573535D01*
X163596628Y-94573531D01*
X163392504Y-94463064D01*
X163392495Y-94463061D01*
X163172984Y-94387702D01*
X162957556Y-94351754D01*
X162944049Y-94349500D01*
X162711951Y-94349500D01*
X162698444Y-94351754D01*
X162483015Y-94387702D01*
X162263504Y-94463061D01*
X162263495Y-94463064D01*
X162059371Y-94573531D01*
X162059365Y-94573535D01*
X161876222Y-94716081D01*
X161876218Y-94716084D01*
X161857497Y-94736421D01*
X161843000Y-94752170D01*
X161839730Y-94755722D01*
X161779843Y-94791713D01*
X161710004Y-94789612D01*
X161657270Y-94755722D01*
X161654000Y-94752170D01*
X161620784Y-94716087D01*
X161620783Y-94716086D01*
X161620781Y-94716084D01*
X161620777Y-94716081D01*
X161437634Y-94573535D01*
X161437628Y-94573531D01*
X161233504Y-94463064D01*
X161233495Y-94463061D01*
X161013984Y-94387702D01*
X160798556Y-94351754D01*
X160785049Y-94349500D01*
X160552951Y-94349500D01*
X160539444Y-94351754D01*
X160324015Y-94387702D01*
X160104504Y-94463061D01*
X160104490Y-94463067D01*
X159943174Y-94550367D01*
X159874846Y-94564962D01*
X159809474Y-94540299D01*
X159784891Y-94515624D01*
X159767546Y-94492454D01*
X159767544Y-94492453D01*
X159767544Y-94492452D01*
X159652335Y-94406206D01*
X159652328Y-94406202D01*
X159517482Y-94355908D01*
X159517483Y-94355908D01*
X159457883Y-94349501D01*
X159457881Y-94349500D01*
X159457873Y-94349500D01*
X159457864Y-94349500D01*
X157562129Y-94349500D01*
X157562123Y-94349501D01*
X157502516Y-94355908D01*
X157367671Y-94406202D01*
X157367664Y-94406206D01*
X157252455Y-94492452D01*
X157252452Y-94492455D01*
X157166206Y-94607664D01*
X157166202Y-94607671D01*
X157115908Y-94742517D01*
X157109501Y-94802116D01*
X157109500Y-94802135D01*
X157109500Y-96697870D01*
X157109501Y-96697876D01*
X157115908Y-96757483D01*
X157166202Y-96892328D01*
X157166206Y-96892335D01*
X157252452Y-97007544D01*
X157252455Y-97007547D01*
X157367664Y-97093793D01*
X157367671Y-97093797D01*
X157412618Y-97110561D01*
X157502517Y-97144091D01*
X157562127Y-97150500D01*
X157775500Y-97150499D01*
X157842539Y-97170183D01*
X157888294Y-97222987D01*
X157899500Y-97274499D01*
X157899500Y-98938306D01*
X157879815Y-99005345D01*
X157846623Y-99039881D01*
X157660859Y-99169953D01*
X157499954Y-99330858D01*
X157369432Y-99517265D01*
X157369431Y-99517267D01*
X157273261Y-99723502D01*
X157273258Y-99723511D01*
X157214366Y-99943302D01*
X157214364Y-99943313D01*
X157194532Y-100169998D01*
X157194532Y-100170001D01*
X157214364Y-100396686D01*
X157214366Y-100396697D01*
X157273258Y-100616488D01*
X157273261Y-100616497D01*
X157369431Y-100822732D01*
X157369432Y-100822734D01*
X157499954Y-101009141D01*
X157660858Y-101170045D01*
X157660861Y-101170047D01*
X157847266Y-101300568D01*
X158053504Y-101396739D01*
X158273308Y-101455635D01*
X158435230Y-101469801D01*
X158499998Y-101475468D01*
X158500000Y-101475468D01*
X158500002Y-101475468D01*
X158556673Y-101470509D01*
X158726692Y-101455635D01*
X158946496Y-101396739D01*
X159152734Y-101300568D01*
X159339139Y-101170047D01*
X159500047Y-101009139D01*
X159630568Y-100822734D01*
X159726739Y-100616496D01*
X159785635Y-100396692D01*
X159800601Y-100225629D01*
X159819491Y-100177334D01*
X159804235Y-100147942D01*
X159802402Y-100134957D01*
X159785635Y-99943308D01*
X159726739Y-99723504D01*
X159630568Y-99517266D01*
X159532839Y-99377693D01*
X159500045Y-99330858D01*
X159339140Y-99169953D01*
X159153377Y-99039881D01*
X159109752Y-98985304D01*
X159100500Y-98938306D01*
X159100500Y-97274499D01*
X159120185Y-97207460D01*
X159172989Y-97161705D01*
X159224500Y-97150499D01*
X159457871Y-97150499D01*
X159457872Y-97150499D01*
X159517483Y-97144091D01*
X159652331Y-97093796D01*
X159767546Y-97007546D01*
X159784890Y-96984376D01*
X159840823Y-96942505D01*
X159910515Y-96937521D01*
X159943170Y-96949630D01*
X160104497Y-97036936D01*
X160324019Y-97112298D01*
X160545911Y-97149325D01*
X160608794Y-97179774D01*
X160645234Y-97239389D01*
X160649500Y-97271633D01*
X160649500Y-99080754D01*
X160629815Y-99147793D01*
X160590778Y-99186181D01*
X160523436Y-99227877D01*
X160359020Y-99377761D01*
X160224943Y-99555308D01*
X160224938Y-99555316D01*
X160125775Y-99754461D01*
X160125769Y-99754476D01*
X160064885Y-99968462D01*
X160064885Y-99968464D01*
X160049399Y-100135577D01*
X160030516Y-100183126D01*
X160045697Y-100212006D01*
X160047599Y-100224997D01*
X160064885Y-100411535D01*
X160064885Y-100411537D01*
X160125769Y-100625523D01*
X160125775Y-100625538D01*
X160224938Y-100824683D01*
X160224943Y-100824691D01*
X160359020Y-101002238D01*
X160523437Y-101152123D01*
X160523439Y-101152125D01*
X160712595Y-101269245D01*
X160712596Y-101269245D01*
X160712599Y-101269247D01*
X160920060Y-101349618D01*
X161138757Y-101390500D01*
X161138759Y-101390500D01*
X161361241Y-101390500D01*
X161361243Y-101390500D01*
X161579940Y-101349618D01*
X161787401Y-101269247D01*
X161976562Y-101152124D01*
X162140981Y-101002236D01*
X162250153Y-100857669D01*
X162276046Y-100823381D01*
X162332155Y-100781744D01*
X162401866Y-100777052D01*
X162463049Y-100810795D01*
X162473954Y-100823381D01*
X162609017Y-101002234D01*
X162609019Y-101002237D01*
X162773437Y-101152123D01*
X162773439Y-101152125D01*
X162962595Y-101269245D01*
X162962596Y-101269245D01*
X162962599Y-101269247D01*
X163170060Y-101349618D01*
X163388757Y-101390500D01*
X163388759Y-101390500D01*
X163611241Y-101390500D01*
X163611243Y-101390500D01*
X163829940Y-101349618D01*
X164037401Y-101269247D01*
X164226562Y-101152124D01*
X164390981Y-101002236D01*
X164525058Y-100824689D01*
X164624229Y-100625528D01*
X164685115Y-100411536D01*
X164705643Y-100190000D01*
X164685115Y-99968464D01*
X164624229Y-99754472D01*
X164624224Y-99754461D01*
X164525061Y-99555316D01*
X164525056Y-99555308D01*
X164390979Y-99377761D01*
X164226563Y-99227877D01*
X164226562Y-99227876D01*
X164159221Y-99186180D01*
X164112587Y-99134153D01*
X164100500Y-99080754D01*
X164100500Y-97070778D01*
X164120185Y-97003739D01*
X164172989Y-96957984D01*
X164242147Y-96948040D01*
X164283518Y-96961724D01*
X164422486Y-97036931D01*
X164422492Y-97036933D01*
X164422497Y-97036936D01*
X164536487Y-97076068D01*
X164642015Y-97112297D01*
X164642017Y-97112297D01*
X164642019Y-97112298D01*
X164870951Y-97150500D01*
X164870952Y-97150500D01*
X165103048Y-97150500D01*
X165103049Y-97150500D01*
X165331981Y-97112298D01*
X165551503Y-97036936D01*
X165755626Y-96926470D01*
X165777336Y-96909573D01*
X165850451Y-96852665D01*
X165938784Y-96783913D01*
X166095979Y-96613153D01*
X166222924Y-96418849D01*
X166222926Y-96418843D01*
X166224747Y-96415481D01*
X166273967Y-96365891D01*
X166333801Y-96350500D01*
X173533218Y-96350500D01*
X173600257Y-96370185D01*
X173646012Y-96422989D01*
X173656537Y-96461534D01*
X173663503Y-96527803D01*
X173663504Y-96527806D01*
X173718747Y-96697829D01*
X173718750Y-96697835D01*
X173808141Y-96852665D01*
X173842381Y-96890692D01*
X173927764Y-96985521D01*
X173927767Y-96985523D01*
X173927770Y-96985526D01*
X174072407Y-97090612D01*
X174235733Y-97163329D01*
X174410609Y-97200500D01*
X174410610Y-97200500D01*
X174589389Y-97200500D01*
X174589391Y-97200500D01*
X174764267Y-97163329D01*
X174927593Y-97090612D01*
X175072230Y-96985526D01*
X175072238Y-96985517D01*
X175075755Y-96982351D01*
X175138747Y-96952121D01*
X175158729Y-96950500D01*
X175762420Y-96950500D01*
X175829459Y-96970185D01*
X175875214Y-97022989D01*
X175885158Y-97092147D01*
X175856133Y-97155703D01*
X175835306Y-97174817D01*
X175807596Y-97194949D01*
X175721092Y-97257799D01*
X175601464Y-97390660D01*
X175512074Y-97545488D01*
X175512071Y-97545494D01*
X175456828Y-97715516D01*
X175456827Y-97715518D01*
X175438139Y-97893324D01*
X175456827Y-98071129D01*
X175456828Y-98071131D01*
X175512071Y-98241153D01*
X175512074Y-98241159D01*
X175601465Y-98395989D01*
X175612030Y-98407722D01*
X175642261Y-98470712D01*
X175633638Y-98540048D01*
X175607563Y-98578377D01*
X167012761Y-107173181D01*
X166951438Y-107206666D01*
X166925080Y-107209500D01*
X164612621Y-107209500D01*
X164545582Y-107189815D01*
X164513667Y-107160227D01*
X164390979Y-106997761D01*
X164226562Y-106847876D01*
X164226560Y-106847874D01*
X164037404Y-106730754D01*
X164037398Y-106730752D01*
X164022672Y-106725047D01*
X163829940Y-106650382D01*
X163611243Y-106609500D01*
X163388757Y-106609500D01*
X163170060Y-106650382D01*
X163038864Y-106701207D01*
X162962601Y-106730752D01*
X162962595Y-106730754D01*
X162773439Y-106847874D01*
X162773437Y-106847876D01*
X162609020Y-106997761D01*
X162473954Y-107176619D01*
X162417845Y-107218255D01*
X162348133Y-107222946D01*
X162286951Y-107189204D01*
X162276046Y-107176619D01*
X162140979Y-106997761D01*
X161976562Y-106847876D01*
X161976560Y-106847874D01*
X161787404Y-106730754D01*
X161787398Y-106730752D01*
X161772672Y-106725047D01*
X161579940Y-106650382D01*
X161361243Y-106609500D01*
X161138757Y-106609500D01*
X160920060Y-106650382D01*
X160788864Y-106701207D01*
X160712601Y-106730752D01*
X160712595Y-106730754D01*
X160523439Y-106847874D01*
X160523437Y-106847876D01*
X160359020Y-106997761D01*
X160224943Y-107175308D01*
X160224938Y-107175316D01*
X160125775Y-107374461D01*
X160125769Y-107374476D01*
X160064885Y-107588462D01*
X160064884Y-107588464D01*
X160044357Y-107809999D01*
X160044357Y-107810000D01*
X160064884Y-108031535D01*
X160064885Y-108031537D01*
X160125769Y-108245523D01*
X160125775Y-108245538D01*
X160224938Y-108444683D01*
X160224943Y-108444691D01*
X160359020Y-108622238D01*
X160523437Y-108772123D01*
X160523439Y-108772125D01*
X160712595Y-108889245D01*
X160712596Y-108889245D01*
X160712599Y-108889247D01*
X160920060Y-108969618D01*
X161138757Y-109010500D01*
X161138759Y-109010500D01*
X161361241Y-109010500D01*
X161361243Y-109010500D01*
X161499215Y-108984708D01*
X161568730Y-108991739D01*
X161609681Y-109018916D01*
X161715139Y-109124374D01*
X161715149Y-109124385D01*
X161719479Y-109128715D01*
X161719480Y-109128716D01*
X161831284Y-109240520D01*
X161918095Y-109290639D01*
X161918097Y-109290641D01*
X161956151Y-109312611D01*
X161968215Y-109319577D01*
X162120943Y-109360501D01*
X162120946Y-109360501D01*
X162286653Y-109360501D01*
X162286669Y-109360500D01*
X165850903Y-109360500D01*
X165917942Y-109380185D01*
X165963697Y-109432989D01*
X165973641Y-109502147D01*
X165944616Y-109565703D01*
X165938584Y-109572181D01*
X165817584Y-109693181D01*
X165756261Y-109726666D01*
X165729903Y-109729500D01*
X159731692Y-109729500D01*
X159664653Y-109709815D01*
X159630119Y-109676625D01*
X159515064Y-109512308D01*
X159500045Y-109490858D01*
X159339141Y-109329954D01*
X159152734Y-109199432D01*
X159152732Y-109199431D01*
X158946497Y-109103261D01*
X158946488Y-109103258D01*
X158726697Y-109044366D01*
X158726693Y-109044365D01*
X158726692Y-109044365D01*
X158726691Y-109044364D01*
X158726686Y-109044364D01*
X158500002Y-109024532D01*
X158499998Y-109024532D01*
X158273313Y-109044364D01*
X158273302Y-109044366D01*
X158053511Y-109103258D01*
X158053502Y-109103261D01*
X157847267Y-109199431D01*
X157847265Y-109199432D01*
X157660858Y-109329954D01*
X157499954Y-109490858D01*
X157369432Y-109677265D01*
X157369431Y-109677267D01*
X157273261Y-109883502D01*
X157273258Y-109883511D01*
X157214366Y-110103302D01*
X157214364Y-110103313D01*
X157194532Y-110329998D01*
X157194532Y-110330001D01*
X157214364Y-110556686D01*
X157214366Y-110556697D01*
X157273258Y-110776488D01*
X157273261Y-110776497D01*
X157369431Y-110982732D01*
X157369432Y-110982734D01*
X157499954Y-111169141D01*
X157660858Y-111330045D01*
X157660861Y-111330047D01*
X157847266Y-111460568D01*
X158053504Y-111556739D01*
X158273308Y-111615635D01*
X158435230Y-111629801D01*
X158499998Y-111635468D01*
X158500000Y-111635468D01*
X158500002Y-111635468D01*
X158556673Y-111630509D01*
X158726692Y-111615635D01*
X158946496Y-111556739D01*
X159152734Y-111460568D01*
X159339139Y-111330047D01*
X159500047Y-111169139D01*
X159630118Y-110983375D01*
X159684693Y-110939752D01*
X159731692Y-110930500D01*
X165943331Y-110930500D01*
X165943347Y-110930501D01*
X165950943Y-110930501D01*
X166109054Y-110930501D01*
X166109057Y-110930501D01*
X166261785Y-110889577D01*
X166311904Y-110860639D01*
X166398716Y-110810520D01*
X166510520Y-110698716D01*
X166510520Y-110698714D01*
X166520728Y-110688507D01*
X166520729Y-110688504D01*
X166962416Y-110246819D01*
X167023739Y-110213334D01*
X167050097Y-110210500D01*
X167089389Y-110210500D01*
X167089391Y-110210500D01*
X167264267Y-110173329D01*
X167427593Y-110100612D01*
X167572230Y-109995526D01*
X167691859Y-109862665D01*
X167781250Y-109707835D01*
X167836497Y-109537803D01*
X167843461Y-109471535D01*
X167870046Y-109406924D01*
X167927343Y-109366939D01*
X167966782Y-109360500D01*
X168309829Y-109360500D01*
X168309845Y-109360501D01*
X168317441Y-109360501D01*
X168475552Y-109360501D01*
X168475555Y-109360501D01*
X168628283Y-109319577D01*
X168678402Y-109290639D01*
X168765214Y-109240520D01*
X168877018Y-109128716D01*
X168877018Y-109128714D01*
X168887226Y-109118507D01*
X168887227Y-109118504D01*
X171437821Y-106567911D01*
X171499142Y-106534428D01*
X171568834Y-106539412D01*
X171624767Y-106581284D01*
X171649184Y-106646748D01*
X171649500Y-106655594D01*
X171649500Y-107044951D01*
X171629815Y-107111990D01*
X171584518Y-107154006D01*
X171426493Y-107239524D01*
X171230257Y-107392261D01*
X171061833Y-107575217D01*
X170925826Y-107783393D01*
X170825936Y-108011118D01*
X170764892Y-108252175D01*
X170764890Y-108252187D01*
X170744357Y-108499994D01*
X170744357Y-108500005D01*
X170764890Y-108747812D01*
X170764892Y-108747824D01*
X170825936Y-108988881D01*
X170925826Y-109216606D01*
X171061833Y-109424782D01*
X171061836Y-109424785D01*
X171230256Y-109607738D01*
X171426491Y-109760474D01*
X171645190Y-109878828D01*
X171880386Y-109959571D01*
X172045910Y-109987191D01*
X172108794Y-110017641D01*
X172145234Y-110077256D01*
X172149500Y-110109500D01*
X172149500Y-110960908D01*
X172129815Y-111027947D01*
X172077914Y-111073286D01*
X172072173Y-111075963D01*
X172072169Y-111075965D01*
X171878597Y-111211505D01*
X171711508Y-111378594D01*
X171601269Y-111536032D01*
X171546692Y-111579656D01*
X171477193Y-111586849D01*
X171414839Y-111555327D01*
X171398119Y-111536032D01*
X171364925Y-111488626D01*
X170732962Y-112120590D01*
X170715925Y-112057007D01*
X170650099Y-111942993D01*
X170557007Y-111849901D01*
X170442993Y-111784075D01*
X170379409Y-111767037D01*
X171011372Y-111135073D01*
X170927576Y-111076398D01*
X170713492Y-110976570D01*
X170713483Y-110976566D01*
X170485326Y-110915432D01*
X170485315Y-110915430D01*
X170250002Y-110894843D01*
X170249998Y-110894843D01*
X170014684Y-110915430D01*
X170014673Y-110915432D01*
X169786516Y-110976566D01*
X169786507Y-110976570D01*
X169572423Y-111076399D01*
X169572421Y-111076400D01*
X169488627Y-111135073D01*
X169488626Y-111135073D01*
X170120591Y-111767037D01*
X170057007Y-111784075D01*
X169942993Y-111849901D01*
X169849901Y-111942993D01*
X169784075Y-112057007D01*
X169767037Y-112120591D01*
X169135073Y-111488626D01*
X169135073Y-111488627D01*
X169076400Y-111572421D01*
X169076399Y-111572423D01*
X168976570Y-111786507D01*
X168976566Y-111786516D01*
X168915432Y-112014673D01*
X168915430Y-112014684D01*
X168894843Y-112249998D01*
X168894843Y-112250001D01*
X168915430Y-112485315D01*
X168915432Y-112485326D01*
X168930995Y-112543407D01*
X168929332Y-112613257D01*
X168890169Y-112671119D01*
X168825941Y-112698623D01*
X168811220Y-112699500D01*
X167284108Y-112699500D01*
X167156812Y-112733608D01*
X167042686Y-112799500D01*
X167042683Y-112799502D01*
X166949502Y-112892683D01*
X166949500Y-112892686D01*
X166883608Y-113006812D01*
X166849500Y-113134108D01*
X166849500Y-115365891D01*
X166883608Y-115493187D01*
X166916554Y-115550250D01*
X166949500Y-115607314D01*
X167042686Y-115700500D01*
X167156814Y-115766392D01*
X167284108Y-115800500D01*
X167284110Y-115800500D01*
X169215890Y-115800500D01*
X169215892Y-115800500D01*
X169343186Y-115766392D01*
X169457314Y-115700500D01*
X169550500Y-115607314D01*
X169616392Y-115493186D01*
X169650500Y-115365892D01*
X169650500Y-113648587D01*
X169670185Y-113581548D01*
X169722989Y-113535793D01*
X169792147Y-113525849D01*
X169806594Y-113528812D01*
X170014677Y-113584568D01*
X170014684Y-113584569D01*
X170249998Y-113605157D01*
X170250002Y-113605157D01*
X170485315Y-113584569D01*
X170485326Y-113584567D01*
X170713483Y-113523433D01*
X170713492Y-113523429D01*
X170927580Y-113423599D01*
X171011371Y-113364925D01*
X170379408Y-112732962D01*
X170442993Y-112715925D01*
X170557007Y-112650099D01*
X170650099Y-112557007D01*
X170715925Y-112442993D01*
X170732962Y-112379408D01*
X171364925Y-113011372D01*
X171398120Y-112963967D01*
X171452697Y-112920342D01*
X171522196Y-112913150D01*
X171584550Y-112944673D01*
X171601268Y-112963967D01*
X171711505Y-113121401D01*
X171878599Y-113288495D01*
X171975384Y-113356265D01*
X172072165Y-113424032D01*
X172072167Y-113424033D01*
X172072170Y-113424035D01*
X172286337Y-113523903D01*
X172286343Y-113523904D01*
X172286344Y-113523905D01*
X172330712Y-113535793D01*
X172514592Y-113585063D01*
X172702918Y-113601539D01*
X172749999Y-113605659D01*
X172750000Y-113605659D01*
X172750001Y-113605659D01*
X172789234Y-113602226D01*
X172985408Y-113585063D01*
X173213663Y-113523903D01*
X173427830Y-113424035D01*
X173621401Y-113288495D01*
X173788495Y-113121401D01*
X173898425Y-112964405D01*
X173953002Y-112920780D01*
X174022500Y-112913586D01*
X174084855Y-112945109D01*
X174101575Y-112964405D01*
X174211505Y-113121401D01*
X174378599Y-113288495D01*
X174475384Y-113356265D01*
X174572165Y-113424032D01*
X174572167Y-113424033D01*
X174572170Y-113424035D01*
X174786337Y-113523903D01*
X174786343Y-113523904D01*
X174786344Y-113523905D01*
X174830712Y-113535793D01*
X175014592Y-113585063D01*
X175202918Y-113601539D01*
X175249999Y-113605659D01*
X175250000Y-113605659D01*
X175250001Y-113605659D01*
X175289234Y-113602226D01*
X175485408Y-113585063D01*
X175693408Y-113529330D01*
X175763256Y-113530993D01*
X175821119Y-113570156D01*
X175848623Y-113634384D01*
X175849500Y-113649105D01*
X175849500Y-115365891D01*
X175883608Y-115493187D01*
X175916554Y-115550250D01*
X175949500Y-115607314D01*
X176042686Y-115700500D01*
X176156814Y-115766392D01*
X176284108Y-115800500D01*
X176284110Y-115800500D01*
X178215890Y-115800500D01*
X178215892Y-115800500D01*
X178343186Y-115766392D01*
X178457314Y-115700500D01*
X178550500Y-115607314D01*
X178616392Y-115493186D01*
X178650500Y-115365892D01*
X178650500Y-113134108D01*
X178616392Y-113006814D01*
X178550500Y-112892686D01*
X178457314Y-112799500D01*
X178371578Y-112750000D01*
X178343187Y-112733608D01*
X178279539Y-112716554D01*
X178215892Y-112699500D01*
X178215891Y-112699500D01*
X176689297Y-112699500D01*
X176622258Y-112679815D01*
X176576503Y-112627011D01*
X176566559Y-112557853D01*
X176569522Y-112543407D01*
X176585063Y-112485408D01*
X176605659Y-112250000D01*
X176585063Y-112014592D01*
X176523903Y-111786337D01*
X176424035Y-111572171D01*
X176413230Y-111556739D01*
X176288494Y-111378597D01*
X176121402Y-111211506D01*
X176121395Y-111211501D01*
X175927831Y-111075965D01*
X175927826Y-111075962D01*
X175922091Y-111073288D01*
X175869653Y-111027113D01*
X175850500Y-110960908D01*
X175850500Y-109955048D01*
X175870185Y-109888009D01*
X175915481Y-109845993D01*
X176073509Y-109760474D01*
X176269744Y-109607738D01*
X176438164Y-109424785D01*
X176574173Y-109216607D01*
X176674063Y-108988881D01*
X176735108Y-108747821D01*
X176745514Y-108622238D01*
X176755643Y-108500005D01*
X176755643Y-108499994D01*
X176735109Y-108252187D01*
X176735107Y-108252175D01*
X176674063Y-108011118D01*
X176574173Y-107783393D01*
X176438166Y-107575217D01*
X176416557Y-107551744D01*
X176269744Y-107392262D01*
X176073509Y-107239526D01*
X176073507Y-107239525D01*
X176073506Y-107239524D01*
X175915482Y-107154006D01*
X175865892Y-107104786D01*
X175850500Y-107044951D01*
X175850500Y-103620807D01*
X175870185Y-103553768D01*
X175886814Y-103533131D01*
X178176252Y-101243692D01*
X178237573Y-101210209D01*
X178307265Y-101215193D01*
X178336816Y-101231056D01*
X178432027Y-101300232D01*
X178595353Y-101372949D01*
X178770229Y-101410120D01*
X178770230Y-101410120D01*
X178949009Y-101410120D01*
X178949011Y-101410120D01*
X179123887Y-101372949D01*
X179175066Y-101350162D01*
X179244313Y-101340877D01*
X179307590Y-101370505D01*
X179344804Y-101429640D01*
X179349500Y-101463442D01*
X179349500Y-102947870D01*
X179349501Y-102947876D01*
X179355908Y-103007483D01*
X179406202Y-103142328D01*
X179406206Y-103142335D01*
X179492452Y-103257544D01*
X179492455Y-103257547D01*
X179607664Y-103343793D01*
X179607671Y-103343797D01*
X179652618Y-103360561D01*
X179742517Y-103394091D01*
X179802127Y-103400500D01*
X179865500Y-103400499D01*
X179932538Y-103420183D01*
X179978294Y-103472986D01*
X179989500Y-103524499D01*
X179989500Y-104493306D01*
X179969815Y-104560345D01*
X179936623Y-104594881D01*
X179750859Y-104724953D01*
X179589954Y-104885858D01*
X179459432Y-105072265D01*
X179459431Y-105072267D01*
X179363261Y-105278502D01*
X179363258Y-105278511D01*
X179304366Y-105498302D01*
X179304364Y-105498313D01*
X179284532Y-105724998D01*
X179284532Y-105725001D01*
X179304364Y-105951686D01*
X179304366Y-105951697D01*
X179363258Y-106171488D01*
X179363261Y-106171497D01*
X179459431Y-106377732D01*
X179459432Y-106377734D01*
X179589954Y-106564141D01*
X179750858Y-106725045D01*
X179797693Y-106757839D01*
X179937266Y-106855568D01*
X180143504Y-106951739D01*
X180363308Y-107010635D01*
X180525230Y-107024801D01*
X180589998Y-107030468D01*
X180590000Y-107030468D01*
X180590002Y-107030468D01*
X180646673Y-107025509D01*
X180816692Y-107010635D01*
X181036496Y-106951739D01*
X181242734Y-106855568D01*
X181429139Y-106725047D01*
X181590047Y-106564139D01*
X181720568Y-106377734D01*
X181816739Y-106171496D01*
X181875635Y-105951692D01*
X181895468Y-105725000D01*
X181875635Y-105498308D01*
X181869389Y-105474999D01*
X189471127Y-105474999D01*
X189471128Y-105475000D01*
X190434314Y-105475000D01*
X190429920Y-105479394D01*
X190377259Y-105570606D01*
X190350000Y-105672339D01*
X190350000Y-105777661D01*
X190377259Y-105879394D01*
X190429920Y-105970606D01*
X190434314Y-105975000D01*
X189471128Y-105975000D01*
X189523730Y-106171317D01*
X189523734Y-106171326D01*
X189619865Y-106377482D01*
X189750342Y-106563820D01*
X189911179Y-106724657D01*
X190097517Y-106855134D01*
X190303673Y-106951265D01*
X190303682Y-106951269D01*
X190499999Y-107003872D01*
X190500000Y-107003871D01*
X190500000Y-106040686D01*
X190504394Y-106045080D01*
X190595606Y-106097741D01*
X190697339Y-106125000D01*
X190802661Y-106125000D01*
X190904394Y-106097741D01*
X190995606Y-106045080D01*
X191000000Y-106040686D01*
X191000000Y-107003872D01*
X191196317Y-106951269D01*
X191196326Y-106951265D01*
X191402482Y-106855134D01*
X191588820Y-106724657D01*
X191749657Y-106563820D01*
X191880134Y-106377482D01*
X191976265Y-106171326D01*
X191976269Y-106171317D01*
X192028872Y-105975000D01*
X191065686Y-105975000D01*
X191070080Y-105970606D01*
X191122741Y-105879394D01*
X191150000Y-105777661D01*
X191150000Y-105672339D01*
X191122741Y-105570606D01*
X191070080Y-105479394D01*
X191065686Y-105475000D01*
X192028872Y-105475000D01*
X192028872Y-105474999D01*
X191976269Y-105278682D01*
X191976265Y-105278673D01*
X191880134Y-105072517D01*
X191749657Y-104886179D01*
X191588820Y-104725342D01*
X191402482Y-104594865D01*
X191196328Y-104498734D01*
X191000000Y-104446127D01*
X191000000Y-105409314D01*
X190995606Y-105404920D01*
X190904394Y-105352259D01*
X190802661Y-105325000D01*
X190697339Y-105325000D01*
X190595606Y-105352259D01*
X190504394Y-105404920D01*
X190500000Y-105409314D01*
X190500000Y-104446127D01*
X190303671Y-104498734D01*
X190097517Y-104594865D01*
X189911179Y-104725342D01*
X189750342Y-104886179D01*
X189619865Y-105072517D01*
X189523734Y-105278673D01*
X189523730Y-105278682D01*
X189471127Y-105474999D01*
X181869389Y-105474999D01*
X181816739Y-105278504D01*
X181720568Y-105072266D01*
X181590047Y-104885861D01*
X181590045Y-104885858D01*
X181429140Y-104724953D01*
X181243377Y-104594881D01*
X181199752Y-104540304D01*
X181190500Y-104493306D01*
X181190500Y-103524499D01*
X181210185Y-103457460D01*
X181262989Y-103411705D01*
X181314500Y-103400499D01*
X181697871Y-103400499D01*
X181697872Y-103400499D01*
X181757483Y-103394091D01*
X181892331Y-103343796D01*
X182007546Y-103257546D01*
X182093796Y-103142331D01*
X182144091Y-103007483D01*
X182150500Y-102947873D01*
X182150499Y-101052128D01*
X182144091Y-100992517D01*
X182093796Y-100857669D01*
X182093795Y-100857668D01*
X182093793Y-100857664D01*
X182007547Y-100742455D01*
X182007544Y-100742452D01*
X181892335Y-100656206D01*
X181892328Y-100656202D01*
X181812094Y-100626277D01*
X181756160Y-100584406D01*
X181731743Y-100518941D01*
X181746595Y-100450668D01*
X181764190Y-100426121D01*
X181858979Y-100323153D01*
X181985924Y-100128849D01*
X182079157Y-99916300D01*
X182136134Y-99691305D01*
X182136135Y-99691297D01*
X182155300Y-99460006D01*
X182155300Y-99459993D01*
X182136135Y-99228702D01*
X182136133Y-99228691D01*
X182079157Y-99003699D01*
X181985924Y-98791151D01*
X181858983Y-98596852D01*
X181858980Y-98596849D01*
X181858979Y-98596847D01*
X181701784Y-98426087D01*
X181701779Y-98426083D01*
X181701777Y-98426081D01*
X181518634Y-98283535D01*
X181518628Y-98283531D01*
X181416877Y-98228466D01*
X181367287Y-98179246D01*
X181352179Y-98111029D01*
X181376350Y-98045474D01*
X181388206Y-98031738D01*
X182218340Y-97201604D01*
X182279662Y-97168121D01*
X182349354Y-97173105D01*
X182405287Y-97214977D01*
X182425794Y-97257192D01*
X182440422Y-97311783D01*
X182440423Y-97311786D01*
X182450394Y-97329055D01*
X182450395Y-97329057D01*
X182519477Y-97448712D01*
X182519481Y-97448717D01*
X182638349Y-97567585D01*
X182638355Y-97567590D01*
X184128058Y-99057293D01*
X184161543Y-99118616D01*
X184160152Y-99177067D01*
X184134366Y-99273302D01*
X184134364Y-99273313D01*
X184114532Y-99499998D01*
X184114532Y-99500001D01*
X184134364Y-99726686D01*
X184134366Y-99726697D01*
X184193258Y-99946488D01*
X184193261Y-99946497D01*
X184289431Y-100152732D01*
X184289432Y-100152734D01*
X184419954Y-100339141D01*
X184580858Y-100500045D01*
X184580861Y-100500047D01*
X184767266Y-100630568D01*
X184973504Y-100726739D01*
X185193308Y-100785635D01*
X185355230Y-100799801D01*
X185419998Y-100805468D01*
X185420000Y-100805468D01*
X185420002Y-100805468D01*
X185476673Y-100800509D01*
X185646692Y-100785635D01*
X185866496Y-100726739D01*
X186072734Y-100630568D01*
X186259139Y-100500047D01*
X186420047Y-100339139D01*
X186550568Y-100152734D01*
X186646739Y-99946496D01*
X186705635Y-99726692D01*
X186725468Y-99500000D01*
X186721968Y-99460000D01*
X186705635Y-99273313D01*
X186705635Y-99273308D01*
X186699389Y-99249999D01*
X194301127Y-99249999D01*
X194301128Y-99250000D01*
X195264314Y-99250000D01*
X195259920Y-99254394D01*
X195207259Y-99345606D01*
X195180000Y-99447339D01*
X195180000Y-99552661D01*
X195207259Y-99654394D01*
X195259920Y-99745606D01*
X195264314Y-99750000D01*
X194301128Y-99750000D01*
X194353730Y-99946317D01*
X194353734Y-99946326D01*
X194449865Y-100152482D01*
X194580342Y-100338820D01*
X194741179Y-100499657D01*
X194927517Y-100630134D01*
X195133673Y-100726265D01*
X195133682Y-100726269D01*
X195329999Y-100778872D01*
X195330000Y-100778871D01*
X195330000Y-99815686D01*
X195334394Y-99820080D01*
X195425606Y-99872741D01*
X195527339Y-99900000D01*
X195632661Y-99900000D01*
X195734394Y-99872741D01*
X195825606Y-99820080D01*
X195830000Y-99815686D01*
X195830000Y-100778872D01*
X196026317Y-100726269D01*
X196026326Y-100726265D01*
X196232482Y-100630134D01*
X196418820Y-100499657D01*
X196579657Y-100338820D01*
X196710134Y-100152482D01*
X196806265Y-99946326D01*
X196806269Y-99946317D01*
X196858872Y-99750000D01*
X195895686Y-99750000D01*
X195900080Y-99745606D01*
X195952741Y-99654394D01*
X195980000Y-99552661D01*
X195980000Y-99447339D01*
X195952741Y-99345606D01*
X195900080Y-99254394D01*
X195895686Y-99250000D01*
X196858872Y-99250000D01*
X196858872Y-99249999D01*
X196806269Y-99053682D01*
X196806265Y-99053673D01*
X196710134Y-98847517D01*
X196579657Y-98661179D01*
X196418820Y-98500342D01*
X196232482Y-98369865D01*
X196026328Y-98273734D01*
X195830000Y-98221127D01*
X195830000Y-99184314D01*
X195825606Y-99179920D01*
X195734394Y-99127259D01*
X195632661Y-99100000D01*
X195527339Y-99100000D01*
X195425606Y-99127259D01*
X195334394Y-99179920D01*
X195330000Y-99184314D01*
X195330000Y-98221127D01*
X195133671Y-98273734D01*
X194927517Y-98369865D01*
X194741179Y-98500342D01*
X194580342Y-98661179D01*
X194449865Y-98847517D01*
X194353734Y-99053673D01*
X194353730Y-99053682D01*
X194301127Y-99249999D01*
X186699389Y-99249999D01*
X186646739Y-99053504D01*
X186550568Y-98847266D01*
X186420047Y-98660861D01*
X186420045Y-98660858D01*
X186259141Y-98499954D01*
X186072734Y-98369432D01*
X186072732Y-98369431D01*
X185866497Y-98273261D01*
X185866488Y-98273258D01*
X185646697Y-98214366D01*
X185646693Y-98214365D01*
X185646692Y-98214365D01*
X185646691Y-98214364D01*
X185646686Y-98214364D01*
X185420002Y-98194532D01*
X185419998Y-98194532D01*
X185193313Y-98214364D01*
X185193302Y-98214366D01*
X185097067Y-98240152D01*
X185027217Y-98238489D01*
X184977293Y-98208058D01*
X183636819Y-96867584D01*
X183603334Y-96806261D01*
X183600500Y-96779903D01*
X183600500Y-96600097D01*
X183620185Y-96533058D01*
X183636814Y-96512419D01*
X183668051Y-96481182D01*
X183680243Y-96470492D01*
X183730404Y-96432004D01*
X183730404Y-96432003D01*
X183730409Y-96432000D01*
X184154603Y-96007803D01*
X184215924Y-95974320D01*
X184285616Y-95979304D01*
X184329964Y-96007805D01*
X184754150Y-96431991D01*
X184754157Y-96431997D01*
X184754159Y-96431999D01*
X184842238Y-96499585D01*
X184844819Y-96500654D01*
X184885048Y-96527534D01*
X185188034Y-96830520D01*
X185188036Y-96830521D01*
X185188040Y-96830524D01*
X185324959Y-96909573D01*
X185324962Y-96909575D01*
X185324966Y-96909577D01*
X185477693Y-96950501D01*
X185477695Y-96950501D01*
X185643404Y-96950501D01*
X185643420Y-96950500D01*
X188658755Y-96950500D01*
X188658771Y-96950501D01*
X188666367Y-96950501D01*
X188824478Y-96950501D01*
X188824481Y-96950501D01*
X188977209Y-96909577D01*
X189063811Y-96859577D01*
X189114140Y-96830520D01*
X189225944Y-96718716D01*
X189225944Y-96718714D01*
X189236148Y-96708511D01*
X189236151Y-96708506D01*
X191080520Y-94864140D01*
X191159577Y-94727208D01*
X191200501Y-94574481D01*
X191200501Y-94416366D01*
X191200501Y-94408771D01*
X191200500Y-94408753D01*
X191200500Y-91199100D01*
X191220185Y-91132061D01*
X191272989Y-91086306D01*
X191342147Y-91076362D01*
X191405703Y-91105387D01*
X191412181Y-91111419D01*
X192915136Y-92614374D01*
X192915146Y-92614385D01*
X192919476Y-92618715D01*
X192919477Y-92618716D01*
X193031281Y-92730520D01*
X193031283Y-92730521D01*
X193031287Y-92730524D01*
X193104665Y-92772888D01*
X193168213Y-92809577D01*
X193280016Y-92839534D01*
X193320939Y-92850500D01*
X193320940Y-92850500D01*
X194827379Y-92850500D01*
X194894418Y-92870185D01*
X194926333Y-92899773D01*
X195049020Y-93062238D01*
X195213437Y-93212123D01*
X195213439Y-93212125D01*
X195402595Y-93329245D01*
X195402596Y-93329245D01*
X195402599Y-93329247D01*
X195610060Y-93409618D01*
X195828757Y-93450500D01*
X195828759Y-93450500D01*
X196051241Y-93450500D01*
X196051243Y-93450500D01*
X196269940Y-93409618D01*
X196477401Y-93329247D01*
X196666562Y-93212124D01*
X196830981Y-93062236D01*
X196965058Y-92884689D01*
X197064229Y-92685528D01*
X197125115Y-92471536D01*
X197145643Y-92250000D01*
X197143205Y-92223694D01*
X197125115Y-92028464D01*
X197125114Y-92028462D01*
X197124491Y-92026273D01*
X197064229Y-91814472D01*
X197056774Y-91799500D01*
X196965061Y-91615316D01*
X196965056Y-91615308D01*
X196830979Y-91437761D01*
X196666562Y-91287876D01*
X196666560Y-91287874D01*
X196477404Y-91170754D01*
X196477395Y-91170750D01*
X196405560Y-91142921D01*
X196335101Y-91115625D01*
X196279701Y-91073054D01*
X196256110Y-91007288D01*
X196271821Y-90939207D01*
X196321844Y-90890428D01*
X196335093Y-90884377D01*
X196477401Y-90829247D01*
X196666562Y-90712124D01*
X196816307Y-90575613D01*
X196830979Y-90562238D01*
X196839932Y-90550383D01*
X196965058Y-90384689D01*
X197064229Y-90185528D01*
X197125115Y-89971536D01*
X197145643Y-89750000D01*
X197144638Y-89739159D01*
X197125115Y-89528464D01*
X197125114Y-89528462D01*
X197116399Y-89497833D01*
X197064229Y-89314472D01*
X197063996Y-89314004D01*
X196965061Y-89115316D01*
X196965056Y-89115308D01*
X196830979Y-88937761D01*
X196666562Y-88787876D01*
X196666560Y-88787874D01*
X196477404Y-88670754D01*
X196477398Y-88670752D01*
X196269940Y-88590382D01*
X196051243Y-88549500D01*
X195828757Y-88549500D01*
X195758734Y-88562589D01*
X195690783Y-88575291D01*
X195621268Y-88568259D01*
X195580318Y-88541083D01*
X195177590Y-88138355D01*
X195177588Y-88138352D01*
X195058717Y-88019481D01*
X195058716Y-88019480D01*
X194951541Y-87957603D01*
X194951540Y-87957602D01*
X194921783Y-87940422D01*
X194865881Y-87925443D01*
X194769057Y-87899499D01*
X194610943Y-87899499D01*
X194603347Y-87899499D01*
X194603331Y-87899500D01*
X190649096Y-87899500D01*
X190582057Y-87879815D01*
X190536302Y-87827011D01*
X190526358Y-87757853D01*
X190555383Y-87694297D01*
X190561400Y-87687833D01*
X190689294Y-87559939D01*
X190750613Y-87526457D01*
X190789578Y-87524266D01*
X190801655Y-87525500D01*
X191398344Y-87525499D01*
X191398352Y-87525498D01*
X191398355Y-87525498D01*
X191469044Y-87518277D01*
X191497708Y-87515349D01*
X191658697Y-87462003D01*
X191803044Y-87372968D01*
X191922968Y-87253044D01*
X191922973Y-87253034D01*
X191926171Y-87248992D01*
X191983190Y-87208613D01*
X192052989Y-87205470D01*
X192072696Y-87212100D01*
X192073602Y-87212492D01*
X192073605Y-87212494D01*
X192073608Y-87212494D01*
X192073613Y-87212497D01*
X192229002Y-87257642D01*
X192229005Y-87257642D01*
X192229007Y-87257643D01*
X192265310Y-87260500D01*
X192265318Y-87260500D01*
X192734682Y-87260500D01*
X192734690Y-87260500D01*
X192770993Y-87257643D01*
X192770995Y-87257642D01*
X192770997Y-87257642D01*
X192926388Y-87212496D01*
X192926387Y-87212496D01*
X192926395Y-87212494D01*
X192936880Y-87206292D01*
X193004600Y-87189110D01*
X193063118Y-87206292D01*
X193073605Y-87212494D01*
X193073610Y-87212495D01*
X193073611Y-87212496D01*
X193229002Y-87257642D01*
X193229005Y-87257642D01*
X193229007Y-87257643D01*
X193265310Y-87260500D01*
X193265318Y-87260500D01*
X193734682Y-87260500D01*
X193734690Y-87260500D01*
X193770993Y-87257643D01*
X193770995Y-87257642D01*
X193770997Y-87257642D01*
X193926388Y-87212496D01*
X193926387Y-87212496D01*
X193926395Y-87212494D01*
X193936880Y-87206292D01*
X194004600Y-87189110D01*
X194063118Y-87206292D01*
X194073605Y-87212494D01*
X194073610Y-87212495D01*
X194073611Y-87212496D01*
X194229002Y-87257642D01*
X194229005Y-87257642D01*
X194229007Y-87257643D01*
X194265310Y-87260500D01*
X194265318Y-87260500D01*
X194734682Y-87260500D01*
X194734690Y-87260500D01*
X194770993Y-87257643D01*
X194770995Y-87257642D01*
X194770997Y-87257642D01*
X194804895Y-87247793D01*
X194926395Y-87212494D01*
X194926400Y-87212490D01*
X194930539Y-87210701D01*
X194979790Y-87200500D01*
X195799903Y-87200500D01*
X195866942Y-87220185D01*
X195887584Y-87236819D01*
X205293482Y-96642717D01*
X205326967Y-96704040D01*
X205326007Y-96760838D01*
X205264892Y-97002174D01*
X205264890Y-97002187D01*
X205244357Y-97249994D01*
X205244357Y-97250005D01*
X205264890Y-97497812D01*
X205264892Y-97497824D01*
X205325936Y-97738881D01*
X205425826Y-97966606D01*
X205561833Y-98174782D01*
X205580014Y-98194532D01*
X205730256Y-98357738D01*
X205926491Y-98510474D01*
X205926493Y-98510475D01*
X206086103Y-98596852D01*
X206145190Y-98628828D01*
X206380386Y-98709571D01*
X206625665Y-98750500D01*
X206874335Y-98750500D01*
X207119614Y-98709571D01*
X207354810Y-98628828D01*
X207573509Y-98510474D01*
X207769744Y-98357738D01*
X207938164Y-98174785D01*
X208074173Y-97966607D01*
X208174063Y-97738881D01*
X208235108Y-97497821D01*
X208239177Y-97448716D01*
X208255643Y-97250005D01*
X208255643Y-97249994D01*
X208235109Y-97002187D01*
X208235107Y-97002175D01*
X208174063Y-96761118D01*
X208074173Y-96533393D01*
X207938166Y-96325217D01*
X207919014Y-96304413D01*
X207769744Y-96142262D01*
X207769739Y-96142258D01*
X207769737Y-96142256D01*
X207672564Y-96066623D01*
X207631751Y-96009913D01*
X207628076Y-95940140D01*
X207661043Y-95881091D01*
X209457223Y-94084911D01*
X209518544Y-94051428D01*
X209588236Y-94056412D01*
X209644169Y-94098284D01*
X209668586Y-94163748D01*
X209668902Y-94172594D01*
X209668902Y-94797971D01*
X209668903Y-94797977D01*
X209675310Y-94857584D01*
X209725604Y-94992429D01*
X209725608Y-94992436D01*
X209811854Y-95107645D01*
X209811857Y-95107648D01*
X209927066Y-95193894D01*
X209927073Y-95193898D01*
X210061919Y-95244192D01*
X210061918Y-95244192D01*
X210068846Y-95244936D01*
X210121529Y-95250601D01*
X211614274Y-95250600D01*
X211673885Y-95244192D01*
X211808733Y-95193897D01*
X211923948Y-95107647D01*
X212010198Y-94992432D01*
X212060493Y-94857584D01*
X212066902Y-94797974D01*
X212066901Y-93402249D01*
X212086586Y-93335211D01*
X212139389Y-93289456D01*
X212208548Y-93279512D01*
X212265212Y-93302984D01*
X212323065Y-93346293D01*
X212323072Y-93346297D01*
X212400431Y-93375150D01*
X212456365Y-93417021D01*
X212480782Y-93482485D01*
X212465931Y-93550758D01*
X212464485Y-93553332D01*
X212433609Y-93606810D01*
X212433609Y-93606811D01*
X212433608Y-93606813D01*
X212433608Y-93606814D01*
X212399500Y-93734108D01*
X212399500Y-94365892D01*
X212410989Y-94408771D01*
X212433608Y-94493187D01*
X212451207Y-94523668D01*
X212499500Y-94607314D01*
X212592686Y-94700500D01*
X212706814Y-94766392D01*
X212834108Y-94800500D01*
X212834110Y-94800500D01*
X214165890Y-94800500D01*
X214165892Y-94800500D01*
X214293186Y-94766392D01*
X214407314Y-94700500D01*
X214500500Y-94607314D01*
X214566392Y-94493186D01*
X214600500Y-94365892D01*
X214600500Y-93734108D01*
X214566392Y-93606814D01*
X214545070Y-93569883D01*
X214541858Y-93564319D01*
X214525385Y-93496419D01*
X214548237Y-93430392D01*
X214603159Y-93387201D01*
X214605913Y-93386137D01*
X214712727Y-93346298D01*
X214712727Y-93346297D01*
X214712732Y-93346296D01*
X214827947Y-93260046D01*
X214914197Y-93144831D01*
X214964492Y-93009983D01*
X214970901Y-92950373D01*
X214970900Y-90949628D01*
X214964492Y-90890017D01*
X214954930Y-90864381D01*
X214933676Y-90807396D01*
X214928430Y-90793332D01*
X214923447Y-90723642D01*
X214928431Y-90706667D01*
X214929880Y-90702783D01*
X214964492Y-90609983D01*
X214970901Y-90550373D01*
X214970900Y-88549628D01*
X214964492Y-88490017D01*
X214931167Y-88400669D01*
X214914198Y-88355171D01*
X214914194Y-88355164D01*
X214827948Y-88239955D01*
X214827945Y-88239952D01*
X214712736Y-88153706D01*
X214712729Y-88153702D01*
X214605912Y-88113862D01*
X214549978Y-88071991D01*
X214525561Y-88006526D01*
X214540413Y-87938253D01*
X214541837Y-87935716D01*
X214566392Y-87893186D01*
X214600500Y-87765892D01*
X214600500Y-87134108D01*
X214566392Y-87006814D01*
X214500500Y-86892686D01*
X214407314Y-86799500D01*
X214325328Y-86752165D01*
X214293187Y-86733608D01*
X214229539Y-86716554D01*
X214165892Y-86699500D01*
X212965892Y-86699500D01*
X212834108Y-86699500D01*
X212706812Y-86733608D01*
X212592686Y-86799500D01*
X212592683Y-86799502D01*
X212499502Y-86892683D01*
X212499500Y-86892686D01*
X212433608Y-87006812D01*
X212409225Y-87097812D01*
X212399500Y-87134108D01*
X212399500Y-87765892D01*
X212430025Y-87879815D01*
X212433609Y-87893188D01*
X212433609Y-87893189D01*
X212464485Y-87946667D01*
X212480958Y-88014567D01*
X212458106Y-88080594D01*
X212403185Y-88123784D01*
X212400432Y-88124849D01*
X212323071Y-88153703D01*
X212323066Y-88153706D01*
X212265211Y-88197016D01*
X212199747Y-88221433D01*
X212131474Y-88206581D01*
X212082069Y-88157176D01*
X212066901Y-88097752D01*
X212066901Y-86702027D01*
X212060493Y-86642416D01*
X212044859Y-86600500D01*
X212010199Y-86507570D01*
X212010195Y-86507563D01*
X211923949Y-86392354D01*
X211923946Y-86392351D01*
X211808737Y-86306105D01*
X211808730Y-86306101D01*
X211673884Y-86255807D01*
X211673885Y-86255807D01*
X211614285Y-86249400D01*
X211614283Y-86249399D01*
X211614275Y-86249399D01*
X211614266Y-86249399D01*
X210121531Y-86249399D01*
X210121525Y-86249400D01*
X210061918Y-86255807D01*
X209927073Y-86306101D01*
X209927066Y-86306105D01*
X209811857Y-86392351D01*
X209811854Y-86392354D01*
X209725608Y-86507563D01*
X209725604Y-86507570D01*
X209675310Y-86642416D01*
X209668903Y-86702015D01*
X209668903Y-86702022D01*
X209668902Y-86702034D01*
X209668902Y-88397969D01*
X209668903Y-88397975D01*
X209675310Y-88457582D01*
X209725604Y-88592427D01*
X209725606Y-88592430D01*
X209753286Y-88629406D01*
X209777703Y-88694871D01*
X209762851Y-88763144D01*
X209728331Y-88802983D01*
X209612610Y-88889612D01*
X209526450Y-89004706D01*
X209526446Y-89004713D01*
X209476204Y-89139420D01*
X209476202Y-89139427D01*
X209469801Y-89198955D01*
X209469801Y-89246800D01*
X209630367Y-89246800D01*
X209697406Y-89266485D01*
X209743161Y-89319289D01*
X209753105Y-89388447D01*
X209724080Y-89452003D01*
X209704679Y-89470066D01*
X209612255Y-89539255D01*
X209564152Y-89603512D01*
X209508218Y-89645382D01*
X209470882Y-89652118D01*
X209469801Y-89653200D01*
X209469801Y-89701044D01*
X209476076Y-89759398D01*
X209476077Y-89785909D01*
X209475710Y-89789316D01*
X209475710Y-89789318D01*
X209469301Y-89848928D01*
X209469301Y-89971537D01*
X209469302Y-90025499D01*
X209449618Y-90092539D01*
X209396814Y-90138294D01*
X209345302Y-90149500D01*
X208550097Y-90149500D01*
X208483058Y-90129815D01*
X208462416Y-90113181D01*
X208206516Y-89857281D01*
X208173031Y-89795958D01*
X208173992Y-89739159D01*
X208174061Y-89738884D01*
X208174063Y-89738881D01*
X208235108Y-89497821D01*
X208239057Y-89450162D01*
X208255643Y-89250005D01*
X208255643Y-89249994D01*
X208235109Y-89002187D01*
X208235107Y-89002175D01*
X208174063Y-88761118D01*
X208074173Y-88533393D01*
X207938166Y-88325217D01*
X207899641Y-88283368D01*
X207769744Y-88142262D01*
X207573509Y-87989526D01*
X207573507Y-87989525D01*
X207573506Y-87989524D01*
X207354811Y-87871172D01*
X207354802Y-87871169D01*
X207119616Y-87790429D01*
X206874335Y-87749500D01*
X206625665Y-87749500D01*
X206380383Y-87790429D01*
X206145197Y-87871169D01*
X206145188Y-87871172D01*
X205926493Y-87989524D01*
X205730257Y-88142261D01*
X205561833Y-88325217D01*
X205425826Y-88533393D01*
X205325936Y-88761118D01*
X205264892Y-89002177D01*
X205264839Y-89002821D01*
X205262111Y-89035740D01*
X205236959Y-89100924D01*
X205180557Y-89142162D01*
X205138535Y-89149500D01*
X204672621Y-89149500D01*
X204605582Y-89129815D01*
X204573667Y-89100227D01*
X204450979Y-88937761D01*
X204286562Y-88787876D01*
X204286560Y-88787874D01*
X204097404Y-88670754D01*
X204097398Y-88670752D01*
X203889940Y-88590382D01*
X203671243Y-88549500D01*
X203448757Y-88549500D01*
X203230060Y-88590382D01*
X203129328Y-88629406D01*
X203022601Y-88670752D01*
X203022595Y-88670754D01*
X202833439Y-88787874D01*
X202833437Y-88787876D01*
X202669020Y-88937761D01*
X202534943Y-89115308D01*
X202534938Y-89115316D01*
X202435775Y-89314461D01*
X202435769Y-89314476D01*
X202374885Y-89528462D01*
X202374884Y-89528464D01*
X202354357Y-89749999D01*
X202354357Y-89750000D01*
X202374884Y-89971535D01*
X202374885Y-89971537D01*
X202435769Y-90185523D01*
X202435775Y-90185538D01*
X202534938Y-90384683D01*
X202534943Y-90384691D01*
X202669020Y-90562238D01*
X202786219Y-90669078D01*
X202830637Y-90709571D01*
X202833437Y-90712123D01*
X202833439Y-90712125D01*
X203022595Y-90829245D01*
X203022596Y-90829245D01*
X203022599Y-90829247D01*
X203164898Y-90884374D01*
X203220298Y-90926946D01*
X203243889Y-90992713D01*
X203228178Y-91060793D01*
X203178154Y-91109572D01*
X203164906Y-91115622D01*
X203078936Y-91148928D01*
X203022601Y-91170752D01*
X203022595Y-91170754D01*
X202833439Y-91287874D01*
X202833437Y-91287876D01*
X202669020Y-91437761D01*
X202534943Y-91615308D01*
X202534936Y-91615320D01*
X202435774Y-91814465D01*
X202435771Y-91814472D01*
X202433251Y-91823329D01*
X202395968Y-91882421D01*
X202332657Y-91911975D01*
X202263418Y-91902609D01*
X202226305Y-91877070D01*
X197036916Y-86687681D01*
X197003431Y-86626358D01*
X197008415Y-86556666D01*
X197036916Y-86512319D01*
X197680144Y-85869092D01*
X198343417Y-85205819D01*
X198404740Y-85172334D01*
X198431098Y-85169500D01*
X200531001Y-85169500D01*
X200598040Y-85189185D01*
X200643795Y-85241989D01*
X200655001Y-85293500D01*
X200655001Y-85353476D01*
X200661408Y-85413083D01*
X200711702Y-85547928D01*
X200711706Y-85547935D01*
X200797952Y-85663144D01*
X200797955Y-85663147D01*
X200913164Y-85749393D01*
X200913171Y-85749397D01*
X201048017Y-85799691D01*
X201048016Y-85799691D01*
X201054944Y-85800435D01*
X201107627Y-85806100D01*
X201936501Y-85806099D01*
X202003540Y-85825783D01*
X202024182Y-85842418D01*
X202662284Y-86480520D01*
X202662286Y-86480521D01*
X202662290Y-86480524D01*
X202799209Y-86559573D01*
X202799212Y-86559575D01*
X202799216Y-86559577D01*
X202951943Y-86600501D01*
X202951945Y-86600501D01*
X203117654Y-86600501D01*
X203117670Y-86600500D01*
X207213331Y-86600500D01*
X207213347Y-86600501D01*
X207220943Y-86600501D01*
X207379054Y-86600501D01*
X207379057Y-86600501D01*
X207531785Y-86559577D01*
X207584647Y-86529057D01*
X207584648Y-86529057D01*
X207668709Y-86480524D01*
X207668708Y-86480524D01*
X207668716Y-86480520D01*
X207780520Y-86368716D01*
X207780520Y-86368714D01*
X207790724Y-86358511D01*
X207790727Y-86358506D01*
X214249520Y-79899716D01*
X214328577Y-79762784D01*
X214369501Y-79610057D01*
X214369501Y-79451942D01*
X214369501Y-79444347D01*
X214369500Y-79444329D01*
X214369500Y-66368999D01*
X214389185Y-66301960D01*
X214441989Y-66256205D01*
X214493500Y-66244999D01*
X214553471Y-66244999D01*
X214553472Y-66244999D01*
X214613083Y-66238591D01*
X214747931Y-66188296D01*
X214863146Y-66102046D01*
X214949396Y-65986831D01*
X214999691Y-65851983D01*
X215006100Y-65792373D01*
X215006099Y-64807628D01*
X214999851Y-64749502D01*
X214999691Y-64748016D01*
X214949397Y-64613171D01*
X214949393Y-64613164D01*
X214863147Y-64497955D01*
X214863144Y-64497952D01*
X214747935Y-64411706D01*
X214747928Y-64411702D01*
X214613082Y-64361408D01*
X214613083Y-64361408D01*
X214553483Y-64355001D01*
X214553481Y-64355000D01*
X214553473Y-64355000D01*
X214553464Y-64355000D01*
X212984529Y-64355000D01*
X212984523Y-64355001D01*
X212924916Y-64361408D01*
X212790071Y-64411702D01*
X212790064Y-64411706D01*
X212674855Y-64497952D01*
X212674852Y-64497955D01*
X212588606Y-64613164D01*
X212588602Y-64613171D01*
X212538308Y-64748017D01*
X212531901Y-64807616D01*
X212531901Y-64807623D01*
X212531900Y-64807635D01*
X212531900Y-65792370D01*
X212531901Y-65792376D01*
X212538308Y-65851983D01*
X212588602Y-65986828D01*
X212588606Y-65986835D01*
X212674852Y-66102044D01*
X212674855Y-66102047D01*
X212790064Y-66188293D01*
X212790071Y-66188297D01*
X212835018Y-66205061D01*
X212924917Y-66238591D01*
X212984527Y-66245000D01*
X213044500Y-66244999D01*
X213111538Y-66264683D01*
X213157294Y-66317486D01*
X213168500Y-66368999D01*
X213168500Y-79230901D01*
X213148815Y-79297940D01*
X213132181Y-79318582D01*
X207356680Y-85094083D01*
X207295357Y-85127568D01*
X207225665Y-85122584D01*
X207169732Y-85080712D01*
X207145315Y-85015248D01*
X207144999Y-85006402D01*
X207144999Y-84524597D01*
X207164684Y-84457558D01*
X207181318Y-84436916D01*
X208264932Y-83353302D01*
X209358506Y-82259728D01*
X209358511Y-82259724D01*
X209368714Y-82249520D01*
X209368716Y-82249520D01*
X209480520Y-82137716D01*
X209551095Y-82015476D01*
X209551096Y-82015475D01*
X209554537Y-82009513D01*
X209559577Y-82000785D01*
X209600501Y-81848057D01*
X209600501Y-81689943D01*
X209600501Y-81682348D01*
X209600500Y-81682330D01*
X209600500Y-70110945D01*
X209600500Y-70110943D01*
X209559577Y-69958216D01*
X209559573Y-69958209D01*
X209480524Y-69821290D01*
X209480521Y-69821286D01*
X209480520Y-69821284D01*
X209368716Y-69709480D01*
X209368715Y-69709479D01*
X209364385Y-69705149D01*
X209364374Y-69705139D01*
X208711314Y-69052079D01*
X208677829Y-68990756D01*
X208679730Y-68930460D01*
X208685115Y-68911536D01*
X208705643Y-68690000D01*
X208685115Y-68468464D01*
X208679729Y-68449534D01*
X208680315Y-68379669D01*
X208711312Y-68327921D01*
X209580520Y-67458716D01*
X209659577Y-67321784D01*
X209700501Y-67169057D01*
X209700501Y-67010942D01*
X209700501Y-67003347D01*
X209700500Y-67003329D01*
X209700500Y-63492344D01*
X212532400Y-63492344D01*
X212538801Y-63551872D01*
X212538803Y-63551879D01*
X212589045Y-63686586D01*
X212589049Y-63686593D01*
X212675209Y-63801687D01*
X212675212Y-63801690D01*
X212790306Y-63887850D01*
X212790313Y-63887854D01*
X212925020Y-63938096D01*
X212925027Y-63938098D01*
X212984555Y-63944499D01*
X212984572Y-63944500D01*
X213519000Y-63944500D01*
X214019000Y-63944500D01*
X214553428Y-63944500D01*
X214553444Y-63944499D01*
X214612972Y-63938098D01*
X214612979Y-63938096D01*
X214747686Y-63887854D01*
X214747693Y-63887850D01*
X214862787Y-63801690D01*
X214862790Y-63801687D01*
X214948950Y-63686593D01*
X214948954Y-63686586D01*
X214999196Y-63551879D01*
X214999198Y-63551872D01*
X215005599Y-63492344D01*
X215005600Y-63492327D01*
X215005600Y-63250000D01*
X214019000Y-63250000D01*
X214019000Y-63944500D01*
X213519000Y-63944500D01*
X213519000Y-63250000D01*
X212532400Y-63250000D01*
X212532400Y-63492344D01*
X209700500Y-63492344D01*
X209700500Y-62507655D01*
X212532400Y-62507655D01*
X212532400Y-62750000D01*
X213519000Y-62750000D01*
X214019000Y-62750000D01*
X215005600Y-62750000D01*
X215005600Y-62507672D01*
X215005599Y-62507655D01*
X214999198Y-62448127D01*
X214999196Y-62448120D01*
X214948954Y-62313413D01*
X214948950Y-62313406D01*
X214862790Y-62198312D01*
X214862787Y-62198309D01*
X214747693Y-62112149D01*
X214747686Y-62112145D01*
X214612979Y-62061903D01*
X214612972Y-62061901D01*
X214553444Y-62055500D01*
X214019000Y-62055500D01*
X214019000Y-62750000D01*
X213519000Y-62750000D01*
X213519000Y-62055500D01*
X212984555Y-62055500D01*
X212925027Y-62061901D01*
X212925020Y-62061903D01*
X212790313Y-62112145D01*
X212790306Y-62112149D01*
X212675212Y-62198309D01*
X212675209Y-62198312D01*
X212589049Y-62313406D01*
X212589045Y-62313413D01*
X212538803Y-62448120D01*
X212538801Y-62448127D01*
X212532400Y-62507655D01*
X209700500Y-62507655D01*
X209700500Y-60700000D01*
X210644815Y-60700000D01*
X210663503Y-60877805D01*
X210663504Y-60877807D01*
X210718747Y-61047829D01*
X210718750Y-61047835D01*
X210808141Y-61202665D01*
X210819435Y-61215208D01*
X210927764Y-61335521D01*
X210927767Y-61335523D01*
X210927770Y-61335526D01*
X211072407Y-61440612D01*
X211235733Y-61513329D01*
X211410609Y-61550500D01*
X211410610Y-61550500D01*
X211589389Y-61550500D01*
X211589391Y-61550500D01*
X211764267Y-61513329D01*
X211927593Y-61440612D01*
X212072230Y-61335526D01*
X212072238Y-61335517D01*
X212075755Y-61332351D01*
X212138747Y-61302121D01*
X212158729Y-61300500D01*
X212470309Y-61300500D01*
X212537348Y-61320185D01*
X212583103Y-61372989D01*
X212586491Y-61381167D01*
X212588602Y-61386828D01*
X212588606Y-61386835D01*
X212674852Y-61502044D01*
X212674855Y-61502047D01*
X212790064Y-61588293D01*
X212790071Y-61588297D01*
X212924917Y-61638591D01*
X212924916Y-61638591D01*
X212931844Y-61639335D01*
X212984527Y-61645000D01*
X214553472Y-61644999D01*
X214613083Y-61638591D01*
X214747931Y-61588296D01*
X214863146Y-61502046D01*
X214949396Y-61386831D01*
X214999691Y-61251983D01*
X215006100Y-61192373D01*
X215006099Y-60207628D01*
X214999691Y-60148017D01*
X214981595Y-60099500D01*
X214949397Y-60013171D01*
X214949393Y-60013164D01*
X214863147Y-59897955D01*
X214863144Y-59897952D01*
X214747935Y-59811706D01*
X214747928Y-59811702D01*
X214613082Y-59761408D01*
X214613083Y-59761408D01*
X214553483Y-59755001D01*
X214553481Y-59755000D01*
X214553473Y-59755000D01*
X214553464Y-59755000D01*
X212984529Y-59755000D01*
X212984523Y-59755001D01*
X212924916Y-59761408D01*
X212790071Y-59811702D01*
X212790064Y-59811706D01*
X212674855Y-59897952D01*
X212674852Y-59897955D01*
X212588606Y-60013164D01*
X212588602Y-60013171D01*
X212586491Y-60018833D01*
X212544620Y-60074767D01*
X212479155Y-60099184D01*
X212470309Y-60099500D01*
X212158729Y-60099500D01*
X212091690Y-60079815D01*
X212075755Y-60067649D01*
X212072233Y-60064477D01*
X212072230Y-60064474D01*
X211927593Y-59959388D01*
X211764267Y-59886671D01*
X211764265Y-59886670D01*
X211636594Y-59859533D01*
X211589391Y-59849500D01*
X211410609Y-59849500D01*
X211379954Y-59856015D01*
X211235733Y-59886670D01*
X211235728Y-59886672D01*
X211072408Y-59959387D01*
X210927768Y-60064475D01*
X210808140Y-60197336D01*
X210718750Y-60352164D01*
X210718747Y-60352170D01*
X210663504Y-60522192D01*
X210663503Y-60522194D01*
X210644815Y-60700000D01*
X209700500Y-60700000D01*
X209700500Y-59639060D01*
X209700501Y-59639047D01*
X209700501Y-59470944D01*
X209695645Y-59452821D01*
X209659577Y-59318216D01*
X209606337Y-59226000D01*
X209580524Y-59181290D01*
X209580518Y-59181282D01*
X209191946Y-58792710D01*
X208760096Y-58360861D01*
X208726612Y-58299539D01*
X208724420Y-58260577D01*
X208725500Y-58250009D01*
X208725499Y-57649992D01*
X208714999Y-57547203D01*
X208659814Y-57380666D01*
X208567712Y-57231344D01*
X208443656Y-57107288D01*
X208440342Y-57105243D01*
X208438546Y-57103248D01*
X208437989Y-57102807D01*
X208438064Y-57102711D01*
X208393618Y-57053297D01*
X208382397Y-56984334D01*
X208410240Y-56920252D01*
X208440348Y-56894165D01*
X208443342Y-56892318D01*
X208567315Y-56768345D01*
X208659356Y-56619124D01*
X208659358Y-56619119D01*
X208714505Y-56452697D01*
X208714506Y-56452690D01*
X208724999Y-56349986D01*
X208725000Y-56349973D01*
X208725000Y-56300000D01*
X206250000Y-56300000D01*
X206250000Y-56896000D01*
X206230315Y-56963039D01*
X206177511Y-57008794D01*
X206126000Y-57020000D01*
X206000000Y-57020000D01*
X206000000Y-57075500D01*
X205980315Y-57142539D01*
X205927511Y-57188294D01*
X205876000Y-57199500D01*
X205765302Y-57199500D01*
X205729008Y-57202356D01*
X205729002Y-57202357D01*
X205573610Y-57247503D01*
X205573605Y-57247506D01*
X205564766Y-57252732D01*
X205501648Y-57270000D01*
X205195495Y-57270000D01*
X205181037Y-57289255D01*
X205181033Y-57290774D01*
X205143091Y-57349444D01*
X205079453Y-57378288D01*
X205062156Y-57379500D01*
X204233201Y-57379500D01*
X204166162Y-57359815D01*
X204160334Y-57355831D01*
X204027593Y-57259388D01*
X203864267Y-57186671D01*
X203864265Y-57186670D01*
X203736594Y-57159533D01*
X203689391Y-57149500D01*
X203510609Y-57149500D01*
X203479954Y-57156015D01*
X203335733Y-57186670D01*
X203335728Y-57186672D01*
X203172408Y-57259387D01*
X203027768Y-57364475D01*
X202908140Y-57497336D01*
X202818750Y-57652164D01*
X202818747Y-57652170D01*
X202763504Y-57822192D01*
X202763503Y-57822194D01*
X202744815Y-58000000D01*
X202763503Y-58177805D01*
X202763504Y-58177807D01*
X202818747Y-58347829D01*
X202818750Y-58347835D01*
X202908141Y-58502665D01*
X202949812Y-58548946D01*
X203027764Y-58635521D01*
X203027767Y-58635523D01*
X203027770Y-58635526D01*
X203172407Y-58740612D01*
X203335733Y-58813329D01*
X203510609Y-58850500D01*
X203510610Y-58850500D01*
X203689389Y-58850500D01*
X203689391Y-58850500D01*
X203864267Y-58813329D01*
X204027593Y-58740612D01*
X204172230Y-58635526D01*
X204184835Y-58621527D01*
X204244321Y-58584879D01*
X204276984Y-58580500D01*
X205333333Y-58580500D01*
X205400372Y-58600185D01*
X205421014Y-58616819D01*
X205434307Y-58630112D01*
X205434311Y-58630115D01*
X205434313Y-58630117D01*
X205573605Y-58712494D01*
X205602931Y-58721014D01*
X205729002Y-58757642D01*
X205729005Y-58757642D01*
X205729007Y-58757643D01*
X205765310Y-58760500D01*
X205765318Y-58760500D01*
X206234682Y-58760500D01*
X206234690Y-58760500D01*
X206270993Y-58757643D01*
X206394511Y-58721757D01*
X206464376Y-58721956D01*
X206516784Y-58753152D01*
X206556344Y-58792712D01*
X206705666Y-58884814D01*
X206872203Y-58939999D01*
X206974991Y-58950500D01*
X207599901Y-58950499D01*
X207666940Y-58970183D01*
X207687582Y-58986818D01*
X208463181Y-59762416D01*
X208496666Y-59823739D01*
X208499500Y-59850097D01*
X208499500Y-60952507D01*
X208479815Y-61019546D01*
X208427011Y-61065301D01*
X208357853Y-61075245D01*
X208294298Y-61046220D01*
X208240899Y-60999950D01*
X208240897Y-60999948D01*
X208240894Y-60999946D01*
X208240890Y-60999944D01*
X208110019Y-60940176D01*
X208110014Y-60940175D01*
X207967600Y-60919700D01*
X206494400Y-60919700D01*
X206494397Y-60919700D01*
X206422459Y-60924844D01*
X206284405Y-60965382D01*
X206163369Y-61043167D01*
X206163365Y-61043171D01*
X206069150Y-61151900D01*
X206069144Y-61151909D01*
X206009376Y-61282780D01*
X206009375Y-61282785D01*
X205988900Y-61425199D01*
X205988900Y-64574802D01*
X205994044Y-64646740D01*
X206034582Y-64784794D01*
X206112367Y-64905830D01*
X206112371Y-64905834D01*
X206171205Y-64956814D01*
X206221106Y-65000054D01*
X206261574Y-65018535D01*
X206351980Y-65059823D01*
X206351983Y-65059823D01*
X206351984Y-65059824D01*
X206494400Y-65080300D01*
X206494403Y-65080300D01*
X207967600Y-65080300D01*
X208039540Y-65075155D01*
X208177592Y-65034619D01*
X208298632Y-64956831D01*
X208298631Y-64956831D01*
X208306092Y-64952037D01*
X208307664Y-64954483D01*
X208357850Y-64931563D01*
X208427008Y-64941504D01*
X208479814Y-64987258D01*
X208499500Y-65054297D01*
X208499500Y-66789901D01*
X208479815Y-66856940D01*
X208463181Y-66877582D01*
X207859679Y-67481083D01*
X207798356Y-67514568D01*
X207749213Y-67515290D01*
X207611243Y-67489500D01*
X207388757Y-67489500D01*
X207170060Y-67530382D01*
X207038864Y-67581207D01*
X206962601Y-67610752D01*
X206962595Y-67610754D01*
X206773439Y-67727874D01*
X206773437Y-67727876D01*
X206609020Y-67877761D01*
X206474943Y-68055308D01*
X206474938Y-68055316D01*
X206375775Y-68254461D01*
X206375769Y-68254476D01*
X206314885Y-68468462D01*
X206314884Y-68468464D01*
X206294357Y-68689999D01*
X206294357Y-68690000D01*
X206314884Y-68911535D01*
X206314885Y-68911537D01*
X206375769Y-69125523D01*
X206375775Y-69125538D01*
X206474938Y-69324683D01*
X206474943Y-69324691D01*
X206609020Y-69502238D01*
X206773437Y-69652123D01*
X206773439Y-69652125D01*
X206962595Y-69769245D01*
X206962596Y-69769245D01*
X206962599Y-69769247D01*
X207170060Y-69849618D01*
X207388757Y-69890500D01*
X207388759Y-69890500D01*
X207611241Y-69890500D01*
X207611243Y-69890500D01*
X207749215Y-69864708D01*
X207818730Y-69871739D01*
X207859681Y-69898916D01*
X208363181Y-70402416D01*
X208396666Y-70463739D01*
X208399500Y-70490097D01*
X208399500Y-75232331D01*
X208379815Y-75299370D01*
X208327011Y-75345125D01*
X208257853Y-75355069D01*
X208210223Y-75337758D01*
X208053733Y-75240865D01*
X208037401Y-75230753D01*
X207829940Y-75150382D01*
X207611243Y-75109500D01*
X207388757Y-75109500D01*
X207170060Y-75150382D01*
X207038864Y-75201207D01*
X206962601Y-75230752D01*
X206962595Y-75230754D01*
X206773439Y-75347874D01*
X206773437Y-75347876D01*
X206609020Y-75497761D01*
X206486333Y-75660227D01*
X206430224Y-75701863D01*
X206387379Y-75709500D01*
X202424742Y-75709500D01*
X202357703Y-75689815D01*
X202311948Y-75637011D01*
X202302004Y-75567853D01*
X202328888Y-75506836D01*
X202376427Y-75448908D01*
X202427685Y-75386450D01*
X202525232Y-75203954D01*
X202585300Y-75005934D01*
X202605583Y-74800000D01*
X202585300Y-74594066D01*
X202529614Y-74410494D01*
X202528992Y-74340628D01*
X202566241Y-74281515D01*
X202629535Y-74251924D01*
X202648276Y-74250500D01*
X205285890Y-74250500D01*
X205285892Y-74250500D01*
X205413186Y-74216392D01*
X205527314Y-74150500D01*
X205620500Y-74057314D01*
X205686392Y-73943186D01*
X205720500Y-73815892D01*
X205720500Y-65084108D01*
X205686392Y-64956814D01*
X205620500Y-64842686D01*
X205527314Y-64749500D01*
X205470250Y-64716554D01*
X205413187Y-64683608D01*
X205349539Y-64666554D01*
X205285892Y-64649500D01*
X205285891Y-64649500D01*
X203614500Y-64649500D01*
X203547461Y-64629815D01*
X203501706Y-64577011D01*
X203490500Y-64525500D01*
X203490499Y-63502129D01*
X203490498Y-63502123D01*
X203484091Y-63442516D01*
X203433797Y-63307671D01*
X203433793Y-63307664D01*
X203347547Y-63192455D01*
X203347544Y-63192452D01*
X203232335Y-63106206D01*
X203232328Y-63106202D01*
X203097482Y-63055908D01*
X203097483Y-63055908D01*
X203037883Y-63049501D01*
X203037881Y-63049500D01*
X203037873Y-63049500D01*
X203037864Y-63049500D01*
X201842129Y-63049500D01*
X201842123Y-63049501D01*
X201782516Y-63055908D01*
X201647671Y-63106202D01*
X201647664Y-63106206D01*
X201532455Y-63192452D01*
X201532453Y-63192454D01*
X201487466Y-63252548D01*
X201431532Y-63294418D01*
X201361840Y-63299401D01*
X201309536Y-63274088D01*
X201246453Y-63222317D01*
X201246451Y-63222316D01*
X201246450Y-63222315D01*
X201063954Y-63124768D01*
X200865934Y-63064700D01*
X200865932Y-63064699D01*
X200865934Y-63064699D01*
X200660000Y-63044417D01*
X200454067Y-63064699D01*
X200317244Y-63106204D01*
X200256050Y-63124767D01*
X200256043Y-63124769D01*
X200193127Y-63158399D01*
X200073550Y-63222315D01*
X200073548Y-63222316D01*
X200073547Y-63222317D01*
X199913591Y-63353588D01*
X199865852Y-63411758D01*
X199808105Y-63451092D01*
X199738261Y-63452961D01*
X199678493Y-63416774D01*
X199674166Y-63411781D01*
X199628644Y-63356313D01*
X199601334Y-63292005D01*
X199600500Y-63277651D01*
X199600500Y-61440004D01*
X199620185Y-61372965D01*
X199659403Y-61334465D01*
X199678044Y-61322968D01*
X199687668Y-61313343D01*
X199748987Y-61279856D01*
X199818679Y-61284835D01*
X199863034Y-61313339D01*
X199872267Y-61322572D01*
X199872271Y-61322575D01*
X200016507Y-61411542D01*
X200016518Y-61411547D01*
X200177393Y-61464855D01*
X200276683Y-61474999D01*
X200800000Y-61474999D01*
X200823308Y-61474999D01*
X200823322Y-61474998D01*
X200922607Y-61464855D01*
X201083481Y-61411547D01*
X201083492Y-61411542D01*
X201227728Y-61322575D01*
X201227732Y-61322572D01*
X201347572Y-61202732D01*
X201347575Y-61202728D01*
X201436542Y-61058492D01*
X201436547Y-61058481D01*
X201489855Y-60897606D01*
X201499999Y-60798322D01*
X201500000Y-60798309D01*
X201500000Y-60750000D01*
X200800000Y-60750000D01*
X200800000Y-61474999D01*
X200276683Y-61474999D01*
X200300000Y-61474998D01*
X200300000Y-60624000D01*
X200319685Y-60556961D01*
X200372489Y-60511206D01*
X200424000Y-60500000D01*
X200550000Y-60500000D01*
X200550000Y-60374000D01*
X200569685Y-60306961D01*
X200622489Y-60261206D01*
X200674000Y-60250000D01*
X201499999Y-60250000D01*
X201499999Y-60201692D01*
X201499998Y-60201677D01*
X201489855Y-60102392D01*
X201436547Y-59941518D01*
X201436542Y-59941507D01*
X201347575Y-59797271D01*
X201347572Y-59797267D01*
X201227732Y-59677427D01*
X201227728Y-59677424D01*
X201083492Y-59588457D01*
X201083481Y-59588452D01*
X200922602Y-59535143D01*
X200922605Y-59535143D01*
X200856027Y-59528341D01*
X200814486Y-59548351D01*
X200794328Y-59550000D01*
X200079000Y-59550000D01*
X200011961Y-59530315D01*
X199966206Y-59477511D01*
X199955000Y-59426000D01*
X199955000Y-59300000D01*
X199899500Y-59300000D01*
X199832461Y-59280315D01*
X199786706Y-59227511D01*
X199775500Y-59176000D01*
X199775500Y-59065317D01*
X199775499Y-59065302D01*
X199772643Y-59029008D01*
X199772642Y-59029002D01*
X199727495Y-58873608D01*
X199727492Y-58873600D01*
X199722266Y-58864763D01*
X199705000Y-58801645D01*
X199705000Y-58495494D01*
X200205000Y-58495494D01*
X200205000Y-59050000D01*
X200733790Y-59050000D01*
X200732145Y-59029089D01*
X200687031Y-58873804D01*
X200604721Y-58734625D01*
X200604714Y-58734616D01*
X200490383Y-58620285D01*
X200490374Y-58620278D01*
X200351193Y-58537967D01*
X200351190Y-58537965D01*
X200205001Y-58495493D01*
X200205000Y-58495494D01*
X199705000Y-58495494D01*
X199685738Y-58481032D01*
X199684219Y-58481028D01*
X199625551Y-58443082D01*
X199596711Y-58379442D01*
X199595500Y-58362153D01*
X199595500Y-57805096D01*
X199615185Y-57738057D01*
X199631814Y-57717420D01*
X200579233Y-56770000D01*
X205195496Y-56770000D01*
X205750000Y-56770000D01*
X205750000Y-56241210D01*
X205749999Y-56241209D01*
X205729087Y-56242854D01*
X205729081Y-56242855D01*
X205573809Y-56287966D01*
X205573804Y-56287968D01*
X205434625Y-56370278D01*
X205434616Y-56370285D01*
X205320285Y-56484616D01*
X205320278Y-56484625D01*
X205237968Y-56623804D01*
X205195496Y-56770000D01*
X200579233Y-56770000D01*
X200858506Y-56490727D01*
X200858511Y-56490724D01*
X200868714Y-56480520D01*
X200868716Y-56480520D01*
X200980520Y-56368716D01*
X201059577Y-56231784D01*
X201100500Y-56079057D01*
X201100500Y-55750013D01*
X206275000Y-55750013D01*
X206275000Y-55800000D01*
X207250000Y-55800000D01*
X207750000Y-55800000D01*
X208724999Y-55800000D01*
X208724999Y-55750028D01*
X208724998Y-55750013D01*
X208714505Y-55647302D01*
X208659358Y-55480880D01*
X208659356Y-55480875D01*
X208567315Y-55331654D01*
X208443345Y-55207684D01*
X208294124Y-55115643D01*
X208294119Y-55115641D01*
X208127697Y-55060494D01*
X208127690Y-55060493D01*
X208024986Y-55050000D01*
X207750000Y-55050000D01*
X207750000Y-55800000D01*
X207250000Y-55800000D01*
X207250000Y-55050000D01*
X206975029Y-55050000D01*
X206975012Y-55050001D01*
X206872302Y-55060494D01*
X206705880Y-55115641D01*
X206705875Y-55115643D01*
X206556654Y-55207684D01*
X206432684Y-55331654D01*
X206340643Y-55480875D01*
X206340641Y-55480880D01*
X206285494Y-55647302D01*
X206285493Y-55647309D01*
X206275000Y-55750013D01*
X201100500Y-55750013D01*
X201100500Y-55455048D01*
X201120185Y-55388009D01*
X201165481Y-55345993D01*
X201323509Y-55260474D01*
X201519744Y-55107738D01*
X201688164Y-54924785D01*
X201824173Y-54716607D01*
X201924063Y-54488881D01*
X201985108Y-54247821D01*
X202003074Y-54031005D01*
X202005643Y-54000005D01*
X202005643Y-53999994D01*
X201985109Y-53752187D01*
X201985107Y-53752175D01*
X201924063Y-53511118D01*
X201824173Y-53283393D01*
X201688166Y-53075217D01*
X201548281Y-52923262D01*
X201519744Y-52892262D01*
X201323509Y-52739526D01*
X201323507Y-52739525D01*
X201323506Y-52739524D01*
X201104811Y-52621172D01*
X201104802Y-52621169D01*
X200869616Y-52540429D01*
X200624335Y-52499500D01*
X200375665Y-52499500D01*
X200130383Y-52540429D01*
X199895197Y-52621169D01*
X199895188Y-52621172D01*
X199676493Y-52739524D01*
X199480257Y-52892261D01*
X199311833Y-53075217D01*
X199175826Y-53283393D01*
X199075936Y-53511118D01*
X199014892Y-53752175D01*
X199014890Y-53752187D01*
X198994357Y-53999994D01*
X198994357Y-54000005D01*
X199014890Y-54247812D01*
X199014892Y-54247824D01*
X199075936Y-54488881D01*
X199175826Y-54716606D01*
X199311833Y-54924782D01*
X199311836Y-54924785D01*
X199480256Y-55107738D01*
X199676491Y-55260474D01*
X199676494Y-55260476D01*
X199676496Y-55260477D01*
X199742609Y-55296255D01*
X199834517Y-55345993D01*
X199884108Y-55395212D01*
X199899500Y-55455048D01*
X199899500Y-55699902D01*
X199879815Y-55766941D01*
X199863181Y-55787583D01*
X198514481Y-57136282D01*
X198514479Y-57136285D01*
X198477984Y-57199498D01*
X198477983Y-57199500D01*
X198435423Y-57273214D01*
X198431125Y-57289255D01*
X198394499Y-57425943D01*
X198394499Y-57425945D01*
X198394499Y-57594046D01*
X198394500Y-57594059D01*
X198394500Y-58633333D01*
X198374815Y-58700372D01*
X198358181Y-58721014D01*
X198344887Y-58734307D01*
X198344881Y-58734315D01*
X198262505Y-58873606D01*
X198262504Y-58873609D01*
X198217357Y-59029002D01*
X198217356Y-59029008D01*
X198214500Y-59065302D01*
X198214500Y-59528769D01*
X198194815Y-59595808D01*
X198142011Y-59641563D01*
X198072853Y-59651507D01*
X198009297Y-59622482D01*
X198002819Y-59616450D01*
X197964409Y-59578040D01*
X197930924Y-59516717D01*
X197933013Y-59455765D01*
X197957643Y-59370993D01*
X197960500Y-59334690D01*
X197960500Y-58865310D01*
X197957643Y-58829007D01*
X197947098Y-58792712D01*
X197912495Y-58673609D01*
X197912494Y-58673606D01*
X197912494Y-58673605D01*
X197830117Y-58534313D01*
X197830115Y-58534311D01*
X197830112Y-58534307D01*
X197736819Y-58441014D01*
X197703334Y-58379691D01*
X197700500Y-58353333D01*
X197700500Y-55486048D01*
X197720185Y-55419009D01*
X197765481Y-55376993D01*
X197923509Y-55291474D01*
X198119744Y-55138738D01*
X198288164Y-54955785D01*
X198424173Y-54747607D01*
X198524063Y-54519881D01*
X198585108Y-54278821D01*
X198585109Y-54278812D01*
X198605643Y-54031005D01*
X198605643Y-54030994D01*
X198585109Y-53783187D01*
X198585107Y-53783175D01*
X198524063Y-53542118D01*
X198424173Y-53314393D01*
X198288166Y-53106217D01*
X198259628Y-53075217D01*
X198119744Y-52923262D01*
X197923509Y-52770526D01*
X197923507Y-52770525D01*
X197923506Y-52770524D01*
X197704811Y-52652172D01*
X197704802Y-52652169D01*
X197469616Y-52571429D01*
X197224335Y-52530500D01*
X196975665Y-52530500D01*
X196730383Y-52571429D01*
X196495197Y-52652169D01*
X196495188Y-52652172D01*
X196276493Y-52770524D01*
X196080257Y-52923261D01*
X195911833Y-53106217D01*
X195775826Y-53314393D01*
X195675936Y-53542118D01*
X195614892Y-53783175D01*
X195614890Y-53783187D01*
X195594357Y-54030994D01*
X195594357Y-54031005D01*
X195614890Y-54278812D01*
X195614892Y-54278824D01*
X195675936Y-54519881D01*
X195775826Y-54747606D01*
X195911833Y-54955782D01*
X195911836Y-54955785D01*
X196080256Y-55138738D01*
X196276491Y-55291474D01*
X196276494Y-55291476D01*
X196276496Y-55291477D01*
X196342609Y-55327255D01*
X196434517Y-55376993D01*
X196484108Y-55426212D01*
X196499500Y-55486048D01*
X196499500Y-58211385D01*
X196479815Y-58278424D01*
X196470000Y-58288981D01*
X196470000Y-58601645D01*
X196452734Y-58664763D01*
X196447507Y-58673600D01*
X196447504Y-58673608D01*
X196402357Y-58829002D01*
X196402356Y-58829008D01*
X196399500Y-58865302D01*
X196399500Y-58976000D01*
X196379815Y-59043039D01*
X196327011Y-59088794D01*
X196275500Y-59100000D01*
X196220000Y-59100000D01*
X196220000Y-59226000D01*
X196200315Y-59293039D01*
X196147511Y-59338794D01*
X196096000Y-59350000D01*
X195550000Y-59350000D01*
X195550000Y-61824999D01*
X195599972Y-61824999D01*
X195599986Y-61824998D01*
X195702697Y-61814505D01*
X195869119Y-61759358D01*
X195869124Y-61759356D01*
X196018345Y-61667315D01*
X196142318Y-61543342D01*
X196144165Y-61540348D01*
X196145969Y-61538724D01*
X196146798Y-61537677D01*
X196146976Y-61537818D01*
X196196110Y-61493621D01*
X196265073Y-61482396D01*
X196329156Y-61510236D01*
X196355243Y-61540341D01*
X196357288Y-61543656D01*
X196481344Y-61667712D01*
X196540596Y-61704258D01*
X196587321Y-61756204D01*
X196599500Y-61809797D01*
X196599500Y-63102051D01*
X196579815Y-63169090D01*
X196533955Y-63211408D01*
X196513548Y-63222315D01*
X196353589Y-63353590D01*
X196305853Y-63411757D01*
X196248108Y-63451091D01*
X196178263Y-63452962D01*
X196118495Y-63416774D01*
X196114147Y-63411757D01*
X196066410Y-63353590D01*
X195991368Y-63292005D01*
X195906450Y-63222315D01*
X195723954Y-63124768D01*
X195525934Y-63064700D01*
X195525932Y-63064699D01*
X195525934Y-63064699D01*
X195338463Y-63046235D01*
X195320000Y-63044417D01*
X195319999Y-63044417D01*
X195156380Y-63060532D01*
X195087734Y-63047513D01*
X195056545Y-63024810D01*
X193600090Y-61568355D01*
X193600088Y-61568352D01*
X193481217Y-61449481D01*
X193481216Y-61449480D01*
X193394404Y-61399360D01*
X193394404Y-61399359D01*
X193394400Y-61399358D01*
X193344285Y-61370423D01*
X193191557Y-61329499D01*
X193033443Y-61329499D01*
X193025847Y-61329499D01*
X193025831Y-61329500D01*
X192937844Y-61329500D01*
X192870805Y-61309815D01*
X192825050Y-61257011D01*
X192823334Y-61245078D01*
X192804505Y-61220000D01*
X192498352Y-61220000D01*
X192435233Y-61202732D01*
X192426395Y-61197506D01*
X192426393Y-61197505D01*
X192426389Y-61197503D01*
X192270997Y-61152357D01*
X192270991Y-61152356D01*
X192234697Y-61149500D01*
X192234690Y-61149500D01*
X192124000Y-61149500D01*
X192056961Y-61129815D01*
X192052777Y-61124986D01*
X194300001Y-61124986D01*
X194310494Y-61227697D01*
X194365641Y-61394119D01*
X194365643Y-61394124D01*
X194457684Y-61543345D01*
X194581654Y-61667315D01*
X194730875Y-61759356D01*
X194730880Y-61759358D01*
X194897302Y-61814505D01*
X194897309Y-61814506D01*
X195000019Y-61824999D01*
X195049999Y-61824998D01*
X195050000Y-61824998D01*
X195050000Y-60850000D01*
X194300001Y-60850000D01*
X194300001Y-61124986D01*
X192052777Y-61124986D01*
X192011206Y-61077011D01*
X192000000Y-61025500D01*
X192000000Y-60970000D01*
X191874000Y-60970000D01*
X191806961Y-60950315D01*
X191761206Y-60897511D01*
X191750000Y-60846000D01*
X191750000Y-60720000D01*
X192250000Y-60720000D01*
X192804504Y-60720000D01*
X192762031Y-60573804D01*
X192679721Y-60434625D01*
X192679714Y-60434616D01*
X192565383Y-60320285D01*
X192565374Y-60320278D01*
X192426195Y-60237968D01*
X192426190Y-60237966D01*
X192270918Y-60192855D01*
X192270912Y-60192854D01*
X192250000Y-60191209D01*
X192250000Y-60720000D01*
X191750000Y-60720000D01*
X191750000Y-60250000D01*
X189275001Y-60250000D01*
X189275001Y-60299986D01*
X189285494Y-60402697D01*
X189340641Y-60569119D01*
X189340643Y-60569124D01*
X189432684Y-60718345D01*
X189556655Y-60842316D01*
X189556659Y-60842319D01*
X189559656Y-60844168D01*
X189561279Y-60845972D01*
X189562323Y-60846798D01*
X189562181Y-60846976D01*
X189606381Y-60896116D01*
X189617602Y-60965079D01*
X189589759Y-61029161D01*
X189559661Y-61055241D01*
X189556349Y-61057283D01*
X189556343Y-61057288D01*
X189432289Y-61181342D01*
X189425491Y-61192364D01*
X189403698Y-61227697D01*
X189395741Y-61240597D01*
X189343793Y-61287321D01*
X189290202Y-61299500D01*
X189086669Y-61299500D01*
X189086653Y-61299499D01*
X189079057Y-61299499D01*
X188920943Y-61299499D01*
X188808983Y-61329499D01*
X188768214Y-61340423D01*
X188745981Y-61353260D01*
X188745980Y-61353260D01*
X188631287Y-61419477D01*
X188631282Y-61419481D01*
X188519478Y-61531286D01*
X184603548Y-65447215D01*
X184542225Y-65480700D01*
X184475604Y-65476815D01*
X184369616Y-65440429D01*
X184124335Y-65399500D01*
X183875665Y-65399500D01*
X183630383Y-65440429D01*
X183395197Y-65521169D01*
X183395188Y-65521172D01*
X183176493Y-65639524D01*
X182980257Y-65792261D01*
X182811833Y-65975217D01*
X182675826Y-66183393D01*
X182575936Y-66411118D01*
X182514892Y-66652175D01*
X182514890Y-66652187D01*
X182494357Y-66899994D01*
X182494357Y-66900005D01*
X182514890Y-67147812D01*
X182514892Y-67147824D01*
X182575936Y-67388881D01*
X182675826Y-67616606D01*
X182811833Y-67824782D01*
X182811836Y-67824785D01*
X182980256Y-68007738D01*
X183176491Y-68160474D01*
X183176494Y-68160476D01*
X183176496Y-68160477D01*
X183202930Y-68174782D01*
X183334517Y-68245993D01*
X183384108Y-68295212D01*
X183399500Y-68355048D01*
X183399500Y-72188306D01*
X183379815Y-72255345D01*
X183346623Y-72289881D01*
X183160859Y-72419953D01*
X182999954Y-72580858D01*
X182869432Y-72767265D01*
X182869431Y-72767267D01*
X182773261Y-72973502D01*
X182773258Y-72973511D01*
X182714366Y-73193302D01*
X182714364Y-73193313D01*
X182694532Y-73419998D01*
X182694532Y-73420001D01*
X182714364Y-73646686D01*
X182714366Y-73646697D01*
X182773258Y-73866488D01*
X182773261Y-73866497D01*
X182869431Y-74072732D01*
X182869432Y-74072734D01*
X182999954Y-74259141D01*
X183160858Y-74420045D01*
X183160861Y-74420047D01*
X183347266Y-74550568D01*
X183553504Y-74646739D01*
X183773308Y-74705635D01*
X183935230Y-74719801D01*
X183999998Y-74725468D01*
X184000000Y-74725468D01*
X184000002Y-74725468D01*
X184056673Y-74720509D01*
X184226692Y-74705635D01*
X184446496Y-74646739D01*
X184652734Y-74550568D01*
X184839139Y-74420047D01*
X185000047Y-74259139D01*
X185130568Y-74072734D01*
X185226739Y-73866496D01*
X185285635Y-73646692D01*
X185305468Y-73420000D01*
X185285635Y-73193308D01*
X185226739Y-72973504D01*
X185130568Y-72767266D01*
X185000047Y-72580861D01*
X185000045Y-72580858D01*
X184839140Y-72419953D01*
X184653377Y-72289881D01*
X184609752Y-72235304D01*
X184600500Y-72188306D01*
X184600500Y-68355048D01*
X184620185Y-68288009D01*
X184665481Y-68245993D01*
X184823509Y-68160474D01*
X185019744Y-68007738D01*
X185188164Y-67824785D01*
X185324173Y-67616607D01*
X185424063Y-67388881D01*
X185485108Y-67147821D01*
X185496450Y-67010942D01*
X185505643Y-66900005D01*
X185505643Y-66899994D01*
X185485109Y-66652187D01*
X185485108Y-66652183D01*
X185485108Y-66652179D01*
X185484415Y-66649444D01*
X185423992Y-66410839D01*
X185426616Y-66341018D01*
X185456514Y-66292719D01*
X189206297Y-62542937D01*
X189267618Y-62509454D01*
X189337310Y-62514438D01*
X189393243Y-62556310D01*
X189399514Y-62565522D01*
X189432287Y-62618655D01*
X189432288Y-62618656D01*
X189556344Y-62742712D01*
X189705666Y-62834814D01*
X189730407Y-62843012D01*
X189787850Y-62882782D01*
X189814674Y-62947297D01*
X189802360Y-63016073D01*
X189754818Y-63067274D01*
X189727398Y-63079377D01*
X189576236Y-63125232D01*
X189434530Y-63200975D01*
X189434530Y-63200976D01*
X189980000Y-63746446D01*
X189980001Y-63746446D01*
X190525468Y-63200976D01*
X190399899Y-63133857D01*
X190350055Y-63084894D01*
X190334595Y-63016756D01*
X190358427Y-62951077D01*
X190413985Y-62908708D01*
X190458350Y-62900499D01*
X191025008Y-62900499D01*
X191025016Y-62900498D01*
X191025019Y-62900498D01*
X191081302Y-62894748D01*
X191127797Y-62889999D01*
X191294334Y-62834814D01*
X191443656Y-62742712D01*
X191483214Y-62703154D01*
X191544537Y-62669668D01*
X191605491Y-62671757D01*
X191729007Y-62707643D01*
X191765310Y-62710500D01*
X191765318Y-62710500D01*
X192234682Y-62710500D01*
X192234690Y-62710500D01*
X192270993Y-62707643D01*
X192270995Y-62707642D01*
X192270997Y-62707642D01*
X192311975Y-62695736D01*
X192426395Y-62662494D01*
X192565687Y-62580117D01*
X192565692Y-62580112D01*
X192578986Y-62566819D01*
X192640309Y-62533334D01*
X192666667Y-62530500D01*
X192812403Y-62530500D01*
X192879442Y-62550185D01*
X192900084Y-62566819D01*
X193236805Y-62903540D01*
X193270290Y-62964863D01*
X193265306Y-63034555D01*
X193223434Y-63090488D01*
X193185120Y-63109881D01*
X193136046Y-63124767D01*
X193009414Y-63192455D01*
X192953550Y-63222315D01*
X192953548Y-63222316D01*
X192953547Y-63222317D01*
X192793589Y-63353590D01*
X192745853Y-63411757D01*
X192688108Y-63451091D01*
X192618263Y-63452962D01*
X192558495Y-63416774D01*
X192554147Y-63411757D01*
X192506410Y-63353590D01*
X192431368Y-63292005D01*
X192346450Y-63222315D01*
X192163954Y-63124768D01*
X191965934Y-63064700D01*
X191965932Y-63064699D01*
X191965934Y-63064699D01*
X191760000Y-63044417D01*
X191554067Y-63064699D01*
X191417244Y-63106204D01*
X191356050Y-63124767D01*
X191356043Y-63124769D01*
X191293127Y-63158399D01*
X191173550Y-63222315D01*
X191173548Y-63222316D01*
X191173547Y-63222317D01*
X191013589Y-63353589D01*
X190882316Y-63513547D01*
X190847705Y-63578298D01*
X190826029Y-63607523D01*
X190330000Y-64103552D01*
X190330000Y-64053922D01*
X190306148Y-63964905D01*
X190260070Y-63885095D01*
X190194905Y-63819930D01*
X190115095Y-63773852D01*
X190026078Y-63750000D01*
X189933922Y-63750000D01*
X189844905Y-63773852D01*
X189765095Y-63819930D01*
X189699930Y-63885095D01*
X189653852Y-63964905D01*
X189630000Y-64053922D01*
X189630000Y-64103554D01*
X189080976Y-63554530D01*
X189080975Y-63554530D01*
X189005233Y-63696233D01*
X188945191Y-63894165D01*
X188924919Y-64100000D01*
X188945191Y-64305833D01*
X189000908Y-64489504D01*
X189001531Y-64559371D01*
X188964283Y-64618484D01*
X188900989Y-64648075D01*
X188882247Y-64649500D01*
X187894108Y-64649500D01*
X187766812Y-64683608D01*
X187652686Y-64749500D01*
X187652683Y-64749502D01*
X187559502Y-64842683D01*
X187559500Y-64842686D01*
X187493608Y-64956812D01*
X187459500Y-65084108D01*
X187459500Y-73815891D01*
X187493608Y-73943187D01*
X187526554Y-74000250D01*
X187559500Y-74057314D01*
X187652686Y-74150500D01*
X187766814Y-74216392D01*
X187894108Y-74250500D01*
X187991724Y-74250500D01*
X188058763Y-74270185D01*
X188104518Y-74322989D01*
X188114462Y-74392147D01*
X188110385Y-74410495D01*
X188054699Y-74594067D01*
X188034417Y-74800000D01*
X188054699Y-75005932D01*
X188054700Y-75005934D01*
X188114768Y-75203954D01*
X188212315Y-75386450D01*
X188246969Y-75428677D01*
X188343589Y-75546410D01*
X188408890Y-75600000D01*
X188503550Y-75677685D01*
X188686046Y-75775232D01*
X188811846Y-75813392D01*
X188870282Y-75851688D01*
X188898739Y-75915500D01*
X188888179Y-75984567D01*
X188863530Y-76019733D01*
X187436131Y-77447133D01*
X187324326Y-77558937D01*
X187324325Y-77558939D01*
X187288395Y-77621172D01*
X187245268Y-77695870D01*
X187204344Y-77848598D01*
X187204344Y-77848600D01*
X187204344Y-78016701D01*
X187204345Y-78016714D01*
X187204345Y-82053115D01*
X187184660Y-82120154D01*
X187172495Y-82136087D01*
X187112989Y-82202174D01*
X187112984Y-82202181D01*
X187023595Y-82357009D01*
X187023592Y-82357015D01*
X186968349Y-82527037D01*
X186968348Y-82527039D01*
X186949660Y-82704845D01*
X186968348Y-82882650D01*
X186968349Y-82882652D01*
X187023592Y-83052674D01*
X187023595Y-83052680D01*
X187067135Y-83128093D01*
X187083608Y-83195993D01*
X187060755Y-83262020D01*
X187005834Y-83305211D01*
X186985533Y-83311383D01*
X186964838Y-83315782D01*
X186801518Y-83388497D01*
X186656878Y-83493585D01*
X186537250Y-83626446D01*
X186447860Y-83781274D01*
X186447857Y-83781280D01*
X186392614Y-83951302D01*
X186392613Y-83951304D01*
X186373925Y-84129110D01*
X186392613Y-84306915D01*
X186392614Y-84306917D01*
X186447857Y-84476939D01*
X186447860Y-84476945D01*
X186537250Y-84631774D01*
X186547818Y-84643511D01*
X186578048Y-84706503D01*
X186569422Y-84775838D01*
X186543349Y-84814164D01*
X186401055Y-84956458D01*
X186339732Y-84989943D01*
X186270040Y-84984959D01*
X186225693Y-84956458D01*
X185291941Y-84022706D01*
X185258456Y-83961383D01*
X185259847Y-83902931D01*
X185285635Y-83806692D01*
X185305468Y-83580000D01*
X185285635Y-83353308D01*
X185226739Y-83133504D01*
X185130568Y-82927266D01*
X185000047Y-82740861D01*
X185000045Y-82740858D01*
X184839141Y-82579954D01*
X184652734Y-82449432D01*
X184652732Y-82449431D01*
X184446497Y-82353261D01*
X184446488Y-82353258D01*
X184226697Y-82294366D01*
X184226693Y-82294365D01*
X184226692Y-82294365D01*
X184226691Y-82294364D01*
X184226686Y-82294364D01*
X184000002Y-82274532D01*
X183999998Y-82274532D01*
X183773313Y-82294364D01*
X183773302Y-82294366D01*
X183553511Y-82353258D01*
X183553502Y-82353261D01*
X183347267Y-82449431D01*
X183347265Y-82449432D01*
X183160858Y-82579954D01*
X182999954Y-82740858D01*
X182869432Y-82927265D01*
X182869431Y-82927267D01*
X182773261Y-83133502D01*
X182773258Y-83133511D01*
X182714366Y-83353302D01*
X182714364Y-83353312D01*
X182712455Y-83375139D01*
X182687002Y-83440207D01*
X182630411Y-83481185D01*
X182560648Y-83485062D01*
X182501246Y-83452011D01*
X179087590Y-80038355D01*
X179087588Y-80038352D01*
X178968717Y-79919481D01*
X178968709Y-79919475D01*
X178849241Y-79850501D01*
X178849238Y-79850500D01*
X178831785Y-79840423D01*
X178793696Y-79830217D01*
X178679057Y-79799499D01*
X178520943Y-79799499D01*
X178513347Y-79799499D01*
X178513331Y-79799500D01*
X174956116Y-79799500D01*
X174889077Y-79779815D01*
X174843322Y-79727011D01*
X174842560Y-79725311D01*
X174824172Y-79683391D01*
X174688166Y-79475217D01*
X174636689Y-79419298D01*
X174519744Y-79292262D01*
X174323509Y-79139526D01*
X174323507Y-79139525D01*
X174323506Y-79139524D01*
X174104811Y-79021172D01*
X174104802Y-79021169D01*
X173869616Y-78940429D01*
X173624335Y-78899500D01*
X173375665Y-78899500D01*
X173130383Y-78940429D01*
X172895197Y-79021169D01*
X172895188Y-79021172D01*
X172676493Y-79139524D01*
X172480257Y-79292261D01*
X172311833Y-79475217D01*
X172175827Y-79683391D01*
X172157440Y-79725311D01*
X172112483Y-79778796D01*
X172045747Y-79799486D01*
X172043884Y-79799500D01*
X170458729Y-79799500D01*
X170391690Y-79779815D01*
X170375755Y-79767649D01*
X170372233Y-79764477D01*
X170372230Y-79764474D01*
X170227593Y-79659388D01*
X170064267Y-79586671D01*
X170064265Y-79586670D01*
X169936594Y-79559533D01*
X169889391Y-79549500D01*
X169710609Y-79549500D01*
X169679954Y-79556015D01*
X169535733Y-79586670D01*
X169535728Y-79586672D01*
X169372408Y-79659387D01*
X169297386Y-79713895D01*
X169231579Y-79737375D01*
X169163525Y-79721550D01*
X169114830Y-79671444D01*
X169100500Y-79613577D01*
X169100500Y-75599994D01*
X171994859Y-75599994D01*
X171994859Y-75600005D01*
X172015385Y-75847729D01*
X172015387Y-75847738D01*
X172076412Y-76088717D01*
X172176267Y-76316367D01*
X172276562Y-76469881D01*
X172976212Y-75770233D01*
X172987482Y-75812292D01*
X173059890Y-75937708D01*
X173162292Y-76040110D01*
X173287708Y-76112518D01*
X173329766Y-76123787D01*
X172629943Y-76823609D01*
X172676768Y-76860055D01*
X172676771Y-76860057D01*
X172895385Y-76978364D01*
X172895396Y-76978369D01*
X173130506Y-77059083D01*
X173375707Y-77100000D01*
X173624293Y-77100000D01*
X173869493Y-77059083D01*
X174104603Y-76978369D01*
X174104614Y-76978364D01*
X174323230Y-76860056D01*
X174323236Y-76860051D01*
X174370055Y-76823610D01*
X174370056Y-76823609D01*
X173670233Y-76123787D01*
X173712292Y-76112518D01*
X173837708Y-76040110D01*
X173940110Y-75937708D01*
X174012518Y-75812292D01*
X174023787Y-75770234D01*
X174723435Y-76469882D01*
X174823733Y-76316364D01*
X174923587Y-76088717D01*
X174984612Y-75847738D01*
X174984614Y-75847729D01*
X175005141Y-75600005D01*
X175005141Y-75599994D01*
X174984614Y-75352270D01*
X174984612Y-75352261D01*
X174923587Y-75111282D01*
X174823732Y-74883632D01*
X174723435Y-74730116D01*
X174023787Y-75429765D01*
X174012518Y-75387708D01*
X173940110Y-75262292D01*
X173837708Y-75159890D01*
X173712292Y-75087482D01*
X173670233Y-75076212D01*
X174370055Y-74376389D01*
X174370055Y-74376388D01*
X174323236Y-74339947D01*
X174323231Y-74339944D01*
X174104614Y-74221635D01*
X174104603Y-74221630D01*
X173869493Y-74140916D01*
X173624293Y-74100000D01*
X173375707Y-74100000D01*
X173130506Y-74140916D01*
X172895396Y-74221630D01*
X172895385Y-74221635D01*
X172676770Y-74339943D01*
X172629943Y-74376389D01*
X173329766Y-75076212D01*
X173287708Y-75087482D01*
X173162292Y-75159890D01*
X173059890Y-75262292D01*
X172987482Y-75387708D01*
X172976212Y-75429765D01*
X172276563Y-74730117D01*
X172176267Y-74883633D01*
X172176265Y-74883637D01*
X172076412Y-75111282D01*
X172015387Y-75352261D01*
X172015385Y-75352270D01*
X171994859Y-75599994D01*
X169100500Y-75599994D01*
X169100500Y-60544059D01*
X169100501Y-60544046D01*
X169100501Y-60375945D01*
X169100501Y-60375943D01*
X169059577Y-60223215D01*
X169041098Y-60191209D01*
X169027150Y-60167050D01*
X169027149Y-60167049D01*
X168980521Y-60086286D01*
X168980520Y-60086284D01*
X168969249Y-60075013D01*
X194300000Y-60075013D01*
X194300000Y-60350000D01*
X195050000Y-60350000D01*
X195050000Y-59375000D01*
X195049999Y-59374999D01*
X195000029Y-59375000D01*
X195000011Y-59375001D01*
X194897302Y-59385494D01*
X194730880Y-59440641D01*
X194730875Y-59440643D01*
X194581654Y-59532684D01*
X194457684Y-59656654D01*
X194365643Y-59805875D01*
X194365641Y-59805880D01*
X194310494Y-59972302D01*
X194310493Y-59972309D01*
X194300000Y-60075013D01*
X168969249Y-60075013D01*
X168868716Y-59974480D01*
X168868715Y-59974479D01*
X168864385Y-59970149D01*
X168864374Y-59970139D01*
X168706516Y-59812281D01*
X168673031Y-59750958D01*
X168673893Y-59700013D01*
X189275000Y-59700013D01*
X189275000Y-59750000D01*
X190250000Y-59750000D01*
X190750000Y-59750000D01*
X191724999Y-59750000D01*
X191724999Y-59700028D01*
X191724998Y-59700013D01*
X191714505Y-59597302D01*
X191659358Y-59430880D01*
X191659356Y-59430875D01*
X191567315Y-59281654D01*
X191443345Y-59157684D01*
X191294124Y-59065643D01*
X191294119Y-59065641D01*
X191127697Y-59010494D01*
X191127690Y-59010493D01*
X191024986Y-59000000D01*
X190750000Y-59000000D01*
X190750000Y-59750000D01*
X190250000Y-59750000D01*
X190250000Y-59000000D01*
X189975029Y-59000000D01*
X189975012Y-59000001D01*
X189872302Y-59010494D01*
X189705880Y-59065641D01*
X189705875Y-59065643D01*
X189556654Y-59157684D01*
X189432684Y-59281654D01*
X189340643Y-59430875D01*
X189340641Y-59430880D01*
X189285494Y-59597302D01*
X189285493Y-59597309D01*
X189275000Y-59700013D01*
X168673893Y-59700013D01*
X168673992Y-59694159D01*
X168674061Y-59693884D01*
X168674063Y-59693881D01*
X168735108Y-59452821D01*
X168736117Y-59440643D01*
X168755643Y-59205005D01*
X168755643Y-59204994D01*
X168735109Y-58957187D01*
X168735107Y-58957175D01*
X168707966Y-58849999D01*
X195441209Y-58849999D01*
X195441210Y-58850000D01*
X195970000Y-58850000D01*
X195970000Y-58295494D01*
X195969998Y-58295493D01*
X195823809Y-58337965D01*
X195823806Y-58337967D01*
X195684625Y-58420278D01*
X195684616Y-58420285D01*
X195570285Y-58534616D01*
X195570278Y-58534625D01*
X195487968Y-58673804D01*
X195487966Y-58673809D01*
X195442855Y-58829081D01*
X195442854Y-58829087D01*
X195441209Y-58849999D01*
X168707966Y-58849999D01*
X168674063Y-58716118D01*
X168574173Y-58488393D01*
X168438166Y-58280217D01*
X168410355Y-58250006D01*
X168269744Y-58097262D01*
X168073509Y-57944526D01*
X168073507Y-57944525D01*
X168073506Y-57944524D01*
X167854811Y-57826172D01*
X167854802Y-57826169D01*
X167619616Y-57745429D01*
X167374335Y-57704500D01*
X167125665Y-57704500D01*
X166880383Y-57745429D01*
X166645197Y-57826169D01*
X166645188Y-57826172D01*
X166426493Y-57944524D01*
X166230257Y-58097261D01*
X166061833Y-58280217D01*
X165925827Y-58488391D01*
X165907440Y-58530311D01*
X165862483Y-58583796D01*
X165795747Y-58604486D01*
X165793884Y-58604500D01*
X165264883Y-58604500D01*
X165197844Y-58584815D01*
X165152089Y-58532011D01*
X165142145Y-58462853D01*
X165161074Y-58412679D01*
X165241889Y-58288981D01*
X165289173Y-58216607D01*
X165389063Y-57988881D01*
X165450108Y-57747821D01*
X165458034Y-57652170D01*
X165470643Y-57500005D01*
X165470643Y-57499994D01*
X165450109Y-57252187D01*
X165450107Y-57252175D01*
X165389063Y-57011118D01*
X165289173Y-56783393D01*
X165153166Y-56575217D01*
X165075392Y-56490732D01*
X164984744Y-56392262D01*
X164788509Y-56239526D01*
X164788507Y-56239525D01*
X164788506Y-56239524D01*
X164569811Y-56121172D01*
X164569802Y-56121169D01*
X164334616Y-56040429D01*
X164089335Y-55999500D01*
X163840665Y-55999500D01*
X163595383Y-56040429D01*
X163360197Y-56121169D01*
X163360188Y-56121172D01*
X163141493Y-56239524D01*
X162973501Y-56370278D01*
X162945256Y-56392262D01*
X162944920Y-56392627D01*
X162776833Y-56575217D01*
X162640826Y-56783393D01*
X162540936Y-57011118D01*
X162479892Y-57252175D01*
X162479890Y-57252187D01*
X162459357Y-57499994D01*
X162459357Y-57500005D01*
X162479890Y-57747812D01*
X162479892Y-57747824D01*
X162540936Y-57988881D01*
X162640826Y-58216606D01*
X162768926Y-58412679D01*
X162789114Y-58479568D01*
X162769933Y-58546754D01*
X162717474Y-58592904D01*
X162665117Y-58604500D01*
X160870097Y-58604500D01*
X160803058Y-58584815D01*
X160782416Y-58568181D01*
X160321516Y-58107281D01*
X160288031Y-58045958D01*
X160288992Y-57989159D01*
X160289061Y-57988884D01*
X160289063Y-57988881D01*
X160350108Y-57747821D01*
X160358034Y-57652170D01*
X160370643Y-57500005D01*
X160370643Y-57499994D01*
X160350109Y-57252187D01*
X160350107Y-57252175D01*
X160289063Y-57011118D01*
X160189173Y-56783393D01*
X160053166Y-56575217D01*
X159975392Y-56490732D01*
X159884744Y-56392262D01*
X159688509Y-56239526D01*
X159688507Y-56239525D01*
X159688506Y-56239524D01*
X159469811Y-56121172D01*
X159469802Y-56121169D01*
X159234616Y-56040429D01*
X158989335Y-55999500D01*
X158740665Y-55999500D01*
X158495383Y-56040429D01*
X158260197Y-56121169D01*
X158260188Y-56121172D01*
X158041493Y-56239524D01*
X157873501Y-56370278D01*
X157845256Y-56392262D01*
X157844920Y-56392627D01*
X157676833Y-56575217D01*
X157540826Y-56783393D01*
X157440936Y-57011118D01*
X157379892Y-57252175D01*
X157379890Y-57252187D01*
X157359357Y-57499994D01*
X157359357Y-57500005D01*
X157379890Y-57747812D01*
X157379892Y-57747824D01*
X157440936Y-57988881D01*
X157540826Y-58216606D01*
X157676833Y-58424782D01*
X157709245Y-58459991D01*
X157845256Y-58607738D01*
X158041491Y-58760474D01*
X158041493Y-58760475D01*
X158250540Y-58873606D01*
X158260190Y-58878828D01*
X158495386Y-58959571D01*
X158740665Y-59000500D01*
X158989335Y-59000500D01*
X159234608Y-58959572D01*
X159234607Y-58959572D01*
X159234614Y-58959571D01*
X159340607Y-58923182D01*
X159410402Y-58920033D01*
X159468548Y-58952783D01*
X160085139Y-59569374D01*
X160085149Y-59569385D01*
X160089479Y-59573715D01*
X160089480Y-59573716D01*
X160201284Y-59685520D01*
X160272177Y-59726449D01*
X160288095Y-59735639D01*
X160288097Y-59735641D01*
X160326151Y-59757611D01*
X160338215Y-59764577D01*
X160490943Y-59805500D01*
X160649057Y-59805500D01*
X165793884Y-59805500D01*
X165860923Y-59825185D01*
X165906678Y-59877989D01*
X165907440Y-59879689D01*
X165925827Y-59921608D01*
X166061833Y-60129782D01*
X166061836Y-60129785D01*
X166230256Y-60312738D01*
X166426491Y-60465474D01*
X166645190Y-60583828D01*
X166880386Y-60664571D01*
X167125665Y-60705500D01*
X167374335Y-60705500D01*
X167407295Y-60700000D01*
X167619614Y-60664571D01*
X167725607Y-60628182D01*
X167795402Y-60625033D01*
X167853548Y-60657783D01*
X167863181Y-60667416D01*
X167896666Y-60728739D01*
X167899500Y-60755097D01*
X167899500Y-65712840D01*
X167879815Y-65779879D01*
X167827011Y-65825634D01*
X167757853Y-65835578D01*
X167735238Y-65830122D01*
X167619613Y-65790428D01*
X167374335Y-65749500D01*
X167125665Y-65749500D01*
X166880383Y-65790429D01*
X166645197Y-65871169D01*
X166645188Y-65871172D01*
X166426493Y-65989524D01*
X166230257Y-66142261D01*
X166061833Y-66325217D01*
X165925827Y-66533391D01*
X165907440Y-66575311D01*
X165862483Y-66628796D01*
X165795747Y-66649486D01*
X165793884Y-66649500D01*
X165132331Y-66649500D01*
X165065292Y-66629815D01*
X165019537Y-66577011D01*
X165009593Y-66507853D01*
X165038618Y-66444297D01*
X165041072Y-66441548D01*
X165153164Y-66319785D01*
X165289173Y-66111607D01*
X165389063Y-65883881D01*
X165450108Y-65642821D01*
X165460188Y-65521172D01*
X165470643Y-65395005D01*
X165470643Y-65394994D01*
X165450109Y-65147187D01*
X165450107Y-65147175D01*
X165389063Y-64906118D01*
X165289173Y-64678393D01*
X165153166Y-64470217D01*
X165112597Y-64426148D01*
X164984744Y-64287262D01*
X164788509Y-64134526D01*
X164788507Y-64134525D01*
X164788506Y-64134524D01*
X164569811Y-64016172D01*
X164569802Y-64016169D01*
X164334616Y-63935429D01*
X164089335Y-63894500D01*
X163840665Y-63894500D01*
X163595383Y-63935429D01*
X163360197Y-64016169D01*
X163360188Y-64016172D01*
X163141493Y-64134524D01*
X163034761Y-64217597D01*
X162945256Y-64287262D01*
X162944920Y-64287627D01*
X162776833Y-64470217D01*
X162640826Y-64678393D01*
X162540936Y-64906118D01*
X162479892Y-65147175D01*
X162479890Y-65147187D01*
X162459357Y-65394994D01*
X162459357Y-65395005D01*
X162479890Y-65642812D01*
X162479892Y-65642824D01*
X162540936Y-65883881D01*
X162640826Y-66111606D01*
X162776833Y-66319782D01*
X162796382Y-66341018D01*
X162888900Y-66441519D01*
X162919821Y-66504171D01*
X162911961Y-66573597D01*
X162867814Y-66627753D01*
X162801397Y-66649444D01*
X162797669Y-66649500D01*
X161020097Y-66649500D01*
X160953058Y-66629815D01*
X160932416Y-66613181D01*
X160321516Y-66002281D01*
X160288031Y-65940958D01*
X160288992Y-65884159D01*
X160289061Y-65883884D01*
X160289063Y-65883881D01*
X160350108Y-65642821D01*
X160360188Y-65521172D01*
X160370643Y-65395005D01*
X160370643Y-65394994D01*
X160350109Y-65147187D01*
X160350107Y-65147175D01*
X160289063Y-64906118D01*
X160189173Y-64678393D01*
X160053166Y-64470217D01*
X160012597Y-64426148D01*
X159884744Y-64287262D01*
X159688509Y-64134526D01*
X159688507Y-64134525D01*
X159688506Y-64134524D01*
X159469811Y-64016172D01*
X159469802Y-64016169D01*
X159234616Y-63935429D01*
X158989335Y-63894500D01*
X158740665Y-63894500D01*
X158495383Y-63935429D01*
X158260197Y-64016169D01*
X158260188Y-64016172D01*
X158041493Y-64134524D01*
X157934761Y-64217597D01*
X157845256Y-64287262D01*
X157844920Y-64287627D01*
X157676833Y-64470217D01*
X157540826Y-64678393D01*
X157440936Y-64906118D01*
X157379892Y-65147175D01*
X157379890Y-65147187D01*
X157359357Y-65394994D01*
X157359357Y-65395005D01*
X157379890Y-65642812D01*
X157379892Y-65642824D01*
X157440936Y-65883881D01*
X157540826Y-66111606D01*
X157676833Y-66319782D01*
X157696382Y-66341018D01*
X157845256Y-66502738D01*
X158041491Y-66655474D01*
X158260190Y-66773828D01*
X158495386Y-66854571D01*
X158740665Y-66895500D01*
X158989335Y-66895500D01*
X159234608Y-66854572D01*
X159234607Y-66854572D01*
X159234614Y-66854571D01*
X159340607Y-66818182D01*
X159410402Y-66815033D01*
X159468548Y-66847783D01*
X160235139Y-67614374D01*
X160235149Y-67614385D01*
X160239479Y-67618715D01*
X160239480Y-67618716D01*
X160351284Y-67730520D01*
X160438095Y-67780639D01*
X160438097Y-67780641D01*
X160476151Y-67802611D01*
X160488215Y-67809577D01*
X160640943Y-67850500D01*
X165793884Y-67850500D01*
X165860923Y-67870185D01*
X165906678Y-67922989D01*
X165907440Y-67924689D01*
X165925827Y-67966608D01*
X166061833Y-68174782D01*
X166061836Y-68174785D01*
X166230256Y-68357738D01*
X166372517Y-68468464D01*
X166426494Y-68510476D01*
X166426496Y-68510477D01*
X166492609Y-68546255D01*
X166584517Y-68595993D01*
X166634108Y-68645212D01*
X166649500Y-68705048D01*
X166649500Y-79478198D01*
X166629815Y-79545237D01*
X166577011Y-79590992D01*
X166507853Y-79600936D01*
X166475070Y-79591480D01*
X166464268Y-79586671D01*
X166464265Y-79586670D01*
X166336594Y-79559533D01*
X166289391Y-79549500D01*
X166110609Y-79549500D01*
X166079954Y-79556015D01*
X165935733Y-79586670D01*
X165935728Y-79586672D01*
X165772408Y-79659387D01*
X165627772Y-79764472D01*
X165624245Y-79767649D01*
X165561253Y-79797879D01*
X165541271Y-79799500D01*
X162956116Y-79799500D01*
X162889077Y-79779815D01*
X162843322Y-79727011D01*
X162842560Y-79725311D01*
X162824172Y-79683391D01*
X162688166Y-79475217D01*
X162636689Y-79419298D01*
X162519744Y-79292262D01*
X162323509Y-79139526D01*
X162323507Y-79139525D01*
X162323506Y-79139524D01*
X162104811Y-79021172D01*
X162104802Y-79021169D01*
X161869616Y-78940429D01*
X161624335Y-78899500D01*
X161375665Y-78899500D01*
X161130383Y-78940429D01*
X160895197Y-79021169D01*
X160895188Y-79021172D01*
X160676493Y-79139524D01*
X160480257Y-79292261D01*
X160311833Y-79475217D01*
X160175826Y-79683393D01*
X160075936Y-79911118D01*
X160014892Y-80152175D01*
X160014890Y-80152187D01*
X159994357Y-80399994D01*
X159994357Y-80400005D01*
X160014890Y-80647812D01*
X160014892Y-80647824D01*
X160075936Y-80888881D01*
X160175826Y-81116606D01*
X160311833Y-81324782D01*
X160311836Y-81324785D01*
X160480256Y-81507738D01*
X160676491Y-81660474D01*
X160895190Y-81778828D01*
X161130386Y-81859571D01*
X161375665Y-81900500D01*
X161624335Y-81900500D01*
X161869614Y-81859571D01*
X162104810Y-81778828D01*
X162323509Y-81660474D01*
X162519744Y-81507738D01*
X162688164Y-81324785D01*
X162824173Y-81116607D01*
X162842560Y-81074689D01*
X162887517Y-81021204D01*
X162954253Y-81000514D01*
X162956116Y-81000500D01*
X165541271Y-81000500D01*
X165608310Y-81020185D01*
X165624245Y-81032351D01*
X165627766Y-81035521D01*
X165627770Y-81035526D01*
X165772407Y-81140612D01*
X165935733Y-81213329D01*
X166110609Y-81250500D01*
X166110610Y-81250500D01*
X166289389Y-81250500D01*
X166289391Y-81250500D01*
X166464267Y-81213329D01*
X166475064Y-81208522D01*
X166544314Y-81199237D01*
X166607591Y-81228865D01*
X166644804Y-81288000D01*
X166649500Y-81321801D01*
X166649500Y-81863330D01*
X166649499Y-81863348D01*
X166649499Y-82029054D01*
X166649498Y-82029054D01*
X166690424Y-82181789D01*
X166690425Y-82181790D01*
X166709351Y-82214570D01*
X166709352Y-82214571D01*
X166769477Y-82318712D01*
X166769481Y-82318717D01*
X166888349Y-82437585D01*
X166888355Y-82437590D01*
X173495481Y-89044716D01*
X173528966Y-89106039D01*
X173523982Y-89175731D01*
X173482110Y-89231664D01*
X173416646Y-89256081D01*
X173407800Y-89256397D01*
X163036994Y-89256397D01*
X162969955Y-89236712D01*
X162949313Y-89220078D01*
X155091516Y-81362281D01*
X155058031Y-81300958D01*
X155058992Y-81244159D01*
X155059061Y-81243884D01*
X155059063Y-81243881D01*
X155120108Y-81002821D01*
X155120299Y-81000514D01*
X155140643Y-80755005D01*
X155140643Y-80754994D01*
X155120109Y-80507187D01*
X155120107Y-80507175D01*
X155059063Y-80266118D01*
X154959173Y-80038393D01*
X154823166Y-79830217D01*
X154793397Y-79797879D01*
X154654744Y-79647262D01*
X154458509Y-79494526D01*
X154458507Y-79494525D01*
X154458506Y-79494524D01*
X154239811Y-79376172D01*
X154239802Y-79376169D01*
X154004616Y-79295429D01*
X153759335Y-79254500D01*
X153510665Y-79254500D01*
X153265383Y-79295429D01*
X153030197Y-79376169D01*
X153030188Y-79376172D01*
X152811493Y-79494524D01*
X152615257Y-79647261D01*
X152446833Y-79830217D01*
X152310827Y-80038391D01*
X152292440Y-80080311D01*
X152247483Y-80133796D01*
X152180747Y-80154486D01*
X152178884Y-80154500D01*
X151609388Y-80154500D01*
X151542349Y-80134815D01*
X151496594Y-80082011D01*
X151486650Y-80012853D01*
X151515675Y-79949297D01*
X151518158Y-79946517D01*
X151538164Y-79924785D01*
X151674173Y-79716607D01*
X151774063Y-79488881D01*
X151835108Y-79247821D01*
X151843244Y-79149632D01*
X151855643Y-79000005D01*
X151855643Y-78999994D01*
X151835109Y-78752187D01*
X151835107Y-78752175D01*
X151774063Y-78511118D01*
X151674173Y-78283393D01*
X151538166Y-78075217D01*
X151515800Y-78050921D01*
X151369744Y-77892262D01*
X151173509Y-77739526D01*
X151173507Y-77739525D01*
X151173506Y-77739524D01*
X150954811Y-77621172D01*
X150954802Y-77621169D01*
X150719616Y-77540429D01*
X150474335Y-77499500D01*
X150225665Y-77499500D01*
X149980383Y-77540429D01*
X149745197Y-77621169D01*
X149745188Y-77621172D01*
X149526493Y-77739524D01*
X149472054Y-77781896D01*
X149330256Y-77892262D01*
X149329920Y-77892627D01*
X149161833Y-78075217D01*
X149025826Y-78283393D01*
X148925936Y-78511118D01*
X148864892Y-78752175D01*
X148864890Y-78752187D01*
X148844357Y-78999994D01*
X148844357Y-79000005D01*
X148864890Y-79247812D01*
X148864892Y-79247824D01*
X148925936Y-79488881D01*
X149025826Y-79716606D01*
X149161833Y-79924782D01*
X149181842Y-79946517D01*
X149212764Y-80009172D01*
X149204904Y-80078598D01*
X149160757Y-80132753D01*
X149094339Y-80154444D01*
X149090612Y-80154500D01*
X147305098Y-80154500D01*
X147238059Y-80134815D01*
X147217417Y-80118181D01*
X146974397Y-79875161D01*
X146706515Y-79607280D01*
X146673031Y-79545958D01*
X146673992Y-79489159D01*
X146674061Y-79488884D01*
X146674063Y-79488881D01*
X146735108Y-79247821D01*
X146743244Y-79149632D01*
X146755643Y-79000005D01*
X146755643Y-78999994D01*
X146735109Y-78752187D01*
X146735107Y-78752175D01*
X146674063Y-78511118D01*
X146574173Y-78283393D01*
X146438166Y-78075217D01*
X146415800Y-78050921D01*
X146269744Y-77892262D01*
X146073509Y-77739526D01*
X146073507Y-77739525D01*
X146073506Y-77739524D01*
X145854811Y-77621172D01*
X145854802Y-77621169D01*
X145619616Y-77540429D01*
X145374335Y-77499500D01*
X145125665Y-77499500D01*
X144880383Y-77540429D01*
X144645197Y-77621169D01*
X144645188Y-77621172D01*
X144426493Y-77739524D01*
X144372054Y-77781896D01*
X144230256Y-77892262D01*
X144229920Y-77892627D01*
X144061833Y-78075217D01*
X143925826Y-78283393D01*
X143825936Y-78511118D01*
X143764892Y-78752175D01*
X143764890Y-78752187D01*
X143744357Y-78999994D01*
X140700000Y-78999994D01*
X140700000Y-78927591D01*
X140662518Y-78787708D01*
X140640748Y-78750000D01*
X141650000Y-78750000D01*
X141650000Y-77952172D01*
X141649999Y-77952155D01*
X141643598Y-77892627D01*
X141643596Y-77892620D01*
X141593354Y-77757913D01*
X141593350Y-77757906D01*
X141507190Y-77642812D01*
X141507187Y-77642809D01*
X141392093Y-77556649D01*
X141392086Y-77556645D01*
X141257379Y-77506403D01*
X141257372Y-77506401D01*
X141197844Y-77500000D01*
X140400000Y-77500000D01*
X140400000Y-78509252D01*
X140362292Y-78487482D01*
X140222409Y-78450000D01*
X140077591Y-78450000D01*
X139937708Y-78487482D01*
X139900000Y-78509252D01*
X139900000Y-77500000D01*
X139102155Y-77500000D01*
X139042627Y-77506401D01*
X139042620Y-77506403D01*
X138907913Y-77556645D01*
X138907906Y-77556649D01*
X138792812Y-77642809D01*
X138723766Y-77735042D01*
X138667832Y-77776912D01*
X138598140Y-77781896D01*
X138536817Y-77748410D01*
X138503333Y-77687086D01*
X138500500Y-77660730D01*
X138500500Y-75599994D01*
X159994859Y-75599994D01*
X159994859Y-75600005D01*
X160015385Y-75847729D01*
X160015387Y-75847738D01*
X160076412Y-76088717D01*
X160176267Y-76316367D01*
X160276562Y-76469881D01*
X160976212Y-75770233D01*
X160987482Y-75812292D01*
X161059890Y-75937708D01*
X161162292Y-76040110D01*
X161287708Y-76112518D01*
X161329766Y-76123787D01*
X160629943Y-76823609D01*
X160676768Y-76860055D01*
X160676771Y-76860057D01*
X160895385Y-76978364D01*
X160895396Y-76978369D01*
X161130506Y-77059083D01*
X161375707Y-77100000D01*
X161624293Y-77100000D01*
X161869493Y-77059083D01*
X162104603Y-76978369D01*
X162104614Y-76978364D01*
X162323230Y-76860056D01*
X162323236Y-76860051D01*
X162370055Y-76823610D01*
X162370056Y-76823609D01*
X161670233Y-76123787D01*
X161712292Y-76112518D01*
X161837708Y-76040110D01*
X161940110Y-75937708D01*
X162012518Y-75812292D01*
X162023787Y-75770234D01*
X162723435Y-76469882D01*
X162823733Y-76316364D01*
X162923587Y-76088717D01*
X162984612Y-75847738D01*
X162984614Y-75847729D01*
X163005141Y-75600005D01*
X163005141Y-75599994D01*
X162984614Y-75352270D01*
X162984612Y-75352261D01*
X162923587Y-75111282D01*
X162823732Y-74883632D01*
X162723435Y-74730116D01*
X162023787Y-75429765D01*
X162012518Y-75387708D01*
X161940110Y-75262292D01*
X161837708Y-75159890D01*
X161712292Y-75087482D01*
X161670233Y-75076212D01*
X162370055Y-74376389D01*
X162370055Y-74376388D01*
X162323236Y-74339947D01*
X162323231Y-74339944D01*
X162104614Y-74221635D01*
X162104603Y-74221630D01*
X161869493Y-74140916D01*
X161624293Y-74100000D01*
X161375707Y-74100000D01*
X161130506Y-74140916D01*
X160895396Y-74221630D01*
X160895385Y-74221635D01*
X160676770Y-74339943D01*
X160629943Y-74376389D01*
X161329766Y-75076212D01*
X161287708Y-75087482D01*
X161162292Y-75159890D01*
X161059890Y-75262292D01*
X160987482Y-75387708D01*
X160976212Y-75429766D01*
X160276563Y-74730117D01*
X160176267Y-74883633D01*
X160176265Y-74883637D01*
X160076412Y-75111282D01*
X160015387Y-75352261D01*
X160015385Y-75352270D01*
X159994859Y-75599994D01*
X138500500Y-75599994D01*
X138500500Y-64347155D01*
X152265000Y-64347155D01*
X152265000Y-65145000D01*
X153274252Y-65145000D01*
X153252482Y-65182708D01*
X153215000Y-65322591D01*
X153215000Y-65467409D01*
X153252482Y-65607292D01*
X153274252Y-65645000D01*
X152265000Y-65645000D01*
X152265000Y-66442844D01*
X152271401Y-66502372D01*
X152271403Y-66502379D01*
X152321645Y-66637086D01*
X152321649Y-66637093D01*
X152407809Y-66752187D01*
X152407812Y-66752190D01*
X152522906Y-66838350D01*
X152522913Y-66838354D01*
X152657620Y-66888596D01*
X152657627Y-66888598D01*
X152717155Y-66894999D01*
X152717172Y-66895000D01*
X153515000Y-66895000D01*
X153515000Y-65885747D01*
X153552708Y-65907518D01*
X153692591Y-65945000D01*
X153837409Y-65945000D01*
X153977292Y-65907518D01*
X154015000Y-65885747D01*
X154015000Y-66895000D01*
X154812828Y-66895000D01*
X154812844Y-66894999D01*
X154872372Y-66888598D01*
X154872379Y-66888596D01*
X155007086Y-66838354D01*
X155007093Y-66838350D01*
X155122187Y-66752190D01*
X155122190Y-66752187D01*
X155208350Y-66637093D01*
X155208354Y-66637086D01*
X155258596Y-66502379D01*
X155258598Y-66502372D01*
X155264999Y-66442844D01*
X155265000Y-66442827D01*
X155265000Y-65645000D01*
X154255748Y-65645000D01*
X154277518Y-65607292D01*
X154315000Y-65467409D01*
X154315000Y-65322591D01*
X154277518Y-65182708D01*
X154255748Y-65145000D01*
X155265000Y-65145000D01*
X155265000Y-64347172D01*
X155264999Y-64347155D01*
X155258598Y-64287627D01*
X155258596Y-64287620D01*
X155208354Y-64152913D01*
X155208350Y-64152906D01*
X155122190Y-64037812D01*
X155122187Y-64037809D01*
X155007093Y-63951649D01*
X155007086Y-63951645D01*
X154872379Y-63901403D01*
X154872372Y-63901401D01*
X154812844Y-63895000D01*
X154015000Y-63895000D01*
X154015000Y-64904252D01*
X153977292Y-64882482D01*
X153837409Y-64845000D01*
X153692591Y-64845000D01*
X153552708Y-64882482D01*
X153515000Y-64904252D01*
X153515000Y-63895000D01*
X152717155Y-63895000D01*
X152657627Y-63901401D01*
X152657620Y-63901403D01*
X152522913Y-63951645D01*
X152522906Y-63951649D01*
X152407812Y-64037809D01*
X152407809Y-64037812D01*
X152321649Y-64152906D01*
X152321645Y-64152913D01*
X152271403Y-64287620D01*
X152271401Y-64287627D01*
X152265000Y-64347155D01*
X138500500Y-64347155D01*
X138500500Y-56452155D01*
X152265000Y-56452155D01*
X152265000Y-57250000D01*
X153274252Y-57250000D01*
X153252482Y-57287708D01*
X153215000Y-57427591D01*
X153215000Y-57572409D01*
X153252482Y-57712292D01*
X153274252Y-57750000D01*
X152265000Y-57750000D01*
X152265000Y-58547844D01*
X152271401Y-58607372D01*
X152271403Y-58607379D01*
X152321645Y-58742086D01*
X152321649Y-58742093D01*
X152407809Y-58857187D01*
X152407812Y-58857190D01*
X152522906Y-58943350D01*
X152522913Y-58943354D01*
X152657620Y-58993596D01*
X152657627Y-58993598D01*
X152717155Y-58999999D01*
X152717172Y-59000000D01*
X153515000Y-59000000D01*
X153515000Y-57990747D01*
X153552708Y-58012518D01*
X153692591Y-58050000D01*
X153837409Y-58050000D01*
X153977292Y-58012518D01*
X154015000Y-57990747D01*
X154015000Y-59000000D01*
X154812828Y-59000000D01*
X154812844Y-58999999D01*
X154872372Y-58993598D01*
X154872379Y-58993596D01*
X155007086Y-58943354D01*
X155007093Y-58943350D01*
X155122187Y-58857190D01*
X155122190Y-58857187D01*
X155208350Y-58742093D01*
X155208354Y-58742086D01*
X155258596Y-58607379D01*
X155258598Y-58607372D01*
X155264999Y-58547844D01*
X155265000Y-58547827D01*
X155265000Y-57750000D01*
X154255748Y-57750000D01*
X154277518Y-57712292D01*
X154315000Y-57572409D01*
X154315000Y-57427591D01*
X154277518Y-57287708D01*
X154255748Y-57250000D01*
X155265000Y-57250000D01*
X155265000Y-56452172D01*
X155264999Y-56452155D01*
X155258598Y-56392627D01*
X155258596Y-56392620D01*
X155208354Y-56257913D01*
X155208350Y-56257906D01*
X155122190Y-56142812D01*
X155122187Y-56142809D01*
X155007093Y-56056649D01*
X155007086Y-56056645D01*
X154872379Y-56006403D01*
X154872372Y-56006401D01*
X154812844Y-56000000D01*
X154015000Y-56000000D01*
X154015000Y-57009252D01*
X153977292Y-56987482D01*
X153837409Y-56950000D01*
X153692591Y-56950000D01*
X153552708Y-56987482D01*
X153515000Y-57009252D01*
X153515000Y-56000000D01*
X152717155Y-56000000D01*
X152657627Y-56006401D01*
X152657620Y-56006403D01*
X152522913Y-56056645D01*
X152522906Y-56056649D01*
X152407812Y-56142809D01*
X152407809Y-56142812D01*
X152321649Y-56257906D01*
X152321645Y-56257913D01*
X152271403Y-56392620D01*
X152271401Y-56392627D01*
X152265000Y-56452155D01*
X138500500Y-56452155D01*
X138500500Y-51624500D01*
X138520185Y-51557461D01*
X138572989Y-51511706D01*
X138624500Y-51500500D01*
X215875500Y-51500500D01*
X215942539Y-51520185D01*
G37*
G04 #@! TD.AperFunction*
M02*
