G04 #@! TF.GenerationSoftware,KiCad,Pcbnew,8.0.7*
G04 #@! TF.CreationDate,2025-01-18T00:35:04-05:00*
G04 #@! TF.ProjectId,Mouse,4d6f7573-652e-46b6-9963-61645f706362,rev?*
G04 #@! TF.SameCoordinates,Original*
G04 #@! TF.FileFunction,Legend,Bot*
G04 #@! TF.FilePolarity,Positive*
%FSLAX46Y46*%
G04 Gerber Fmt 4.6, Leading zero omitted, Abs format (unit mm)*
G04 Created by KiCad (PCBNEW 8.0.7) date 2025-01-18 00:35:04*
%MOMM*%
%LPD*%
G01*
G04 APERTURE LIST*
%ADD10C,0.508000*%
%ADD11C,1.700000*%
%ADD12R,1.100000X1.100000*%
%ADD13C,1.100000*%
%ADD14C,2.000000*%
%ADD15R,2.000000X2.000000*%
%ADD16C,1.400000*%
%ADD17O,1.400000X1.400000*%
%ADD18C,1.600000*%
%ADD19O,1.600000X1.600000*%
%ADD20R,1.800000X1.800000*%
%ADD21C,1.800000*%
G04 APERTURE END LIST*
D10*
X211023901Y-96579300D02*
G75*
G02*
X210261901Y-96579300I-381000J0D01*
G01*
X210261901Y-96579300D02*
G75*
G02*
X211023901Y-96579300I381000J0D01*
G01*
%LPC*%
D11*
X175250000Y-112250000D03*
X172750000Y-112250000D03*
X170250000Y-112250000D03*
D12*
X202440000Y-64100000D03*
D13*
X200660000Y-64100000D03*
X198880000Y-64100000D03*
X197100000Y-64100000D03*
X195320000Y-64100000D03*
X193540000Y-64100000D03*
X191760000Y-64100000D03*
X189980000Y-64100000D03*
X189090000Y-74800000D03*
X190870000Y-74800000D03*
X192650000Y-74800000D03*
X194430000Y-74800000D03*
X196210000Y-74800000D03*
X197990000Y-74800000D03*
X199770000Y-74800000D03*
X201550000Y-74800000D03*
D14*
X161500000Y-75600000D03*
X173500000Y-75600000D03*
X161500000Y-80400000D03*
X173500000Y-80400000D03*
X206750000Y-93300000D03*
X206750000Y-89250000D03*
D15*
X143250000Y-86850000D03*
D14*
X148350000Y-86850000D03*
X153450000Y-86850000D03*
D15*
X140150000Y-79000000D03*
D14*
X145250000Y-79000000D03*
X150350000Y-79000000D03*
D15*
X153765000Y-65395000D03*
D14*
X158865000Y-65395000D03*
X163965000Y-65395000D03*
X163965000Y-57500000D03*
X158865000Y-57500000D03*
D15*
X153765000Y-57500000D03*
D14*
X200500000Y-54000000D03*
X156735000Y-88755000D03*
X153635000Y-80755000D03*
X175250000Y-108500000D03*
X167250000Y-67250000D03*
X167250000Y-59205000D03*
X172250000Y-108500000D03*
X191250000Y-78000000D03*
X184000000Y-66900000D03*
X197100000Y-54031000D03*
X194500000Y-78000000D03*
X197750000Y-78000000D03*
X206750000Y-97250000D03*
D16*
X207500000Y-68690000D03*
D17*
X207500000Y-76310000D03*
D16*
X163500000Y-107810000D03*
D17*
X163500000Y-100190000D03*
D16*
X161250000Y-107810000D03*
D17*
X161250000Y-100190000D03*
D18*
X158500000Y-110330000D03*
D19*
X158500000Y-100170000D03*
D18*
X184000000Y-73420000D03*
D19*
X184000000Y-83580000D03*
D18*
X180590000Y-105725000D03*
D19*
X190750000Y-105725000D03*
D18*
X185420000Y-99500000D03*
D19*
X195580000Y-99500000D03*
D16*
X195940000Y-92250000D03*
D17*
X203560000Y-92250000D03*
D16*
X203560000Y-89750000D03*
D17*
X195940000Y-89750000D03*
D20*
X158510000Y-95750000D03*
D21*
X160669000Y-95750000D03*
X162828000Y-95750000D03*
X164987000Y-95750000D03*
D20*
X180750000Y-102000000D03*
D21*
X180750000Y-99460000D03*
%LPD*%
M02*
